<?xml version="1.0" encoding="iso-8859-1"?>
<!-- Generator: Adobe Illustrator 19.0.0, SVG Export Plug-In . SVG Version: 6.00 Build 0)  -->
<svg version="1.1" id="Capa_1" xmlns="http://www.w3.org/2000/svg" xmlns:xlink="http://www.w3.org/1999/xlink" x="0px" y="0px"
	 viewBox="0 0 512 512" style="enable-background:new 0 0 512 512;" xml:space="preserve">
<rect style="fill:#57555C;" width="30" height="512"/>
<path style="fill:#FFE470;" d="M259.009,102H153.542L0.384,512h143.637l22.493-74.393h79.05L268.595,512h142.992L259.009,102z
	 M205.935,282.955l14.588,55.072H190.65L205.935,282.955z"/>
<polygon style="fill:#FFB64C;" points="259.009,102 205.985,102 205.985,283.147 220.522,338.027 205.985,338.027 205.985,437.607 
	245.563,437.607 268.595,512 411.587,512 "/>
<g>
	<path style="fill:#FFA721;" d="M259.009,102H153.542L0.384,512h143.637l22.493-74.393h79.05L268.595,512h142.992L259.009,102z
		 M267.681,407.607H144.242L121.749,482H43.616L174.36,132h63.803l130.25,350h-77.701L267.681,407.607z"/>
	<path style="fill:#FFA721;" d="M151.188,368.027h108.314L206.61,168.344L151.188,368.027z M190.649,338.027l15.285-55.072
		l14.588,55.072H190.649z"/>
</g>
<g>
	<rect x="248.55" y="102" style="fill:#3A3A41;" width="263.45" height="30"/>
	<rect x="389.84" y="482" style="fill:#3A3A41;" width="122.16" height="30"/>
</g>
<rect x="442" y="194" style="fill:#00AADF;" width="30" height="226"/>
<g>
	<polygon style="fill:#007A9F;" points="457,162 427,202 487,202 	"/>
	<polygon style="fill:#007A9F;" points="457,452 487,412 427,412 	"/>
</g>
<rect x="234" style="fill:#3A3A41;" width="30" height="117"/>
<rect x="92" y="15" style="fill:#00D7DF;" width="80" height="30"/>
<g>
	<polygon style="fill:#0091BF;" points="60,30 100,60 100,0 	"/>
	<polygon style="fill:#0091BF;" points="204,30 164,0 164,60 	"/>
</g>
<g>
	<polygon style="fill:#FF8503;" points="206,102 206,132 238.163,132 368.413,482 290.712,482 267.681,407.607 206,407.607 
		206,437.607 245.563,437.607 268.595,512 411.587,512 259.009,102 	"/>
	<polygon style="fill:#FF8503;" points="206.61,168.344 206,170.543 206,283.202 220.522,338.027 206,338.027 206,368.027 
		259.503,368.027 	"/>
</g>
<g>
</g>
<g>
</g>
<g>
</g>
<g>
</g>
<g>
</g>
<g>
</g>
<g>
</g>
<g>
</g>
<g>
</g>
<g>
</g>
<g>
</g>
<g>
</g>
<g>
</g>
<g>
</g>
<g>
</g>
</svg>
