<?xml version="1.0" encoding="iso-8859-1"?>
<!-- Generator: Adobe Illustrator 22.1.0, SVG Export Plug-In . SVG Version: 6.00 Build 0)  -->
<svg version="1.1" id="Capa_1" xmlns="http://www.w3.org/2000/svg" xmlns:xlink="http://www.w3.org/1999/xlink" x="0px" y="0px"
	 viewBox="0 0 317.3 124.9" style="enable-background:new 0 0 317.3 124.9;" xml:space="preserve">
<g>
	<g>
		<path style="fill:#303F9F;" d="M75.1,21.9c0.7-0.6,1.7-1.2,2.8-1.7c1.1-0.6,2.3-0.9,3.6-1.2c1.8-0.3,3.6-0.5,5.4-0.6
			s3.6-0.1,5.3,0.1c1.7,0.1,3.3,0.3,4.8,0.6c1.5,0.3,2.8,0.7,3.8,1.1l0,0c0.7,0.3,1.4,0.6,2.2,0.9c0.8,0.3,1.5,0.7,2.3,1.1
			c0.7,0.4,1.4,0.8,2.1,1.3s1.2,1,1.7,1.6s0.9,1.3,1.1,2s0.3,1.4,0.3,2.2c0,0.7-0.2,1.4-0.5,2s-0.7,1.2-1.3,1.7
			c-0.4,0.3-0.7,0.5-1,0.7c-0.3,0.1-0.5,0.2-0.7,0.2s-0.4-0.1-0.5-0.2c-0.2-0.1-0.3-0.3-0.5-0.5c-0.3-0.3-0.4-0.6-0.4-0.9
			c0-0.3,0-0.5,0.1-0.8c0.1-0.2,0.2-0.5,0.4-0.7c0.2-0.2,0.3-0.5,0.4-0.7s0.2-0.4,0.2-0.7c0-0.2-0.1-0.4-0.2-0.7
			c-0.5-0.6-1.1-1.1-1.9-1.6s-1.6-0.9-2.6-1.3s-2-0.7-3-1c-1.1-0.3-2.1-0.6-3.1-0.8c-1-0.2-2-0.4-3-0.5c-0.9-0.1-1.8-0.2-2.5-0.3
			c-1.1,0-2.2,0-3.3,0C86,23.3,85,23.4,84,23.6c-1,0.2-1.9,0.5-2.8,0.9s-1.7,0.9-2.5,1.6c-0.6,0.5-1.1,1-1.4,1.6s-0.5,1.1-0.7,1.6
			c-0.2,0.6-0.1,1.1,0,1.7c0.2,0.5,0.5,1.1,1,1.6c1,1.2,2,2.3,3.1,3.2s2.1,1.7,3.3,2.3c1.1,0.7,2.3,1.3,3.5,1.8s2.5,1.1,3.8,1.6
			l0.5,0.6c0.2,0.2,0.3,0.4,0.3,0.7c0.1,0.3,0.1,0.5,0.1,0.8s-0.1,0.5-0.2,0.8c-0.1,0.2-0.2,0.4-0.4,0.6c-0.4,0.3-1,0.5-1.7,0.5
			s-1.5-0.2-2.4-0.5s-1.7-0.7-2.7-1.1c-0.9-0.5-1.8-1-2.7-1.5c-0.8-0.5-1.6-1-2.3-1.5c-0.7-0.5-1.2-0.9-1.6-1.2
			c-0.3-0.3-0.6-0.5-0.9-0.8s-0.6-0.6-1-0.9c-0.4-0.4-0.8-0.8-1.3-1.3s-1.1-1.2-1.8-2.1c-0.4-0.5-0.7-1.1-0.9-1.6
			c-0.2-0.6-0.4-1.1-0.4-1.6c-0.1-0.5-0.1-1-0.1-1.4s0.1-0.8,0.1-1c0.2-1.6,0.5-2.9,1.1-4C73.3,23.7,74,22.7,75.1,21.9z"/>
		<path style="fill:#303F9F;" d="M81.3,12.3c0.8-0.5,1.8-1,2.9-1.5s2.4-0.7,3.7-0.8c1.8-0.1,3.6-0.2,5.5-0.1
			c1.8,0.1,3.6,0.3,5.3,0.6c1.7,0.3,3.2,0.6,4.7,1c1.4,0.4,2.7,0.9,3.7,1.5l0,0c0.7,0.3,1.4,0.7,2.1,1.1c0.7,0.4,1.4,0.8,2.1,1.3
			s1.4,0.9,2,1.5c0.6,0.5,1.1,1.1,1.6,1.8c0.4,0.7,0.7,1.3,0.9,2.1c0.2,0.7,0.2,1.5,0.1,2.2s-0.3,1.4-0.7,2
			c-0.4,0.6-0.8,1.1-1.4,1.5c-0.4,0.3-0.8,0.5-1,0.6c-0.3,0.1-0.5,0.1-0.7,0.1s-0.4-0.1-0.5-0.3c-0.1-0.2-0.3-0.4-0.5-0.6
			c-0.2-0.3-0.3-0.7-0.3-0.9c0-0.3,0.1-0.5,0.2-0.8c0.1-0.2,0.3-0.5,0.4-0.7c0.2-0.2,0.3-0.4,0.5-0.6c0.1-0.2,0.2-0.4,0.3-0.6
			c0-0.2,0-0.4-0.2-0.7c-0.4-0.6-1-1.2-1.7-1.8c-0.7-0.6-1.6-1.1-2.5-1.6s-1.9-0.9-2.9-1.3s-2-0.8-3-1.1c-1-0.3-2-0.6-2.9-0.8
			s-1.7-0.4-2.4-0.5c-1.1-0.2-2.2-0.2-3.3-0.3c-1.1,0-2.1,0-3.1,0.1s-2,0.4-2.9,0.7s-1.8,0.8-2.7,1.3c-0.7,0.4-1.2,0.9-1.5,1.5
			c-0.4,0.5-0.6,1.1-0.8,1.5c-0.2,0.6-0.3,1.1-0.1,1.7c0.1,0.5,0.4,1.1,0.8,1.7c0.9,1.3,1.8,2.5,2.8,3.4c1,1,2,1.8,3,2.6
			c1.1,0.8,2.2,1.5,3.3,2.1c1.2,0.6,2.4,1.3,3.6,1.9l0.4,0.6c0.1,0.2,0.2,0.4,0.3,0.7c0,0.3,0,0.5,0,0.8s-0.1,0.5-0.2,0.7
			s-0.3,0.4-0.5,0.5c-0.5,0.3-1,0.4-1.7,0.3c-0.7-0.1-1.5-0.3-2.3-0.7s-1.7-0.8-2.6-1.4c-0.9-0.6-1.7-1.1-2.5-1.7
			c-0.8-0.6-1.5-1.1-2.1-1.7c-0.6-0.5-1.1-1-1.5-1.3c-0.3-0.3-0.6-0.6-0.9-0.9s-0.6-0.6-0.9-1c-0.4-0.4-0.7-0.9-1.2-1.5
			c-0.4-0.6-1-1.3-1.6-2.2c-0.4-0.6-0.6-1.1-0.8-1.7c-0.2-0.6-0.2-1.1-0.3-1.6c0-0.5,0-1,0-1.4c0.1-0.4,0.1-0.7,0.2-1
			c0.3-1.5,0.8-2.8,1.4-3.9C79.3,13.9,80.2,13,81.3,12.3z"/>
		<path style="fill:#4CAF50;" d="M102.5,101.8L118,107c1.2,0.4,2.1,1.1,2.7,2.1s0.8,2,0.4,3c-0.3,1-1.1,1.8-2.2,2.2
			c-1.1,0.4-2.3,0.4-3.4,0l-16-5.4c-2-0.7-4-1.9-5.8-3.8c-1.8-1.8-2.9-3.6-3.3-5.3L86,80.2c-0.5-2.8-0.4-5.5,0.5-8
			c0.9-2.8,2.3-4.9,4.3-6.5l15.4-13c1.5-1.2,3.4-2,5.8-2.5s4.5-0.4,6.4,0.2l16.9,5.7c1.2,0.4,2.1,1.1,2.7,2.1c0.6,1,0.7,2,0.4,3
			s-1.1,1.8-2.1,2.2c-1.1,0.5-2.2,0.5-3.4,0.1L116.6,58c-1.4-0.5-2.7-0.1-4,1L97.9,71.2c-1.2,0.9-2,2.2-2.5,3.9
			c-0.6,1.7-0.7,3.4-0.3,5l4,18.1C99.4,99.9,100.5,101.2,102.5,101.8z"/>
		<path style="fill:#303F9F;" d="M113.5,64.1l12.7,4.3c1,0.3,1.7,0.8,2.3,1.6c0.6,0.7,0.7,1.4,0.5,2.1s-0.8,1.1-1.6,1.4
			c-0.9,0.2-1.8,0.2-2.8-0.1L111.4,69c-1.7-0.6-3.3-1.5-4.8-2.8s-2.5-2.6-2.9-3.7l-4.5-13.7c-0.6-1.9-0.6-3.7,0-5.4
			c0.6-1.8,1.7-3.2,3.1-4.2l11.8-8.1c1.1-0.7,2.6-1.2,4.5-1.4c1.9-0.2,3.6-0.1,5.2,0.4l13.9,4.7c1,0.3,1.7,0.8,2.3,1.6
			c0.5,0.7,0.7,1.4,0.5,2.1c-0.2,0.7-0.8,1.2-1.6,1.4c-0.9,0.3-1.8,0.2-2.7-0.1l-13.4-4.5c-1.1-0.4-2.2-0.2-3.2,0.5L108.4,43
			c-0.9,0.6-1.5,1.4-1.9,2.5s-0.4,2.3,0,3.4l4.1,12.5C111,62.7,111.9,63.6,113.5,64.1z"/>
		<path style="fill:#303F9F;" d="M146.4,65.6l5.9,2c0.5,0.2,0.8,0.4,1.1,0.7c0.3,0.3,0.3,0.7,0.2,1s-0.4,0.5-0.8,0.6
			c-0.4,0.1-0.8,0.1-1.3-0.1l-6.1-2c-0.8-0.3-1.5-0.7-2.2-1.3c-0.7-0.6-1.2-1.2-1.4-1.7l-2.1-6.4c-0.3-0.9-0.3-1.7,0-2.5
			s0.8-1.5,1.5-2l5.5-3.8c0.5-0.3,1.2-0.6,2.1-0.7c0.9-0.1,1.7,0,2.4,0.2l6.5,2.2c0.5,0.2,0.8,0.4,1,0.7s0.3,0.7,0.2,1
			s-0.4,0.5-0.8,0.7c-0.4,0.1-0.8,0.1-1.3,0l-6.2-2.1c-0.5-0.2-1-0.1-1.5,0.2l-5.2,3.5c-0.4,0.3-0.7,0.7-0.9,1.2s-0.2,1.1,0,1.6
			l1.9,5.8C145.2,64.9,145.6,65.3,146.4,65.6z"/>
		<path style="fill:#4CAF50;" d="M142.4,76.6l5.9,2c0.5,0.2,0.8,0.4,1.1,0.7c0.3,0.3,0.3,0.7,0.2,1s-0.4,0.5-0.8,0.6
			c-0.4,0.1-0.8,0.1-1.3-0.1l-6.1-2c-0.8-0.3-1.5-0.7-2.2-1.3c-0.7-0.6-1.2-1.2-1.4-1.7l-2.1-6.4c-0.3-0.9-0.3-1.7,0-2.5
			s0.8-1.5,1.5-2l5.5-3.8c0.5-0.3,1.2-0.6,2.1-0.7c0.9-0.1,1.7,0,2.4,0.2l6.5,2.2c0.5,0.2,0.8,0.4,1,0.7s0.3,0.7,0.2,1
			s-0.4,0.5-0.8,0.7c-0.4,0.1-0.8,0.1-1.3,0l-6.2-2.1c-0.5-0.2-1-0.1-1.5,0.2l-5.2,3.5c-0.4,0.3-0.7,0.7-0.9,1.2s-0.2,1.1,0,1.6
			l1.9,5.8C141.2,75.9,141.6,76.3,142.4,76.6z"/>
		<path style="fill:#303F9F;" d="M154.7,18.8L153,9.2c-0.2-0.9-0.6-1.8-1.4-2.8c-0.8-1-1.6-1.7-2.5-2.1L148.4,4l0,0
			c-0.3-0.5-0.8-0.8-1.4-1l-2.4-0.7l-3.8-1.7c-0.6-0.3-1.2-0.3-1.7-0.2c-0.1,0-0.3,0.1-0.4,0.1L138,0.2c-1-0.3-2.1-0.3-3.3-0.1
			s-2.2,0.6-2.9,1.2l-7.6,6.2c-0.9,0.8-1.6,1.8-2,3.1c-0.4,1.2-0.3,2.4,0,3.8l2.9,9.4c0.3,0.8,0.9,1.6,1.9,2.5c1,0.9,2,1.5,3.1,1.8
			l4.3,1.3l2.5,1.1c1,0.5,2.2,0.7,3.5,0.7s2.3-0.2,3-0.7l8.3-5.2c1.1-0.8,2-1.7,2.5-2.9C154.7,21.2,154.9,20,154.7,18.8z
			 M149.8,20.4c-0.4,0.8-0.9,1.4-1.5,1.8l-7.6,4.8c-0.2,0.2-0.5,0.2-0.7,0.3c-0.1-0.1-0.3-0.1-0.4-0.2l-3.9-1.2l-5.2-2.4
			c-0.2-0.1-0.4-0.2-0.7-0.2c-0.1-0.1-0.1-0.3-0.2-0.4l-2.6-8.6c-0.2-0.8-0.2-1.5,0-2.4c0.2-0.8,0.6-1.4,1.2-1.9l7.2-5.8
			c0.6-0.5,1.3-0.7,2-0.5l5.9,1.7l4.1,1.8c0.7,0.3,1.1,0.9,1.2,1.7l1.6,9.1C150.2,19,150.1,19.7,149.8,20.4z"/>
		<polygon style="fill:#303F9F;" points="94.3,109.2 106.7,113.3 90.2,124.9 		"/>
	</g>
	<path style="fill:#303F9F;" d="M42.3,42.9L40,43.5c-4.8,4.9-8.5,10.2-10.9,15.9s-3.7,11.2-3.7,16.5c-0.1,5.3,0.9,9.6,2.9,13
		s5.1,6.2,9.3,8.5c8.8-3.1,16-6.7,21.9-10.8c3-0.2,5.1,0.5,6.4,2c1.2,1.6,1.8,3.8,1.7,6.8c-7.5,7.8-18.4,13.7-32.4,17.8
		c-11.2-1.5-19.8-5.4-25.9-11.7c-6.1-6.3-9.1-14.2-9-23.5c0.1-4.9,1-9.7,2.7-14.2c1.7-4.6,4.3-9.6,7.8-15.1
		c6-5.3,12.1-9.3,18.3-11.8c6.2-2.6,13.3-4.3,21.3-5.3c6.6,2.4,11.5,5.6,14.8,9.7c3.2,4,5.3,8.9,6.1,14.8c-1.1,3.1-4.2,5.4-9.1,6.8
		s-10,1-15.2-1.2C46.3,52,44.8,45.7,42.3,42.9z"/>
	<path style="fill:#303F9F;" d="M211.2,42.9l-2.3,0.6c-4.8,4.9-8.5,10.2-10.9,15.9s-3.7,11.2-3.7,16.5c-0.1,5.3,0.9,9.6,2.9,13
		s5.1,6.2,9.3,8.5c8.8-3.1,16-6.7,21.9-10.8c3-0.2,5.1,0.5,6.4,2c1.2,1.6,1.8,3.8,1.7,6.8c-7.5,7.8-18.4,13.7-32.4,17.8
		c-11.2-1.5-19.8-5.4-25.9-11.7c-6.1-6.3-9.1-14.2-9-23.5c0.1-4.9,1-9.7,2.7-14.2c1.7-4.6,4.3-9.6,7.8-15.1
		c6-5.3,12.1-9.3,18.3-11.8c6.2-2.6,13.3-4.3,21.3-5.3c6.6,2.4,11.5,5.6,14.8,9.7c3.2,4,5.3,8.9,6.1,14.8c-1.1,3.1-4.2,5.4-9.1,6.8
		c-4.9,1.4-10,1-15.2-1.2C215.2,52,213.8,45.7,211.2,42.9z"/>
	<path style="fill:#303F9F;" d="M288.6,42.9l-2.3,0.6c-4.8,4.9-8.5,10.2-10.9,15.9s-3.7,11.2-3.7,16.5c-0.1,5.3,0.9,9.6,2.9,13
		s5.1,6.2,9.3,8.5c8.8-3.1,16-6.7,21.9-10.8c3-0.2,5.1,0.5,6.4,2c1.2,1.6,1.8,3.8,1.7,6.8c-7.5,7.8-18.4,13.7-32.4,17.8
		c-11.2-1.5-19.8-5.4-25.9-11.7c-6.1-6.3-9.1-14.2-9-23.5c0.1-4.9,1-9.7,2.7-14.2c1.7-4.6,4.3-9.6,7.8-15.1
		c6-5.3,12.1-9.3,18.3-11.8c6.2-2.6,13.3-4.3,21.3-5.3c6.6,2.4,11.5,5.6,14.8,9.7c3.2,4,5.3,8.9,6.1,14.8c-1.1,3.1-4.2,5.4-9.1,6.8
		s-10,1-15.2-1.2C292.6,52,291.2,45.7,288.6,42.9z"/>
</g>
</svg>
