<?xml version="1.0" encoding="iso-8859-1"?>
<!-- Generator: Adobe Illustrator 22.1.0, SVG Export Plug-In . SVG Version: 6.00 Build 0)  -->
<svg version="1.1" id="Capa_1" xmlns="http://www.w3.org/2000/svg" xmlns:xlink="http://www.w3.org/1999/xlink" x="0px" y="0px"
	 viewBox="0 0 319 146.9" style="enable-background:new 0 0 319 146.9;" xml:space="preserve">
<g>
	<g>
		<path style="fill:#303F9F;" d="M75.9,21.9c0.7-0.6,1.7-1.2,2.8-1.7c1.1-0.6,2.3-0.9,3.6-1.2c1.8-0.3,3.6-0.5,5.4-0.6
			s3.6-0.1,5.3,0.1c1.7,0.1,3.3,0.3,4.8,0.6c1.5,0.3,2.8,0.7,3.8,1.1l0,0c0.7,0.3,1.4,0.6,2.2,0.9c0.8,0.3,1.5,0.7,2.3,1.1
			c0.7,0.4,1.4,0.8,2.1,1.3s1.2,1,1.7,1.6s0.9,1.3,1.1,2s0.3,1.4,0.3,2.2c0,0.7-0.2,1.4-0.5,2s-0.7,1.2-1.3,1.7
			c-0.4,0.3-0.7,0.5-1,0.7c-0.3,0.1-0.5,0.2-0.7,0.2s-0.4-0.1-0.5-0.2c-0.2-0.1-0.3-0.3-0.5-0.5c-0.3-0.3-0.4-0.6-0.4-0.9
			c0-0.3,0-0.5,0.1-0.8c0.1-0.2,0.2-0.5,0.4-0.7c0.2-0.2,0.3-0.5,0.4-0.7s0.2-0.4,0.2-0.7c0-0.2-0.1-0.4-0.2-0.7
			c-0.5-0.6-1.1-1.1-1.9-1.6s-1.6-0.9-2.6-1.3s-2-0.7-3-1c-1.1-0.3-2.1-0.6-3.1-0.8c-1-0.2-2-0.4-3-0.5c-1.2-0.4-2-0.5-2.7-0.5
			c-1.1,0-2.2,0-3.3,0c-1.1,0.1-2.1,0.2-3.1,0.4c-1,0.2-1.9,0.5-2.8,0.9s-1.7,0.9-2.5,1.6c-0.6,0.5-1.1,1-1.4,1.6s-0.5,1.1-0.7,1.6
			c-0.2,0.6-0.1,1.1,0,1.7c0.2,0.5,0.5,1.1,1,1.6c1,1.2,2,2.3,3.1,3.2s2.1,1.7,3.3,2.3c1.1,0.7,2.3,1.3,3.5,1.8s2.5,1.1,3.8,1.6
			l0.5,0.6c0.2,0.2,0.3,0.4,0.3,0.7c0.1,0.3,0.1,0.5,0.1,0.8s-0.1,0.5-0.2,0.8c-0.1,0.2-0.2,0.4-0.4,0.6c-0.4,0.3-1,0.5-1.7,0.5
			s-1.5-0.2-2.4-0.5s-1.7-0.7-2.7-1.1c-0.9-0.5-1.8-1-2.7-1.5c-0.8-0.5-1.6-1-2.3-1.5c-0.7-0.5-1.2-0.9-1.6-1.2
			c-0.3-0.3-0.6-0.5-0.9-0.8s-0.6-0.6-1-0.9c-0.4-0.4-0.8-0.8-1.3-1.3s-1.1-1.2-1.8-2.1c-0.4-0.5-0.7-1.1-0.9-1.6
			c-0.2-0.6-0.4-1.1-0.4-1.6c-0.1-0.5-0.1-1-0.1-1.4s0.1-0.8,0.1-1c0.2-1.6,0.5-2.9,1.1-4C74.1,23.7,74.9,22.7,75.9,21.9z"/>
		<path style="fill:#303F9F;" d="M82.1,12.3c0.8-0.5,1.8-1,2.9-1.5s2.4-0.7,3.7-0.8c1.8-0.1,3.6-0.2,5.5-0.1
			c1.8,0.1,3.6,0.3,5.3,0.6c1.7,0.3,3.2,0.6,4.7,1c1.4,0.4,2.7,0.9,3.7,1.5l0,0c0.7,0.3,1.4,0.7,2.1,1.1c0.7,0.4,1.4,0.8,2.1,1.3
			s1.4,0.9,2,1.5c0.6,0.5,1.1,1.1,1.6,1.8c0.4,0.7,0.7,1.3,0.9,2.1c0.2,0.7,0.2,1.5,0.1,2.2s-0.3,1.4-0.7,2
			c-0.4,0.6-0.8,1.1-1.4,1.5c-0.4,0.3-0.8,0.5-1,0.6c-0.3,0.1-0.5,0.1-0.7,0.1s-0.4-0.1-0.5-0.3c-0.1-0.2-0.3-0.4-0.5-0.6
			c-0.2-0.3-0.3-0.7-0.3-0.9c0-0.3,0.1-0.5,0.2-0.8c0.1-0.2,0.3-0.5,0.4-0.7c0.2-0.2,0.3-0.4,0.5-0.6c0.1-0.2,0.2-0.4,0.3-0.6
			c0-0.2,0-0.4-0.2-0.7c-0.4-0.6-1-1.2-1.7-1.8c-0.7-0.6-1.6-1.1-2.5-1.6s-1.9-0.9-2.9-1.3s-2-0.8-3-1.1c-1-0.3-2-0.6-2.9-0.8
			s-1.7-0.4-2.4-0.5c-1.1-0.2-2.2-0.2-3.3-0.3c-1.1,0-2.1,0-3.1,0.1s-2,0.4-2.9,0.7s-1.8,0.8-2.7,1.3c-0.7,0.4-1.2,0.9-1.5,1.5
			c-0.4,0.5-0.6,1.1-0.8,1.5c-0.2,0.6-0.3,1.1-0.1,1.7c0.1,0.5,0.4,1.1,0.8,1.7c0.9,1.3,1.8,2.5,2.8,3.4c1,1,2,1.8,3,2.6
			c1.1,0.8,2.2,1.5,3.3,2.1c1.2,0.6,2.4,1.3,3.6,1.9l0.4,0.6c0.1,0.2,0.2,0.4,0.3,0.7c0,0.3,0,0.5,0,0.8s-0.1,0.5-0.2,0.7
			s-0.3,0.4-0.5,0.5c-0.5,0.3-1,0.4-1.7,0.3c-0.7-0.1-1.5-0.3-2.3-0.7s-1.7-0.8-2.6-1.4c-0.9-0.6-1.7-1.1-2.5-1.7
			c-0.8-0.6-1.5-1.1-2.1-1.7c-0.6-0.5-1.1-1-1.5-1.3c-0.3-0.3-0.6-0.6-0.9-0.9s-0.6-0.6-0.9-1c-0.4-0.4-0.7-0.9-1.2-1.5
			c-0.4-0.6-1-1.3-1.6-2.2c-0.4-0.6-0.6-1.1-0.8-1.7c-0.2-0.6-0.2-1.1-0.3-1.6c0-0.5,0-1,0-1.4c0.1-0.4,0.1-0.7,0.2-1
			c0.3-1.5,0.8-2.8,1.4-3.9C80.2,13.9,81,13,82.1,12.3z"/>
		<path style="fill:#4CAF50;" d="M103.3,101.8l15.5,5.2c1.2,0.4,2.1,1.1,2.7,2.1s0.8,2,0.4,3c-0.3,1-1.1,1.8-2.2,2.2
			c-1.1,0.4-2.3,0.4-3.4,0l-16-5.4c-2-0.7-4-1.9-5.8-3.8c-1.8-1.8-2.9-3.6-3.3-5.3L86.8,80c-0.5-2.8-0.4-5.5,0.5-8
			c0.9-2.8,2.3-4.9,4.3-6.5l15.4-13c1.5-1.2,3.4-2,5.8-2.5s4.5-0.4,6.4,0.2l16.9,5.7c1.2,0.4,2.1,1.1,2.7,2.1c0.6,1,0.7,2,0.4,3
			s-1.1,1.8-2.1,2.2c-1.1,0.5-2.2,0.5-3.4,0.1l-16.3-5.5c-1.4-0.5-2.7-0.1-4,1L98.7,71.2c-1.2,0.9-2,2.2-2.5,3.9
			c-0.6,1.7-0.7,3.4-0.3,5l4,18.1C100.3,99.9,101.4,101.2,103.3,101.8z"/>
		<path style="fill:#303F9F;" d="M114.4,64.1l12.7,4.3c1,0.3,1.7,0.8,2.3,1.6c0.6,0.7,0.7,1.4,0.5,2.1s-0.8,1.1-1.6,1.4
			c-0.9,0.2-1.8,0.2-2.8-0.1L112.3,69c-1.7-0.6-3.3-1.5-4.8-2.8s-2.5-2.6-2.9-3.7l-4.5-13.7c-0.6-1.9-0.6-3.7,0-5.4
			c0.6-1.8,1.7-3.2,3.1-4.2l11.8-8.1c1.1-0.7,2.6-1.2,4.5-1.4c1.9-0.2,3.6-0.1,5.2,0.4l13.9,4.7c1,0.3,1.7,0.8,2.3,1.6
			c0.5,0.7,0.7,1.4,0.5,2.1c-0.2,0.7-0.8,1.2-1.6,1.4c-0.9,0.3-1.8,0.2-2.7-0.1l-13.4-4.5c-1.1-0.4-2.2-0.2-3.2,0.5L109.2,43
			c-0.9,0.6-1.5,1.4-1.9,2.5s-0.4,2.3,0,3.4l4.1,12.5C111.8,62.7,112.8,63.6,114.4,64.1z"/>
		<path style="fill:#303F9F;" d="M147.2,65.6l5.9,2c0.5,0.2,0.8,0.4,1.1,0.7c0.3,0.3,0.3,0.7,0.2,1s-0.4,0.5-0.8,0.6
			c-0.4,0.1-0.8,0.1-1.3-0.1l-6.1-2c-0.8-0.3-1.5-0.7-2.2-1.3c-0.7-0.6-1.2-1.2-1.4-1.7l-2.1-6.4c-0.3-0.9-0.3-1.7,0-2.5
			s0.8-1.5,1.5-2l5.5-3.8c0.5-0.3,1.2-0.6,2.1-0.7c0.9-0.1,1.7,0,2.4,0.2l6.5,2.2c0.5,0.2,0.8,0.4,1,0.7s0.3,0.7,0.2,1
			s-0.4,0.5-0.8,0.7c-0.4,0.1-0.8,0.1-1.3,0l-6.2-2.1c-0.5-0.2-1-0.1-1.5,0.2l-5.2,3.5c-0.4,0.3-0.7,0.7-0.9,1.2s-0.2,1.1,0,1.6
			l1.9,5.8C146,64.9,146.5,65.3,147.2,65.6z"/>
		<path style="fill:#4CAF50;" d="M143.2,76.6l5.9,2c0.5,0.2,0.8,0.4,1.1,0.7c0.3,0.3,0.3,0.7,0.2,1s-0.4,0.5-0.8,0.6
			c-0.4,0.1-0.8,0.1-1.3-0.1l-6.1-2c-0.8-0.3-1.5-0.7-2.2-1.3c-0.7-0.6-1.2-1.2-1.4-1.7l-2.1-6.4c-0.3-0.9-0.3-1.7,0-2.5
			s0.8-1.5,1.5-2l5.5-3.8c0.5-0.3,1.2-0.6,2.1-0.7c0.9-0.1,1.7,0,2.4,0.2l6.5,2.2c0.5,0.2,0.8,0.4,1,0.7s0.3,0.7,0.2,1
			s-0.4,0.5-0.8,0.7c-0.4,0.1-0.8,0.1-1.3,0l-6.2-2.1c-0.5-0.2-1-0.1-1.5,0.2l-5.2,3.5c-0.4,0.3-0.7,0.7-0.9,1.2s-0.2,1.1,0,1.6
			l1.9,5.8C142,75.9,142.5,76.3,143.2,76.6z"/>
		<path style="fill:#303F9F;" d="M155.5,18.8l-1.7-9.6c-0.2-0.9-0.6-1.8-1.4-2.8c-0.8-1-1.6-1.7-2.5-2.1L149.2,4l0,0
			c-0.3-0.5-0.8-0.8-1.4-1l-2.4-0.7l-3.8-1.7c-0.6-0.3-1.2-0.3-1.7-0.2c-0.1,0-0.3,0.1-0.4,0.1L139,0.4c-1-0.3-2.1-0.3-3.3-0.1
			s-2.2,0.6-2.9,1.2l-7.6,6.2c-0.9,0.8-1.6,1.8-2,3.1c-0.4,1.2-0.3,2.4,0,3.8l2.9,9.4c0.3,0.8,0.9,1.6,1.9,2.5c1,0.9,2,1.5,3.1,1.8
			l4.3,1.3l2.5,1.1c1,0.5,2.2,0.7,3.5,0.7s2.3-0.2,3-0.7l8.3-5.2c1.1-0.8,2-1.7,2.5-2.9C155.6,21.2,155.8,20,155.5,18.8z
			 M150.6,20.4c-0.4,0.8-0.9,1.4-1.5,1.8l-7.6,4.8c-0.2,0.2-0.5,0.2-0.7,0.3c-0.1-0.1-0.3-0.1-0.4-0.2l-3.9-1.2l-5.2-2.4
			c-0.2-0.1-0.4-0.2-0.7-0.2c-0.1-0.1-0.1-0.3-0.2-0.4l-2.6-8.6c-0.2-0.8-0.2-1.5,0-2.4c0.2-0.8,0.6-1.4,1.2-1.9l7.2-5.8
			c0.6-0.5,1.3-0.7,2-0.5l5.9,1.7l4.1,1.8c0.7,0.3,1.1,0.9,1.2,1.7L151,18C151.1,19,151,19.7,150.6,20.4z"/>
		<polygon style="fill:#303F9F;" points="95.2,109.2 107.5,113.3 91.1,124.9 		"/>
	</g>
	<path style="fill:#303F9F;" d="M43.1,42.9l-2.3,0.6c-4.8,4.9-8.5,10.2-10.9,15.9s-3.7,11.2-3.7,16.5c-0.1,5.3,0.9,9.6,2.9,13
		s5.1,6.2,9.3,8.5c8.8-3.1,16-6.7,21.9-10.8c3-0.2,5.1,0.5,6.4,2c1.2,1.6,1.8,3.8,1.7,6.8c-7.5,7.8-18.4,13.7-32.4,17.8
		c-11.2-1.5-19.8-5.4-25.9-11.7C4,95.2,1,87.3,1.1,78c0.1-4.9,1-9.7,2.7-14.2c1.7-4.6,4.3-9.6,7.8-15.1c6-5.3,12.1-9.3,18.3-11.8
		c6.2-2.6,13.3-4.3,21.3-5.3c6.6,2.4,11.5,5.6,14.8,9.7c3.2,4,5.3,8.9,6.1,14.8c-1.1,3.1-4.2,5.4-9.1,6.8s-10,1-15.2-1.2
		C47.1,52,45.7,45.7,43.1,42.9z"/>
	<path style="fill:#303F9F;" d="M212.1,42.9l-2.3,0.6c-4.8,4.9-8.5,10.2-10.9,15.9s-3.7,11.2-3.7,16.5c-0.1,5.3,0.9,9.6,2.9,13
		s5.1,6.2,9.3,8.5c8.8-3.1,16-6.7,21.9-10.8c3-0.2,5.1,0.5,6.4,2c1.2,1.6,1.8,3.8,1.7,6.8c-7.5,7.8-18.4,13.7-32.4,17.8
		c-11.2-1.5-19.8-5.4-25.9-11.7c-6.1-6.3-9.1-14.2-9-23.5c0.1-4.9,1-9.7,2.7-14.2c1.7-4.6,4.3-9.6,7.8-15.1
		c6-5.3,12.1-9.3,18.3-11.8c6.2-2.6,13.3-4.3,21.3-5.3c6.6,2.4,11.5,5.6,14.8,9.7c3.2,4,5.3,8.9,6.1,14.8c-1.1,3.1-4.2,5.4-9.1,6.8
		c-4.9,1.4-10,1-15.2-1.2C216.1,52,214.6,45.7,212.1,42.9z"/>
	<path style="fill:#303F9F;" d="M289.4,42.9l-2.3,0.6c-4.8,4.9-8.5,10.2-10.9,15.9s-3.7,11.2-3.7,16.5c-0.1,5.3,0.9,9.6,2.9,13
		s5.1,6.2,9.3,8.5c8.8-3.1,16-6.7,21.9-10.8c3-0.2,5.1,0.5,6.4,2c1.2,1.6,1.8,3.8,1.7,6.8c-7.5,7.8-18.4,13.7-32.4,17.8
		c-11.2-1.5-19.8-5.4-25.9-11.7c-6.1-6.3-9.1-14.2-9-23.5c0.1-4.9,1-9.7,2.7-14.2c1.7-4.6,4.3-9.6,7.8-15.1
		c6-5.3,12.1-9.3,18.3-11.8c6.2-2.6,13.3-4.3,21.3-5.3c6.6,2.4,11.5,5.6,14.8,9.7c3.2,4,5.3,8.9,6.1,14.8c-1.1,3.1-4.2,5.4-9.1,6.8
		s-10,1-15.2-1.2C293.5,52,292,45.7,289.4,42.9z"/>
</g>
<g>
	<path style="fill:#4CAF50;" d="M5.4,133.2l-0.3,0.1c-0.6,0.6-1.1,1.3-1.4,2.1c-0.3,0.7-0.5,1.5-0.5,2.2s0.1,1.3,0.4,1.7
		s0.6,0.8,1.2,1.1c1.1-0.4,2-0.9,2.8-1.4c0.4,0,0.6,0.1,0.8,0.3s0.2,0.5,0.2,0.9c-1,1-2.3,1.8-4.1,2.3c-1.4-0.2-2.5-0.7-3.3-1.5
		s-1.2-1.9-1.1-3.1c0-0.6,0.1-1.3,0.3-1.9c0.2-0.6,0.5-1.3,1-2c0.8-0.7,1.5-1.2,2.3-1.6c0.8-0.3,1.7-0.6,2.7-0.7
		c0.8,0.3,1.5,0.7,1.9,1.3c0.4,0.5,0.7,1.2,0.8,1.9c-0.1,0.4-0.5,0.7-1.2,0.9c-0.6,0.2-1.3,0.1-1.9-0.2
		C5.9,134.4,5.7,133.6,5.4,133.2z"/>
	<path style="fill:#4CAF50;" d="M10.5,138.1l-0.3-3.3c0.6-0.2,1.2-0.3,1.9-0.2s1.2,0.4,1.5,0.8c0,0.5-0.1,1.1-0.4,1.9
		c-0.3,0.8-0.5,1.5-0.9,2.1c0.1,0.3,0.4,0.5,1,0.7c0.8-0.8,1.3-1.4,1.6-1.8c0.3-1.7,0.6-2.9,0.8-3.7c0.9-0.2,1.7-0.2,2.2-0.1
		c0.5,0.1,0.8,0.4,1,0.8l-1.2,2.4c0,1.2,0.2,2.6,0.4,4.1c-0.3,0.4-0.8,0.5-1.6,0.4c-0.8-0.1-1.5-0.3-2-0.8l0.6-1.3l-0.2-0.1
		c-0.2,0.2-0.8,1-1.9,2.2c-2.1-0.2-3.3-1-3.6-2.3L10.5,138.1z"/>
	<path style="fill:#4CAF50;" d="M21.3,134.9l-0.2-3.7c0.6-0.4,1.2-0.6,1.8-0.7c0.6-0.1,1.1,0,1.6,0.2l-1,3.4c-0.3,5-0.4,7.6-0.4,7.8
		c-0.3,0.3-0.7,0.4-1.2,0.4c-0.6,0-1.1,0-1.6-0.2c-0.5-0.1-0.8-0.3-0.9-0.6C20.3,139.8,20.9,137.6,21.3,134.9z"/>
	<path style="fill:#4CAF50;" d="M29.5,135.6L29.5,135.6c-0.1,0.8-0.2,1.8-0.3,3c-0.1,1.2-0.2,1.9-0.2,2.1c0.7-0.4,1.5-0.8,2.2-1.4
		c0.4,0,0.6,0.1,0.8,0.3c0.1,0.2,0.2,0.5,0.1,0.9c-1.2,1.1-2.4,1.7-3.6,2c-1.4-0.1-2.3-0.7-2.7-1.7c0.6-1.6,1.1-3.2,1.5-4.8
		l-1.8,0.3c-0.2-0.3-0.4-0.5-0.4-0.8c0-0.2,0.1-0.5,0.3-0.9l2,0.1l-0.2-2.6c0.7-0.4,1.4-0.6,2-0.7c0.6,0,1,0.1,1.3,0.5l-0.7,2.4
		l2.4-0.4c0.4,0.4,0.4,0.9,0,1.6L29.5,135.6z"/>
	<path style="fill:#4CAF50;" d="M33.9,138.1l-0.3-3.3c0.6-0.2,1.2-0.3,1.9-0.2s1.2,0.4,1.5,0.8c0,0.5-0.1,1.1-0.4,1.9
		c-0.3,0.8-0.5,1.5-0.9,2.1c0.1,0.3,0.4,0.5,1,0.7c0.8-0.8,1.3-1.4,1.6-1.8c0.3-1.7,0.6-2.9,0.8-3.7c0.9-0.2,1.7-0.2,2.2-0.1
		s0.8,0.4,1,0.8l-1.2,2.4c0,1.2,0.2,2.6,0.4,4.1c-0.3,0.4-0.8,0.5-1.6,0.4s-1.5-0.3-2-0.8l0.6-1.3l-0.2-0.1c-0.2,0.2-0.8,1-1.9,2.2
		c-2.1-0.2-3.3-1-3.6-2.3L33.9,138.1z"/>
	<path style="fill:#4CAF50;" d="M46.7,136.8l2.3-2.2c0.7,0.2,1.2,0.5,1.6,1s0.6,1.2,0.7,2c-0.4,0.4-0.8,0.6-1.3,0.6
		c-0.5,0.1-1,0-1.5-0.3c0-0.2-0.1-0.5-0.2-1c-0.1,0.1-0.6,0.5-1.3,1.1c0,1.1-0.1,2.4-0.2,4c-0.5,0.4-1.1,0.5-2,0.4s-1.4-0.4-1.6-0.7
		c0.5-1.3,1-2.7,1.4-4l-0.5-2.2c0.4-0.4,0.9-0.6,1.5-0.7c0.6-0.1,1-0.1,1.5-0.1c0.1,0.4,0.2,0.8,0.2,1.2l-0.5,0.6L46.7,136.8z"/>
	<path style="fill:#4CAF50;" d="M51.6,139.2c0-1.1,0.5-2.1,1.5-3.1s2.3-1.5,3.9-1.5c0.4,0.3,0.8,0.9,1.2,1.7c0-0.7,0-1.2,0.3-1.5
		c0.9-0.2,1.7-0.2,2.1-0.1c0.5,0.1,0.8,0.4,1,0.9l-1.3,2.4c0,1.3,0.1,2.7,0.3,4.1c-0.3,0.4-0.8,0.5-1.6,0.4s-1.4-0.3-2-0.8l0.6-1.2
		l-0.2-0.3c-0.9,0.8-1.6,1.5-2.1,2.1c-1.2-0.1-2.2-0.4-2.7-0.9C51.9,140.8,51.6,140,51.6,139.2z M55.4,137.6c-0.3,0.5-0.5,1-0.5,1.6
		c0,0.5,0.2,0.9,0.5,1.1c0.6-0.4,1.4-1,2.4-1.8l0.1-0.8c-0.3-0.6-0.7-1.1-1.1-1.3C56.2,136.6,55.8,137.1,55.4,137.6z"/>
	<path style="fill:#4CAF50;" d="M75,133.6c-0.8,0-1.4,0-1.8,0.1l-0.4,1l-0.4,1.9c1.7-0.3,2.8-0.4,3.1-0.4c0.2,0.1,0.3,0.3,0.3,0.6
		c0.1,0.4,0,0.9-0.3,1.4c-1.2-0.1-2.3-0.2-3.3-0.2l-0.5,2.8c1.9-0.3,3.4-0.6,4.4-0.9c0.3,0.1,0.5,0.3,0.6,0.6c0.2,0.5,0,1.1-0.5,1.7
		l-5.5,0.3c-1.4-0.3-2.1-1-2.2-1.9c0-0.1,0.1-0.4,0.3-0.8c0.1-0.4,0.2-0.7,0.3-0.8c0-0.1,0.1-0.3,0.2-0.6s0.2-0.5,0.2-0.7
		s0.1-0.3,0.2-0.6s0.1-0.5,0.2-0.8c0.1-0.2,0.1-0.5,0.2-0.8l-0.1-1.9c-0.4-0.1-0.7-0.2-1-0.3c-0.1-0.2-0.1-0.4-0.1-0.7
		c0-0.2,0.1-0.4,0.2-0.5c1.7-0.1,3.1-0.2,4.2-0.2s2.5,0,4.2,0.1c0.5,1.2,0.1,2.2-1.2,2.8L75,133.6z M74.7,127.7
		c0.7-0.1,1.3-0.1,1.7,0.1c0.4,0.1,0.7,0.5,0.9,0.9l-2.9,2.5c-0.3,0-0.6-0.1-0.8-0.2c-0.2-0.1-0.4-0.3-0.3-0.5l1-1.3L74.7,127.7z"/>
	<path style="fill:#4CAF50;" d="M82.7,135.6L82.7,135.6c-0.1,0.8-0.2,1.8-0.3,3c-0.1,1.2-0.2,1.9-0.2,2.1c0.7-0.4,1.5-0.8,2.2-1.4
		c0.4,0,0.6,0.1,0.8,0.3c0.1,0.2,0.2,0.5,0.1,0.9c-1.2,1.1-2.4,1.7-3.6,2c-1.4-0.1-2.3-0.7-2.7-1.7c0.6-1.6,1.1-3.2,1.5-4.8
		l-1.8,0.3c-0.2-0.3-0.4-0.5-0.4-0.8c0-0.2,0.1-0.5,0.3-0.9l2,0.1l-0.2-2.6c0.7-0.4,1.4-0.6,2-0.7c0.6,0,1,0.1,1.3,0.5l-0.7,2.4
		l2.4-0.4c0.4,0.4,0.4,0.9,0,1.6L82.7,135.6z"/>
	<path style="fill:#4CAF50;" d="M87.3,137.9l-0.1-2.8c1.4-0.6,2.4-0.7,3.2-0.2l-0.7,2.5c-0.1,0.7-0.1,2.2-0.2,4.5
		c-0.4,0.4-1.1,0.5-1.8,0.4c-0.8-0.1-1.3-0.3-1.7-0.7C86.7,140.1,87.1,138.9,87.3,137.9z M90.6,132.2c0,0.4-0.1,0.8-0.4,1.1
		s-0.7,0.5-1.1,0.5s-0.8-0.2-1.1-0.5c-0.3-0.3-0.5-0.7-0.5-1.1s0.2-0.8,0.5-1.1s0.7-0.5,1.1-0.5s0.8,0.2,1.1,0.5
		C90.5,131.4,90.6,131.8,90.6,132.2z"/>
	<path style="fill:#4CAF50;" d="M91.1,139.3c0-0.6,0.1-1.2,0.3-1.6c0.2-0.5,0.6-0.9,1-1.4c1.1-1,2.4-1.6,3.8-1.9
		c0.9,0.2,1.5,0.4,1.9,0.8c0.2,0.2,0.3,0.4,0.4,0.7c0.1,0.2,0.2,0.5,0.3,0.9c-0.1,0.5-0.4,0.9-1,1.1c-0.5,0.2-1.2,0.3-2.1,0.2
		c0.1-0.6,0-1.3-0.4-2.1l-0.4,0.1c-0.5,0.8-0.8,1.7-0.8,2.6c0,0.8,0.2,1.4,0.7,2c1-0.3,1.9-0.7,2.7-1.3c0.3,0,0.6,0.1,0.7,0.3
		s0.2,0.5,0.1,1c-0.4,0.4-1,0.8-1.7,1.1s-1.5,0.5-2.3,0.6c-1.2-0.1-2.1-0.5-2.7-1.1C91.4,140.8,91.1,140.1,91.1,139.3z"/>
	<path style="fill:#4CAF50;" d="M99.7,139.2c0-1.1,0.5-2.1,1.5-3.1s2.3-1.5,3.9-1.5c0.4,0.3,0.8,0.9,1.2,1.7c0-0.7,0-1.2,0.3-1.5
		c0.9-0.2,1.7-0.2,2.1-0.1c0.5,0.1,0.8,0.4,1,0.9l-1.3,2.4c0,1.3,0.1,2.7,0.3,4.1c-0.3,0.4-0.8,0.5-1.6,0.4c-0.8-0.1-1.4-0.3-2-0.8
		l0.6-1.2l-0.2-0.3c-0.9,0.8-1.6,1.5-2.1,2.1c-1.2-0.1-2.2-0.4-2.7-0.9C100,140.8,99.7,140,99.7,139.2z M103.6,137.6
		c-0.3,0.5-0.5,1-0.5,1.6c0,0.5,0.2,0.9,0.5,1.1c0.6-0.4,1.4-1,2.4-1.8l0.1-0.8c-0.3-0.6-0.7-1.1-1.1-1.3
		C104.4,136.6,103.9,137.1,103.6,137.6z"/>
	<path style="fill:#4CAF50;" d="M121.7,138.5L121.7,138.5c0.2-1.8,0.4-3,0.6-3.7c1-0.2,1.7-0.2,2.2-0.1c0.5,0.1,0.8,0.4,1,0.8
		L124,138c-0.5,3.5-0.7,5.8-0.7,7.2c-0.5,0.6-1.1,1.1-1.8,1.3c-0.8,0.3-1.7,0.4-2.9,0.4c-1.5-0.7-2.4-1.6-2.7-2.7
		c0.4-0.6,0.9-1,1.5-1.2c0.5-0.2,1.1-0.1,1.5,0.1c0.1,0.5,0.2,0.8,0.4,1.1c0.1,0.3,0.3,0.6,0.5,0.9c0.5,0,0.8-0.1,0.9-0.4
		c0.1-1.1,0.2-2,0.4-2.8l0.7-1.3l-0.2-0.2c-0.4,0.5-1,1.1-1.6,1.7c-0.9-0.1-1.7-0.4-2.3-0.7c-0.6-0.4-1-0.9-1.1-1.5l0.7-1.8
		c0-0.5-0.1-1-0.1-1.7s-0.1-1.2-0.1-1.5c0.3-0.1,0.7-0.2,1.2-0.2s0.9,0.1,1.3,0.2c0.4,0.2,0.8,0.4,1.1,0.7c-0.1,1.1-0.5,2.4-1.1,3.8
		c0.1,0.3,0.4,0.5,0.7,0.7C120.7,139.6,121.2,139.1,121.7,138.5z"/>
	<path style="fill:#4CAF50;" d="M137.3,133.2l-0.3,0.1c-0.6,0.6-1.1,1.3-1.4,2.1c-0.3,0.7-0.5,1.5-0.5,2.2s0.1,1.3,0.4,1.7
		c0.3,0.4,0.6,0.8,1.2,1.1c1.1-0.4,2-0.9,2.8-1.4c0.4,0,0.6,0.1,0.8,0.3s0.2,0.5,0.2,0.9c-1,1-2.3,1.8-4.1,2.3
		c-1.4-0.2-2.5-0.7-3.3-1.5s-1.2-1.9-1.1-3.1c0-0.6,0.1-1.3,0.3-1.9c0.2-0.6,0.5-1.3,1-2c0.8-0.7,1.5-1.2,2.3-1.6
		c0.8-0.3,1.7-0.6,2.7-0.7c0.8,0.3,1.5,0.7,1.9,1.3c0.4,0.5,0.7,1.2,0.8,1.9c-0.1,0.4-0.5,0.7-1.2,0.9c-0.6,0.2-1.3,0.1-1.9-0.2
		C137.8,134.4,137.6,133.6,137.3,133.2z"/>
	<path style="fill:#4CAF50;" d="M141.4,139c0-0.4,0.1-0.9,0.4-1.4c0.2-0.5,0.6-1,1-1.5s0.9-0.9,1.6-1.2c0.7-0.3,1.4-0.5,2.1-0.5
		s1.5,0.4,2.2,1.2s1.1,1.6,1.1,2.4c0,0.7-0.2,1.4-0.7,2c-0.5,0.7-1.1,1.2-1.9,1.7c-0.8,0.4-1.6,0.7-2.4,0.7c-0.8,0-1.6-0.4-2.3-1.1
		C141.8,140.6,141.4,139.8,141.4,139z M146.1,135.8c-0.5,0.5-0.9,1-1.2,1.6s-0.5,1.2-0.5,1.8c0,0.3,0.1,0.6,0.2,1
		c0.1,0.3,0.3,0.6,0.5,0.9c0.9-0.7,1.5-1.5,1.8-2.4c0-0.6-0.1-1.2-0.2-1.6C146.6,136.6,146.4,136.2,146.1,135.8z"/>
	<path style="fill:#4CAF50;" d="M159.5,136.7l-0.7,2.2c0,1.1,0.1,2.2,0.4,3.2c-0.3,0.4-0.8,0.5-1.6,0.4s-1.4-0.3-2-0.8
		c0-0.6,0.1-1.4,0.3-2.2s0.3-1.5,0.5-2c-0.1-0.3-0.3-0.6-0.5-0.7c-0.5,0.3-1.2,0.8-1.9,1.5c0,1-0.1,2.2-0.2,3.8
		c-0.5,0.4-1.1,0.5-2,0.4s-1.4-0.4-1.6-0.7c0.5-1.3,1-2.7,1.4-4l-0.5-2.2c0.8-0.7,1.8-1,2.9-0.8c0.1,0.4,0.2,0.8,0.2,1.2l-0.5,0.6
		l0.2,0.3c0.8-0.8,1.6-1.5,2.6-2.2c0.8,0,1.5,0.3,2,0.7C159,135.7,159.3,136.2,159.5,136.7z"/>
	<path style="fill:#4CAF50;" d="M166.1,135.2c0.5-0.5,1-0.7,1.7-0.8c0.6-0.1,1.1,0.1,1.5,0.4c-0.2,2.8-1.3,5.3-3.4,7.6
		c-0.8,0.2-1.5,0.1-2.3-0.1c-0.7-0.2-1.3-0.6-1.7-1.2c0.3-1.5,0.3-2.6,0-3.3l-1.2-1.5c0.6-1.2,1.6-1.7,3.1-1.7
		c0.8,1.3,1.1,3.2,1,5.9l0.2,0.1c1-1.2,1.6-2.4,1.9-3.6L166.1,135.2z"/>
	<path style="fill:#4CAF50;" d="M170.6,137.9l-0.1-2.8c1.4-0.6,2.4-0.7,3.2-0.2l-0.7,2.5c-0.1,0.7-0.1,2.2-0.2,4.5
		c-0.4,0.4-1.1,0.5-1.8,0.4c-0.8-0.1-1.3-0.3-1.7-0.7C169.9,140.1,170.4,138.9,170.6,137.9z M173.9,132.2c0,0.4-0.1,0.8-0.4,1.1
		c-0.3,0.3-0.7,0.5-1.1,0.5c-0.4,0-0.8-0.2-1.1-0.5s-0.5-0.7-0.5-1.1s0.2-0.8,0.5-1.1s0.7-0.5,1.1-0.5c0.4,0,0.8,0.2,1.1,0.5
		S173.9,131.8,173.9,132.2z"/>
	<path style="fill:#4CAF50;" d="M179.9,135.2c0.5-0.5,1-0.7,1.7-0.8c0.6-0.1,1.1,0.1,1.5,0.4c-0.2,2.8-1.3,5.3-3.4,7.6
		c-0.8,0.2-1.5,0.1-2.3-0.1c-0.7-0.2-1.3-0.6-1.7-1.2c0.3-1.5,0.3-2.6,0-3.3l-1.2-1.5c0.6-1.2,1.6-1.7,3.1-1.7
		c0.8,1.3,1.1,3.2,1,5.9l0.2,0.1c1-1.2,1.6-2.4,1.9-3.6L179.9,135.2z"/>
	<path style="fill:#4CAF50;" d="M190,139.7c0.3,0,0.6,0.1,0.8,0.3s0.2,0.5,0.1,1c-0.4,0.4-1,0.8-1.9,1.1c-0.8,0.3-1.7,0.5-2.4,0.5
		c-1.1-0.2-2-0.6-2.5-1.1c-0.6-0.6-0.8-1.3-0.8-2.1c0.1-1.1,0.5-2,1.3-2.9c1.5-1,3-1.7,4.4-1.8c0.7,0.1,1.2,0.3,1.6,0.6
		c0.7,0.6,0.8,1.6,0.3,3c-0.5,0.3-1.2,0.6-2.1,0.9c-0.9,0.3-1.6,0.5-2.3,0.7c0.1,0.4,0.2,0.7,0.5,1.1
		C188.1,140.6,189.1,140.3,190,139.7z M187.8,136.1l-0.3,0.1c-0.7,0.7-1,1.5-1.1,2.4c0.7-0.2,1.3-0.5,1.8-0.8
		C188.5,137.1,188.3,136.5,187.8,136.1z"/>
	<path style="fill:#4CAF50;" d="M201.2,136.7l-0.7,2.2c0,1.1,0.1,2.2,0.4,3.2c-0.3,0.4-0.8,0.5-1.6,0.4s-1.4-0.3-2-0.8
		c0-0.6,0.1-1.4,0.3-2.2s0.3-1.5,0.5-2c-0.1-0.3-0.3-0.6-0.5-0.7c-0.5,0.3-1.2,0.8-1.9,1.5c0,1-0.1,2.2-0.2,3.8
		c-0.5,0.4-1.1,0.5-2,0.4s-1.4-0.4-1.6-0.7c0.5-1.3,1-2.7,1.4-4l-0.5-2.2c0.8-0.7,1.8-1,2.9-0.8c0.1,0.4,0.2,0.8,0.2,1.2l-0.5,0.6
		l0.2,0.3c0.8-0.8,1.6-1.5,2.6-2.2c0.8,0,1.5,0.3,2,0.7C200.6,135.7,201,136.2,201.2,136.7z"/>
	<path style="fill:#4CAF50;" d="M202.3,139.3c0-0.6,0.1-1.2,0.3-1.6c0.2-0.5,0.6-0.9,1-1.4c1.1-1,2.4-1.6,3.8-1.9
		c0.9,0.2,1.5,0.4,1.9,0.8c0.2,0.2,0.3,0.4,0.4,0.7c0.1,0.2,0.2,0.5,0.3,0.9c-0.1,0.5-0.4,0.9-1,1.1c-0.5,0.2-1.2,0.3-2.1,0.2
		c0.1-0.6,0-1.3-0.4-2.1l-0.4,0.1c-0.5,0.8-0.8,1.7-0.8,2.6c0,0.8,0.2,1.4,0.7,2c1-0.3,1.9-0.7,2.7-1.3c0.3,0,0.6,0.1,0.7,0.3
		c0.2,0.2,0.2,0.5,0.1,1c-0.4,0.4-1,0.8-1.7,1.1s-1.5,0.5-2.3,0.6c-1.2-0.1-2.1-0.5-2.7-1.1C202.6,140.8,202.3,140.1,202.3,139.3z"
		/>
	<path style="fill:#4CAF50;" d="M212,137.9l-0.1-2.8c1.4-0.6,2.4-0.7,3.2-0.2l-0.7,2.5c-0.1,0.7-0.1,2.2-0.2,4.5
		c-0.4,0.4-1.1,0.5-1.8,0.4c-0.8-0.1-1.3-0.3-1.7-0.7C211.3,140.1,211.8,138.9,212,137.9z M215.3,132.2c0,0.4-0.1,0.8-0.4,1.1
		c-0.3,0.3-0.7,0.5-1.1,0.5c-0.4,0-0.8-0.2-1.1-0.5s-0.5-0.7-0.5-1.1s0.2-0.8,0.5-1.1s0.7-0.5,1.1-0.5c0.4,0,0.8,0.2,1.1,0.5
		C215.1,131.4,215.3,131.8,215.3,132.2z"/>
	<path style="fill:#4CAF50;" d="M215.8,139.2c0-1.1,0.5-2.1,1.5-3.1s2.3-1.5,3.9-1.5c0.4,0.3,0.8,0.9,1.2,1.7c0-0.7,0-1.2,0.3-1.5
		c0.9-0.2,1.7-0.2,2.1-0.1c0.5,0.1,0.8,0.4,1,0.9l-1.3,2.4c0,1.3,0.1,2.7,0.3,4.1c-0.3,0.4-0.8,0.5-1.6,0.4s-1.4-0.3-2-0.8l0.6-1.2
		l-0.2-0.3c-0.9,0.8-1.6,1.5-2.1,2.1c-1.2-0.1-2.2-0.4-2.7-0.9C216.1,140.8,215.8,140,215.8,139.2z M219.6,137.6
		c-0.3,0.5-0.5,1-0.5,1.6c0,0.5,0.2,0.9,0.5,1.1c0.6-0.4,1.4-1,2.4-1.8l0.1-0.8c-0.3-0.6-0.7-1.1-1.1-1.3
		C220.4,136.6,220,137.1,219.6,137.6z"/>
	<path style="fill:#4CAF50;" d="M238,133.2l-0.3,0.1c-0.6,0.6-1.1,1.3-1.4,2.1c-0.3,0.7-0.5,1.5-0.5,2.2s0.1,1.3,0.4,1.7
		c0.3,0.4,0.6,0.8,1.2,1.1c1.1-0.4,2-0.9,2.8-1.4c0.4,0,0.6,0.1,0.8,0.3s0.2,0.5,0.2,0.9c-1,1-2.3,1.8-4.1,2.3
		c-1.4-0.2-2.5-0.7-3.3-1.5s-1.2-1.9-1.1-3.1c0-0.6,0.1-1.3,0.3-1.9c0.2-0.6,0.5-1.3,1-2c0.8-0.7,1.5-1.2,2.3-1.6
		c0.8-0.3,1.7-0.6,2.7-0.7c0.8,0.3,1.5,0.7,1.9,1.3c0.4,0.5,0.7,1.2,0.8,1.9c-0.1,0.4-0.5,0.7-1.2,0.9c-0.6,0.2-1.3,0.1-1.9-0.2
		C238.5,134.4,238.3,133.6,238,133.2z"/>
	<path style="fill:#4CAF50;" d="M243.2,137.9l-0.1-2.8c1.4-0.6,2.4-0.7,3.2-0.2l-0.7,2.5c-0.1,0.7-0.1,2.2-0.2,4.5
		c-0.4,0.4-1.1,0.5-1.8,0.4c-0.8-0.1-1.3-0.3-1.7-0.7C242.6,140.1,243,138.9,243.2,137.9z M246.6,132.2c0,0.4-0.1,0.8-0.4,1.1
		c-0.3,0.3-0.7,0.5-1.1,0.5s-0.8-0.2-1.1-0.5s-0.5-0.7-0.5-1.1s0.2-0.8,0.5-1.1s0.7-0.5,1.1-0.5s0.8,0.2,1.1,0.5
		C246.4,131.4,246.6,131.8,246.6,132.2z"/>
	<path style="fill:#4CAF50;" d="M247.9,138.1l-0.3-3.3c0.6-0.2,1.2-0.3,1.9-0.2s1.2,0.4,1.5,0.8c0,0.5-0.1,1.1-0.4,1.9
		s-0.5,1.5-0.9,2.1c0.1,0.3,0.4,0.5,1,0.7c0.8-0.8,1.3-1.4,1.6-1.8c0.3-1.7,0.6-2.9,0.8-3.7c0.9-0.2,1.7-0.2,2.2-0.1s0.8,0.4,1,0.8
		l-1.2,2.4c0,1.2,0.2,2.6,0.4,4.1c-0.3,0.4-0.8,0.5-1.6,0.4s-1.5-0.3-2-0.8l0.6-1.3l-0.2-0.1c-0.2,0.2-0.8,1-1.9,2.2
		c-2.1-0.2-3.3-1-3.6-2.3L247.9,138.1z"/>
	<path style="fill:#4CAF50;" d="M264.3,134.9l-0.2-3.8c1.4-0.6,2.5-0.7,3.3-0.3l-1,3.5c-0.1,0.6-0.3,3.2-0.8,7.8
		c-0.4,0.3-0.9,0.5-1.8,0.4c-0.8-0.1-1.4-0.3-1.8-0.8l0.9-1.1l-0.2-0.2c-0.8,0.7-1.5,1.4-2,2c-1.2,0-2.1-0.3-2.7-0.9
		c-0.6-0.6-0.9-1.3-0.9-2.2c0-0.5,0.2-1.1,0.4-1.6c0.3-0.5,0.6-1,1.1-1.5s1-0.8,1.8-1.1c0.7-0.3,1.5-0.4,2.3-0.4
		c0.5,0.4,0.9,1.1,1.3,1.9C264.1,135.9,264.3,135.4,264.3,134.9z M263.4,138.4l0.2-0.8c-0.4-0.6-0.8-1.1-1.2-1.3
		c-0.6,0.3-1,0.7-1.4,1.2c-0.3,0.5-0.5,1-0.5,1.5s0.1,0.9,0.5,1.1C261.6,139.8,262.4,139.2,263.4,138.4z"/>
	<path style="fill:#4CAF50;" d="M267.3,139.2c0-1.1,0.5-2.1,1.5-3.1s2.3-1.5,3.9-1.5c0.4,0.3,0.8,0.9,1.2,1.7c0-0.7,0-1.2,0.3-1.5
		c0.9-0.2,1.7-0.2,2.1-0.1c0.5,0.1,0.8,0.4,1,0.9L276,138c0,1.3,0.1,2.7,0.3,4.1c-0.3,0.4-0.8,0.5-1.6,0.4c-0.8-0.1-1.4-0.3-2-0.8
		l0.6-1.2l-0.2-0.3c-0.9,0.8-1.6,1.5-2.1,2.1c-1.2-0.1-2.2-0.4-2.7-0.9C267.6,140.8,267.3,140,267.3,139.2z M271.2,137.6
		c-0.3,0.5-0.5,1-0.5,1.6c0,0.5,0.2,0.9,0.5,1.1c0.6-0.4,1.4-1,2.4-1.8l0.1-0.8c-0.3-0.6-0.7-1.1-1.1-1.3
		C272,136.6,271.5,137.1,271.2,137.6z"/>
	<path style="fill:#4CAF50;" d="M285.1,134.9l-0.2-3.8c1.4-0.6,2.5-0.7,3.3-0.3l-1,3.5c-0.1,0.6-0.3,3.2-0.8,7.8
		c-0.4,0.3-0.9,0.5-1.8,0.4c-0.8-0.1-1.4-0.3-1.8-0.8l0.9-1.1l-0.2-0.2c-0.8,0.7-1.5,1.4-2,2c-1.2,0-2.1-0.3-2.7-0.9
		c-0.6-0.6-0.9-1.3-0.9-2.2c0-0.5,0.2-1.1,0.4-1.6c0.3-0.5,0.6-1,1.1-1.5c0.5-0.4,1-0.8,1.8-1.1c0.7-0.3,1.5-0.4,2.3-0.4
		c0.5,0.4,0.9,1.1,1.3,1.9C284.9,135.9,285,135.4,285.1,134.9z M284.2,138.4l0.2-0.8c-0.4-0.6-0.8-1.1-1.2-1.3
		c-0.6,0.3-1,0.7-1.4,1.2c-0.3,0.5-0.5,1-0.5,1.5s0.1,0.9,0.5,1.1C282.4,139.8,283.2,139.2,284.2,138.4z"/>
	<path style="fill:#4CAF50;" d="M288.1,139.2c0-1.1,0.5-2.1,1.5-3.1s2.3-1.5,3.9-1.5c0.4,0.3,0.8,0.9,1.2,1.7c0-0.7,0-1.2,0.3-1.5
		c0.9-0.2,1.7-0.2,2.1-0.1c0.5,0.1,0.8,0.4,1,0.9l-1.3,2.4c0,1.3,0.1,2.7,0.3,4.1c-0.3,0.4-0.8,0.5-1.6,0.4c-0.8-0.1-1.4-0.3-2-0.8
		l0.6-1.2l-0.2-0.3c-0.9,0.8-1.6,1.5-2.1,2.1c-1.2-0.1-2.2-0.4-2.7-0.9C288.4,140.8,288.1,140,288.1,139.2z M292,137.6
		c-0.3,0.5-0.5,1-0.5,1.6c0,0.5,0.2,0.9,0.5,1.1c0.6-0.4,1.4-1,2.4-1.8l0.1-0.8c-0.3-0.6-0.7-1.1-1.1-1.3
		C292.8,136.6,292.3,137.1,292,137.6z"/>
	<path style="fill:#4CAF50;" d="M307.8,136.7l-0.7,2.2c0,1.1,0.1,2.2,0.4,3.2c-0.3,0.4-0.8,0.5-1.6,0.4c-0.8-0.1-1.4-0.3-2-0.8
		c0-0.6,0.1-1.4,0.3-2.2c0.2-0.8,0.3-1.5,0.5-2c-0.1-0.3-0.3-0.6-0.5-0.7c-0.5,0.3-1.2,0.8-1.9,1.5c0,1-0.1,2.2-0.2,3.8
		c-0.5,0.4-1.1,0.5-2,0.4s-1.4-0.4-1.6-0.7c0.5-1.3,1-2.7,1.4-4l-0.5-2.2c0.8-0.7,1.8-1,2.9-0.8c0.1,0.4,0.2,0.8,0.2,1.2l-0.5,0.6
		l0.2,0.3c0.8-0.8,1.6-1.5,2.6-2.2c0.8,0,1.5,0.3,2,0.7C307.3,135.7,307.7,136.2,307.8,136.7z"/>
	<path style="fill:#4CAF50;" d="M308.9,139.2c0-1.1,0.5-2.1,1.5-3.1s2.3-1.5,3.9-1.5c0.4,0.3,0.8,0.9,1.2,1.7c0-0.7,0-1.2,0.3-1.5
		c0.9-0.2,1.7-0.2,2.1-0.1c0.5,0.1,0.8,0.4,1,0.9l-1.3,2.4c0,1.3,0.1,2.7,0.3,4.1c-0.3,0.4-0.8,0.5-1.6,0.4c-0.8-0.1-1.4-0.3-2-0.8
		l0.6-1.2l-0.2-0.3c-0.9,0.8-1.6,1.5-2.1,2.1c-1.2-0.1-2.2-0.4-2.7-0.9C309.2,140.8,308.9,140,308.9,139.2z M312.8,137.6
		c-0.3,0.5-0.5,1-0.5,1.6c0,0.5,0.2,0.9,0.5,1.1c0.6-0.4,1.4-1,2.4-1.8l0.1-0.8c-0.3-0.6-0.7-1.1-1.1-1.3
		C313.6,136.6,313.1,137.1,312.8,137.6z"/>
</g>
</svg>
