<?xml version="1.0" encoding="iso-8859-1"?>
<!-- Generator: Adobe Illustrator 22.1.0, SVG Export Plug-In . SVG Version: 6.00 Build 0)  -->
<svg version="1.1" id="Capa_1" xmlns="http://www.w3.org/2000/svg" xmlns:xlink="http://www.w3.org/1999/xlink" x="0px" y="0px"
	 viewBox="0 0 432.8 183" style="enable-background:new 0 0 432.8 183;" xml:space="preserve">
<path style="fill:#303F9F;" d="M431.5,86.9L384.4,5.3c-1.7-3-5-4.9-8.4-4.9h-65c-1.8-0.3-3.7-0.4-5.7-0.4H89c-2,0-3.9,0.1-5.7,0.4
	H56.8c-3.5,0-6.7,1.9-8.4,4.9L1.3,86.9c-1.7,3-1.7,6.7,0,9.7l47.1,81.6c1.7,3,5,4.9,8.4,4.9H151c1,0,1.9-0.2,2.8-0.4H279
	c0.9,0.3,1.8,0.4,2.8,0.4H376c3.5,0,6.7-1.9,8.4-4.9l47.1-81.6C433.2,93.6,433.2,89.9,431.5,86.9z"/>
<g>
	<g>
		<path style="fill:#FFFFFF;" d="M130.7,50.7c0.7-0.6,1.7-1.2,2.8-1.7c1.1-0.6,2.3-0.9,3.6-1.2c1.8-0.3,3.6-0.5,5.4-0.6
			c1.8-0.1,3.6-0.1,5.3,0.1c1.7,0.1,3.3,0.3,4.8,0.6s2.8,0.7,3.8,1.1l0,0c0.7,0.3,1.4,0.6,2.2,0.9c0.8,0.3,1.5,0.7,2.3,1.1
			c0.7,0.4,1.4,0.8,2.1,1.3c0.7,0.5,1.2,1,1.7,1.6s0.9,1.3,1.1,2c0.2,0.7,0.3,1.4,0.3,2.2c0,0.7-0.2,1.4-0.5,2s-0.7,1.2-1.3,1.7
			c-0.4,0.3-0.7,0.5-1,0.7c-0.3,0.1-0.5,0.2-0.7,0.2s-0.4-0.1-0.5-0.2c-0.2-0.1-0.3-0.3-0.5-0.5c-0.3-0.3-0.4-0.6-0.4-0.9
			c0-0.3,0-0.5,0.1-0.8c0.1-0.2,0.2-0.5,0.4-0.7s0.3-0.5,0.4-0.7c0.1-0.2,0.2-0.4,0.2-0.7c0-0.2-0.1-0.4-0.2-0.7
			c-0.5-0.6-1.1-1.1-1.9-1.6c-0.8-0.5-1.6-0.9-2.6-1.3c-1-0.4-2-0.7-3-1c-1.1-0.3-2.1-0.6-3.1-0.8s-2-0.4-3-0.5
			c-0.9-0.1-1.8-0.2-2.5-0.3c-1.1,0-2.2,0-3.3,0c-1.1,0.1-2.1,0.2-3.1,0.4s-1.9,0.5-2.8,0.9c-0.9,0.4-1.7,0.9-2.5,1.6
			c-0.6,0.5-1.1,1-1.4,1.6c-0.3,0.6-0.5,1.1-0.7,1.6c-0.2,0.6-0.1,1.1,0,1.7c0.2,0.5,0.5,1.1,1,1.6c1,1.2,2,2.3,3.1,3.2
			c1.1,0.9,2.1,1.7,3.3,2.3c1.1,0.7,2.3,1.3,3.5,1.8s2.5,1.1,3.8,1.6l0.5,0.6c0.2,0.2,0.3,0.4,0.3,0.7c0.1,0.3,0.1,0.5,0.1,0.8
			s-0.1,0.5-0.2,0.8c-0.1,0.2-0.2,0.4-0.4,0.6c-0.4,0.3-1,0.5-1.7,0.5s-1.5-0.2-2.4-0.5s-1.7-0.7-2.7-1.1c-0.9-0.5-1.8-1-2.7-1.5
			c-0.8-0.5-1.6-1-2.3-1.5s-1.2-0.9-1.6-1.2c-0.3-0.3-0.6-0.5-0.9-0.8c-0.3-0.3-0.6-0.6-1-0.9c-0.4-0.4-0.8-0.8-1.3-1.3
			s-1.1-1.2-1.8-2.1c-0.4-0.5-0.7-1.1-0.9-1.6c-0.2-0.6-0.4-1.1-0.4-1.6c-0.1-0.5-0.1-1-0.1-1.4s0.1-0.8,0.1-1
			c0.2-1.6,0.5-2.9,1.1-4C128.9,52.5,129.7,51.6,130.7,50.7z"/>
		<path style="fill:#FFFFFF;" d="M136.9,41.2c0.8-0.5,1.8-1,2.9-1.5c1.1-0.5,2.4-0.7,3.7-0.8c1.8-0.1,3.6-0.2,5.5-0.1
			c1.8,0.1,3.6,0.3,5.3,0.6s3.2,0.6,4.7,1c1.4,0.4,2.7,0.9,3.7,1.5l0,0c0.7,0.3,1.4,0.7,2.1,1.1s1.4,0.8,2.1,1.3
			c0.7,0.5,1.4,0.9,2,1.5c0.6,0.5,1.1,1.1,1.6,1.8c0.4,0.7,0.7,1.3,0.9,2.1c0.2,0.7,0.2,1.5,0.1,2.2c-0.1,0.7-0.3,1.4-0.7,2
			s-0.8,1.1-1.4,1.5c-0.4,0.3-0.8,0.5-1,0.6c-0.3,0.1-0.5,0.1-0.7,0.1s-0.4-0.1-0.5-0.3s-0.3-0.4-0.5-0.6c-0.2-0.3-0.3-0.7-0.3-0.9
			c0-0.3,0.1-0.5,0.2-0.8c0.1-0.2,0.3-0.5,0.4-0.7c0.2-0.2,0.3-0.4,0.5-0.6c0.1-0.2,0.2-0.4,0.3-0.6c0-0.2,0-0.4-0.2-0.7
			c-0.4-0.6-1-1.2-1.7-1.8s-1.6-1.1-2.5-1.6s-1.9-0.9-2.9-1.3c-1-0.4-2-0.8-3-1.1s-2-0.6-2.9-0.8s-1.7-0.4-2.4-0.5
			c-1.1-0.2-2.2-0.2-3.3-0.3c-1.1,0-2.1,0-3.1,0.1s-2,0.4-2.9,0.7s-1.8,0.8-2.7,1.3c-0.7,0.4-1.2,0.9-1.5,1.5
			c-0.4,0.5-0.6,1.1-0.8,1.5c-0.2,0.6-0.3,1.1-0.1,1.7c0.1,0.5,0.4,1.1,0.8,1.7c0.9,1.3,1.8,2.5,2.8,3.4c1,1,2,1.8,3,2.6
			s2.2,1.5,3.3,2.1c1.2,0.6,2.4,1.3,3.6,1.9l0.4,0.6c0.1,0.2,0.2,0.4,0.3,0.7c0,0.3,0,0.5,0,0.8s-0.1,0.5-0.2,0.7
			c-0.1,0.2-0.3,0.4-0.5,0.5c-0.5,0.3-1,0.4-1.7,0.3s-1.5-0.3-2.3-0.7c-0.8-0.4-1.7-0.8-2.6-1.4c-0.9-0.6-1.7-1.1-2.5-1.7
			c-0.8-0.6-1.5-1.1-2.1-1.7c-0.6-0.5-1.1-1-1.5-1.3c-0.3-0.3-0.6-0.6-0.9-0.9c-0.3-0.3-0.6-0.6-0.9-1c-0.4-0.4-0.7-0.9-1.2-1.5
			c-0.4-0.6-1-1.3-1.6-2.2c-0.4-0.6-0.6-1.1-0.8-1.7c-0.2-0.6-0.2-1.1-0.3-1.6c0-0.5,0-1,0-1.4c0.1-0.4,0.1-0.7,0.2-1
			c0.3-1.5,0.8-2.8,1.4-3.9C135,42.8,135.8,41.9,136.9,41.2z"/>
		<path style="fill:#FFFFFF;" d="M158.1,130.7l15.5,5.2c1.2,0.4,2.1,1.1,2.7,2.1c0.6,1,0.8,2,0.4,3c-0.3,1-1.1,1.8-2.2,2.2
			c-1.1,0.4-2.3,0.4-3.4,0l-16-5.4c-2-0.7-4-1.9-5.8-3.8c-1.8-1.8-2.9-3.6-3.3-5.3l-4.4-19.8c-0.5-2.8-0.4-5.5,0.5-8
			c0.9-2.8,2.3-4.9,4.3-6.5l15.4-13c1.5-1.2,3.4-2,5.8-2.5c2.4-0.5,4.5-0.4,6.4,0.2l16.9,5.7c1.2,0.4,2.1,1.1,2.7,2.1
			c0.6,1,0.7,2,0.4,3s-1.1,1.8-2.1,2.2c-1.1,0.5-2.2,0.5-3.4,0.1L172.1,87c-1.4-0.5-2.7-0.1-4,1l-14.6,12c-1.2,0.9-2,2.2-2.5,3.9
			c-0.6,1.7-0.7,3.4-0.3,5l4,18.1C155,128.8,156.2,130,158.1,130.7z"/>
		<path style="fill:#FFFFFF;" d="M169.2,93l12.7,4.3c1,0.3,1.7,0.8,2.3,1.6c0.6,0.7,0.7,1.4,0.5,2.1s-0.8,1.1-1.6,1.4
			c-0.9,0.2-1.8,0.2-2.8-0.1l-13.2-4.4c-1.7-0.6-3.3-1.5-4.8-2.8s-2.5-2.6-2.9-3.7l-4.5-13.7c-0.6-1.9-0.6-3.7,0-5.4
			c0.6-1.8,1.7-3.2,3.1-4.2l11.8-8.1c1.1-0.7,2.6-1.2,4.5-1.4s3.6-0.1,5.2,0.4l13.9,4.7c1,0.3,1.7,0.8,2.3,1.6
			c0.5,0.7,0.7,1.4,0.5,2.1s-0.8,1.2-1.6,1.4c-0.9,0.3-1.8,0.2-2.7-0.1l-13.4-4.5c-1.1-0.4-2.2-0.2-3.2,0.5L164,71.9
			c-0.9,0.6-1.5,1.4-1.9,2.5s-0.4,2.3,0,3.4l4.1,12.5C166.6,91.5,167.6,92.4,169.2,93z"/>
		<path style="fill:#FFFFFF;" d="M202,94.4l5.9,2c0.5,0.2,0.8,0.4,1.1,0.7c0.3,0.3,0.3,0.7,0.2,1s-0.4,0.5-0.8,0.6
			c-0.4,0.1-0.8,0.1-1.3-0.1l-6.1-2c-0.8-0.3-1.5-0.7-2.2-1.3c-0.7-0.6-1.2-1.2-1.4-1.7l-2.1-6.4c-0.3-0.9-0.3-1.7,0-2.5
			s0.8-1.5,1.5-2l5.5-3.8c0.5-0.3,1.2-0.6,2.1-0.7c0.9-0.1,1.7,0,2.4,0.2l6.5,2.2c0.5,0.2,0.8,0.4,1,0.7c0.2,0.3,0.3,0.7,0.2,1
			s-0.4,0.5-0.8,0.7c-0.4,0.1-0.8,0.1-1.3,0l-6.2-2.1c-0.5-0.2-1-0.1-1.5,0.2l-5.2,3.5c-0.4,0.3-0.7,0.7-0.9,1.2s-0.2,1.1,0,1.6
			l1.9,5.8C200.8,93.8,201.2,94.2,202,94.4z"/>
		<path style="fill:#FFFFFF;" d="M198,105.4l5.9,2c0.5,0.2,0.8,0.4,1.1,0.7c0.3,0.3,0.3,0.7,0.2,1s-0.4,0.5-0.8,0.6
			c-0.4,0.1-0.8,0.1-1.3-0.1l-6.1-2c-0.8-0.3-1.5-0.7-2.2-1.3c-0.7-0.6-1.2-1.2-1.4-1.7l-2.1-6.4c-0.3-0.9-0.3-1.7,0-2.5
			s0.8-1.5,1.5-2l5.5-3.8c0.5-0.3,1.2-0.6,2.1-0.7c0.9-0.1,1.7,0,2.4,0.2l6.5,2.2c0.5,0.2,0.8,0.4,1,0.7c0.2,0.3,0.3,0.7,0.2,1
			s-0.4,0.5-0.8,0.7c-0.4,0.1-0.8,0.1-1.3,0l-6.2-2.1c-0.5-0.2-1-0.1-1.5,0.2l-5.2,3.5c-0.4,0.3-0.7,0.7-0.9,1.2s-0.2,1.1,0,1.6
			l1.9,5.8C196.8,104.8,197.2,105.2,198,105.4z"/>
		<path style="fill:#FFFFFF;" d="M210.3,47.7l-1.7-9.6c-0.2-0.9-0.6-1.8-1.4-2.8c-0.8-1-1.6-1.7-2.5-2.1l-0.7-0.3l0,0
			c-0.3-0.5-0.8-0.8-1.4-1l-2.4-0.7l-3.8-1.7c-0.6-0.3-1.2-0.3-1.7-0.2c-0.1,0-0.3,0.1-0.4,0.1l-0.5-0.1c-1-0.3-2.1-0.3-3.3-0.1
			c-1.2,0.2-2.2,0.6-2.9,1.2l-7.6,6.2c-0.9,0.8-1.6,1.8-2,3.1c-0.4,1.2-0.3,2.4,0,3.8l2.9,9.4c0.3,0.8,0.9,1.6,1.9,2.5
			s2,1.5,3.1,1.8l4.3,1.3l2.5,1.1c1,0.5,2.2,0.7,3.5,0.7s2.3-0.2,3-0.7l8.3-5.2c1.1-0.8,2-1.7,2.5-2.9
			C210.4,50.1,210.5,48.9,210.3,47.7z M205.4,49.3c-0.4,0.8-0.9,1.4-1.5,1.8l-7.6,4.8c-0.2,0.2-0.5,0.2-0.7,0.3
			c-0.1-0.1-0.3-0.1-0.4-0.2l-3.9-1.2l-5.2-2.4c-0.2-0.1-0.4-0.2-0.7-0.2c-0.1-0.1-0.1-0.3-0.2-0.4l-2.6-8.6c-0.2-0.8-0.2-1.5,0-2.4
			c0.2-0.8,0.6-1.4,1.2-1.9l7.2-5.8c0.6-0.5,1.3-0.7,2-0.5l5.9,1.7l4.1,1.8c0.7,0.3,1.1,0.9,1.2,1.7l1.6,9.1
			C205.9,47.8,205.8,48.5,205.4,49.3z"/>
		<polygon style="fill:#FFFFFF;" points="150,138.1 162.3,142.2 145.8,153.7 		"/>
	</g>
	<path style="fill:#FFFFFF;" d="M97.9,71.8l-2.3,0.6c-4.8,4.9-8.5,10.2-10.9,15.9C82.3,94,81,99.5,81,104.8c-0.1,5.3,0.9,9.6,2.9,13
		s5.1,6.2,9.3,8.5c8.8-3.1,16-6.7,21.9-10.8c3-0.2,5.1,0.5,6.4,2c1.2,1.6,1.8,3.8,1.7,6.8c-7.5,7.8-18.4,13.7-32.4,17.8
		c-11.2-1.5-19.8-5.4-25.9-11.7s-9.1-14.2-9-23.5c0.1-4.9,1-9.7,2.7-14.2c1.7-4.6,4.3-9.6,7.8-15.1c6-5.3,12.1-9.3,18.3-11.8
		c6.2-2.6,13.3-4.3,21.3-5.3c6.6,2.4,11.5,5.6,14.8,9.7c3.2,4,5.3,8.9,6.1,14.8c-1.1,3.1-4.2,5.4-9.1,6.8s-10,1-15.2-1.2
		C101.9,80.9,100.5,74.6,97.9,71.8z"/>
	<path style="fill:#FFFFFF;" d="M266.9,71.8l-2.3,0.6c-4.8,4.9-8.5,10.2-10.9,15.9c-2.4,5.7-3.7,11.2-3.7,16.5
		c-0.1,5.3,0.9,9.6,2.9,13s5.1,6.2,9.3,8.5c8.8-3.1,16-6.7,21.9-10.8c3-0.2,5.1,0.5,6.4,2c1.2,1.6,1.8,3.8,1.7,6.8
		c-7.5,7.8-18.4,13.7-32.4,17.8c-11.2-1.5-19.8-5.4-25.9-11.7c-6.1-6.3-9.1-14.2-9-23.5c0.1-4.9,1-9.7,2.7-14.2
		c1.7-4.6,4.3-9.6,7.8-15.1c6-5.3,12.1-9.3,18.3-11.8c6.2-2.6,13.3-4.3,21.3-5.3c6.6,2.4,11.5,5.6,14.8,9.7c3.2,4,5.3,8.9,6.1,14.8
		c-1.1,3.1-4.2,5.4-9.1,6.8s-10,1-15.2-1.2C270.9,80.9,269.4,74.6,266.9,71.8z"/>
	<path style="fill:#FFFFFF;" d="M344.2,71.8l-2.3,0.6c-4.8,4.9-8.5,10.2-10.9,15.9c-2.4,5.7-3.7,11.2-3.7,16.5
		c-0.1,5.3,0.9,9.6,2.9,13s5.1,6.2,9.3,8.5c8.8-3.1,16-6.7,21.9-10.8c3-0.2,5.1,0.5,6.4,2c1.2,1.6,1.8,3.8,1.7,6.8
		c-7.5,7.8-18.4,13.7-32.4,17.8c-11.2-1.5-19.8-5.4-25.9-11.7s-9.1-14.2-9-23.5c0.1-4.9,1-9.7,2.7-14.2c1.7-4.6,4.3-9.6,7.8-15.1
		c6-5.3,12.1-9.3,18.3-11.8c6.2-2.6,13.3-4.3,21.3-5.3c6.6,2.4,11.5,5.6,14.8,9.7c3.2,4,5.3,8.9,6.1,14.8c-1.1,3.1-4.2,5.4-9.1,6.8
		s-10,1-15.2-1.2C348.2,80.9,346.8,74.6,344.2,71.8z"/>
</g>
<g>
	<path style="fill:#FFFFFF;" d="M60.1,159.7l-0.3,0.1c-0.6,0.6-1.1,1.3-1.4,2.1c-0.3,0.7-0.5,1.5-0.5,2.2s0.1,1.3,0.4,1.7
		c0.3,0.4,0.6,0.8,1.2,1.1c1.1-0.4,2-0.9,2.8-1.4c0.4,0,0.6,0.1,0.8,0.3s0.2,0.5,0.2,0.9c-1,1-2.3,1.8-4.1,2.3
		c-1.4-0.2-2.5-0.7-3.3-1.5s-1.2-1.9-1.1-3.1c0-0.6,0.1-1.3,0.3-1.9c0.2-0.6,0.5-1.3,1-2c0.8-0.7,1.5-1.2,2.3-1.6
		c0.8-0.3,1.7-0.6,2.7-0.7c0.8,0.3,1.5,0.7,1.9,1.3c0.4,0.5,0.7,1.2,0.8,1.9c-0.1,0.4-0.5,0.7-1.2,0.9c-0.6,0.2-1.3,0.1-1.9-0.2
		C60.7,160.9,60.5,160,60.1,159.7z"/>
	<path style="fill:#FFFFFF;" d="M65.2,164.5l-0.3-3.3c0.6-0.2,1.2-0.3,1.9-0.2c0.7,0.1,1.2,0.4,1.5,0.8c0,0.5-0.1,1.1-0.4,1.9
		c-0.3,0.8-0.5,1.5-0.9,2.1c0.1,0.3,0.4,0.5,1,0.7c0.8-0.8,1.3-1.4,1.6-1.8c0.3-1.7,0.6-2.9,0.8-3.7c0.9-0.2,1.7-0.2,2.2-0.1
		s0.8,0.4,1,0.8l-1.2,2.4c0,1.2,0.2,2.6,0.4,4.1c-0.3,0.4-0.8,0.5-1.6,0.4c-0.8-0.1-1.5-0.3-2-0.8l0.6-1.3l-0.2-0.1
		c-0.2,0.2-0.8,1-1.9,2.2c-2.1-0.2-3.3-1-3.6-2.3L65.2,164.5z"/>
	<path style="fill:#FFFFFF;" d="M76.1,161.4l-0.2-3.7c0.6-0.4,1.2-0.6,1.8-0.7c0.6-0.1,1.1,0,1.6,0.2l-1,3.4c-0.3,5-0.4,7.6-0.4,7.8
		c-0.3,0.3-0.7,0.4-1.2,0.4c-0.6,0-1.1,0-1.6-0.2c-0.5-0.1-0.8-0.3-0.9-0.6C75.1,166.3,75.7,164,76.1,161.4z"/>
	<path style="fill:#FFFFFF;" d="M84.3,162L84.3,162c-0.1,0.8-0.2,1.8-0.3,3c-0.1,1.2-0.2,1.9-0.2,2.1c0.7-0.4,1.5-0.8,2.2-1.4
		c0.4,0,0.6,0.1,0.8,0.3c0.1,0.2,0.2,0.5,0.1,0.9c-1.2,1.1-2.4,1.7-3.6,2c-1.4-0.1-2.3-0.7-2.7-1.7c0.6-1.6,1.1-3.2,1.5-4.8
		l-1.8,0.3c-0.2-0.3-0.4-0.5-0.4-0.8c0-0.2,0.1-0.5,0.3-0.9l2,0.1l-0.2-2.6c0.7-0.4,1.4-0.6,2-0.7c0.6,0,1,0.1,1.3,0.5l-0.7,2.4
		l2.4-0.4c0.4,0.4,0.4,0.9,0,1.6L84.3,162z"/>
	<path style="fill:#FFFFFF;" d="M88.7,164.5l-0.3-3.3c0.6-0.2,1.2-0.3,1.9-0.2c0.7,0.1,1.2,0.4,1.5,0.8c0,0.5-0.1,1.1-0.4,1.9
		c-0.3,0.8-0.5,1.5-0.9,2.1c0.1,0.3,0.4,0.5,1,0.7c0.8-0.8,1.3-1.4,1.6-1.8c0.3-1.7,0.6-2.9,0.8-3.7c0.9-0.2,1.7-0.2,2.2-0.1
		c0.5,0.1,0.8,0.4,1,0.8l-1.2,2.4c0,1.2,0.2,2.6,0.4,4.1c-0.3,0.4-0.8,0.5-1.6,0.4c-0.8-0.1-1.5-0.3-2-0.8l0.6-1.3l-0.2-0.1
		c-0.2,0.2-0.8,1-1.9,2.2c-2.1-0.2-3.3-1-3.6-2.3L88.7,164.5z"/>
	<path style="fill:#FFFFFF;" d="M101.5,163.2l2.3-2.2c0.7,0.2,1.2,0.5,1.6,1s0.6,1.2,0.7,2c-0.4,0.4-0.8,0.6-1.3,0.6
		c-0.5,0.1-1,0-1.5-0.3c0-0.2-0.1-0.5-0.2-1c-0.1,0.1-0.6,0.5-1.3,1.1c0,1.1-0.1,2.4-0.2,4c-0.5,0.4-1.1,0.5-2,0.4s-1.4-0.4-1.6-0.7
		c0.5-1.3,1-2.7,1.4-4l-0.5-2.2c0.4-0.4,0.9-0.6,1.5-0.7c0.6-0.1,1-0.1,1.5-0.1c0.1,0.4,0.2,0.8,0.2,1.2l-0.5,0.6L101.5,163.2z"/>
	<path style="fill:#FFFFFF;" d="M106.3,165.6c0-1.1,0.5-2.1,1.5-3.1s2.3-1.5,3.9-1.5c0.4,0.3,0.8,0.9,1.2,1.7c0-0.7,0-1.2,0.3-1.5
		c0.9-0.2,1.7-0.2,2.1-0.1c0.5,0.1,0.8,0.4,1,0.9l-1.3,2.4c0,1.3,0.1,2.7,0.3,4.1c-0.3,0.4-0.8,0.5-1.6,0.4c-0.8-0.1-1.4-0.3-2-0.8
		l0.6-1.2l-0.2-0.3c-0.9,0.8-1.6,1.5-2.1,2.1c-1.2-0.1-2.2-0.4-2.7-0.9C106.6,167.2,106.3,166.5,106.3,165.6z M110.2,164
		c-0.3,0.5-0.5,1-0.5,1.6c0,0.5,0.2,0.9,0.5,1.1c0.6-0.4,1.4-1,2.4-1.8l0.1-0.8c-0.3-0.6-0.7-1.1-1.1-1.3
		C111,163.1,110.5,163.5,110.2,164z"/>
	<path style="fill:#FFFFFF;" d="M129.8,160c-0.8,0-1.4,0-1.8,0.1l-0.4,1l-0.4,1.9c1.7-0.3,2.8-0.4,3.1-0.4c0.2,0.1,0.3,0.3,0.3,0.6
		c0.1,0.4,0,0.9-0.3,1.4c-1.2-0.1-2.3-0.2-3.3-0.2l-0.5,2.8c1.9-0.3,3.4-0.6,4.4-0.9c0.3,0.1,0.5,0.3,0.6,0.6c0.2,0.5,0,1.1-0.5,1.7
		l-5.5,0.3c-1.4-0.3-2.1-1-2.2-1.9c0-0.1,0.1-0.4,0.3-0.8c0.1-0.4,0.2-0.7,0.3-0.8c0-0.1,0.1-0.3,0.2-0.6s0.2-0.5,0.2-0.7
		s0.1-0.3,0.2-0.6s0.1-0.5,0.2-0.8c0.1-0.2,0.1-0.5,0.2-0.8l-0.1-1.9c-0.4-0.1-0.7-0.2-1-0.3c-0.1-0.2-0.1-0.4-0.1-0.7
		c0-0.2,0.1-0.4,0.2-0.5c1.7-0.1,3.1-0.2,4.2-0.2c1.1,0,2.5,0,4.2,0.1c0.5,1.2,0.1,2.2-1.2,2.8L129.8,160z M129.5,154.1
		c0.7-0.1,1.3-0.1,1.7,0.1c0.4,0.1,0.7,0.5,0.9,0.9l-2.9,2.5c-0.3,0-0.6-0.1-0.8-0.2c-0.2-0.1-0.4-0.3-0.3-0.5l1-1.3L129.5,154.1z"
		/>
	<path style="fill:#FFFFFF;" d="M137.5,162L137.5,162c-0.1,0.8-0.2,1.8-0.3,3s-0.2,1.9-0.2,2.1c0.7-0.4,1.5-0.8,2.2-1.4
		c0.4,0,0.6,0.1,0.8,0.3c0.1,0.2,0.2,0.5,0.1,0.9c-1.2,1.1-2.4,1.7-3.6,2c-1.4-0.1-2.3-0.7-2.7-1.7c0.6-1.6,1.1-3.2,1.5-4.8
		l-1.8,0.3c-0.2-0.3-0.4-0.5-0.4-0.8c0-0.2,0.1-0.5,0.3-0.9l2,0.1l-0.2-2.6c0.7-0.4,1.4-0.6,2-0.7c0.6,0,1,0.1,1.3,0.5l-0.7,2.4
		l2.4-0.4c0.4,0.4,0.4,0.9,0,1.6L137.5,162z"/>
	<path style="fill:#FFFFFF;" d="M142.1,164.4l-0.1-2.8c1.4-0.6,2.4-0.7,3.2-0.2l-0.7,2.5c-0.1,0.7-0.1,2.2-0.2,4.5
		c-0.4,0.4-1.1,0.5-1.8,0.4c-0.8-0.1-1.3-0.3-1.7-0.7C141.4,166.6,141.9,165.3,142.1,164.4z M145.4,158.6c0,0.4-0.1,0.8-0.4,1.1
		c-0.3,0.3-0.7,0.5-1.1,0.5c-0.4,0-0.8-0.2-1.1-0.5s-0.5-0.7-0.5-1.1s0.2-0.8,0.5-1.1s0.7-0.5,1.1-0.5c0.4,0,0.8,0.2,1.1,0.5
		C145.3,157.9,145.4,158.2,145.4,158.6z"/>
	<path style="fill:#FFFFFF;" d="M145.9,165.7c0-0.6,0.1-1.2,0.3-1.6c0.2-0.5,0.6-0.9,1-1.4c1.1-1,2.4-1.6,3.8-1.9
		c0.9,0.2,1.5,0.4,1.9,0.8c0.2,0.2,0.3,0.4,0.4,0.7c0.1,0.2,0.2,0.5,0.3,0.9c-0.1,0.5-0.4,0.9-1,1.1c-0.5,0.2-1.2,0.3-2.1,0.2
		c0.1-0.6,0-1.3-0.4-2.1l-0.4,0.1c-0.5,0.8-0.8,1.7-0.8,2.6c0,0.8,0.2,1.4,0.7,2c1-0.3,1.9-0.7,2.7-1.3c0.3,0,0.6,0.1,0.7,0.3
		c0.2,0.2,0.2,0.5,0.1,1c-0.4,0.4-1,0.8-1.7,1.1s-1.5,0.5-2.3,0.6c-1.2-0.1-2.1-0.5-2.7-1.1C146.2,167.2,145.9,166.5,145.9,165.7z"
		/>
	<path style="fill:#FFFFFF;" d="M154.5,165.6c0-1.1,0.5-2.1,1.5-3.1s2.3-1.5,3.9-1.5c0.4,0.3,0.8,0.9,1.2,1.7c0-0.7,0-1.2,0.3-1.5
		c0.9-0.2,1.7-0.2,2.1-0.1c0.5,0.1,0.8,0.4,1,0.9l-1.3,2.4c0,1.3,0.1,2.7,0.3,4.1c-0.3,0.4-0.8,0.5-1.6,0.4s-1.4-0.3-2-0.8l0.6-1.2
		l-0.2-0.3c-0.9,0.8-1.6,1.5-2.1,2.1c-1.2-0.1-2.2-0.4-2.7-0.9C154.8,167.2,154.5,166.5,154.5,165.6z M158.4,164
		c-0.3,0.5-0.5,1-0.5,1.6c0,0.5,0.2,0.9,0.5,1.1c0.6-0.4,1.4-1,2.4-1.8l0.1-0.8c-0.3-0.6-0.7-1.1-1.1-1.3
		C159.2,163.1,158.7,163.5,158.4,164z"/>
	<path style="fill:#FFFFFF;" d="M176.5,164.9L176.5,164.9c0.2-1.8,0.4-3,0.6-3.7c1-0.2,1.7-0.2,2.2-0.1s0.8,0.4,1,0.8l-1.5,2.5
		c-0.5,3.5-0.7,5.8-0.7,7.2c-0.5,0.6-1.1,1.1-1.8,1.3c-0.8,0.3-1.7,0.4-2.9,0.4c-1.5-0.7-2.4-1.6-2.7-2.7c0.4-0.6,0.9-1,1.5-1.2
		c0.5-0.2,1.1-0.1,1.5,0.1c0.1,0.5,0.2,0.8,0.4,1.1c0.1,0.3,0.3,0.6,0.5,0.9c0.5,0,0.8-0.1,0.9-0.4c0.1-1.1,0.2-2,0.4-2.8l0.7-1.3
		l-0.2-0.2c-0.4,0.5-1,1.1-1.6,1.7c-0.9-0.1-1.7-0.4-2.3-0.7c-0.6-0.4-1-0.9-1.1-1.5l0.7-1.8c0-0.5-0.1-1-0.1-1.7
		c-0.1-0.7-0.1-1.2-0.1-1.5c0.3-0.1,0.7-0.2,1.2-0.2s0.9,0.1,1.3,0.2c0.4,0.2,0.8,0.4,1.1,0.7c-0.1,1.1-0.5,2.4-1.1,3.8
		c0.1,0.3,0.4,0.5,0.7,0.7C175.5,166,176,165.5,176.5,164.9z"/>
	<path style="fill:#FFFFFF;" d="M192.1,159.7l-0.3,0.1c-0.6,0.6-1.1,1.3-1.4,2.1c-0.3,0.7-0.5,1.5-0.5,2.2s0.1,1.3,0.4,1.7
		c0.3,0.4,0.6,0.8,1.2,1.1c1.1-0.4,2-0.9,2.8-1.4c0.4,0,0.6,0.1,0.8,0.3s0.2,0.5,0.2,0.9c-1,1-2.3,1.8-4.1,2.3
		c-1.4-0.2-2.5-0.7-3.3-1.5s-1.2-1.9-1.1-3.1c0-0.6,0.1-1.3,0.3-1.9c0.2-0.6,0.5-1.3,1-2c0.8-0.7,1.5-1.2,2.3-1.6
		c0.8-0.3,1.7-0.6,2.7-0.7c0.8,0.3,1.5,0.7,1.9,1.3c0.4,0.5,0.7,1.2,0.8,1.9c-0.1,0.4-0.5,0.7-1.2,0.9c-0.6,0.2-1.3,0.1-1.9-0.2
		C192.6,160.9,192.4,160,192.1,159.7z"/>
	<path style="fill:#FFFFFF;" d="M196.2,165.4c0-0.4,0.1-0.9,0.4-1.4c0.2-0.5,0.6-1,1-1.5s0.9-0.9,1.6-1.2c0.7-0.3,1.4-0.5,2.1-0.5
		s1.5,0.4,2.2,1.2s1.1,1.6,1.1,2.4c0,0.7-0.2,1.4-0.7,2c-0.5,0.7-1.1,1.2-1.9,1.7c-0.8,0.4-1.6,0.7-2.4,0.7c-0.8,0-1.6-0.4-2.3-1.1
		C196.5,167,196.2,166.3,196.2,165.4z M200.8,162.3c-0.5,0.5-0.9,1-1.2,1.6s-0.5,1.2-0.5,1.8c0,0.3,0.1,0.6,0.2,1
		c0.1,0.3,0.3,0.6,0.5,0.9c0.9-0.7,1.5-1.5,1.8-2.4c0-0.6-0.1-1.2-0.2-1.6C201.4,163.1,201.1,162.7,200.8,162.3z"/>
	<path style="fill:#FFFFFF;" d="M214.3,163.1l-0.7,2.2c0,1.1,0.1,2.2,0.4,3.2c-0.3,0.4-0.8,0.5-1.6,0.4s-1.4-0.3-2-0.8
		c0-0.6,0.1-1.4,0.3-2.2s0.3-1.5,0.5-2c-0.1-0.3-0.3-0.6-0.5-0.7c-0.5,0.3-1.2,0.8-1.9,1.5c0,1-0.1,2.2-0.2,3.8
		c-0.5,0.4-1.1,0.5-2,0.4s-1.4-0.4-1.6-0.7c0.5-1.3,1-2.7,1.4-4l-0.5-2.2c0.8-0.7,1.8-1,2.9-0.8c0.1,0.4,0.2,0.8,0.2,1.2l-0.5,0.6
		l0.2,0.3c0.8-0.8,1.6-1.5,2.6-2.2c0.8,0,1.5,0.3,2,0.7C213.8,162.1,214.1,162.6,214.3,163.1z"/>
	<path style="fill:#FFFFFF;" d="M220.9,161.6c0.5-0.5,1-0.7,1.7-0.8c0.6-0.1,1.1,0.1,1.5,0.4c-0.2,2.8-1.3,5.3-3.4,7.6
		c-0.8,0.2-1.5,0.1-2.3-0.1c-0.7-0.2-1.3-0.6-1.7-1.2c0.3-1.5,0.3-2.6,0-3.3l-1.2-1.5c0.6-1.2,1.6-1.7,3.1-1.7
		c0.8,1.3,1.1,3.2,1,5.9l0.2,0.1c1-1.2,1.6-2.4,1.9-3.6L220.9,161.6z"/>
	<path style="fill:#FFFFFF;" d="M225.4,164.4l-0.1-2.8c1.4-0.6,2.4-0.7,3.2-0.2l-0.7,2.5c-0.1,0.7-0.1,2.2-0.2,4.5
		c-0.4,0.4-1.1,0.5-1.8,0.4c-0.8-0.1-1.3-0.3-1.7-0.7C224.7,166.6,225.2,165.3,225.4,164.4z M228.7,158.6c0,0.4-0.1,0.8-0.4,1.1
		c-0.3,0.3-0.7,0.5-1.1,0.5c-0.4,0-0.8-0.2-1.1-0.5s-0.5-0.7-0.5-1.1s0.2-0.8,0.5-1.1s0.7-0.5,1.1-0.5c0.4,0,0.8,0.2,1.1,0.5
		C228.6,157.9,228.7,158.2,228.7,158.6z"/>
	<path style="fill:#FFFFFF;" d="M234.7,161.6c0.5-0.5,1-0.7,1.7-0.8c0.6-0.1,1.1,0.1,1.5,0.4c-0.2,2.8-1.3,5.3-3.4,7.6
		c-0.8,0.2-1.5,0.1-2.3-0.1c-0.7-0.2-1.3-0.6-1.7-1.2c0.3-1.5,0.3-2.6,0-3.3l-1.2-1.5c0.6-1.2,1.6-1.7,3.1-1.7
		c0.8,1.3,1.1,3.2,1,5.9l0.2,0.1c1-1.2,1.6-2.4,1.9-3.6L234.7,161.6z"/>
	<path style="fill:#FFFFFF;" d="M244.8,166.1c0.3,0,0.6,0.1,0.8,0.3s0.2,0.5,0.1,1c-0.4,0.4-1,0.8-1.9,1.1c-0.8,0.3-1.7,0.5-2.4,0.5
		c-1.1-0.2-2-0.6-2.5-1.1c-0.6-0.6-0.8-1.3-0.8-2.1c0.1-1.1,0.5-2,1.3-2.9c1.5-1,3-1.7,4.4-1.8c0.7,0.1,1.2,0.3,1.6,0.6
		c0.7,0.6,0.8,1.6,0.3,3c-0.5,0.3-1.2,0.6-2.1,0.9c-0.9,0.3-1.6,0.5-2.3,0.7c0.1,0.4,0.2,0.7,0.5,1.1
		C242.9,167,243.9,166.7,244.8,166.1z M242.6,162.5l-0.3,0.1c-0.7,0.7-1,1.5-1.1,2.4c0.7-0.2,1.3-0.5,1.8-0.8
		C243.2,163.5,243.1,162.9,242.6,162.5z"/>
	<path style="fill:#FFFFFF;" d="M256,163.1l-0.7,2.2c0,1.1,0.1,2.2,0.4,3.2c-0.3,0.4-0.8,0.5-1.6,0.4s-1.4-0.3-2-0.8
		c0-0.6,0.1-1.4,0.3-2.2s0.3-1.5,0.5-2c-0.1-0.3-0.3-0.6-0.5-0.7c-0.5,0.3-1.2,0.8-1.9,1.5c0,1-0.1,2.2-0.2,3.8
		c-0.5,0.4-1.1,0.5-2,0.4s-1.4-0.4-1.6-0.7c0.5-1.3,1-2.7,1.4-4l-0.5-2.2c0.8-0.7,1.8-1,2.9-0.8c0.1,0.4,0.2,0.8,0.2,1.2l-0.5,0.6
		l0.2,0.3c0.8-0.8,1.6-1.5,2.6-2.2c0.8,0,1.5,0.3,2,0.7C255.4,162.1,255.8,162.6,256,163.1z"/>
	<path style="fill:#FFFFFF;" d="M257.1,165.7c0-0.6,0.1-1.2,0.3-1.6c0.2-0.5,0.6-0.9,1-1.4c1.1-1,2.4-1.6,3.8-1.9
		c0.9,0.2,1.5,0.4,1.9,0.8c0.2,0.2,0.3,0.4,0.4,0.7c0.1,0.2,0.2,0.5,0.3,0.9c-0.1,0.5-0.4,0.9-1,1.1c-0.5,0.2-1.2,0.3-2.1,0.2
		c0.1-0.6,0-1.3-0.4-2.1l-0.4,0.1c-0.5,0.8-0.8,1.7-0.8,2.6c0,0.8,0.2,1.4,0.7,2c1-0.3,1.9-0.7,2.7-1.3c0.3,0,0.6,0.1,0.7,0.3
		c0.2,0.2,0.2,0.5,0.1,1c-0.4,0.4-1,0.8-1.7,1.1s-1.5,0.5-2.3,0.6c-1.2-0.1-2.1-0.5-2.7-1.1C257.3,167.2,257.1,166.5,257.1,165.7z"
		/>
	<path style="fill:#FFFFFF;" d="M266.7,164.4l-0.1-2.8c1.4-0.6,2.4-0.7,3.2-0.2l-0.7,2.5c-0.1,0.7-0.1,2.2-0.2,4.5
		c-0.4,0.4-1.1,0.5-1.8,0.4c-0.8-0.1-1.3-0.3-1.7-0.7C266.1,166.6,266.5,165.3,266.7,164.4z M270.1,158.6c0,0.4-0.1,0.8-0.4,1.1
		s-0.7,0.5-1.1,0.5s-0.8-0.2-1.1-0.5c-0.3-0.3-0.5-0.7-0.5-1.1s0.2-0.8,0.5-1.1s0.7-0.5,1.1-0.5s0.8,0.2,1.1,0.5
		C269.9,157.9,270.1,158.2,270.1,158.6z"/>
	<path style="fill:#FFFFFF;" d="M270.6,165.6c0-1.1,0.5-2.1,1.5-3.1s2.3-1.5,3.9-1.5c0.4,0.3,0.8,0.9,1.2,1.7c0-0.7,0-1.2,0.3-1.5
		c0.9-0.2,1.7-0.2,2.1-0.1c0.5,0.1,0.8,0.4,1,0.9l-1.3,2.4c0,1.3,0.1,2.7,0.3,4.1c-0.3,0.4-0.8,0.5-1.6,0.4c-0.8-0.1-1.4-0.3-2-0.8
		l0.6-1.2l-0.2-0.3c-0.9,0.8-1.6,1.5-2.1,2.1c-1.2-0.1-2.2-0.4-2.7-0.9C270.9,167.2,270.6,166.5,270.6,165.6z M274.4,164
		c-0.3,0.5-0.5,1-0.5,1.6c0,0.5,0.2,0.9,0.5,1.1c0.6-0.4,1.4-1,2.4-1.8l0.1-0.8c-0.3-0.6-0.7-1.1-1.1-1.3
		C275.2,163.1,274.8,163.5,274.4,164z"/>
	<path style="fill:#FFFFFF;" d="M292.7,159.7l-0.3,0.1c-0.6,0.6-1.1,1.3-1.4,2.1c-0.3,0.7-0.5,1.5-0.5,2.2s0.1,1.3,0.4,1.7
		s0.6,0.8,1.2,1.1c1.1-0.4,2-0.9,2.8-1.4c0.4,0,0.6,0.1,0.8,0.3c0.2,0.2,0.2,0.5,0.2,0.9c-1,1-2.3,1.8-4.1,2.3
		c-1.4-0.2-2.5-0.7-3.3-1.5s-1.2-1.9-1.1-3.1c0-0.6,0.1-1.3,0.3-1.9c0.2-0.6,0.5-1.3,1-2c0.8-0.7,1.5-1.2,2.3-1.6
		c0.8-0.3,1.7-0.6,2.7-0.7c0.8,0.3,1.5,0.7,1.9,1.3c0.4,0.5,0.7,1.2,0.8,1.9c-0.1,0.4-0.5,0.7-1.2,0.9s-1.3,0.1-1.9-0.2
		C293.2,160.9,293.1,160,292.7,159.7z"/>
	<path style="fill:#FFFFFF;" d="M298,164.4l-0.1-2.8c1.4-0.6,2.4-0.7,3.2-0.2l-0.7,2.5c-0.1,0.7-0.1,2.2-0.2,4.5
		c-0.4,0.4-1.1,0.5-1.8,0.4c-0.8-0.1-1.3-0.3-1.7-0.7C297.4,166.6,297.8,165.3,298,164.4z M301.3,158.6c0,0.4-0.1,0.8-0.4,1.1
		s-0.7,0.5-1.1,0.5s-0.8-0.2-1.1-0.5c-0.3-0.3-0.5-0.7-0.5-1.1s0.2-0.8,0.5-1.1s0.7-0.5,1.1-0.5s0.8,0.2,1.1,0.5
		C301.2,157.9,301.3,158.2,301.3,158.6z"/>
	<path style="fill:#FFFFFF;" d="M302.7,164.5l-0.3-3.3c0.6-0.2,1.2-0.3,1.9-0.2c0.7,0.1,1.2,0.4,1.5,0.8c0,0.5-0.1,1.1-0.4,1.9
		c-0.3,0.8-0.5,1.5-0.9,2.1c0.1,0.3,0.4,0.5,1,0.7c0.8-0.8,1.3-1.4,1.6-1.8c0.3-1.7,0.6-2.9,0.8-3.7c0.9-0.2,1.7-0.2,2.2-0.1
		s0.8,0.4,1,0.8l-1.2,2.4c0,1.2,0.2,2.6,0.4,4.1c-0.3,0.4-0.8,0.5-1.6,0.4c-0.8-0.1-1.5-0.3-2-0.8l0.6-1.3l-0.2-0.1
		c-0.2,0.2-0.8,1-1.9,2.2c-2.1-0.2-3.3-1-3.6-2.3L302.7,164.5z"/>
	<path style="fill:#FFFFFF;" d="M319.1,161.4l-0.2-3.8c1.4-0.6,2.5-0.7,3.3-0.3l-1,3.5c-0.1,0.6-0.3,3.2-0.8,7.8
		c-0.4,0.3-0.9,0.5-1.8,0.4c-0.8-0.1-1.4-0.3-1.8-0.8l0.9-1.1l-0.2-0.2c-0.8,0.7-1.5,1.4-2,2c-1.2,0-2.1-0.3-2.7-0.9
		c-0.6-0.6-0.9-1.3-0.9-2.2c0-0.5,0.2-1.1,0.4-1.6c0.3-0.5,0.6-1,1.1-1.5c0.5-0.4,1-0.8,1.8-1.1c0.7-0.3,1.5-0.4,2.3-0.4
		c0.5,0.4,0.9,1.1,1.3,1.9C318.9,162.4,319,161.9,319.1,161.4z M318.2,164.9l0.2-0.8c-0.4-0.6-0.8-1.1-1.2-1.3
		c-0.6,0.3-1,0.7-1.4,1.2c-0.3,0.5-0.5,1-0.5,1.5s0.1,0.9,0.5,1.1C316.4,166.2,317.2,165.6,318.2,164.9z"/>
	<path style="fill:#FFFFFF;" d="M322.1,165.6c0-1.1,0.5-2.1,1.5-3.1s2.3-1.5,3.9-1.5c0.4,0.3,0.8,0.9,1.2,1.7c0-0.7,0-1.2,0.3-1.5
		c0.9-0.2,1.7-0.2,2.1-0.1c0.5,0.1,0.8,0.4,1,0.9l-1.3,2.4c0,1.3,0.1,2.7,0.3,4.1c-0.3,0.4-0.8,0.5-1.6,0.4c-0.8-0.1-1.4-0.3-2-0.8
		l0.6-1.2l-0.2-0.3c-0.9,0.8-1.6,1.5-2.1,2.1c-1.2-0.1-2.2-0.4-2.7-0.9C322.4,167.2,322.1,166.5,322.1,165.6z M326,164
		c-0.3,0.5-0.5,1-0.5,1.6c0,0.5,0.2,0.9,0.5,1.1c0.6-0.4,1.4-1,2.4-1.8l0.1-0.8c-0.3-0.6-0.7-1.1-1.1-1.3
		C326.8,163.1,326.3,163.5,326,164z"/>
	<path style="fill:#FFFFFF;" d="M339.9,161.4l-0.2-3.8c1.4-0.6,2.5-0.7,3.3-0.3l-1,3.5c-0.1,0.6-0.3,3.2-0.8,7.8
		c-0.4,0.3-0.9,0.5-1.8,0.4c-0.8-0.1-1.4-0.3-1.8-0.8l0.9-1.1l-0.2-0.2c-0.8,0.7-1.5,1.4-2,2c-1.2,0-2.1-0.3-2.7-0.9
		c-0.6-0.6-0.9-1.3-0.9-2.2c0-0.5,0.2-1.1,0.4-1.6c0.3-0.5,0.6-1,1.1-1.5c0.5-0.4,1-0.8,1.8-1.1c0.7-0.3,1.5-0.4,2.3-0.4
		c0.5,0.4,0.9,1.1,1.3,1.9C339.7,162.4,339.8,161.9,339.9,161.4z M339,164.9l0.2-0.8c-0.4-0.6-0.8-1.1-1.2-1.3
		c-0.6,0.3-1,0.7-1.4,1.2c-0.3,0.5-0.5,1-0.5,1.5s0.1,0.9,0.5,1.1C337.2,166.2,338,165.6,339,164.9z"/>
	<path style="fill:#FFFFFF;" d="M342.9,165.6c0-1.1,0.5-2.1,1.5-3.1s2.3-1.5,3.9-1.5c0.4,0.3,0.8,0.9,1.2,1.7c0-0.7,0-1.2,0.3-1.5
		c0.9-0.2,1.7-0.2,2.1-0.1c0.5,0.1,0.8,0.4,1,0.9l-1.3,2.4c0,1.3,0.1,2.7,0.3,4.1c-0.3,0.4-0.8,0.5-1.6,0.4c-0.8-0.1-1.4-0.3-2-0.8
		l0.6-1.2l-0.2-0.3c-0.9,0.8-1.6,1.5-2.1,2.1c-1.2-0.1-2.2-0.4-2.7-0.9C343.2,167.2,342.9,166.5,342.9,165.6z M346.8,164
		c-0.3,0.5-0.5,1-0.5,1.6c0,0.5,0.2,0.9,0.5,1.1c0.6-0.4,1.4-1,2.4-1.8l0.1-0.8c-0.3-0.6-0.7-1.1-1.1-1.3
		C347.6,163.1,347.1,163.5,346.8,164z"/>
	<path style="fill:#FFFFFF;" d="M362.6,163.1l-0.7,2.2c0,1.1,0.1,2.2,0.4,3.2c-0.3,0.4-0.8,0.5-1.6,0.4c-0.8-0.1-1.4-0.3-2-0.8
		c0-0.6,0.1-1.4,0.3-2.2c0.2-0.8,0.3-1.5,0.5-2c-0.1-0.3-0.3-0.6-0.5-0.7c-0.5,0.3-1.2,0.8-1.9,1.5c0,1-0.1,2.2-0.2,3.8
		c-0.5,0.4-1.1,0.5-2,0.4s-1.4-0.4-1.6-0.7c0.5-1.3,1-2.7,1.4-4l-0.5-2.2c0.8-0.7,1.8-1,2.9-0.8c0.1,0.4,0.2,0.8,0.2,1.2l-0.5,0.6
		l0.2,0.3c0.8-0.8,1.6-1.5,2.6-2.2c0.8,0,1.5,0.3,2,0.7C362.1,162.1,362.4,162.6,362.6,163.1z"/>
	<path style="fill:#FFFFFF;" d="M363.7,165.6c0-1.1,0.5-2.1,1.5-3.1s2.3-1.5,3.9-1.5c0.4,0.3,0.8,0.9,1.2,1.7c0-0.7,0-1.2,0.3-1.5
		c0.9-0.2,1.7-0.2,2.1-0.1c0.5,0.1,0.8,0.4,1,0.9l-1.3,2.4c0,1.3,0.1,2.7,0.3,4.1c-0.3,0.4-0.8,0.5-1.6,0.4c-0.8-0.1-1.4-0.3-2-0.8
		l0.6-1.2l-0.2-0.3c-0.9,0.8-1.6,1.5-2.1,2.1c-1.2-0.1-2.2-0.4-2.7-0.9C364,167.2,363.7,166.5,363.7,165.6z M367.6,164
		c-0.3,0.5-0.5,1-0.5,1.6c0,0.5,0.2,0.9,0.5,1.1c0.6-0.4,1.4-1,2.4-1.8l0.1-0.8c-0.3-0.6-0.7-1.1-1.1-1.3
		C368.4,163.1,367.9,163.5,367.6,164z"/>
</g>
</svg>
