<?xml version="1.0" encoding="iso-8859-1"?>
<!-- Generator: Adobe Illustrator 22.1.0, SVG Export Plug-In . SVG Version: 6.00 Build 0)  -->
<svg version="1.1" id="Capa_1" xmlns="http://www.w3.org/2000/svg" xmlns:xlink="http://www.w3.org/1999/xlink" x="0px" y="0px"
	 viewBox="0 0 212.4 236.5" style="enable-background:new 0 0 212.4 236.5;" xml:space="preserve">
<g>
	<path style="fill:#303F9F;" d="M63.7,50.7c0.7-0.6,1.7-1.2,2.8-1.7c1.1-0.6,2.3-0.9,3.6-1.2c1.8-0.3,3.6-0.5,5.4-0.6
		s3.6-0.1,5.3,0.1c1.7,0.1,3.3,0.3,4.8,0.6s2.8,0.7,3.8,1.1l0,0c0.7,0.3,1.4,0.6,2.2,0.9s1.5,0.7,2.3,1.1c0.7,0.4,1.4,0.8,2.1,1.3
		s1.2,1,1.7,1.6s0.9,1.3,1.1,2s0.3,1.4,0.3,2.2c0,0.7-0.2,1.4-0.5,2s-0.7,1.2-1.3,1.7c-0.4,0.3-0.7,0.5-1,0.7
		c-0.3,0.1-0.5,0.2-0.7,0.2s-0.4-0.1-0.5-0.2c-0.2-0.1-0.3-0.3-0.5-0.5c-0.3-0.3-0.4-0.6-0.4-0.9c0-0.3,0-0.5,0.1-0.8
		c0.1-0.2,0.2-0.5,0.4-0.7c0.2-0.2,0.3-0.5,0.4-0.7s0.2-0.4,0.2-0.7c0-0.2-0.1-0.4-0.2-0.7c-0.5-0.6-1.1-1.1-1.9-1.6
		s-1.6-0.9-2.6-1.3c-1-0.4-2-0.7-3-1c-1.1-0.3-2.1-0.6-3.1-0.8s-2-0.4-3-0.5c-0.9-0.1-1.8-0.2-2.5-0.3c-1.1,0-2.2,0-3.3,0
		c-1.1,0.1-2.1,0.2-3.1,0.4s-1.9,0.5-2.8,0.9s-1.7,0.9-2.5,1.6c-0.6,0.5-1.1,1-1.4,1.6s-0.5,1.1-0.7,1.6c-0.2,0.6-0.1,1.1,0,1.7
		c0.2,0.5,0.5,1.1,1,1.6c1,1.2,2,2.3,3.1,3.2c1.1,0.9,2.1,1.7,3.3,2.3s2.3,1.3,3.5,1.8s2.5,1.1,3.8,1.6l0.5,0.6
		c0.2,0.2,0.3,0.4,0.3,0.7c0.1,0.3,0.1,0.5,0.1,0.8s-0.1,0.5-0.2,0.8c-0.1,0.2-0.2,0.4-0.4,0.6c-0.4,0.3-1,0.5-1.7,0.5
		s-1.5-0.2-2.4-0.5s-1.7-0.7-2.7-1.1c-0.9-0.5-1.8-1-2.7-1.5c-0.8-0.5-1.6-1-2.3-1.5c-0.7-0.5-1.2-0.9-1.6-1.2
		c-0.3-0.3-0.6-0.5-0.9-0.8s-0.6-0.6-1-0.9c-0.4-0.4-0.8-0.8-1.3-1.3c-0.5-0.5-1.1-1.2-1.8-2.1c-0.4-0.5-0.7-1.1-0.9-1.6
		c-0.2-0.6-0.4-1.1-0.4-1.6c-0.1-0.5-0.1-1-0.1-1.4s0.1-0.8,0.1-1c0.2-1.6,0.5-2.9,1.1-4C61.9,52.5,62.7,51.6,63.7,50.7z"/>
	<path style="fill:#303F9F;" d="M69.9,41.2c0.8-0.5,1.8-1,2.9-1.5s2.4-0.7,3.7-0.8c1.8-0.1,3.6-0.2,5.5-0.1c1.8,0.1,3.6,0.3,5.3,0.6
		c1.7,0.3,3.2,0.6,4.7,1c1.4,0.4,2.7,0.9,3.7,1.5l0,0c0.7,0.3,1.4,0.7,2.1,1.1c0.7,0.4,1.4,0.8,2.1,1.3s1.4,0.9,2,1.5
		c0.6,0.5,1.1,1.1,1.6,1.8c0.4,0.7,0.7,1.3,0.9,2.1c0.2,0.7,0.2,1.5,0.1,2.2s-0.3,1.4-0.7,2c-0.4,0.6-0.8,1.1-1.4,1.5
		c-0.4,0.3-0.8,0.5-1,0.6c-0.3,0.1-0.5,0.1-0.7,0.1s-0.4-0.1-0.5-0.3s-0.3-0.4-0.5-0.6c-0.2-0.3-0.3-0.7-0.3-0.9
		c0-0.3,0.1-0.5,0.2-0.8c0.1-0.2,0.3-0.5,0.4-0.7c0.2-0.2,0.3-0.4,0.5-0.6c0.1-0.2,0.2-0.4,0.3-0.6c0-0.2,0-0.4-0.2-0.7
		c-0.4-0.6-1-1.2-1.7-1.8s-1.6-1.1-2.5-1.6s-1.9-0.9-2.9-1.3c-1-0.4-2-0.8-3-1.1s-2-0.6-2.9-0.8s-1.7-0.4-2.4-0.5
		c-1.1-0.2-2.2-0.2-3.3-0.3c-1.1,0-2.1,0-3.1,0.1s-2,0.4-2.9,0.7s-1.8,0.8-2.7,1.3c-0.7,0.4-1.2,0.9-1.5,1.5
		c-0.4,0.5-0.6,1.1-0.8,1.5c-0.2,0.6-0.3,1.1-0.1,1.7c0.1,0.5,0.4,1.1,0.8,1.7c0.9,1.3,1.8,2.5,2.8,3.4c1,1,2,1.8,3,2.6
		s2.2,1.5,3.3,2.1c1.2,0.6,2.4,1.3,3.6,1.9l0.4,0.6c0.1,0.2,0.2,0.4,0.3,0.7c0,0.3,0,0.5,0,0.8s-0.1,0.5-0.2,0.7s-0.3,0.4-0.5,0.5
		c-0.5,0.3-1,0.4-1.7,0.3s-1.5-0.3-2.3-0.7c-0.8-0.4-1.7-0.8-2.6-1.4s-1.7-1.1-2.5-1.7c-0.8-0.6-1.5-1.1-2.1-1.7
		c-0.6-0.5-1.1-1-1.5-1.3c-0.3-0.3-0.6-0.6-0.9-0.9c-0.3-0.3-0.6-0.6-0.9-1c-0.4-0.4-0.7-0.9-1.2-1.5c-0.4-0.6-1-1.3-1.6-2.2
		c-0.4-0.6-0.6-1.1-0.8-1.7c-0.2-0.6-0.2-1.1-0.3-1.6c0-0.5,0-1,0-1.4c0.1-0.4,0.1-0.7,0.2-1c0.3-1.5,0.8-2.8,1.4-3.9
		C68,42.8,68.8,41.9,69.9,41.2z"/>
	<path style="fill:#4CAF50;" d="M91.1,130.7l15.5,5.2c1.2,0.4,2.1,1.1,2.7,2.1s0.8,2,0.4,3c-0.3,1-1.1,1.8-2.2,2.2s-2.3,0.4-3.4,0
		l-16-5.4c-2-0.7-4-1.9-5.8-3.8c-1.8-1.8-2.9-3.6-3.3-5.3L74.7,109c-0.5-2.8-0.4-5.5,0.5-8c0.9-2.8,2.3-4.9,4.3-6.5l15.4-13
		c1.5-1.2,3.4-2,5.8-2.5s4.5-0.4,6.4,0.2l16.9,5.7c1.2,0.4,2.1,1.1,2.7,2.1s0.7,2,0.4,3c-0.3,1-1.1,1.8-2.1,2.2
		c-1.1,0.5-2.2,0.5-3.4,0.1L105.2,87c-1.4-0.5-2.7-0.1-4,1l-14.7,12c-1.2,0.9-2,2.2-2.5,3.9c-0.6,1.7-0.7,3.4-0.3,5l4,18.1
		C88.1,128.8,89.2,130,91.1,130.7z"/>
	<path style="fill:#303F9F;" d="M102.2,93l12.7,4.3c1,0.3,1.7,0.8,2.3,1.6c0.6,0.7,0.7,1.4,0.5,2.1s-0.8,1.1-1.6,1.4
		c-0.9,0.2-1.8,0.2-2.8-0.1l-13.2-4.4c-1.7-0.6-3.3-1.5-4.8-2.8s-2.5-2.6-2.9-3.7l-4.5-13.7c-0.6-1.9-0.6-3.7,0-5.4
		c0.6-1.8,1.7-3.2,3.1-4.2l11.8-8.1c1.1-0.7,2.6-1.2,4.5-1.4s3.6-0.1,5.2,0.4l13.9,4.7c1,0.3,1.7,0.8,2.3,1.6
		c0.5,0.7,0.7,1.4,0.5,2.1s-0.8,1.2-1.6,1.4c-0.9,0.3-1.8,0.2-2.7-0.1l-13.4-4.5c-1.1-0.4-2.2-0.2-3.2,0.5L97,71.9
		c-0.9,0.6-1.5,1.4-1.9,2.5s-0.4,2.3,0,3.4l4.1,12.5C99.6,91.5,100.6,92.4,102.2,93z"/>
	<path style="fill:#303F9F;" d="M135,94.4l5.9,2c0.5,0.2,0.8,0.4,1.1,0.7c0.3,0.3,0.3,0.7,0.2,1s-0.4,0.5-0.8,0.6
		c-0.4,0.1-0.8,0.1-1.3-0.1l-6.1-2c-0.8-0.3-1.5-0.7-2.2-1.3c-0.7-0.6-1.2-1.2-1.4-1.7l-2.1-6.4c-0.3-0.9-0.3-1.7,0-2.5
		s0.8-1.5,1.5-2l5.5-3.8c0.5-0.3,1.2-0.6,2.1-0.7c0.9-0.1,1.7,0,2.4,0.2l6.5,2.2c0.5,0.2,0.8,0.4,1,0.7c0.2,0.3,0.3,0.7,0.2,1
		s-0.4,0.5-0.8,0.7c-0.4,0.1-0.8,0.1-1.3,0l-6.2-2.1c-0.5-0.2-1-0.1-1.5,0.2l-5.2,3.5c-0.4,0.3-0.7,0.7-0.9,1.2s-0.2,1.1,0,1.6
		l1.9,5.8C133.8,93.8,134.3,94.2,135,94.4z"/>
	<path style="fill:#4CAF50;" d="M131,105.4l5.9,2c0.5,0.2,0.8,0.4,1.1,0.7c0.3,0.3,0.3,0.7,0.2,1s-0.4,0.5-0.8,0.6
		c-0.4,0.1-0.8,0.1-1.3-0.1l-6.1-2c-0.8-0.3-1.5-0.7-2.2-1.3c-0.7-0.6-1.2-1.2-1.4-1.7l-2.1-6.4c-0.3-0.9-0.3-1.7,0-2.5
		s0.8-1.5,1.5-2l5.5-3.8c0.5-0.3,1.2-0.6,2.1-0.7c0.9-0.1,1.7,0,2.4,0.2l6.5,2.2c0.5,0.2,0.8,0.4,1,0.7c0.2,0.3,0.3,0.7,0.2,1
		s-0.4,0.5-0.8,0.7c-0.4,0.1-0.8,0.1-1.3,0l-6.2-2.1c-0.5-0.2-1-0.1-1.5,0.2l-5.2,3.5c-0.4,0.3-0.7,0.7-0.9,1.2
		c-0.2,0.5-0.2,1.1,0,1.6l1.9,5.8C129.8,104.8,130.3,105.2,131,105.4z"/>
	<path style="fill:#303F9F;" d="M143.3,47.7l-1.7-9.6c-0.2-0.9-0.6-1.8-1.4-2.8c-0.8-1-1.6-1.7-2.5-2.1l-0.7-0.3l0,0
		c-0.3-0.5-0.8-0.8-1.4-1l-2.4-0.7l-3.8-1.7c-0.6-0.3-1.2-0.3-1.7-0.2c-0.1,0-0.3,0.1-0.4,0.1l-0.5-0.1c-1-0.3-2.1-0.3-3.3-0.1
		c-1.2,0.2-2.2,0.6-2.9,1.2l-7.6,6.2c-0.9,0.8-1.6,1.8-2,3.1c-0.4,1.2-0.3,2.4,0,3.8l2.9,9.4c0.3,0.8,0.9,1.6,1.9,2.5s2,1.5,3.1,1.8
		l4.3,1.3l2.5,1.1c1,0.5,2.2,0.7,3.5,0.7s2.3-0.2,3-0.7l8.3-5.2c1.1-0.8,2-1.7,2.5-2.9C143.4,50.1,143.6,48.9,143.3,47.7z
		 M138.4,49.3c-0.4,0.8-0.9,1.4-1.5,1.8l-7.6,4.8c-0.2,0.2-0.5,0.2-0.7,0.3c-0.1-0.1-0.3-0.1-0.4-0.2l-3.9-1.2l-5.2-2.4
		c-0.2-0.1-0.4-0.2-0.7-0.2c-0.1-0.1-0.1-0.3-0.2-0.4l-2.6-8.6c-0.2-0.8-0.2-1.5,0-2.4c0.2-0.8,0.6-1.4,1.2-1.9l7.2-5.8
		c0.6-0.5,1.3-0.7,2-0.5l5.9,1.7l4.1,1.8c0.7,0.3,1.1,0.9,1.2,1.7l1.6,9.1C138.9,47.8,138.8,48.5,138.4,49.3z"/>
	<polygon style="fill:#303F9F;" points="83,138.1 95.3,142.2 78.9,153.7 	"/>
</g>
<path style="fill:#303F9F;" d="M151,182.6H56.8c-3.5,0-6.7-1.9-8.4-4.9L1.3,96.2c-1.7-3-1.7-6.7,0-9.7L48.4,4.9c1.7-3,5-4.9,8.4-4.9
	H151c3.5,0,6.7,1.9,8.4,4.9l47.1,81.6c1.7,3,1.7,6.7,0,9.7l-47.1,81.6C157.7,180.7,154.5,182.6,151,182.6z M59.5,168.3h88.9l44.4-77
	l-44.4-77H59.5L15,91.3L59.5,168.3z"/>
<g>
	<path style="fill:#4CAF50;" d="M45.3,194.8l-0.4,0.1c-0.8,0.9-1.4,1.8-1.8,2.8c-0.4,1-0.6,2-0.6,2.9s0.1,1.7,0.5,2.3
		c0.3,0.6,0.8,1.1,1.5,1.5c1.4-0.5,2.6-1.2,3.5-1.9c0.5,0,0.8,0.1,1,0.4c0.2,0.3,0.3,0.7,0.3,1.2c-1.2,1.4-3,2.4-5.3,3.1
		c-1.8-0.3-3.2-1-4.2-2.1s-1.5-2.5-1.5-4.1c0-0.9,0.2-1.7,0.4-2.5c0.3-0.8,0.7-1.7,1.3-2.7c1-0.9,2-1.6,3-2.1s2.1-0.8,3.4-0.9
		c1.1,0.4,1.9,1,2.4,1.7s0.9,1.6,1,2.6c-0.2,0.6-0.7,1-1.5,1.2c-0.8,0.3-1.6,0.2-2.5-0.2C45.9,196.5,45.7,195.4,45.3,194.8z"/>
	<path style="fill:#4CAF50;" d="M51.8,201.4l-0.4-4.4c0.7-0.3,1.5-0.4,2.5-0.2c0.9,0.2,1.6,0.5,1.9,1.1c0,0.6-0.2,1.5-0.5,2.6
		s-0.7,2.1-1.1,2.9c0.1,0.4,0.5,0.7,1.2,1c1-1.1,1.7-1.9,2-2.4c0.3-2.2,0.7-3.9,1.1-5c1.2-0.2,2.1-0.3,2.8-0.1
		c0.6,0.1,1.1,0.5,1.3,1.1l-1.6,3.3c0,1.7,0.2,3.5,0.5,5.6c-0.3,0.5-1,0.7-2.1,0.6c-1-0.1-1.9-0.5-2.6-1.1l0.7-1.7l-0.2-0.2
		c-0.2,0.3-1,1.3-2.4,3c-2.7-0.3-4.3-1.3-4.6-3L51.8,201.4z"/>
	<path style="fill:#4CAF50;" d="M65.6,197.1l-0.2-4.9c0.8-0.5,1.5-0.8,2.3-0.9c0.8-0.1,1.5,0,2.1,0.2l-1.2,4.6
		c-0.4,6.8-0.5,10.3-0.6,10.5c-0.3,0.3-0.9,0.5-1.6,0.6s-1.4,0-2-0.2s-1-0.5-1.1-0.8C64.3,203.7,65.1,200.7,65.6,197.1z"/>
	<path style="fill:#4CAF50;" d="M76.1,198L76.1,198c-0.1,1-0.2,2.4-0.4,4c-0.2,1.6-0.2,2.6-0.3,2.9c0.9-0.5,1.9-1.1,2.8-1.9
		c0.5,0,0.8,0.2,1,0.4s0.2,0.6,0.2,1.3c-1.6,1.4-3.1,2.3-4.6,2.7c-1.8-0.2-3-0.9-3.5-2.3c0.8-2.1,1.4-4.3,1.9-6.4l-2.3,0.4
		c-0.3-0.4-0.5-0.7-0.5-1s0.1-0.7,0.4-1.2l2.5,0.1l-0.3-3.5c1-0.6,1.8-0.8,2.6-0.9c0.8,0,1.3,0.2,1.7,0.6l-0.9,3.2l3-0.6
		c0.5,0.5,0.5,1.2,0,2.2H76.1z"/>
	<path style="fill:#4CAF50;" d="M81.7,201.4l-0.4-4.4c0.7-0.3,1.5-0.4,2.5-0.2c0.9,0.2,1.6,0.5,1.9,1.1c0,0.6-0.2,1.5-0.5,2.6
		s-0.7,2.1-1.1,2.9c0.1,0.4,0.5,0.7,1.2,1c1-1.1,1.7-1.9,2-2.4c0.3-2.2,0.7-3.9,1.1-5c1.2-0.2,2.1-0.3,2.8-0.1
		c0.6,0.1,1.1,0.5,1.3,1.1l-1.6,3.3c0,1.7,0.2,3.5,0.5,5.6c-0.3,0.5-1,0.7-2.1,0.6c-1-0.1-1.9-0.5-2.6-1.1l0.7-1.7l-0.2-0.2
		c-0.2,0.3-1,1.3-2.4,3c-2.7-0.3-4.3-1.3-4.6-3L81.7,201.4z"/>
	<path style="fill:#4CAF50;" d="M98,199.6l2.9-2.9c0.9,0.2,1.5,0.7,2.1,1.3c0.5,0.7,0.8,1.6,0.9,2.7c-0.5,0.5-1,0.8-1.7,0.9
		c-0.7,0.1-1.3-0.1-1.9-0.4c0-0.2-0.1-0.7-0.3-1.4c-0.2,0.1-0.7,0.6-1.7,1.5c0,1.5-0.1,3.3-0.3,5.4c-0.6,0.5-1.5,0.6-2.5,0.5
		c-1.1-0.1-1.8-0.5-2-1c0.7-1.8,1.3-3.6,1.7-5.3l-0.7-3c0.5-0.5,1.2-0.8,1.9-1c0.7-0.2,1.3-0.2,1.9-0.1c0.2,0.5,0.3,1.1,0.3,1.6
		l-0.6,0.8L98,199.6z"/>
	<path style="fill:#4CAF50;" d="M104.2,202.9c0-1.5,0.6-2.8,1.9-4.1s3-2,5-2c0.5,0.5,1.1,1.2,1.6,2.3c-0.1-0.9,0.1-1.6,0.3-2.1
		c1.2-0.3,2.1-0.3,2.7-0.2s1,0.5,1.2,1.2l-1.7,3.3c0,1.7,0.1,3.6,0.3,5.6c-0.4,0.5-1,0.7-2,0.6c-1-0.1-1.8-0.5-2.5-1.1l0.7-1.6
		l-0.3-0.4c-1.1,1.1-2,2-2.7,2.8c-1.6-0.1-2.7-0.5-3.5-1.3C104.6,205,104.2,204,104.2,202.9z M109.1,200.7c-0.4,0.7-0.7,1.4-0.7,2.1
		s0.2,1.2,0.6,1.5c0.7-0.5,1.7-1.3,3.1-2.4l0.1-1c-0.4-0.8-0.8-1.4-1.4-1.8C110.1,199.4,109.5,200,109.1,200.7z"/>
	<path style="fill:#4CAF50;" d="M134,195.3c-1.1,0-1.8,0.1-2.4,0.2l-0.5,1.4l-0.4,2.6c2.2-0.4,3.6-0.6,4-0.6
		c0.2,0.2,0.4,0.4,0.4,0.8c0.1,0.6,0,1.2-0.4,1.8c-1.5-0.2-2.9-0.3-4.2-0.3l-0.6,3.8c2.4-0.4,4.3-0.8,5.6-1.2
		c0.4,0.1,0.7,0.4,0.8,0.8c0.2,0.7,0,1.5-0.6,2.3l-7,0.5c-1.8-0.5-2.7-1.3-2.8-2.5c0.1-0.2,0.2-0.5,0.4-1.1c0.2-0.5,0.3-0.9,0.3-1
		s0.1-0.4,0.3-0.8c0.1-0.4,0.2-0.7,0.3-0.9c0.1-0.2,0.1-0.5,0.2-0.8c0.1-0.4,0.2-0.7,0.3-1c0.1-0.3,0.2-0.7,0.3-1.1l-0.2-2.6
		c-0.4-0.2-0.9-0.3-1.3-0.4c-0.1-0.3-0.1-0.6-0.1-0.9c0-0.3,0.1-0.5,0.3-0.7c2.2-0.2,4-0.3,5.4-0.3c1.4,0,3.2,0,5.3,0.2
		c0.7,1.7,0.2,2.9-1.5,3.7L134,195.3z M133.7,187.4c0.9-0.1,1.6-0.1,2.1,0.1c0.5,0.2,0.9,0.6,1.2,1.2l-3.7,3.4
		c-0.4,0-0.7-0.1-1.1-0.2c-0.3-0.2-0.4-0.4-0.4-0.7l1.3-1.8L133.7,187.4z"/>
	<path style="fill:#4CAF50;" d="M143.9,198L143.9,198c-0.1,1-0.2,2.4-0.4,4s-0.2,2.6-0.3,2.9c0.9-0.5,1.9-1.1,2.8-1.9
		c0.5,0,0.8,0.2,1,0.4s0.2,0.6,0.2,1.3c-1.6,1.4-3.1,2.3-4.6,2.7c-1.8-0.2-3-0.9-3.5-2.3c0.8-2.1,1.4-4.3,1.9-6.4l-2.3,0.4
		c-0.3-0.4-0.5-0.7-0.5-1s0.1-0.7,0.4-1.2l2.5,0.1l-0.3-3.5c1-0.6,1.8-0.8,2.6-0.9c0.8,0,1.3,0.2,1.7,0.6l-0.9,3.2l3-0.6
		c0.5,0.5,0.5,1.2,0,2.2H143.9z"/>
	<path style="fill:#4CAF50;" d="M149.8,201.2l-0.2-3.8c1.7-0.9,3.1-0.9,4.1-0.2l-0.9,3.4c-0.1,0.9-0.2,2.9-0.2,6.1
		c-0.6,0.5-1.3,0.7-2.3,0.5c-1-0.1-1.7-0.5-2.2-1C148.9,204.1,149.5,202.4,149.8,201.2z M154,193.5c0,0.6-0.2,1.1-0.6,1.5
		c-0.4,0.4-0.8,0.6-1.4,0.6s-1-0.2-1.4-0.6c-0.4-0.4-0.6-0.9-0.6-1.5s0.2-1.1,0.6-1.5c0.4-0.4,0.9-0.6,1.4-0.6s1,0.2,1.4,0.6
		C153.8,192.4,154,192.9,154,193.5z"/>
	<path style="fill:#4CAF50;" d="M154.6,203c0-0.8,0.1-1.6,0.4-2.2c0.3-0.6,0.7-1.2,1.3-1.8c1.5-1.3,3.1-2.1,4.9-2.5
		c1.1,0.2,1.9,0.6,2.4,1.1c0.2,0.3,0.4,0.6,0.6,0.9c0.1,0.3,0.3,0.7,0.4,1.2c-0.1,0.7-0.6,1.2-1.2,1.5c-0.7,0.3-1.5,0.4-2.6,0.2
		c0.1-0.8-0.1-1.8-0.4-2.8l-0.6,0.2c-0.7,1.1-1,2.2-1.1,3.5c0,1,0.3,1.9,1,2.7c1.3-0.4,2.5-0.9,3.4-1.7c0.4,0,0.8,0.1,1,0.4
		c0.2,0.3,0.2,0.7,0.1,1.3c-0.5,0.6-1.2,1-2.1,1.5c-0.9,0.4-1.9,0.7-2.9,0.8c-1.6-0.2-2.7-0.7-3.4-1.4
		C155,205,154.6,204.1,154.6,203z"/>
	<path style="fill:#4CAF50;" d="M165.6,202.9c0-1.5,0.6-2.8,1.9-4.1c1.3-1.3,3-2,5-2c0.5,0.5,1.1,1.2,1.6,2.3
		c-0.1-0.9,0.1-1.6,0.3-2.1c1.2-0.3,2.1-0.3,2.7-0.2c0.6,0.1,1,0.5,1.2,1.2l-1.7,3.3c0,1.7,0.1,3.6,0.3,5.6c-0.4,0.5-1,0.7-2,0.6
		c-1-0.1-1.8-0.5-2.5-1.1l0.7-1.6l-0.3-0.4c-1.1,1.1-2,2-2.7,2.8c-1.6-0.1-2.7-0.5-3.5-1.3C166,205,165.6,204,165.6,202.9z
		 M170.5,200.7c-0.4,0.7-0.7,1.4-0.7,2.1s0.2,1.2,0.6,1.5c0.7-0.5,1.7-1.3,3.1-2.4l0.1-1c-0.4-0.8-0.8-1.4-1.4-1.8
		C171.6,199.4,171,200,170.5,200.7z"/>
	<path style="fill:#4CAF50;" d="M112.8,213.5L112.8,213.5c0.3-1.7,0.5-2.9,0.7-3.6c1.2-0.2,2.1-0.2,2.7-0.1c0.6,0.1,1,0.4,1.3,0.8
		l-1.8,2.5c-0.6,3.4-0.9,5.7-0.9,7c-0.6,0.6-1.3,1.1-2.3,1.3c-0.9,0.3-2.1,0.4-3.6,0.4c-1.9-0.7-3-1.5-3.4-2.7
		c0.5-0.6,1.1-1,1.8-1.2c0.7-0.2,1.3-0.1,1.9,0.1c0.2,0.5,0.3,0.8,0.5,1.1c0.1,0.3,0.4,0.5,0.6,0.8c0.6,0,0.9-0.1,1.1-0.4
		c0.1-1.1,0.3-2,0.5-2.7l0.8-1.3l-0.3-0.2c-0.5,0.5-1.2,1.1-1.9,1.7c-1.2-0.1-2.1-0.3-2.9-0.7s-1.2-0.9-1.4-1.4l0.9-1.8
		c0-0.5-0.1-1-0.2-1.7s-0.2-1.2-0.2-1.5c0.4-0.1,0.9-0.2,1.5-0.2s1.1,0.1,1.7,0.2c0.5,0.2,1,0.4,1.3,0.7c-0.1,1.1-0.6,2.3-1.3,3.7
		c0.1,0.3,0.4,0.5,0.9,0.7C111.6,214.6,112.2,214.1,112.8,213.5z"/>
	<path style="fill:#4CAF50;" d="M10.4,221.1l-0.3,0.1c-0.7,1.1-1.2,2.2-1.5,3.5c-0.3,1.2-0.5,2.5-0.5,3.6c0,1.2,0.1,2.1,0.4,2.9
		c0.3,0.7,0.7,1.4,1.3,1.9c1.2-0.7,2.3-1.5,3.1-2.4c0.4,0,0.7,0.1,0.9,0.4c0.2,0.3,0.3,0.8,0.2,1.5c-1.1,1.7-2.6,3-4.6,3.9
		c-1.6-0.3-2.8-1.2-3.7-2.6c-0.9-1.4-1.3-3.1-1.3-5.2c0-1.1,0.1-2.1,0.4-3.1c0.2-1,0.6-2.1,1.1-3.3c0.9-1.2,1.7-2,2.6-2.6
		c0.9-0.6,1.9-1,3-1.2c0.9,0.5,1.6,1.2,2.1,2.1c0.5,0.9,0.7,2,0.9,3.2c-0.2,0.7-0.6,1.2-1.3,1.5s-1.4,0.2-2.1-0.3
		C11,223.1,10.8,221.7,10.4,221.1z"/>
	<path style="fill:#4CAF50;" d="M15,230.7c0-0.7,0.1-1.4,0.4-2.3c0.3-0.8,0.6-1.7,1.1-2.4c0.5-0.8,1-1.5,1.8-2
		c0.7-0.5,1.5-0.8,2.4-0.8c0.8,0,1.7,0.7,2.4,2.1c0.8,1.4,1.2,2.7,1.2,4c0,1.1-0.3,2.3-0.8,3.4c-0.5,1.1-1.2,2-2.1,2.8
		c-0.9,0.7-1.7,1.1-2.7,1.1c-0.9,0-1.8-0.6-2.6-1.9S15,232.1,15,230.7z M20.2,225.4c-0.5,0.8-1,1.7-1.3,2.7c-0.4,1-0.6,2-0.6,2.9
		c0,0.5,0.1,1,0.2,1.6s0.4,1.1,0.6,1.4c1-1.2,1.7-2.5,2-4.1c0-1.1-0.1-1.9-0.2-2.6C20.7,226.8,20.5,226.1,20.2,225.4z"/>
	<path style="fill:#4CAF50;" d="M35.1,226.8l-0.7,3.7c0,1.9,0.1,3.7,0.4,5.3c-0.3,0.6-0.9,0.8-1.8,0.7c-0.9-0.1-1.6-0.6-2.2-1.3
		c0-1,0.2-2.3,0.4-3.7c0.2-1.4,0.4-2.5,0.6-3.4c-0.1-0.6-0.3-1-0.6-1.2c-0.6,0.5-1.3,1.3-2.1,2.5c0,1.6-0.1,3.7-0.3,6.4
		c-0.5,0.6-1.3,0.8-2.2,0.6c-1-0.2-1.6-0.6-1.8-1.2c0.6-2.2,1.1-4.4,1.5-6.7l-0.6-3.7c0.9-1.2,2-1.7,3.3-1.4c0.2,0.7,0.2,1.4,0.2,2
		l-0.6,1.1l0.2,0.5c0.9-1.3,1.8-2.5,2.8-3.6c0.9,0.1,1.6,0.5,2.2,1.1C34.5,225.2,34.9,226,35.1,226.8z"/>
	<path style="fill:#4CAF50;" d="M42.4,224.4c0.5-0.8,1.1-1.2,1.8-1.4c0.7-0.1,1.2,0.1,1.6,0.7c-0.2,4.6-1.5,8.8-3.7,12.7
		c-0.8,0.3-1.7,0.2-2.5-0.2s-1.4-1.1-1.9-2c0.3-2.4,0.3-4.3,0-5.6l-1.4-2.5c0.7-2,1.8-2.9,3.4-2.8c0.9,2.1,1.3,5.4,1.1,9.8l0.2,0.2
		c1.1-1.9,1.8-3.9,2.1-6L42.4,224.4z"/>
	<path style="fill:#4CAF50;" d="M47.4,228.9l-0.1-4.7c1.5-1.1,2.7-1.2,3.6-0.3l-0.8,4.3c-0.1,1.1-0.1,3.6-0.2,7.5
		c-0.5,0.6-1.2,0.8-2,0.6c-0.9-0.2-1.5-0.6-1.9-1.2C46.7,232.6,47.2,230.5,47.4,228.9z M51.1,219.4c0,0.7-0.2,1.3-0.5,1.8
		s-0.7,0.8-1.2,0.8s-0.9-0.3-1.2-0.8s-0.5-1.1-0.5-1.8s0.2-1.3,0.5-1.8s0.8-0.8,1.2-0.8c0.5,0,0.9,0.3,1.2,0.8
		C51,218,51.1,218.7,51.1,219.4z"/>
	<path style="fill:#4CAF50;" d="M57.8,224.4c0.5-0.8,1.1-1.2,1.8-1.4c0.7-0.1,1.2,0.1,1.6,0.7c-0.2,4.6-1.5,8.8-3.7,12.7
		c-0.8,0.3-1.7,0.2-2.5-0.2s-1.4-1.1-1.9-2c0.3-2.4,0.3-4.3,0-5.6l-1.4-2.5c0.7-2,1.8-2.9,3.4-2.8c0.9,2.1,1.3,5.4,1.1,9.8l0.2,0.2
		c1.1-1.9,1.8-3.9,2.1-6L57.8,224.4z"/>
	<path style="fill:#4CAF50;" d="M69,231.8c0.4,0,0.7,0.1,0.9,0.4c0.2,0.3,0.2,0.9,0.1,1.6c-0.5,0.7-1.2,1.3-2.1,1.8
		s-1.8,0.8-2.7,0.9c-1.2-0.3-2.2-0.9-2.8-1.9s-0.9-2.2-0.9-3.5c0.1-1.8,0.5-3.4,1.4-4.9c1.7-1.7,3.3-2.8,4.9-3.1
		c0.8,0.1,1.4,0.4,1.8,1c0.8,1.1,0.9,2.8,0.4,5c-0.6,0.5-1.4,1-2.3,1.5s-1.8,0.9-2.5,1.1c0.1,0.6,0.3,1.2,0.6,1.9
		C66.9,233.4,68,232.8,69,231.8z M66.6,225.8l-0.3,0.2c-0.7,1.2-1.1,2.6-1.2,4c0.7-0.4,1.4-0.9,2-1.4
		C67.3,227.5,67.1,226.5,66.6,225.8z"/>
	<path style="fill:#4CAF50;" d="M81.5,226.8l-0.7,3.7c0,1.9,0.1,3.7,0.4,5.3c-0.3,0.6-0.9,0.8-1.8,0.7s-1.6-0.6-2.2-1.3
		c0-1,0.2-2.3,0.4-3.7c0.2-1.4,0.4-2.5,0.6-3.4c-0.1-0.6-0.3-1-0.6-1.2c-0.6,0.5-1.3,1.3-2.1,2.5c0,1.6-0.1,3.7-0.3,6.4
		c-0.5,0.6-1.3,0.8-2.2,0.6c-1-0.2-1.6-0.6-1.8-1.2c0.6-2.2,1.1-4.4,1.5-6.7l-0.6-3.7c0.9-1.2,2-1.7,3.3-1.4c0.2,0.7,0.2,1.4,0.2,2
		l-0.6,1.1l0.2,0.5c0.9-1.3,1.8-2.5,2.8-3.6c0.9,0.1,1.6,0.5,2.2,1.1C80.8,225.2,81.2,226,81.5,226.8z"/>
	<path style="fill:#4CAF50;" d="M82.7,231.2c0-1,0.1-1.9,0.4-2.7s0.6-1.5,1.1-2.3c1.3-1.6,2.7-2.6,4.3-3.1c1,0.3,1.7,0.7,2.1,1.4
		c0.2,0.4,0.4,0.7,0.5,1.1c0.1,0.4,0.2,0.9,0.4,1.5c-0.1,0.9-0.5,1.5-1.1,1.8c-0.6,0.4-1.3,0.5-2.3,0.3c0.1-1-0.1-2.2-0.4-3.5
		l-0.5,0.2c-0.6,1.3-0.9,2.8-0.9,4.4c0,1.3,0.3,2.4,0.8,3.4c1.2-0.5,2.2-1.2,3-2.1c0.4,0,0.7,0.2,0.8,0.5c0.2,0.4,0.2,0.9,0.1,1.6
		c-0.5,0.7-1.1,1.3-1.9,1.8s-1.6,0.9-2.5,1c-1.4-0.2-2.4-0.8-3-1.8C83,233.7,82.7,232.6,82.7,231.2z"/>
	<path style="fill:#4CAF50;" d="M93.4,228.9l-0.1-4.7c1.5-1.1,2.7-1.2,3.6-0.3l-0.8,4.3c-0.1,1.1-0.1,3.6-0.2,7.5
		c-0.5,0.6-1.2,0.8-2,0.6c-0.9-0.2-1.5-0.6-1.9-1.2C92.7,232.6,93.2,230.5,93.4,228.9z M97.1,219.4c0,0.7-0.2,1.3-0.5,1.8
		s-0.7,0.8-1.2,0.8s-0.9-0.3-1.2-0.8c-0.3-0.5-0.5-1.1-0.5-1.8s0.2-1.3,0.5-1.8s0.8-0.8,1.2-0.8c0.5,0,0.9,0.3,1.2,0.8
		C97,218,97.1,218.7,97.1,219.4z"/>
	<path style="fill:#4CAF50;" d="M97.7,231c0-1.8,0.6-3.5,1.7-5.1s2.6-2.4,4.4-2.5c0.5,0.6,0.9,1.5,1.4,2.8c-0.1-1.1,0.1-2,0.3-2.6
		c1-0.3,1.8-0.4,2.4-0.2c0.5,0.2,0.9,0.7,1.1,1.4l-1.5,4c0,2.1,0.1,4.4,0.3,6.9c-0.3,0.6-0.9,0.8-1.8,0.7s-1.6-0.6-2.2-1.3l0.6-2
		l-0.3-0.4c-1,1.4-1.7,2.5-2.4,3.4c-1.4-0.1-2.4-0.6-3.1-1.6C98,233.6,97.7,232.4,97.7,231z M102,228.3c-0.4,0.9-0.6,1.7-0.6,2.6
		c0,0.9,0.2,1.5,0.5,1.9c0.6-0.7,1.5-1.7,2.7-3l0.1-1.3c-0.3-1-0.7-1.8-1.2-2.2C102.9,226.8,102.3,227.5,102,228.3z"/>
	<path style="fill:#4CAF50;" d="M122.3,221.1l-0.3,0.1c-0.7,1.1-1.2,2.2-1.5,3.5c-0.3,1.2-0.5,2.5-0.5,3.6c0,1.2,0.1,2.1,0.4,2.9
		c0.3,0.7,0.7,1.4,1.3,1.9c1.2-0.7,2.3-1.5,3.1-2.4c0.4,0,0.7,0.1,0.9,0.4c0.2,0.3,0.3,0.8,0.2,1.5c-1.1,1.7-2.6,3-4.6,3.9
		c-1.6-0.3-2.8-1.2-3.7-2.6c-0.9-1.4-1.3-3.1-1.3-5.2c0-1.1,0.1-2.1,0.4-3.1c0.2-1,0.6-2.1,1.1-3.3c0.9-1.2,1.7-2,2.6-2.6
		s1.9-1,3-1.2c0.9,0.5,1.6,1.2,2.1,2.1c0.5,0.9,0.7,2,0.9,3.2c-0.2,0.7-0.6,1.2-1.3,1.5c-0.7,0.3-1.4,0.2-2.1-0.3
		C122.9,223.1,122.7,221.7,122.3,221.1z"/>
	<path style="fill:#4CAF50;" d="M128.2,228.9l-0.1-4.7c1.5-1.1,2.7-1.2,3.6-0.3l-0.8,4.3c-0.1,1.1-0.1,3.6-0.2,7.5
		c-0.5,0.6-1.2,0.8-2,0.6c-0.9-0.2-1.5-0.6-1.9-1.2C127.5,232.6,128,230.5,128.2,228.9z M131.9,219.4c0,0.7-0.2,1.3-0.5,1.8
		s-0.7,0.8-1.2,0.8s-0.9-0.3-1.2-0.8s-0.5-1.1-0.5-1.8s0.2-1.3,0.5-1.8s0.8-0.8,1.2-0.8c0.5,0,0.9,0.3,1.2,0.8
		C131.7,218,131.9,218.7,131.9,219.4z"/>
	<path style="fill:#4CAF50;" d="M133.4,229.2l-0.3-5.5c0.6-0.4,1.4-0.5,2.2-0.3s1.4,0.7,1.7,1.4c0,0.8-0.1,1.9-0.4,3.3
		s-0.6,2.6-1,3.6c0.1,0.5,0.4,0.9,1.1,1.2c0.9-1.4,1.5-2.4,1.8-3c0.3-2.8,0.6-4.8,0.9-6.2c1.1-0.3,1.9-0.3,2.4-0.2
		c0.6,0.2,0.9,0.6,1.1,1.3l-1.4,4c0,2.1,0.2,4.4,0.5,6.9c-0.3,0.6-0.9,0.8-1.8,0.7c-0.9-0.1-1.6-0.6-2.2-1.3l0.6-2.1l-0.2-0.2
		c-0.2,0.4-0.9,1.6-2.1,3.7c-2.4-0.4-3.7-1.7-4-3.8L133.4,229.2z"/>
	<path style="fill:#4CAF50;" d="M151.7,223.9l-0.2-6.4c1.5-1,2.8-1.2,3.7-0.6l-1.1,5.8c-0.1,1-0.4,5.4-0.9,13.1
		c-0.4,0.6-1.1,0.8-2,0.7s-1.6-0.5-2-1.3l0.9-1.9l-0.2-0.4c-0.9,1.2-1.6,2.3-2.3,3.3c-1.3,0-2.3-0.5-3-1.5s-1-2.2-1-3.6
		c0-0.9,0.2-1.8,0.5-2.7s0.7-1.7,1.2-2.4s1.2-1.3,2-1.8s1.6-0.7,2.6-0.7c0.5,0.7,1,1.8,1.4,3.2C151.5,225.6,151.6,224.7,151.7,223.9
		z M150.6,229.8l0.3-1.3c-0.5-1.1-0.9-1.8-1.4-2.2c-0.6,0.5-1.2,1.2-1.5,2c-0.4,0.9-0.6,1.7-0.6,2.6c0,0.9,0.2,1.5,0.5,1.9
		C148.7,232,149.6,231,150.6,229.8z"/>
	<path style="fill:#4CAF50;" d="M155,231c0-1.8,0.6-3.5,1.7-5.1c1.1-1.6,2.6-2.4,4.4-2.5c0.5,0.6,0.9,1.5,1.4,2.8
		c-0.1-1.1,0.1-2,0.3-2.6c1-0.3,1.8-0.4,2.4-0.2c0.5,0.2,0.9,0.7,1.1,1.4l-1.5,4c0,2.1,0.1,4.4,0.3,6.9c-0.3,0.6-0.9,0.8-1.8,0.7
		c-0.9-0.1-1.6-0.6-2.2-1.3l0.6-2l-0.3-0.4c-1,1.4-1.7,2.5-2.4,3.4c-1.4-0.1-2.4-0.6-3.1-1.6C155.3,233.6,155,232.4,155,231z
		 M159.3,228.3c-0.4,0.9-0.6,1.7-0.6,2.6c0,0.9,0.2,1.5,0.5,1.9c0.6-0.7,1.5-1.7,2.7-3l0.1-1.3c-0.3-1-0.7-1.8-1.2-2.2
		C160.2,226.8,159.7,227.5,159.3,228.3z"/>
	<path style="fill:#4CAF50;" d="M174.8,223.9l-0.2-6.4c1.5-1,2.8-1.2,3.7-0.6l-1.1,5.8c-0.1,1-0.4,5.4-0.9,13.1
		c-0.4,0.6-1,0.8-2,0.7c-0.9-0.1-1.6-0.5-2-1.3l1-1.9l-0.2-0.4c-0.9,1.2-1.6,2.3-2.3,3.3c-1.3,0-2.3-0.5-3-1.5s-1-2.2-1-3.6
		c0-0.9,0.2-1.8,0.5-2.7s0.7-1.7,1.2-2.4s1.2-1.3,2-1.8s1.6-0.7,2.6-0.7c0.5,0.7,1,1.8,1.4,3.2C174.6,225.6,174.7,224.7,174.8,223.9
		z M173.7,229.8l0.3-1.3c-0.5-1.1-0.9-1.8-1.4-2.2c-0.6,0.5-1.2,1.2-1.5,2c-0.4,0.9-0.6,1.7-0.6,2.6c0,0.9,0.2,1.5,0.5,1.9
		C171.8,232,172.7,231,173.7,229.8z"/>
	<path style="fill:#4CAF50;" d="M178.1,231c0-1.8,0.6-3.5,1.7-5.1c1.1-1.6,2.6-2.4,4.4-2.5c0.5,0.6,0.9,1.5,1.4,2.8
		c-0.1-1.1,0.1-2,0.3-2.6c1-0.3,1.8-0.4,2.4-0.2c0.5,0.2,0.9,0.7,1.1,1.4l-1.5,4c0,2.1,0.1,4.4,0.3,6.9c-0.3,0.6-0.9,0.8-1.8,0.7
		c-0.9-0.1-1.6-0.6-2.2-1.3l0.6-2l-0.3-0.4c-1,1.4-1.7,2.5-2.4,3.4c-1.4-0.1-2.4-0.6-3.1-1.6C178.4,233.6,178.1,232.4,178.1,231z
		 M182.4,228.3c-0.4,0.9-0.6,1.7-0.6,2.6c0,0.9,0.2,1.5,0.5,1.9c0.6-0.7,1.5-1.7,2.7-3l0.1-1.3c-0.3-1-0.7-1.8-1.2-2.2
		C183.3,226.8,182.8,227.5,182.4,228.3z"/>
	<path style="fill:#4CAF50;" d="M200,226.8l-0.7,3.7c0,1.9,0.1,3.7,0.4,5.3c-0.3,0.6-0.9,0.8-1.8,0.7c-0.9-0.1-1.6-0.6-2.2-1.3
		c0-1,0.2-2.3,0.4-3.7s0.4-2.5,0.6-3.4c-0.1-0.6-0.3-1-0.6-1.2c-0.6,0.5-1.3,1.3-2.1,2.5c0,1.6-0.1,3.7-0.3,6.4
		c-0.5,0.6-1.3,0.8-2.2,0.6c-1-0.2-1.6-0.6-1.8-1.2c0.6-2.2,1.1-4.4,1.5-6.7l-0.6-3.7c0.9-1.2,2-1.7,3.3-1.4c0.2,0.7,0.2,1.4,0.2,2
		l-0.6,1.1l0.2,0.5c0.9-1.3,1.8-2.5,2.8-3.6c0.9,0.1,1.6,0.5,2.2,1.1C199.4,225.2,199.8,226,200,226.8z"/>
	<path style="fill:#4CAF50;" d="M201.3,231c0-1.8,0.6-3.5,1.7-5.1c1.1-1.6,2.6-2.4,4.4-2.5c0.5,0.6,0.9,1.5,1.4,2.8
		c-0.1-1.1,0.1-2,0.3-2.6c1-0.3,1.8-0.4,2.4-0.2c0.5,0.2,0.9,0.7,1.1,1.4l-1.5,4c0,2.1,0.1,4.4,0.3,6.9c-0.3,0.6-0.9,0.8-1.8,0.7
		c-0.9-0.1-1.6-0.6-2.2-1.3l0.6-2l-0.3-0.4c-1,1.4-1.7,2.5-2.4,3.4c-1.4-0.1-2.4-0.6-3.1-1.6S201.3,232.4,201.3,231z M205.5,228.3
		c-0.4,0.9-0.6,1.7-0.6,2.6c0,0.9,0.2,1.5,0.5,1.9c0.6-0.7,1.5-1.7,2.7-3l0.1-1.3c-0.3-1-0.7-1.8-1.2-2.2
		C206.4,226.8,205.9,227.5,205.5,228.3z"/>
</g>
</svg>
