<?xml version="1.0" encoding="iso-8859-1"?>
<!-- Generator: Adobe Illustrator 22.1.0, SVG Export Plug-In . SVG Version: 6.00 Build 0)  -->
<svg version="1.1" id="Capa_1" xmlns="http://www.w3.org/2000/svg" xmlns:xlink="http://www.w3.org/1999/xlink" x="0px" y="0px"
	 viewBox="0 0 208 235.1" style="enable-background:new 0 0 208 235.1;" xml:space="preserve">
<path style="fill:#303F9F;" d="M151.1,182.6H56.9c-3.5,0-6.7-1.9-8.4-4.9L1.4,96.2c-1.7-3-1.7-6.7,0-9.7L48.5,4.9
	c1.7-3,5-4.9,8.4-4.9h94.2c3.5,0,6.7,1.9,8.4,4.9l47.1,81.6c1.7,3,1.7,6.7,0,9.7l-47.1,81.6C157.8,180.7,154.5,182.6,151.1,182.6z"
	/>
<path style="fill:#FFFFFF;" d="M63.6,54.6c0.7-0.6,1.7-1.2,2.8-1.7c1.1-0.6,2.3-0.9,3.6-1.2c1.8-0.3,3.6-0.5,5.4-0.6
	s3.6-0.1,5.3,0.1c1.7,0.1,3.3,0.3,4.8,0.6s2.8,0.7,3.8,1.1l0,0c0.7,0.3,1.4,0.6,2.2,0.9s1.5,0.7,2.3,1.1c0.7,0.4,1.4,0.8,2.1,1.3
	s1.2,1,1.7,1.6s0.9,1.3,1.1,2S99,61.2,99,62c0,0.7-0.2,1.4-0.5,2s-0.7,1.2-1.3,1.7c-0.4,0.3-0.7,0.5-1,0.7c-0.3,0.1-0.5,0.2-0.7,0.2
	s-0.4-0.1-0.5-0.2c-0.2-0.1-0.3-0.3-0.5-0.5c-0.3-0.3-0.4-0.6-0.4-0.9s0-0.5,0.1-0.8c0.1-0.2,0.2-0.5,0.4-0.7
	c0.2-0.2,0.3-0.5,0.4-0.7s0.2-0.4,0.2-0.7c0-0.2-0.1-0.4-0.2-0.7c-0.5-0.6-1.1-1.1-1.9-1.6s-1.6-0.9-2.6-1.3c-1-0.4-2-0.7-3-1
	c-1.1-0.3-2.1-0.6-3.1-0.8s-2-0.4-3-0.5c-0.9-0.1-1.8-0.2-2.5-0.3c-1.1,0-2.2,0-3.3,0c-1.1,0.1-2.1,0.2-3.1,0.4s-1.9,0.5-2.8,0.9
	s-1.7,0.9-2.5,1.6c-0.6,0.5-1.1,1-1.4,1.6s-0.5,1.1-0.7,1.6c-0.2,0.6-0.1,1.1,0,1.7c0.2,0.5,0.5,1.1,1,1.6c1,1.2,2,2.3,3.1,3.2
	c1.1,0.9,2.1,1.7,3.3,2.3c1.1,0.7,2.3,1.3,3.5,1.8s2.5,1.1,3.8,1.6l0.5,0.6c0.2,0.2,0.3,0.4,0.3,0.7c0.1,0.3,0.1,0.5,0.1,0.8
	s-0.1,0.5-0.2,0.8c-0.1,0.2-0.2,0.4-0.4,0.6c-0.4,0.3-1,0.5-1.7,0.5S76.9,78,76,77.7s-1.7-0.7-2.7-1.1c-0.9-0.5-1.8-1-2.7-1.5
	c-0.8-0.5-1.6-1-2.3-1.5c-0.7-0.5-1.2-0.9-1.6-1.2c-0.3-0.3-0.6-0.5-0.9-0.8s-0.6-0.6-1-0.9c-0.4-0.4-0.8-0.8-1.3-1.3
	c-0.5-0.5-1.1-1.2-1.8-2.1c-0.4-0.5-0.7-1.1-0.9-1.6c-0.2-0.6-0.4-1.1-0.4-1.6c-0.1-0.5-0.1-1-0.1-1.4s0.1-0.8,0.1-1
	c0.2-1.6,0.5-2.9,1.1-4C61.8,56.4,62.6,55.4,63.6,54.6z"/>
<path style="fill:#FFFFFF;" d="M69.9,45c0.8-0.5,1.8-1,2.9-1.5s2.4-0.7,3.7-0.8c1.8-0.1,3.6-0.2,5.5-0.1c1.8,0.1,3.6,0.3,5.3,0.6
	c1.7,0.3,3.2,0.6,4.7,1c1.4,0.4,2.7,0.9,3.7,1.5l0,0c0.7,0.3,1.4,0.7,2.1,1.1c0.7,0.4,1.4,0.8,2.1,1.3s1.4,0.9,2,1.5
	c0.6,0.5,1.1,1.1,1.6,1.8c0.4,0.7,0.7,1.3,0.9,2.1c0.2,0.7,0.2,1.5,0.1,2.2s-0.3,1.4-0.7,2c-0.4,0.6-0.8,1.1-1.4,1.5
	c-0.4,0.3-0.8,0.5-1,0.6c-0.3,0.1-0.5,0.1-0.7,0.1s-0.4-0.1-0.5-0.3s-0.3-0.4-0.5-0.6c-0.2-0.3-0.3-0.7-0.3-0.9
	c0-0.3,0.1-0.5,0.2-0.8c0.1-0.2,0.3-0.5,0.4-0.7c0.2-0.2,0.3-0.4,0.5-0.6c0.1-0.2,0.2-0.4,0.3-0.6c0-0.2,0-0.4-0.2-0.7
	c-0.4-0.6-1-1.2-1.7-1.8s-1.6-1.1-2.5-1.6s-1.9-0.9-2.9-1.3c-1-0.4-2-0.8-3-1.1s-2-0.6-2.9-0.8s-1.7-0.4-2.4-0.5
	c-1.1-0.2-2.2-0.2-3.3-0.3c-1.1,0-2.1,0-3.1,0.1s-2,0.4-2.9,0.7s-1.8,0.8-2.7,1.3c-0.7,0.4-1.2,0.9-1.5,1.5
	c-0.4,0.5-0.6,1.1-0.8,1.5c-0.2,0.6-0.3,1.1-0.1,1.7c0.1,0.5,0.4,1.1,0.8,1.7c0.9,1.3,1.8,2.5,2.8,3.4c1,1,2,1.8,3,2.6
	s2.2,1.5,3.3,2.1c1.2,0.6,2.4,1.3,3.6,1.9l0.4,0.6c0.1,0.2,0.2,0.4,0.3,0.7c0,0.3,0,0.5,0,0.8s-0.1,0.5-0.2,0.7s-0.3,0.4-0.5,0.5
	c-0.5,0.3-1,0.4-1.7,0.3s-1.5-0.3-2.3-0.7c-0.8-0.4-1.7-0.8-2.6-1.4s-1.7-1.1-2.5-1.7s-1.5-1.1-2.1-1.7c-0.6-0.5-1.1-1-1.5-1.3
	c-0.3-0.3-0.6-0.6-0.9-0.9c-0.3-0.3-0.6-0.6-0.9-1c-0.4-0.4-0.7-0.9-1.2-1.5c-0.4-0.6-1-1.3-1.6-2.2c-0.4-0.6-0.6-1.1-0.8-1.7
	c-0.2-0.6-0.2-1.1-0.3-1.6c0-0.5,0-1,0-1.4c0.1-0.4,0.1-0.7,0.2-1c0.3-1.5,0.8-2.8,1.4-3.9C67.9,46.6,68.8,45.8,69.9,45z"/>
<path style="fill:#FFFFFF;" d="M91,134.5l15.5,5.2c1.2,0.4,2.1,1.1,2.7,2.1s0.8,2,0.4,3c-0.3,1-1.1,1.8-2.2,2.2s-2.3,0.4-3.4,0
	l-16-5.4c-2-0.7-4-1.9-5.8-3.8c-1.8-1.8-2.9-3.6-3.3-5.3l-4.4-19.8c-0.5-2.8-0.4-5.5,0.5-8c0.9-2.8,2.3-4.9,4.3-6.5l15.4-13
	c1.5-1.2,3.4-2,5.8-2.5s4.5-0.4,6.4,0.2l16.9,5.7c1.2,0.4,2.1,1.1,2.7,2.1s0.7,2,0.4,3c-0.3,1-1.1,1.8-2.1,2.2
	c-1.1,0.5-2.2,0.5-3.4,0.1l-16.3-5.5c-1.4-0.5-2.7-0.1-4,1l-14.6,12.1c-1.2,0.9-2,2.2-2.5,3.9c-0.6,1.7-0.7,3.4-0.3,5l4,18.1
	C88,132.6,89.1,133.9,91,134.5z"/>
<path style="fill:#FFFFFF;" d="M102.1,96.8l12.7,4.3c1,0.3,1.7,0.8,2.3,1.6c0.6,0.7,0.7,1.4,0.5,2.1s-0.8,1.1-1.6,1.4
	c-0.9,0.2-1.8,0.2-2.8-0.1l-13.2-4.4c-1.7-0.6-3.3-1.5-4.8-2.8s-2.5-2.6-2.9-3.7l-4.5-13.7c-0.6-1.9-0.6-3.7,0-5.4
	c0.6-1.8,1.7-3.2,3.1-4.2l11.8-8.1c1.1-0.7,2.6-1.2,4.5-1.4s3.6-0.1,5.2,0.4l13.9,4.7c1,0.3,1.7,0.8,2.3,1.6
	c0.5,0.7,0.7,1.4,0.5,2.1s-0.8,1.2-1.6,1.4c-0.9,0.3-1.8,0.2-2.7-0.1L111.4,68c-1.1-0.4-2.2-0.2-3.2,0.5L97,76
	c-0.9,0.6-1.5,1.4-1.9,2.5s-0.4,2.3,0,3.4l4.1,12.5C99.5,95.4,100.5,96.3,102.1,96.8z"/>
<path style="fill:#FFFFFF;" d="M134.9,98.3l5.9,2c0.5,0.2,0.8,0.4,1.1,0.7c0.3,0.3,0.3,0.7,0.2,1s-0.4,0.5-0.8,0.6
	c-0.4,0.1-0.8,0.1-1.3-0.1l-6.1-2c-0.8-0.3-1.5-0.7-2.2-1.3c-0.7-0.6-1.2-1.2-1.4-1.7l-2.1-6.4c-0.3-0.9-0.3-1.7,0-2.5
	s0.8-1.5,1.5-2l5.5-3.8c0.5-0.3,1.2-0.6,2.1-0.7c0.9-0.1,1.7,0,2.4,0.2l6.5,2.2c0.5,0.2,0.8,0.4,1,0.7c0.2,0.3,0.3,0.7,0.2,1
	s-0.4,0.5-0.8,0.7c-0.4,0.1-0.8,0.1-1.3,0l-6.2-2.1c-0.5-0.2-1-0.1-1.5,0.2l-5.2,3.5c-0.4,0.3-0.7,0.7-0.9,1.2s-0.2,1.1,0,1.6
	l1.9,5.8C133.7,97.6,134.2,98,134.9,98.3z"/>
<path style="fill:#FFFFFF;" d="M130.9,109.3l5.9,2c0.5,0.2,0.8,0.4,1.1,0.7c0.3,0.3,0.3,0.7,0.2,1s-0.4,0.5-0.8,0.6
	c-0.4,0.1-0.8,0.1-1.3-0.1l-6.1-2c-0.8-0.3-1.5-0.7-2.2-1.3c-0.7-0.6-1.2-1.2-1.4-1.7l-2.1-6.4c-0.3-0.9-0.3-1.7,0-2.5
	s0.8-1.5,1.5-2l5.5-3.8c0.5-0.3,1.2-0.6,2.1-0.7c0.9-0.1,1.7,0,2.4,0.2l6.5,2.2c0.5,0.2,0.8,0.4,1,0.7c0.2,0.3,0.3,0.7,0.2,1
	s-0.4,0.5-0.8,0.7c-0.4,0.1-0.8,0.1-1.3,0l-6.2-2.1c-0.5-0.2-1-0.1-1.5,0.2l-5.2,3.5c-0.4,0.3-0.7,0.7-0.9,1.2
	c-0.2,0.5-0.2,1.1,0,1.6l1.9,5.8C129.7,108.6,130.2,109,130.9,109.3z"/>
<path style="fill:#FFFFFF;" d="M143.3,51.5l-1.7-9.6c-0.2-0.9-0.6-1.8-1.4-2.8c-0.8-1-1.6-1.7-2.5-2.1l-0.7-0.3l0,0
	c-0.3-0.5-0.8-0.8-1.4-1l-2.4-0.7l-3.8-1.7c-0.6-0.3-1.2-0.3-1.7-0.2c-0.1,0-0.3,0.1-0.4,0.1l-0.5-0.1c-1-0.3-2.1-0.3-3.3-0.1
	c-1.2,0.2-2.2,0.6-2.9,1.2l-7.6,6.2c-0.9,0.8-1.6,1.8-2,3.1c-0.4,1.2-0.3,2.4,0,3.8l2.9,9.4c0.3,0.8,0.9,1.6,1.9,2.5s2,1.5,3.1,1.8
	l4.3,1.3l2.5,1.1c1,0.5,2.2,0.7,3.5,0.7s2.3-0.2,3-0.7l8.3-5.2c1.1-0.8,2-1.7,2.5-2.9C143.3,53.9,143.5,52.7,143.3,51.5z
	 M138.4,53.1c-0.4,0.8-0.9,1.4-1.5,1.8l-7.6,4.8c-0.2,0.2-0.5,0.2-0.7,0.3c-0.1-0.1-0.3-0.1-0.4-0.2l-3.9-1.2l-5.2-2.4
	c-0.2-0.1-0.4-0.2-0.7-0.2c-0.1-0.1-0.1-0.3-0.2-0.4l-2.6-8.6c-0.2-0.8-0.2-1.5,0-2.4c0.2-0.8,0.6-1.4,1.2-1.9l7.2-5.8
	c0.6-0.5,1.3-0.7,2-0.5l5.9,1.7l4.1,1.8c0.7,0.3,1.1,0.9,1.2,1.7l1.6,9.1C138.8,51.7,138.7,52.4,138.4,53.1z"/>
<polygon style="fill:#FFFFFF;" points="82.9,141.9 95.2,146.1 78.8,157.6 "/>
<path style="fill:#303F9F;" d="M40.8,193.4l-0.4,0.1c-0.8,0.9-1.4,1.8-1.8,2.8c-0.4,1-0.6,2-0.6,2.9s0.1,1.7,0.5,2.3
	c0.3,0.6,0.8,1.1,1.5,1.5c1.4-0.5,2.6-1.2,3.5-1.9c0.5,0,0.8,0.1,1,0.4c0.2,0.3,0.3,0.7,0.3,1.2c-1.2,1.4-3,2.4-5.3,3.1
	c-1.8-0.3-3.2-1-4.2-2.1s-1.5-2.5-1.5-4.1c0-0.9,0.2-1.7,0.4-2.5c0.3-0.8,0.7-1.7,1.3-2.7c1-0.9,2-1.6,3-2.1s2.1-0.8,3.4-0.9
	c1.1,0.4,1.9,1,2.4,1.7s0.9,1.6,1,2.6c-0.2,0.6-0.7,1-1.5,1.2c-0.8,0.3-1.6,0.2-2.5-0.2C41.5,195,41.3,193.9,40.8,193.4z"/>
<path style="fill:#303F9F;" d="M47.3,199.9l-0.4-4.4c0.7-0.3,1.5-0.4,2.5-0.2c0.9,0.2,1.6,0.5,1.9,1.1c0,0.6-0.2,1.5-0.5,2.6
	s-0.7,2.1-1.1,2.9c0.1,0.4,0.5,0.7,1.2,1c1-1.1,1.7-1.9,2-2.4c0.3-2.2,0.7-3.9,1.1-5c1.2-0.2,2.1-0.3,2.8-0.1
	c0.6,0.1,1.1,0.5,1.3,1.1l-1.6,3.3c0,1.7,0.2,3.5,0.5,5.6c-0.3,0.5-1,0.7-2.1,0.6c-1-0.1-1.9-0.5-2.6-1.1l0.7-1.7l-0.2-0.2
	c-0.2,0.3-1,1.3-2.4,3c-2.7-0.3-4.3-1.3-4.6-3L47.3,199.9z"/>
<path style="fill:#303F9F;" d="M61.2,195.7l-0.2-4.9c0.8-0.5,1.5-0.8,2.3-0.9s1.5,0,2.1,0.2l-1.2,4.6c-0.4,6.8-0.5,10.3-0.6,10.5
	c-0.3,0.3-0.9,0.5-1.6,0.6c-0.7,0.1-1.4,0-2-0.2s-1-0.5-1.1-0.8C59.9,202.3,60.6,199.2,61.2,195.7z"/>
<path style="fill:#303F9F;" d="M71.6,196.5L71.6,196.5c-0.1,1-0.2,2.4-0.4,4c-0.2,1.6-0.2,2.6-0.3,2.9c0.9-0.5,1.9-1.1,2.8-1.9
	c0.5,0,0.8,0.2,1,0.4s0.2,0.6,0.2,1.3c-1.6,1.4-3.1,2.3-4.6,2.7c-1.8-0.2-3-0.9-3.5-2.3c0.8-2.1,1.4-4.3,1.9-6.4l-2.3,0.4
	c-0.3-0.4-0.5-0.7-0.5-1s0.1-0.7,0.4-1.2l2.5,0.1l-0.3-3.5c1-0.6,1.8-0.8,2.6-0.9c0.8,0,1.3,0.2,1.7,0.6l-0.9,3.2l3-0.6
	c0.5,0.5,0.5,1.2,0,2.2H71.6z"/>
<path style="fill:#303F9F;" d="M77.2,199.9l-0.4-4.4c0.7-0.3,1.5-0.4,2.5-0.2c0.9,0.2,1.6,0.5,1.9,1.1c0,0.6-0.2,1.5-0.5,2.6
	s-0.7,2.1-1.1,2.9c0.1,0.4,0.5,0.7,1.2,1c1-1.1,1.7-1.9,2-2.4c0.3-2.2,0.7-3.9,1.1-5c1.2-0.2,2.1-0.3,2.8-0.1
	c0.6,0.1,1.1,0.5,1.3,1.1l-1.6,3.3c0,1.7,0.2,3.5,0.5,5.6c-0.3,0.5-1,0.7-2.1,0.6c-1-0.1-1.9-0.5-2.6-1.1l0.7-1.7l-0.2-0.2
	c-0.2,0.3-1,1.3-2.4,3c-2.7-0.3-4.3-1.3-4.6-3L77.2,199.9z"/>
<path style="fill:#303F9F;" d="M93.5,198.1l2.9-2.9c0.9,0.2,1.5,0.7,2.1,1.3c0.5,0.7,0.8,1.6,0.9,2.7c-0.5,0.5-1,0.8-1.7,0.9
	c-0.7,0.1-1.3-0.1-1.9-0.4c0-0.2-0.1-0.7-0.3-1.4c-0.2,0.1-0.7,0.6-1.7,1.5c0,1.5-0.1,3.3-0.3,5.4c-0.6,0.5-1.5,0.6-2.5,0.5
	c-1.1-0.1-1.8-0.5-2-1c0.7-1.8,1.3-3.6,1.7-5.3l-0.7-3c0.5-0.5,1.2-0.8,1.9-1c0.7-0.2,1.3-0.2,1.9-0.1c0.2,0.5,0.3,1.1,0.3,1.6
	l-0.6,0.8L93.5,198.1z"/>
<path style="fill:#303F9F;" d="M99.7,201.4c0-1.5,0.6-2.8,1.9-4.1s3-2,5-2c0.5,0.5,1.1,1.2,1.6,2.3c-0.1-0.9,0.1-1.6,0.3-2.1
	c1.2-0.3,2.1-0.3,2.7-0.2s1,0.5,1.2,1.2l-1.7,3.3c0,1.7,0.1,3.6,0.3,5.6c-0.4,0.5-1,0.7-2,0.6c-1-0.1-1.8-0.5-2.5-1.1l0.7-1.6
	l-0.3-0.4c-1.1,1.1-2,2-2.7,2.8c-1.6-0.1-2.7-0.5-3.5-1.3C100.1,203.5,99.7,202.5,99.7,201.4z M104.7,199.2
	c-0.4,0.7-0.7,1.4-0.7,2.1s0.2,1.2,0.6,1.5c0.7-0.5,1.7-1.3,3.1-2.4l0.1-1c-0.4-0.8-0.8-1.4-1.4-1.8
	C105.7,198,105.1,198.5,104.7,199.2z"/>
<path style="fill:#303F9F;" d="M129.6,193.8c-1.1,0-1.8,0.1-2.4,0.2l-0.5,1.4l-0.4,2.6c2.2-0.4,3.6-0.6,4-0.6
	c0.2,0.2,0.4,0.4,0.4,0.8c0.1,0.6,0,1.2-0.4,1.8c-1.5-0.2-2.9-0.3-4.2-0.3l-0.6,3.8c2.4-0.4,4.3-0.8,5.6-1.2
	c0.4,0.1,0.7,0.4,0.8,0.8c0.2,0.7,0,1.5-0.6,2.3l-7,0.5c-1.8-0.5-2.7-1.3-2.8-2.5c0.1-0.2,0.2-0.5,0.4-1.1c0.2-0.5,0.3-0.9,0.3-1
	s0.1-0.4,0.3-0.8c0.1-0.4,0.2-0.7,0.3-0.9c0.1-0.2,0.1-0.5,0.2-0.8c0.1-0.4,0.2-0.7,0.3-1c0.1-0.3,0.2-0.7,0.3-1.1l-0.2-2.6
	c-0.4-0.2-0.9-0.3-1.3-0.4c-0.1-0.3-0.1-0.6-0.1-0.9c0-0.3,0.1-0.5,0.3-0.7c2.2-0.2,4-0.3,5.4-0.3s3.2,0,5.3,0.2
	c0.7,1.7,0.2,2.9-1.5,3.7L129.6,193.8z M129.3,185.9c0.9-0.1,1.6-0.1,2.1,0.1c0.5,0.2,0.9,0.6,1.2,1.2l-3.7,3.4
	c-0.4,0-0.7-0.1-1.1-0.2c-0.3-0.2-0.4-0.4-0.4-0.7l1.3-1.8L129.3,185.9z"/>
<path style="fill:#303F9F;" d="M139.5,196.5L139.5,196.5c-0.1,1-0.2,2.4-0.4,4s-0.2,2.6-0.3,2.9c0.9-0.5,1.9-1.1,2.8-1.9
	c0.5,0,0.8,0.2,1,0.4s0.2,0.6,0.2,1.3c-1.6,1.4-3.1,2.3-4.6,2.7c-1.8-0.2-3-0.9-3.5-2.3c0.8-2.1,1.4-4.3,1.9-6.4l-2.3,0.4
	c-0.3-0.4-0.5-0.7-0.5-1s0.1-0.7,0.4-1.2l2.5,0.1l-0.3-3.5c1-0.6,1.8-0.8,2.6-0.9c0.8,0,1.3,0.2,1.7,0.6l-0.9,3.2l3-0.6
	c0.5,0.5,0.5,1.2,0,2.2H139.5z"/>
<path style="fill:#303F9F;" d="M145.3,199.7l-0.2-3.8c1.7-0.9,3.1-0.9,4.1-0.2l-0.9,3.4c-0.1,0.9-0.2,2.9-0.2,6.1
	c-0.6,0.5-1.3,0.7-2.3,0.5c-1-0.1-1.7-0.5-2.2-1C144.5,202.7,145.1,201,145.3,199.7z M149.6,192c0,0.6-0.2,1.1-0.6,1.5
	c-0.4,0.4-0.8,0.6-1.4,0.6c-0.5,0-1-0.2-1.4-0.6c-0.4-0.4-0.6-0.9-0.6-1.5s0.2-1.1,0.6-1.5c0.4-0.4,0.9-0.6,1.4-0.6s1,0.2,1.4,0.6
	C149.4,190.9,149.6,191.4,149.6,192z"/>
<path style="fill:#303F9F;" d="M150.2,201.5c0-0.8,0.1-1.6,0.4-2.2c0.3-0.6,0.7-1.2,1.3-1.8c1.5-1.3,3.1-2.1,4.9-2.5
	c1.1,0.2,1.9,0.6,2.4,1.1c0.2,0.3,0.4,0.6,0.6,0.9c0.1,0.3,0.3,0.7,0.4,1.2c-0.1,0.7-0.6,1.2-1.2,1.5c-0.7,0.3-1.5,0.4-2.6,0.2
	c0.1-0.8-0.1-1.8-0.4-2.8l-0.6,0.2c-0.7,1.1-1,2.2-1.1,3.5c0,1,0.3,1.9,1,2.7c1.3-0.4,2.5-0.9,3.4-1.7c0.4,0,0.8,0.1,1,0.4
	c0.2,0.3,0.2,0.7,0.1,1.3c-0.5,0.6-1.2,1-2.1,1.5c-0.9,0.4-1.9,0.7-2.9,0.8c-1.6-0.2-2.7-0.7-3.4-1.4
	C150.5,203.6,150.2,202.6,150.2,201.5z"/>
<path style="fill:#303F9F;" d="M161.2,201.4c0-1.5,0.6-2.8,1.9-4.1c1.3-1.3,3-2,5-2c0.5,0.5,1.1,1.2,1.6,2.3
	c-0.1-0.9,0.1-1.6,0.3-2.1c1.2-0.3,2.1-0.3,2.7-0.2c0.6,0.1,1,0.5,1.2,1.2l-1.7,3.3c0,1.7,0.1,3.6,0.3,5.6c-0.4,0.5-1,0.7-2,0.6
	c-1-0.1-1.8-0.5-2.5-1.1l0.7-1.6l-0.3-0.4c-1.1,1.1-2,2-2.7,2.8c-1.6-0.1-2.7-0.5-3.5-1.3C161.6,203.5,161.2,202.5,161.2,201.4z
	 M166.1,199.2c-0.4,0.7-0.7,1.4-0.7,2.1s0.2,1.2,0.6,1.5c0.7-0.5,1.7-1.3,3.1-2.4l0.1-1c-0.4-0.8-0.8-1.4-1.4-1.8
	C167.1,198,166.5,198.5,166.1,199.2z"/>
<path style="fill:#303F9F;" d="M108.4,212.1L108.4,212.1c0.3-1.7,0.5-2.9,0.7-3.6c1.2-0.2,2.1-0.2,2.7-0.1c0.6,0.1,1,0.4,1.3,0.8
	l-1.8,2.5c-0.6,3.4-0.9,5.7-0.9,7c-0.6,0.6-1.3,1.1-2.3,1.3c-0.9,0.3-2.1,0.4-3.6,0.4c-1.9-0.7-3-1.5-3.4-2.7c0.5-0.6,1.1-1,1.8-1.2
	c0.7-0.2,1.3-0.1,1.9,0.1c0.2,0.5,0.3,0.8,0.5,1.1s0.4,0.5,0.6,0.8c0.6,0,0.9-0.1,1.1-0.4c0.1-1.1,0.3-2,0.5-2.7l0.8-1.3l-0.3-0.2
	c-0.5,0.5-1.2,1.1-1.9,1.7c-1.2-0.1-2.1-0.3-2.9-0.7s-1.2-0.9-1.4-1.4l0.9-1.8c0-0.5-0.1-1-0.2-1.7s-0.2-1.2-0.2-1.5
	c0.4-0.1,0.9-0.2,1.5-0.2s1.1,0.1,1.7,0.2c0.5,0.2,1,0.4,1.3,0.7c-0.1,1.1-0.6,2.3-1.3,3.7c0.1,0.3,0.4,0.5,0.9,0.7
	C107.1,213.2,107.8,212.7,108.4,212.1z"/>
<path style="fill:#303F9F;" d="M6,219.6l-0.3,0.1c-0.7,1.1-1.2,2.2-1.5,3.5c-0.3,1.2-0.5,2.5-0.5,3.6c0,1.2,0.1,2.1,0.4,2.9
	c0.3,0.7,0.7,1.4,1.3,1.9c1.2-0.7,2.3-1.5,3.1-2.4c0.4,0,0.7,0.1,0.9,0.4c0.2,0.3,0.3,0.8,0.2,1.5c-1.1,1.7-2.6,3-4.6,3.9
	c-1.6-0.3-2.8-1.2-3.7-2.6C0.4,231,0,229.3,0,227.2c0-1.1,0.1-2.1,0.4-3.1c0.2-1,0.6-2.1,1.1-3.3c0.9-1.2,1.7-2,2.6-2.6s1.9-1,3-1.2
	c0.9,0.5,1.6,1.2,2.1,2.1c0.5,0.9,0.7,2,0.9,3.2c-0.2,0.7-0.6,1.2-1.3,1.5s-1.4,0.2-2.1-0.3C6.5,221.6,6.3,220.2,6,219.6z"/>
<path style="fill:#303F9F;" d="M10.5,229.2c0-0.7,0.1-1.4,0.4-2.3c0.3-0.8,0.6-1.7,1.1-2.4c0.5-0.8,1-1.5,1.8-2
	c0.7-0.5,1.5-0.8,2.4-0.8c0.8,0,1.7,0.7,2.4,2.1s1.2,2.7,1.2,4c0,1.1-0.3,2.3-0.8,3.4c-0.5,1.1-1.2,2-2.1,2.8
	c-0.9,0.7-1.7,1.1-2.7,1.1c-0.9,0-1.8-0.6-2.6-1.9C10.9,231.9,10.5,230.6,10.5,229.2z M15.7,223.9c-0.5,0.8-1,1.7-1.3,2.7
	c-0.4,1-0.6,2-0.6,2.9c0,0.5,0.1,1,0.2,1.6c0.2,0.6,0.4,1.1,0.6,1.4c1-1.2,1.7-2.5,2-4.1c0-1.1-0.1-1.9-0.2-2.6
	C16.3,225.3,16.1,224.6,15.7,223.9z"/>
<path style="fill:#303F9F;" d="M30.7,225.3L30,229c0,1.9,0.1,3.7,0.4,5.3c-0.3,0.6-0.9,0.8-1.8,0.7s-1.6-0.6-2.2-1.3
	c0-1,0.2-2.3,0.4-3.7c0.2-1.4,0.4-2.5,0.6-3.4c-0.1-0.6-0.3-1-0.6-1.2c-0.6,0.5-1.3,1.3-2.1,2.5c0,1.6-0.1,3.7-0.3,6.4
	c-0.5,0.6-1.3,0.8-2.2,0.6c-1-0.2-1.6-0.6-1.8-1.2c0.6-2.2,1.1-4.4,1.5-6.7l-0.6-3.7c0.9-1.2,2-1.7,3.3-1.4c0.2,0.7,0.2,1.4,0.2,2
	l-0.6,1.1l0.2,0.5c0.9-1.3,1.8-2.5,2.8-3.6c0.9,0.1,1.6,0.5,2.2,1.1C30.1,223.7,30.5,224.5,30.7,225.3z"/>
<path style="fill:#303F9F;" d="M38,222.9c0.5-0.8,1.1-1.2,1.8-1.4c0.7-0.1,1.2,0.1,1.6,0.7c-0.2,4.6-1.5,8.8-3.7,12.7
	c-0.8,0.3-1.7,0.2-2.5-0.2s-1.4-1.1-1.9-2c0.3-2.4,0.3-4.3,0-5.6l-1.4-2.5c0.7-2,1.8-2.9,3.4-2.8c0.9,2.1,1.3,5.4,1.1,9.8l0.2,0.2
	c1.1-1.9,1.8-3.9,2.1-6L38,222.9z"/>
<path style="fill:#303F9F;" d="M43,227.5l-0.1-4.7c1.5-1.1,2.7-1.2,3.6-0.3l-0.8,4.3c-0.1,1.1-0.1,3.6-0.2,7.5
	c-0.5,0.6-1.2,0.8-2,0.6c-0.9-0.2-1.5-0.6-1.9-1.2C42.3,231.1,42.8,229,43,227.5z M46.7,217.9c0,0.7-0.2,1.3-0.5,1.8
	s-0.7,0.8-1.2,0.8s-0.9-0.3-1.2-0.8s-0.5-1.1-0.5-1.8s0.2-1.3,0.5-1.8s0.8-0.8,1.2-0.8c0.5,0,0.9,0.3,1.2,0.8
	C46.5,216.6,46.7,217.2,46.7,217.9z"/>
<path style="fill:#303F9F;" d="M53.3,222.9c0.5-0.8,1.1-1.2,1.8-1.4c0.7-0.1,1.2,0.1,1.6,0.7c-0.2,4.6-1.5,8.8-3.7,12.7
	c-0.8,0.3-1.7,0.2-2.5-0.2s-1.4-1.1-1.9-2c0.3-2.4,0.3-4.3,0-5.6l-1.4-2.5c0.7-2,1.8-2.9,3.4-2.8c0.9,2.1,1.3,5.4,1.1,9.8l0.2,0.2
	c1.1-1.9,1.8-3.9,2.1-6L53.3,222.9z"/>
<path style="fill:#303F9F;" d="M64.6,230.3c0.4,0,0.7,0.1,0.9,0.4c0.2,0.3,0.2,0.9,0.1,1.6c-0.5,0.7-1.2,1.3-2.1,1.8
	s-1.8,0.8-2.7,0.9c-1.2-0.3-2.2-0.9-2.8-1.9s-0.9-2.2-0.9-3.5c0.1-1.8,0.5-3.4,1.4-4.9c1.7-1.7,3.3-2.8,4.9-3.1
	c0.8,0.1,1.4,0.4,1.8,1c0.8,1.1,0.9,2.8,0.4,5c-0.6,0.5-1.4,1-2.3,1.5c-0.9,0.5-1.8,0.9-2.5,1.1c0.1,0.6,0.3,1.2,0.6,1.9
	C62.5,231.9,63.6,231.3,64.6,230.3z M62.2,224.3l-0.3,0.2c-0.7,1.2-1.1,2.6-1.2,4c0.7-0.4,1.4-0.9,2-1.4
	C62.9,226,62.7,225,62.2,224.3z"/>
<path style="fill:#303F9F;" d="M77,225.3l-0.7,3.7c0,1.9,0.1,3.7,0.4,5.3c-0.3,0.6-0.9,0.8-1.8,0.7s-1.6-0.6-2.2-1.3
	c0-1,0.2-2.3,0.4-3.7c0.2-1.4,0.4-2.5,0.6-3.4c-0.1-0.6-0.3-1-0.6-1.2c-0.6,0.5-1.3,1.3-2.1,2.5c0,1.6-0.1,3.7-0.3,6.4
	c-0.5,0.6-1.3,0.8-2.2,0.6c-1-0.2-1.6-0.6-1.8-1.2c0.6-2.2,1.1-4.4,1.5-6.7l-0.6-3.7c0.9-1.2,2-1.7,3.3-1.4c0.2,0.7,0.2,1.4,0.2,2
	l-0.6,1.1l0.2,0.5c0.9-1.3,1.8-2.5,2.8-3.6c0.9,0.1,1.6,0.5,2.2,1.1C76.4,223.7,76.8,224.5,77,225.3z"/>
<path style="fill:#303F9F;" d="M78.2,229.7c0-1,0.1-1.9,0.4-2.7s0.6-1.5,1.1-2.3c1.3-1.6,2.7-2.6,4.3-3.1c1,0.3,1.7,0.7,2.1,1.4
	c0.2,0.4,0.4,0.7,0.5,1.1c0.1,0.4,0.2,0.9,0.4,1.5c-0.1,0.9-0.5,1.5-1.1,1.8c-0.6,0.4-1.3,0.5-2.3,0.3c0.1-1-0.1-2.2-0.4-3.5
	l-0.5,0.2c-0.6,1.3-0.9,2.8-0.9,4.4c0,1.3,0.3,2.4,0.8,3.4c1.2-0.5,2.2-1.2,3-2.1c0.4,0,0.7,0.2,0.8,0.5c0.2,0.4,0.2,0.9,0.1,1.6
	c-0.5,0.7-1.1,1.3-1.9,1.8s-1.6,0.9-2.5,1c-1.4-0.2-2.4-0.8-3-1.8C78.5,232.3,78.2,231.1,78.2,229.7z"/>
<path style="fill:#303F9F;" d="M89,227.5l-0.1-4.7c1.5-1.1,2.7-1.2,3.6-0.3l-0.8,4.3c-0.1,1.1-0.1,3.6-0.2,7.5
	c-0.5,0.6-1.2,0.8-2,0.6c-0.9-0.2-1.5-0.6-1.9-1.2C88.3,231.1,88.8,229,89,227.5z M92.7,217.9c0,0.7-0.2,1.3-0.5,1.8
	s-0.7,0.8-1.2,0.8s-0.9-0.3-1.2-0.8c-0.3-0.5-0.5-1.1-0.5-1.8s0.2-1.3,0.5-1.8s0.8-0.8,1.2-0.8c0.5,0,0.9,0.3,1.2,0.8
	C92.5,216.6,92.7,217.2,92.7,217.9z"/>
<path style="fill:#303F9F;" d="M93.2,229.5c0-1.8,0.6-3.5,1.7-5.1s2.6-2.4,4.4-2.5c0.5,0.6,0.9,1.5,1.4,2.8c-0.1-1.1,0.1-2,0.3-2.6
	c1-0.3,1.8-0.4,2.4-0.2c0.5,0.2,0.9,0.7,1.1,1.4l-1.5,4c0,2.1,0.1,4.4,0.3,6.9c-0.3,0.6-0.9,0.8-1.8,0.7s-1.6-0.6-2.2-1.3l0.6-2
	l-0.3-0.4c-1,1.4-1.7,2.5-2.4,3.4c-1.4-0.1-2.4-0.6-3.1-1.6C93.6,232.2,93.2,231,93.2,229.5z M97.5,226.9c-0.4,0.9-0.6,1.7-0.6,2.6
	c0,0.9,0.2,1.5,0.5,1.9c0.6-0.7,1.5-1.7,2.7-3l0.1-1.3c-0.3-1-0.7-1.8-1.2-2.2C98.4,225.3,97.9,226,97.5,226.9z"/>
<path style="fill:#303F9F;" d="M117.9,219.6l-0.3,0.1c-0.7,1.1-1.2,2.2-1.5,3.5c-0.3,1.2-0.5,2.5-0.5,3.6c0,1.2,0.1,2.1,0.4,2.9
	c0.3,0.7,0.7,1.4,1.3,1.9c1.2-0.7,2.3-1.5,3.1-2.4c0.4,0,0.7,0.1,0.9,0.4c0.2,0.3,0.3,0.8,0.2,1.5c-1.1,1.7-2.6,3-4.6,3.9
	c-1.6-0.3-2.8-1.2-3.7-2.6c-0.9-1.4-1.3-3.1-1.3-5.2c0-1.1,0.1-2.1,0.4-3.1c0.2-1,0.6-2.1,1.1-3.3c0.9-1.2,1.7-2,2.6-2.6
	s1.9-1,3-1.2c0.9,0.5,1.6,1.2,2.1,2.1c0.5,0.9,0.7,2,0.9,3.2c-0.2,0.7-0.6,1.2-1.3,1.5c-0.7,0.3-1.4,0.2-2.1-0.3
	C118.5,221.6,118.2,220.2,117.9,219.6z"/>
<path style="fill:#303F9F;" d="M123.8,227.5l-0.1-4.7c1.5-1.1,2.7-1.2,3.6-0.3l-0.8,4.3c-0.1,1.1-0.1,3.6-0.2,7.5
	c-0.5,0.6-1.2,0.8-2,0.6c-0.9-0.2-1.5-0.6-1.9-1.2C123,231.1,123.5,229,123.8,227.5z M127.5,217.9c0,0.7-0.2,1.3-0.5,1.8
	s-0.7,0.8-1.2,0.8s-0.9-0.3-1.2-0.8c-0.3-0.5-0.5-1.1-0.5-1.8s0.2-1.3,0.5-1.8s0.8-0.8,1.2-0.8c0.5,0,0.9,0.3,1.2,0.8
	C127.3,216.6,127.5,217.2,127.5,217.9z"/>
<path style="fill:#303F9F;" d="M129,227.7l-0.3-5.5c0.6-0.4,1.4-0.5,2.2-0.3s1.4,0.7,1.7,1.4c0,0.8-0.1,1.9-0.4,3.3s-0.6,2.6-1,3.6
	c0.1,0.5,0.4,0.9,1.1,1.2c0.9-1.4,1.5-2.4,1.8-3c0.3-2.8,0.6-4.8,0.9-6.2c1.1-0.3,1.9-0.3,2.4-0.2c0.6,0.2,0.9,0.6,1.1,1.3l-1.4,4
	c0,2.1,0.2,4.4,0.5,6.9c-0.3,0.6-0.9,0.8-1.8,0.7c-0.9-0.1-1.6-0.6-2.2-1.3l0.6-2.1l-0.2-0.2c-0.2,0.4-0.9,1.6-2.1,3.7
	c-2.4-0.4-3.7-1.7-4-3.8L129,227.7z"/>
<path style="fill:#303F9F;" d="M147.2,222.4L147,216c1.5-1,2.8-1.2,3.7-0.6l-1.1,5.8c-0.1,1-0.4,5.4-0.9,13.1
	c-0.4,0.6-1.1,0.8-2,0.7s-1.6-0.5-2-1.3l0.9-1.9l-0.2-0.4c-0.9,1.2-1.6,2.3-2.3,3.3c-1.3,0-2.3-0.5-3-1.5s-1-2.2-1-3.6
	c0-0.9,0.2-1.8,0.5-2.7s0.7-1.7,1.2-2.4s1.2-1.3,2-1.8s1.6-0.7,2.6-0.7c0.5,0.7,1,1.8,1.4,3.2C147,224.1,147.1,223.3,147.2,222.4z
	 M146.2,228.3l0.3-1.3c-0.5-1.1-0.9-1.8-1.4-2.2c-0.6,0.5-1.2,1.2-1.5,2c-0.4,0.9-0.6,1.7-0.6,2.6c0,0.9,0.2,1.5,0.5,1.9
	C144.2,230.6,145.1,229.6,146.2,228.3z"/>
<path style="fill:#303F9F;" d="M150.6,229.5c0-1.8,0.6-3.5,1.7-5.1c1.1-1.6,2.6-2.4,4.4-2.5c0.5,0.6,0.9,1.5,1.4,2.8
	c-0.1-1.1,0.1-2,0.3-2.6c1-0.3,1.8-0.4,2.4-0.2c0.5,0.2,0.9,0.7,1.1,1.4l-1.5,4c0,2.1,0.1,4.4,0.3,6.9c-0.3,0.6-0.9,0.8-1.8,0.7
	c-0.9-0.1-1.6-0.6-2.2-1.3l0.6-2l-0.3-0.4c-1,1.4-1.7,2.5-2.4,3.4c-1.4-0.1-2.4-0.6-3.1-1.6C150.9,232.2,150.6,231,150.6,229.5z
	 M154.8,226.9c-0.4,0.9-0.6,1.7-0.6,2.6c0,0.9,0.2,1.5,0.5,1.9c0.6-0.7,1.5-1.7,2.7-3l0.1-1.3c-0.3-1-0.7-1.8-1.2-2.2
	C155.7,225.3,155.2,226,154.8,226.9z"/>
<path style="fill:#303F9F;" d="M170.3,222.4l-0.2-6.4c1.5-1,2.8-1.2,3.7-0.6l-1.1,5.8c-0.1,1-0.4,5.4-0.9,13.1c-0.4,0.6-1,0.8-2,0.7
	c-0.9-0.1-1.6-0.5-2-1.3l1-1.9l-0.2-0.4c-0.9,1.2-1.6,2.3-2.3,3.3c-1.3,0-2.3-0.5-3-1.5s-1-2.2-1-3.6c0-0.9,0.2-1.8,0.5-2.7
	s0.7-1.7,1.2-2.4s1.2-1.3,2-1.8s1.6-0.7,2.6-0.7c0.5,0.7,1,1.8,1.4,3.2C170.1,224.1,170.2,223.3,170.3,222.4z M169.3,228.3l0.3-1.3
	c-0.5-1.1-0.9-1.8-1.4-2.2c-0.6,0.5-1.2,1.2-1.5,2c-0.4,0.9-0.6,1.7-0.6,2.6c0,0.9,0.2,1.5,0.5,1.9
	C167.3,230.6,168.2,229.6,169.3,228.3z"/>
<path style="fill:#303F9F;" d="M173.7,229.5c0-1.8,0.6-3.5,1.7-5.1c1.1-1.6,2.6-2.4,4.4-2.5c0.5,0.6,0.9,1.5,1.4,2.8
	c-0.1-1.1,0.1-2,0.3-2.6c1-0.3,1.8-0.4,2.4-0.2c0.5,0.2,0.9,0.7,1.1,1.4l-1.5,4c0,2.1,0.1,4.4,0.3,6.9c-0.3,0.6-0.9,0.8-1.8,0.7
	c-0.9-0.1-1.6-0.6-2.2-1.3l0.6-2l-0.3-0.4c-1,1.4-1.7,2.5-2.4,3.4c-1.4-0.1-2.4-0.6-3.1-1.6C174,232.2,173.7,231,173.7,229.5z
	 M177.9,226.9c-0.4,0.9-0.6,1.7-0.6,2.6c0,0.9,0.2,1.5,0.5,1.9c0.6-0.7,1.5-1.7,2.7-3l0.1-1.3c-0.3-1-0.7-1.8-1.2-2.2
	C178.8,225.3,178.3,226,177.9,226.9z"/>
<path style="fill:#303F9F;" d="M195.6,225.3l-0.7,3.7c0,1.9,0.1,3.7,0.4,5.3c-0.3,0.6-0.9,0.8-1.8,0.7c-0.9-0.1-1.6-0.6-2.2-1.3
	c0-1,0.2-2.3,0.4-3.7s0.4-2.5,0.6-3.4c-0.1-0.6-0.3-1-0.6-1.2c-0.6,0.5-1.3,1.3-2.1,2.5c0,1.6-0.1,3.7-0.3,6.4
	c-0.5,0.6-1.3,0.8-2.2,0.6c-1-0.2-1.6-0.6-1.8-1.2c0.6-2.2,1.1-4.4,1.5-6.7l-0.6-3.7c0.9-1.2,2-1.7,3.3-1.4c0.2,0.7,0.2,1.4,0.2,2
	l-0.6,1.1l0.2,0.5c0.9-1.3,1.8-2.5,2.8-3.6c0.9,0.1,1.6,0.5,2.2,1.1C195,223.7,195.4,224.5,195.6,225.3z"/>
<path style="fill:#303F9F;" d="M196.8,229.5c0-1.8,0.6-3.5,1.7-5.1c1.1-1.6,2.6-2.4,4.4-2.5c0.5,0.6,0.9,1.5,1.4,2.8
	c-0.1-1.1,0.1-2,0.3-2.6c1-0.3,1.8-0.4,2.4-0.2c0.5,0.2,0.9,0.7,1.1,1.4l-1.5,4c0,2.1,0.1,4.4,0.3,6.9c-0.3,0.6-0.9,0.8-1.8,0.7
	c-0.9-0.1-1.6-0.6-2.2-1.3l0.6-2l-0.3-0.4c-1,1.4-1.7,2.5-2.4,3.4c-1.4-0.1-2.4-0.6-3.1-1.6C197.1,232.2,196.8,231,196.8,229.5z
	 M201.1,226.9c-0.4,0.9-0.6,1.7-0.6,2.6c0,0.9,0.2,1.5,0.5,1.9c0.6-0.7,1.5-1.7,2.7-3l0.1-1.3c-0.3-1-0.7-1.8-1.2-2.2
	C202,225.3,201.5,226,201.1,226.9z"/>
</svg>
