<?xml version="1.0" encoding="iso-8859-1"?>
<!-- Generator: Adobe Illustrator 22.1.0, SVG Export Plug-In . SVG Version: 6.00 Build 0)  -->
<svg version="1.1" id="Capa_1" xmlns="http://www.w3.org/2000/svg" xmlns:xlink="http://www.w3.org/1999/xlink" x="0px" y="0px"
	 viewBox="0 0 207.8 182.6" style="enable-background:new 0 0 207.8 182.6;" xml:space="preserve">
<path style="fill:#303F9F;" d="M151,182.6H56.8c-3.5,0-6.7-1.9-8.4-4.9L1.3,96.2c-1.7-3-1.7-6.7,0-9.7L48.4,4.9c1.7-3,5-4.9,8.4-4.9
	H151c3.5,0,6.7,1.9,8.4,4.9l47.1,81.6c1.7,3,1.7,6.7,0,9.7l-47.1,81.6C157.7,180.7,154.5,182.6,151,182.6z"/>
<path style="fill:#FFFFFF;" d="M63.6,54.6c0.7-0.6,1.7-1.2,2.8-1.7c1.1-0.6,2.3-0.9,3.6-1.2c1.8-0.3,3.6-0.5,5.4-0.6
	s3.6-0.1,5.3,0.1c1.7,0.1,3.3,0.3,4.8,0.6s2.8,0.7,3.8,1.1l0,0c0.7,0.3,1.4,0.6,2.2,0.9s1.5,0.7,2.3,1.1c0.7,0.4,1.4,0.8,2.1,1.3
	s1.2,1,1.7,1.6s0.9,1.3,1.1,2S99,61.2,99,62c0,0.7-0.2,1.4-0.5,2s-0.7,1.2-1.3,1.7c-0.4,0.3-0.7,0.5-1,0.7c-0.3,0.1-0.5,0.2-0.7,0.2
	s-0.4-0.1-0.5-0.2c-0.2-0.1-0.3-0.3-0.5-0.5c-0.3-0.3-0.4-0.6-0.4-0.9s0-0.5,0.1-0.8c0.1-0.2,0.2-0.5,0.4-0.7
	c0.2-0.2,0.3-0.5,0.4-0.7s0.2-0.4,0.2-0.7c0-0.2-0.1-0.4-0.2-0.7c-0.5-0.6-1.1-1.1-1.9-1.6s-1.6-0.9-2.6-1.3c-1-0.4-2-0.7-3-1
	c-1.1-0.3-2.1-0.6-3.1-0.8s-2-0.4-3-0.5c-0.9-0.1-1.8-0.2-2.5-0.3c-1.1,0-2.2,0-3.3,0c-1.1,0.1-2.1,0.2-3.1,0.4s-1.9,0.5-2.8,0.9
	s-1.7,0.9-2.5,1.6c-0.6,0.5-1.1,1-1.4,1.6s-0.5,1.1-0.7,1.6c-0.2,0.6-0.1,1.1,0,1.7c0.2,0.5,0.5,1.1,1,1.6c1,1.2,2,2.3,3.1,3.2
	c1.1,0.9,2.1,1.7,3.3,2.3c1.1,0.7,2.3,1.3,3.5,1.8s2.5,1.1,3.8,1.6l0.5,0.6c0.2,0.2,0.3,0.4,0.3,0.7c0.1,0.3,0.1,0.5,0.1,0.8
	s-0.1,0.5-0.2,0.8c-0.1,0.2-0.2,0.4-0.4,0.6c-0.4,0.3-1,0.5-1.7,0.5S76.9,78,76,77.7s-1.7-0.7-2.7-1.1c-0.9-0.5-1.8-1-2.7-1.5
	c-0.8-0.5-1.6-1-2.3-1.5c-0.7-0.5-1.2-0.9-1.6-1.2c-0.3-0.3-0.6-0.5-0.9-0.8s-0.6-0.6-1-0.9c-0.4-0.4-0.8-0.8-1.3-1.3
	c-0.5-0.5-1.1-1.2-1.8-2.1c-0.4-0.5-0.7-1.1-0.9-1.6c-0.2-0.6-0.4-1.1-0.4-1.6c-0.1-0.5-0.1-1-0.1-1.4s0.1-0.8,0.1-1
	c0.2-1.6,0.5-2.9,1.1-4C61.8,56.4,62.5,55.4,63.6,54.6z"/>
<path style="fill:#FFFFFF;" d="M69.8,45c0.8-0.5,1.8-1,2.9-1.5s2.4-0.7,3.7-0.8c1.8-0.1,3.6-0.2,5.5-0.1c1.8,0.1,3.6,0.3,5.3,0.6
	c1.7,0.3,3.2,0.6,4.7,1c1.4,0.4,2.7,0.9,3.7,1.5l0,0c0.7,0.3,1.4,0.7,2.1,1.1c0.7,0.4,1.4,0.8,2.1,1.3s1.4,0.9,2,1.5
	c0.6,0.5,1.1,1.1,1.6,1.8c0.4,0.7,0.7,1.3,0.9,2.1c0.2,0.7,0.2,1.5,0.1,2.2s-0.3,1.4-0.7,2c-0.4,0.6-0.8,1.1-1.4,1.5
	c-0.4,0.3-0.8,0.5-1,0.6c-0.3,0.1-0.5,0.1-0.7,0.1s-0.4-0.1-0.5-0.3s-0.3-0.4-0.5-0.6c-0.5-0.4-0.6-0.7-0.6-1s0.1-0.5,0.2-0.8
	c0.1-0.2,0.3-0.5,0.4-0.7c0.2-0.2,0.3-0.4,0.5-0.6c0.1-0.2,0.2-0.4,0.3-0.6c0-0.2,0-0.4-0.2-0.7c-0.4-0.6-1-1.2-1.7-1.8
	s-1.6-1.1-2.5-1.6s-1.9-0.9-2.9-1.3c-1-0.4-2-0.8-3-1.1s-2-0.6-2.9-0.8s-1.7-0.4-2.4-0.5c-1.1-0.2-2.2-0.2-3.3-0.3
	c-1.1,0-2.1,0-3.1,0.1s-2,0.4-2.9,0.7s-1.8,0.8-2.7,1.3c-0.7,0.4-1.2,0.9-1.5,1.5c-0.4,0.5-0.6,1.1-0.8,1.5
	c-0.2,0.6-0.3,1.1-0.1,1.7c0.1,0.5,0.4,1.1,0.8,1.7c0.9,1.3,1.8,2.5,2.8,3.4c1,1,2,1.8,3,2.6s2.2,1.5,3.3,2.1
	c1.2,0.6,2.4,1.3,3.6,1.9l0.4,0.6c0.1,0.2,0.2,0.4,0.3,0.7c0,0.3,0,0.5,0,0.8s-0.1,0.5-0.2,0.7s-0.3,0.4-0.5,0.5
	c-0.5,0.3-1,0.4-1.7,0.3s-1.5-0.3-2.3-0.7c-0.8-0.4-1.7-0.8-2.6-1.4s-1.7-1.1-2.5-1.7s-1.5-1.1-2.1-1.7c-0.6-0.5-1.1-1-1.5-1.3
	c-0.3-0.3-0.6-0.6-0.9-0.9c-0.3-0.3-0.6-0.6-0.9-1c-0.4-0.4-0.7-0.9-1.2-1.5c-0.4-0.6-1-1.3-1.6-2.2c-0.4-0.6-0.6-1.1-0.8-1.7
	c-0.2-0.6-0.2-1.1-0.3-1.6c0-0.5,0-1,0-1.4c0.1-0.4,0.1-0.7,0.2-1c0.3-1.5,0.8-2.8,1.4-3.9C67.8,46.6,68.7,45.8,69.8,45z"/>
<path style="fill:#FFFFFF;" d="M91,134.5l15.5,5.2c1.2,0.4,2.1,1.1,2.7,2.1s0.8,2,0.4,3c-0.3,1-1.1,1.8-2.2,2.2s-2.3,0.4-3.4,0
	l-16-5.4c-2-0.7-4-1.9-5.8-3.8c-1.8-1.8-2.9-3.6-3.3-5.3l-4.4-19.8c-0.5-2.8-0.4-5.5,0.5-8c0.9-2.8,2.3-4.9,4.3-6.5l15.4-13
	c1.5-1.2,3.4-2,5.8-2.5s4.5-0.4,6.4,0.2l16.9,5.7c1.2,0.4,2.1,1.1,2.7,2.1s0.7,2,0.4,3c-0.3,1-1.1,1.8-2.1,2.2
	c-1.1,0.5-2.2,0.5-3.4,0.1L105,90.8c-1.4-0.5-2.7-0.1-4,1l-14.6,12.1c-1.2,0.9-2,2.2-2.5,3.9c-0.6,1.7-0.7,3.4-0.3,5l4,18.1
	C87.9,132.6,89,133.9,91,134.5z"/>
<path style="fill:#FFFFFF;" d="M102,96.8l12.7,4.3c1,0.3,1.7,0.8,2.3,1.6c0.6,0.7,0.7,1.4,0.5,2.1s-0.8,1.1-1.6,1.4
	c-0.9,0.2-1.8,0.2-2.8-0.1l-13.2-4.4c-1.7-0.6-3.3-1.5-4.8-2.8s-2.5-2.6-2.9-3.7l-4.5-13.7c-0.6-1.9-0.6-3.7,0-5.4
	c0.6-1.8,1.7-3.2,3.1-4.2l11.8-8.1c1.1-0.7,2.6-1.2,4.5-1.4s3.6-0.1,5.2,0.4l13.9,4.7c1,0.3,1.7,0.8,2.3,1.6
	c0.5,0.7,0.7,1.4,0.5,2.1s-0.8,1.2-1.6,1.4c-0.9,0.3-1.8,0.2-2.7-0.1L111.3,68c-1.1-0.4-2.2-0.2-3.2,0.5L96.9,76
	c-0.9,0.6-1.5,1.4-1.9,2.5s-0.4,2.3,0,3.4l4.1,12.5C99.5,95.4,100.4,96.3,102,96.8z"/>
<path style="fill:#FFFFFF;" d="M134.9,98.3l5.9,2c0.5,0.2,0.8,0.4,1.1,0.7c0.3,0.3,0.3,0.7,0.2,1s-0.4,0.5-0.8,0.6
	c-0.4,0.1-0.8,0.1-1.3-0.1l-6.1-2c-0.8-0.3-1.5-0.7-2.2-1.3c-0.7-0.6-1.2-1.2-1.4-1.7l-2.1-6.4c-0.3-0.9-0.3-1.7,0-2.5
	s0.8-1.5,1.5-2l5.5-3.8c0.5-0.3,1.2-0.6,2.1-0.7c0.9-0.1,1.7,0,2.4,0.2l6.5,2.2c0.5,0.2,0.8,0.4,1,0.7c0.2,0.3,0.3,0.7,0.2,1
	s-0.4,0.5-0.8,0.7c-0.4,0.1-0.8,0.1-1.3,0l-6.2-2.1c-0.5-0.2-1-0.1-1.5,0.2l-5.2,3.5c-0.4,0.3-0.7,0.7-0.9,1.2s-0.2,1.1,0,1.6
	l1.9,5.8C133.7,97.6,134.1,98,134.9,98.3z"/>
<path style="fill:#FFFFFF;" d="M130.9,109.3l5.9,2c0.5,0.2,0.8,0.4,1.1,0.7c0.3,0.3,0.3,0.7,0.2,1s-0.4,0.5-0.8,0.6
	c-0.4,0.1-0.8,0.1-1.3-0.1l-6.1-2c-0.8-0.3-1.5-0.7-2.2-1.3c-0.7-0.6-1.2-1.2-1.4-1.7l-2.1-6.4c-0.3-0.9-0.3-1.7,0-2.5
	s0.8-1.5,1.5-2l5.5-3.8c0.5-0.3,1.2-0.6,2.1-0.7c0.9-0.1,1.7,0,2.4,0.2l6.5,2.2c0.5,0.2,0.8,0.4,1,0.7c0.2,0.3,0.3,0.7,0.2,1
	s-0.4,0.5-0.8,0.7c-0.4,0.1-0.8,0.1-1.3,0l-6.2-2.1c-0.5-0.2-1-0.1-1.5,0.2l-5.2,3.5c-0.4,0.3-0.7,0.7-0.9,1.2
	c-0.2,0.5-0.2,1.1,0,1.6l1.9,5.8C129.7,108.6,130.1,109,130.9,109.3z"/>
<path style="fill:#FFFFFF;" d="M143.2,51.5l-1.7-9.6c-0.2-0.9-0.6-1.8-1.4-2.8c-0.8-1-1.6-1.7-2.5-2.1l-0.7-0.3l0,0
	c-0.3-0.5-0.8-0.8-1.4-1l-2.4-0.7l-3.8-1.7c-0.6-0.3-1.2-0.3-1.7-0.2c-0.1,0-0.3,0.1-0.4,0.1l-0.5-0.1c-1-0.3-2.1-0.3-3.3-0.1
	c-1.2,0.2-2.2,0.6-2.9,1.2l-7.6,6.2c-0.9,0.8-1.6,1.8-2,3.1c-0.4,1.2-0.3,2.4,0,3.8l2.9,9.4c0.3,0.8,0.9,1.6,1.9,2.5s2,1.5,3.1,1.8
	l4.3,1.3l2.5,1.1c1,0.5,2.2,0.7,3.5,0.7s2.3-0.2,3-0.7l8.3-5.2c1.1-0.8,2-1.7,2.5-2.9C143.2,53.9,143.4,52.7,143.2,51.5z
	 M138.3,53.1c-0.4,0.8-0.9,1.4-1.5,1.8l-7.6,4.8c-0.2,0.2-0.5,0.2-0.7,0.3c-0.1-0.1-0.3-0.1-0.4-0.2l-3.9-1.2l-5.2-2.4
	c-0.2-0.1-0.4-0.2-0.7-0.2c-0.1-0.1-0.1-0.3-0.2-0.4l-2.6-8.6c-0.2-0.8-0.2-1.5,0-2.4c0.2-0.8,0.6-1.4,1.2-1.9l7.2-5.8
	c0.6-0.5,1.3-0.7,2-0.5l5.9,1.7l4.1,1.8c0.7,0.3,1.1,0.9,1.2,1.7l1.6,9.1C138.7,51.7,138.6,52.4,138.3,53.1z"/>
<polygon style="fill:#FFFFFF;" points="82.8,141.9 95.2,146.1 78.7,157.6 "/>
</svg>
