<?xml version="1.0" encoding="iso-8859-1"?>
<!-- Generator: Adobe Illustrator 22.1.0, SVG Export Plug-In . SVG Version: 6.00 Build 0)  -->
<svg version="1.1" id="Capa_1" xmlns="http://www.w3.org/2000/svg" xmlns:xlink="http://www.w3.org/1999/xlink" x="0px" y="0px"
	 viewBox="0 0 432.8 183" style="enable-background:new 0 0 432.8 183;" xml:space="preserve">
<path style="fill:#303F9F;" d="M-384,154h-94.2c-3.5,0-6.7-1.9-8.4-4.9l-47.1-81.6c-1.7-3-1.7-6.7,0-9.7l47.1-81.6
	c1.7-3,5-4.9,8.4-4.9h94.2c3.5,0,6.7,1.9,8.4,4.9l47.1,81.6c1.7,3,1.7,6.7,0,9.7l-47.1,81.6C-377.3,152.1-380.5,154-384,154z"/>
<path style="fill:#303F9F;" d="M431.5,86.9L384.4,5.3c-1.7-3-5-4.9-8.4-4.9h-65c-1.8-0.3-3.7-0.4-5.7-0.4H89c-2,0-3.9,0.1-5.7,0.4
	H56.8c-3.5,0-6.7,1.9-8.4,4.9L1.3,86.9c-1.7,3-1.7,6.7,0,9.7l47.1,81.6c1.7,3,5,4.9,8.4,4.9H151c1,0,1.9-0.2,2.8-0.4H279
	c0.9,0.3,1.8,0.4,2.8,0.4H376c3.5,0,6.7-1.9,8.4-4.9l47.1-81.6C433.2,93.6,433.2,89.9,431.5,86.9z"/>
<rect x="-619" y="-175.6" style="fill:none;" width="95" height="225.6"/>
<text transform="matrix(1 0 0 1 -619.026 -151.7935)"><tspan x="0" y="0" style="font-family:'MVBoli'; font-size:31px;">CECC</tspan><tspan x="0" y="37.2" style="font-family:'OCRAExtended'; font-size:31px;">CECC</tspan></text>
<path style="fill:#303F9F;" d="M625.7,4.3c0.7-0.6,1.7-1.2,2.8-1.7c1.1-0.6,2.3-0.9,3.6-1.2c1.8-0.3,3.6-0.5,5.4-0.6
	c1.8-0.1,3.6-0.1,5.3,0.1c1.7,0.1,3.3,0.3,4.8,0.6c1.5,0.3,2.8,0.7,3.8,1.1l0,0c0.7,0.3,1.4,0.6,2.2,0.9s1.5,0.7,2.3,1.1
	c0.7,0.4,1.4,0.8,2.1,1.3c0.7,0.5,1.2,1,1.7,1.6c0.5,0.6,0.9,1.3,1.1,2c0.2,0.7,0.3,1.4,0.3,2.2c0,0.7-0.2,1.4-0.5,2
	c-0.3,0.6-0.7,1.2-1.3,1.7c-0.4,0.3-0.7,0.5-1,0.7c-0.3,0.1-0.5,0.2-0.7,0.2c-0.2,0-0.4-0.1-0.5-0.2c-0.2-0.1-0.3-0.3-0.5-0.5
	c-0.3-0.3-0.4-0.6-0.4-0.9c0-0.3,0-0.5,0.1-0.8c0.1-0.2,0.2-0.5,0.4-0.7c0.2-0.2,0.3-0.5,0.4-0.7c0.1-0.2,0.2-0.4,0.2-0.7
	c0-0.2-0.1-0.4-0.2-0.7c-0.5-0.6-1.1-1.1-1.9-1.6c-0.8-0.5-1.6-0.9-2.6-1.3c-1-0.4-2-0.7-3-1c-1.1-0.3-2.1-0.6-3.1-0.8
	c-1-0.2-2-0.4-3-0.5c-0.9-0.1-1.8-0.2-2.5-0.3c-1.1,0-2.2,0-3.3,0c-1.1,0.1-2.1,0.2-3.1,0.4c-1,0.2-1.9,0.5-2.8,0.9
	c-0.9,0.4-1.7,0.9-2.5,1.6c-0.6,0.5-1.1,1-1.4,1.6c-0.3,0.6-0.5,1.1-0.7,1.6c-0.2,0.6-0.1,1.1,0,1.7c0.2,0.5,0.5,1.1,1,1.6
	c1,1.2,2,2.3,3.1,3.2c1.1,0.9,2.1,1.7,3.3,2.3c1.1,0.7,2.3,1.3,3.5,1.8c1.2,0.5,2.5,1.1,3.8,1.6l0.5,0.6c0.2,0.2,0.3,0.4,0.3,0.7
	c0.1,0.3,0.1,0.5,0.1,0.8c0,0.3-0.1,0.5-0.2,0.8c-0.1,0.2-0.2,0.4-0.4,0.6c-0.4,0.3-1,0.5-1.7,0.5c-0.7,0-1.5-0.2-2.4-0.5
	c-0.9-0.3-1.7-0.7-2.7-1.1c-0.9-0.5-1.8-1-2.7-1.5c-0.8-0.5-1.6-1-2.3-1.5c-0.7-0.5-1.2-0.9-1.6-1.2c-0.3-0.3-0.6-0.5-0.9-0.8
	c-0.3-0.3-0.6-0.6-1-0.9c-0.4-0.4-0.8-0.8-1.3-1.3c-0.5-0.5-1.1-1.2-1.8-2.1c-0.4-0.5-0.7-1.1-0.9-1.6c-0.2-0.6-0.4-1.1-0.4-1.6
	c-0.1-0.5-0.1-1-0.1-1.4c0-0.4,0.1-0.8,0.1-1c0.2-1.6,0.5-2.9,1.1-4C623.9,6.1,624.7,5.1,625.7,4.3z"/>
<path style="fill:#303F9F;" d="M631.9-5.3c0.8-0.5,1.8-1,2.9-1.5c1.1-0.5,2.4-0.7,3.7-0.8c1.8-0.1,3.6-0.2,5.5-0.1
	c1.8,0.1,3.6,0.3,5.3,0.6c1.7,0.3,3.2,0.6,4.7,1c1.4,0.4,2.7,0.9,3.7,1.5l0,0c0.7,0.3,1.4,0.7,2.1,1.1c0.7,0.4,1.4,0.8,2.1,1.3
	c0.7,0.5,1.4,0.9,2,1.5c0.6,0.5,1.1,1.1,1.6,1.8c0.4,0.7,0.7,1.3,0.9,2.1c0.2,0.7,0.2,1.5,0.1,2.2c-0.1,0.7-0.3,1.4-0.7,2
	c-0.4,0.6-0.8,1.1-1.4,1.5c-0.4,0.3-0.8,0.5-1,0.6c-0.3,0.1-0.5,0.1-0.7,0.1c-0.2,0-0.4-0.1-0.5-0.3c-0.1-0.2-0.3-0.4-0.5-0.6
	c-0.2-0.3-0.3-0.7-0.3-0.9c0-0.3,0.1-0.5,0.2-0.8c0.1-0.2,0.3-0.5,0.4-0.7c0.2-0.2,0.3-0.4,0.5-0.6c0.1-0.2,0.2-0.4,0.3-0.6
	c0-0.2,0-0.4-0.2-0.7c-0.4-0.6-1-1.2-1.7-1.8C659.8,2,659,1.5,658.1,1c-0.9-0.5-1.9-0.9-2.9-1.3c-1-0.4-2-0.8-3-1.1
	c-1-0.3-2-0.6-2.9-0.8c-0.9-0.2-1.7-0.4-2.4-0.5c-1.1-0.2-2.2-0.2-3.3-0.3c-1.1,0-2.1,0-3.1,0.1c-1,0.1-2,0.4-2.9,0.7
	c-0.9,0.3-1.8,0.8-2.7,1.3c-0.7,0.4-1.2,0.9-1.5,1.5c-0.4,0.5-0.6,1.1-0.8,1.5c-0.2,0.6-0.3,1.1-0.1,1.7c0.1,0.5,0.4,1.1,0.8,1.7
	c0.9,1.3,1.8,2.5,2.8,3.4c1,1,2,1.8,3,2.6c1.1,0.8,2.2,1.5,3.3,2.1c1.2,0.6,2.4,1.3,3.6,1.9l0.4,0.6c0.1,0.2,0.2,0.4,0.3,0.7
	c0,0.3,0,0.5,0,0.8c0,0.3-0.1,0.5-0.2,0.7c-0.1,0.2-0.3,0.4-0.5,0.5c-0.5,0.3-1,0.4-1.7,0.3c-0.7-0.1-1.5-0.3-2.3-0.7
	c-0.8-0.4-1.7-0.8-2.6-1.4c-0.9-0.6-1.7-1.1-2.5-1.7c-0.8-0.6-1.5-1.1-2.1-1.7c-0.6-0.5-1.1-1-1.5-1.3c-0.3-0.3-0.6-0.6-0.9-0.9
	c-0.3-0.3-0.6-0.6-0.9-1c-0.4-0.4-0.7-0.9-1.2-1.5c-0.4-0.6-1-1.3-1.6-2.2c-0.4-0.6-0.6-1.1-0.8-1.7c-0.2-0.6-0.2-1.1-0.3-1.6
	c0-0.5,0-1,0-1.4c0.1-0.4,0.1-0.7,0.2-1c0.3-1.5,0.8-2.8,1.4-3.9C630-3.6,630.8-4.5,631.9-5.3z"/>
<path style="fill:#4CAF50;" d="M653.1,84.2l15.5,5.2c1.2,0.4,2.1,1.1,2.7,2.1c0.6,1,0.8,2,0.4,3c-0.3,1-1.1,1.8-2.2,2.2
	c-1.1,0.4-2.3,0.4-3.4,0l-16-5.4c-2-0.7-4-1.9-5.8-3.8c-1.8-1.8-2.9-3.6-3.3-5.3l-4.4-19.8c-0.5-2.8-0.4-5.5,0.5-8
	c0.9-2.8,2.3-4.9,4.3-6.5l15.4-13c1.5-1.2,3.4-2,5.8-2.5c2.4-0.5,4.5-0.4,6.4,0.2l16.9,5.7c1.2,0.4,2.1,1.1,2.7,2.1
	c0.6,1,0.7,2,0.4,3c-0.3,1-1.1,1.8-2.1,2.2c-1.1,0.5-2.2,0.5-3.4,0.1l-16.3-5.5c-1.4-0.5-2.7-0.1-4,1l-14.6,12.1
	c-1.2,0.9-2,2.2-2.5,3.9c-0.6,1.7-0.7,3.4-0.3,5l4,18.1C650,82.4,651.2,83.6,653.1,84.2z"/>
<path style="fill:#303F9F;" d="M664.2,46.5l12.7,4.3c1,0.3,1.7,0.8,2.3,1.6c0.6,0.7,0.7,1.4,0.5,2.1c-0.2,0.7-0.8,1.1-1.6,1.4
	c-0.9,0.2-1.8,0.2-2.8-0.1l-13.2-4.4c-1.7-0.6-3.3-1.5-4.8-2.8c-1.5-1.3-2.5-2.6-2.9-3.7l-4.5-13.7c-0.6-1.9-0.6-3.7,0-5.4
	c0.6-1.8,1.7-3.2,3.1-4.2l11.8-8.1c1.1-0.7,2.6-1.2,4.5-1.4c1.9-0.2,3.6-0.1,5.2,0.4l13.9,4.7c1,0.3,1.7,0.8,2.3,1.6
	c0.5,0.7,0.7,1.4,0.5,2.1c-0.2,0.7-0.8,1.2-1.6,1.4c-0.9,0.3-1.8,0.2-2.7-0.1l-13.4-4.5c-1.1-0.4-2.2-0.2-3.2,0.5L659,25.5
	c-0.9,0.6-1.5,1.4-1.9,2.5c-0.4,1.1-0.4,2.3,0,3.4l4.1,12.5C661.6,45.1,662.6,46,664.2,46.5z"/>
<path style="fill:#303F9F;" d="M697,48l5.9,2c0.5,0.2,0.8,0.4,1.1,0.7c0.3,0.3,0.3,0.7,0.2,1c-0.1,0.3-0.4,0.5-0.8,0.6
	c-0.4,0.1-0.8,0.1-1.3-0.1l-6.1-2c-0.8-0.3-1.5-0.7-2.2-1.3c-0.7-0.6-1.2-1.2-1.4-1.7l-2.1-6.4c-0.3-0.9-0.3-1.7,0-2.5
	c0.3-0.8,0.8-1.5,1.5-2l5.5-3.8c0.5-0.3,1.2-0.6,2.1-0.7c0.9-0.1,1.7,0,2.4,0.2l6.5,2.2c0.5,0.2,0.8,0.4,1,0.7
	c0.2,0.3,0.3,0.7,0.2,1c-0.1,0.3-0.4,0.5-0.8,0.7c-0.4,0.1-0.8,0.1-1.3,0l-6.2-2.1c-0.5-0.2-1-0.1-1.5,0.2l-5.2,3.5
	c-0.4,0.3-0.7,0.7-0.9,1.2c-0.2,0.5-0.2,1.1,0,1.6l1.9,5.8C695.8,47.3,696.2,47.8,697,48z"/>
<path style="fill:#4CAF50;" d="M693,59l5.9,2c0.5,0.2,0.8,0.4,1.1,0.7c0.3,0.3,0.3,0.7,0.2,1c-0.1,0.3-0.4,0.5-0.8,0.6
	c-0.4,0.1-0.8,0.1-1.3-0.1l-6.1-2c-0.8-0.3-1.5-0.7-2.2-1.3c-0.7-0.6-1.2-1.2-1.4-1.7l-2.1-6.4c-0.3-0.9-0.3-1.7,0-2.5
	c0.3-0.8,0.8-1.5,1.5-2l5.5-3.8c0.5-0.3,1.2-0.6,2.1-0.7c0.9-0.1,1.7,0,2.4,0.2l6.5,2.2c0.5,0.2,0.8,0.4,1,0.7
	c0.2,0.3,0.3,0.7,0.2,1c-0.1,0.3-0.4,0.5-0.8,0.7c-0.4,0.1-0.8,0.1-1.3,0l-6.2-2.1c-0.5-0.2-1-0.1-1.5,0.2l-5.2,3.5
	c-0.4,0.3-0.7,0.7-0.9,1.2c-0.2,0.5-0.2,1.1,0,1.6l1.9,5.8C691.8,58.3,692.2,58.8,693,59z"/>
<path style="fill:#303F9F;" d="M705.3,1.2l-1.7-9.6c-0.2-0.9-0.6-1.8-1.4-2.8c-0.8-1-1.6-1.7-2.5-2.1l-0.7-0.3c0,0,0,0,0,0
	c-0.3-0.5-0.8-0.8-1.4-1l-2.4-0.7l-3.8-1.7c-0.6-0.3-1.2-0.3-1.7-0.2c-0.1,0-0.3,0.1-0.4,0.1l-0.5-0.1c-1-0.3-2.1-0.3-3.3-0.1
	c-1.2,0.2-2.2,0.6-2.9,1.2l-7.6,6.2c-0.9,0.8-1.6,1.8-2,3.1c-0.4,1.2-0.3,2.4,0,3.8l2.9,9.4c0.3,0.8,0.9,1.6,1.9,2.5
	c1,0.9,2,1.5,3.1,1.8l4.3,1.3l2.5,1.1c1,0.5,2.2,0.7,3.5,0.7c1.3,0,2.3-0.2,3-0.7l8.3-5.2c1.1-0.8,2-1.7,2.5-2.9
	C705.4,3.7,705.5,2.4,705.3,1.2z M700.4,2.9c-0.4,0.8-0.9,1.4-1.5,1.8l-7.6,4.8c-0.2,0.2-0.5,0.2-0.7,0.3c-0.1-0.1-0.3-0.1-0.4-0.2
	l-3.9-1.2L681,6.1c-0.2-0.1-0.4-0.2-0.7-0.2c-0.1-0.1-0.1-0.3-0.2-0.4l-2.6-8.6c-0.2-0.8-0.2-1.5,0-2.4c0.2-0.8,0.6-1.4,1.2-1.9
	l7.2-5.8c0.6-0.5,1.3-0.7,2-0.5l5.9,1.7l4.1,1.8c0.7,0.3,1.1,0.9,1.2,1.7l1.6,9.1C700.9,1.4,700.8,2.1,700.4,2.9z"/>
<polygon style="fill:#303F9F;" points="645,91.7 657.3,95.8 640.8,107.3 "/>
<g>
	<path style="fill:#303F9F;" d="M-175.8-380.3c0.7-0.6,1.7-1.2,2.8-1.7c1.1-0.6,2.3-0.9,3.6-1.2c1.8-0.3,3.6-0.5,5.4-0.6
		c1.8-0.1,3.6-0.1,5.3,0.1c1.7,0.1,3.3,0.3,4.8,0.6c1.5,0.3,2.8,0.7,3.8,1.1l0,0c0.7,0.3,1.4,0.6,2.2,0.9c0.8,0.3,1.5,0.7,2.3,1.1
		c0.7,0.4,1.4,0.8,2.1,1.3c0.7,0.5,1.2,1,1.7,1.6c0.5,0.6,0.9,1.3,1.1,2c0.2,0.7,0.3,1.4,0.3,2.2c0,0.7-0.2,1.4-0.5,2
		c-0.3,0.6-0.7,1.2-1.3,1.7c-0.4,0.3-0.7,0.5-1,0.7c-0.3,0.1-0.5,0.2-0.7,0.2c-0.2,0-0.4-0.1-0.5-0.2c-0.2-0.1-0.3-0.3-0.5-0.5
		c-0.3-0.3-0.4-0.6-0.4-0.9c0-0.3,0-0.5,0.1-0.8c0.1-0.2,0.2-0.5,0.4-0.7c0.2-0.2,0.3-0.5,0.4-0.7c0.1-0.2,0.2-0.4,0.2-0.7
		c0-0.2-0.1-0.4-0.2-0.7c-0.5-0.6-1.1-1.1-1.9-1.6c-0.8-0.5-1.6-0.9-2.6-1.3c-1-0.4-2-0.7-3-1c-1.1-0.3-2.1-0.6-3.1-0.8
		c-1-0.2-2-0.4-3-0.5c-0.9-0.1-1.8-0.2-2.5-0.3c-1.1,0-2.2,0-3.3,0c-1.1,0.1-2.1,0.2-3.1,0.4c-1,0.2-1.9,0.5-2.8,0.9
		c-0.9,0.4-1.7,0.9-2.5,1.6c-0.6,0.5-1.1,1-1.4,1.6c-0.3,0.6-0.5,1.1-0.7,1.6c-0.2,0.6-0.1,1.1,0,1.7c0.2,0.5,0.5,1.1,1,1.6
		c1,1.2,2,2.3,3.1,3.2c1.1,0.9,2.1,1.7,3.3,2.3s2.3,1.3,3.5,1.8c1.2,0.5,2.5,1.1,3.8,1.6l0.5,0.6c0.2,0.2,0.3,0.4,0.3,0.7
		c0.1,0.3,0.1,0.5,0.1,0.8c0,0.3-0.1,0.5-0.2,0.8c-0.1,0.2-0.2,0.4-0.4,0.6c-0.4,0.3-1,0.5-1.7,0.5c-0.7,0-1.5-0.2-2.4-0.5
		c-0.9-0.3-1.7-0.7-2.7-1.1c-0.9-0.5-1.8-1-2.7-1.5c-0.8-0.5-1.6-1-2.3-1.5c-0.7-0.5-1.2-0.9-1.6-1.2c-0.3-0.3-0.6-0.5-0.9-0.8
		c-0.3-0.3-0.6-0.6-1-0.9c-0.4-0.4-0.8-0.8-1.3-1.3c-0.5-0.5-1.1-1.2-1.8-2.1c-0.4-0.5-0.7-1.1-0.9-1.6c-0.2-0.6-0.4-1.1-0.4-1.6
		c-0.1-0.5-0.1-1-0.1-1.4c0-0.4,0.1-0.8,0.1-1c0.2-1.6,0.5-2.9,1.1-4C-177.6-378.5-176.8-379.4-175.8-380.3z"/>
	<path style="fill:#303F9F;" d="M-169.6-389.8c0.8-0.5,1.8-1,2.9-1.5c1.1-0.5,2.4-0.7,3.7-0.8c1.8-0.1,3.6-0.2,5.5-0.1
		c1.8,0.1,3.6,0.3,5.3,0.6c1.7,0.3,3.2,0.6,4.7,1c1.4,0.4,2.7,0.9,3.7,1.5l0,0c0.7,0.3,1.4,0.7,2.1,1.1c0.7,0.4,1.4,0.8,2.1,1.3
		c0.7,0.5,1.4,0.9,2,1.5c0.6,0.5,1.1,1.1,1.6,1.8c0.4,0.7,0.7,1.3,0.9,2.1c0.2,0.7,0.2,1.5,0.1,2.2c-0.1,0.7-0.3,1.4-0.7,2
		c-0.4,0.6-0.8,1.1-1.4,1.5c-0.4,0.3-0.8,0.5-1,0.6c-0.3,0.1-0.5,0.1-0.7,0.1c-0.2,0-0.4-0.1-0.5-0.3c-0.1-0.2-0.3-0.4-0.5-0.6
		c-0.2-0.3-0.3-0.7-0.3-0.9c0-0.3,0.1-0.5,0.2-0.8c0.1-0.2,0.3-0.5,0.4-0.7c0.2-0.2,0.3-0.4,0.5-0.6c0.1-0.2,0.2-0.4,0.3-0.6
		c0-0.2,0-0.4-0.2-0.7c-0.4-0.6-1-1.2-1.7-1.8c-0.7-0.6-1.6-1.1-2.5-1.6c-0.9-0.5-1.9-0.9-2.9-1.3c-1-0.4-2-0.8-3-1.1
		c-1-0.3-2-0.6-2.9-0.8c-0.9-0.2-1.7-0.4-2.4-0.5c-1.1-0.2-2.2-0.2-3.3-0.3c-1.1,0-2.1,0-3.1,0.1c-1,0.1-2,0.4-2.9,0.7
		c-0.9,0.3-1.8,0.8-2.7,1.3c-0.7,0.4-1.2,0.9-1.5,1.5c-0.4,0.5-0.6,1.1-0.8,1.5c-0.2,0.6-0.3,1.1-0.1,1.7c0.1,0.5,0.4,1.1,0.8,1.7
		c0.9,1.3,1.8,2.5,2.8,3.4c1,1,2,1.8,3,2.6c1.1,0.8,2.2,1.5,3.3,2.1c1.2,0.6,2.4,1.3,3.6,1.9l0.4,0.6c0.1,0.2,0.2,0.4,0.3,0.7
		c0,0.3,0,0.5,0,0.8c0,0.3-0.1,0.5-0.2,0.7c-0.1,0.2-0.3,0.4-0.5,0.5c-0.5,0.3-1,0.4-1.7,0.3c-0.7-0.1-1.5-0.3-2.3-0.7
		c-0.8-0.4-1.7-0.8-2.6-1.4c-0.9-0.6-1.7-1.1-2.5-1.7c-0.8-0.6-1.5-1.1-2.1-1.7c-0.6-0.5-1.1-1-1.5-1.3c-0.3-0.3-0.6-0.6-0.9-0.9
		c-0.3-0.3-0.6-0.6-0.9-1c-0.4-0.4-0.7-0.9-1.2-1.5c-0.4-0.6-1-1.3-1.6-2.2c-0.4-0.6-0.6-1.1-0.8-1.7c-0.2-0.6-0.2-1.1-0.3-1.6
		c0-0.5,0-1,0-1.4c0.1-0.4,0.1-0.7,0.2-1c0.3-1.5,0.8-2.8,1.4-3.9C-171.5-388.2-170.7-389.1-169.6-389.8z"/>
	<path style="fill:#4CAF50;" d="M-148.4-300.3l15.5,5.2c1.2,0.4,2.1,1.1,2.7,2.1c0.6,1,0.8,2,0.4,3c-0.3,1-1.1,1.8-2.2,2.2
		c-1.1,0.4-2.3,0.4-3.4,0l-16-5.4c-2-0.7-4-1.9-5.8-3.8c-1.8-1.8-2.9-3.6-3.3-5.3l-4.4-19.8c-0.5-2.8-0.4-5.5,0.5-8
		c0.9-2.8,2.3-4.9,4.3-6.5l15.4-13c1.5-1.2,3.4-2,5.8-2.5c2.4-0.5,4.5-0.4,6.4,0.2l16.9,5.7c1.2,0.4,2.1,1.1,2.7,2.1
		c0.6,1,0.7,2,0.4,3c-0.3,1-1.1,1.8-2.1,2.2c-1.1,0.5-2.2,0.5-3.4,0.1l-16.3-5.5c-1.4-0.5-2.7-0.1-4,1L-153-331
		c-1.2,0.9-2,2.2-2.5,3.9c-0.6,1.7-0.7,3.4-0.3,5l4,18.1C-151.5-302.2-150.3-301-148.4-300.3z"/>
	<path style="fill:#303F9F;" d="M-137.3-338l12.7,4.3c1,0.3,1.7,0.8,2.3,1.6c0.6,0.7,0.7,1.4,0.5,2.1c-0.2,0.7-0.8,1.1-1.6,1.4
		c-0.9,0.2-1.8,0.2-2.8-0.1l-13.2-4.4c-1.7-0.6-3.3-1.5-4.8-2.8c-1.5-1.3-2.5-2.6-2.9-3.7l-4.5-13.7c-0.6-1.9-0.6-3.7,0-5.4
		c0.6-1.8,1.7-3.2,3.1-4.2l11.8-8.1c1.1-0.7,2.6-1.2,4.5-1.4c1.9-0.2,3.6-0.1,5.2,0.4l13.9,4.7c1,0.3,1.7,0.8,2.3,1.6
		c0.5,0.7,0.7,1.4,0.5,2.1c-0.2,0.7-0.8,1.2-1.6,1.4c-0.9,0.3-1.8,0.2-2.7-0.1l-13.4-4.5c-1.1-0.4-2.2-0.2-3.2,0.5l-11.2,7.5
		c-0.9,0.6-1.5,1.4-1.9,2.5c-0.4,1.1-0.4,2.3,0,3.4l4.1,12.5C-139.9-339.5-138.9-338.6-137.3-338z"/>
	<path style="fill:#303F9F;" d="M-104.5-336.6l5.9,2c0.5,0.2,0.8,0.4,1.1,0.7c0.3,0.3,0.3,0.7,0.2,1c-0.1,0.3-0.4,0.5-0.8,0.6
		c-0.4,0.1-0.8,0.1-1.3-0.1l-6.1-2c-0.8-0.3-1.5-0.7-2.2-1.3c-0.7-0.6-1.2-1.2-1.4-1.7l-2.1-6.4c-0.3-0.9-0.3-1.7,0-2.5
		c0.3-0.8,0.8-1.5,1.5-2l5.5-3.8c0.5-0.3,1.2-0.6,2.1-0.7c0.9-0.1,1.7,0,2.4,0.2l6.5,2.2c0.5,0.2,0.8,0.4,1,0.7
		c0.2,0.3,0.3,0.7,0.2,1c-0.1,0.3-0.4,0.5-0.8,0.7c-0.4,0.1-0.8,0.1-1.3,0l-6.2-2.1c-0.5-0.2-1-0.1-1.5,0.2l-5.2,3.5
		c-0.4,0.3-0.7,0.7-0.9,1.2c-0.2,0.5-0.2,1.1,0,1.6l1.9,5.8C-105.7-337.2-105.3-336.8-104.5-336.6z"/>
	<path style="fill:#4CAF50;" d="M-108.5-325.6l5.9,2c0.5,0.2,0.8,0.4,1.1,0.7c0.3,0.3,0.3,0.7,0.2,1c-0.1,0.3-0.4,0.5-0.8,0.6
		c-0.4,0.1-0.8,0.1-1.3-0.1l-6.1-2c-0.8-0.3-1.5-0.7-2.2-1.3c-0.7-0.6-1.2-1.2-1.4-1.7l-2.1-6.4c-0.3-0.9-0.3-1.7,0-2.5
		c0.3-0.8,0.8-1.5,1.5-2l5.5-3.8c0.5-0.3,1.2-0.6,2.1-0.7c0.9-0.1,1.7,0,2.4,0.2l6.5,2.2c0.5,0.2,0.8,0.4,1,0.7
		c0.2,0.3,0.3,0.7,0.2,1c-0.1,0.3-0.4,0.5-0.8,0.7c-0.4,0.1-0.8,0.1-1.3,0l-6.2-2.1c-0.5-0.2-1-0.1-1.5,0.2l-5.2,3.5
		c-0.4,0.3-0.7,0.7-0.9,1.2c-0.2,0.5-0.2,1.1,0,1.6l1.9,5.8C-109.7-326.2-109.3-325.8-108.5-325.6z"/>
	<path style="fill:#303F9F;" d="M-96.2-383.3l-1.7-9.6c-0.2-0.9-0.6-1.8-1.4-2.8c-0.8-1-1.6-1.7-2.5-2.1l-0.7-0.3c0,0,0,0,0,0
		c-0.3-0.5-0.8-0.8-1.4-1l-2.4-0.7l-3.8-1.7c-0.6-0.3-1.2-0.3-1.7-0.2c-0.1,0-0.3,0.1-0.4,0.1l-0.5-0.1c-1-0.3-2.1-0.3-3.3-0.1
		c-1.2,0.2-2.2,0.6-2.9,1.2l-7.6,6.2c-0.9,0.8-1.6,1.8-2,3.1c-0.4,1.2-0.3,2.4,0,3.8l2.9,9.4c0.3,0.8,0.9,1.6,1.9,2.5
		c1,0.9,2,1.5,3.1,1.8l4.3,1.3l2.5,1.1c1,0.5,2.2,0.7,3.5,0.7c1.3,0,2.3-0.2,3-0.7l8.3-5.2c1.1-0.8,2-1.7,2.5-2.9
		C-96.1-380.9-96-382.1-96.2-383.3z M-101.1-381.7c-0.4,0.8-0.9,1.4-1.5,1.8l-7.6,4.8c-0.2,0.2-0.5,0.2-0.7,0.3
		c-0.1-0.1-0.3-0.1-0.4-0.2l-3.9-1.2l-5.2-2.4c-0.2-0.1-0.4-0.2-0.7-0.2c-0.1-0.1-0.1-0.3-0.2-0.4l-2.6-8.6c-0.2-0.8-0.2-1.5,0-2.4
		c0.2-0.8,0.6-1.4,1.2-1.9l7.2-5.8c0.6-0.5,1.3-0.7,2-0.5l5.9,1.7l4.1,1.8c0.7,0.3,1.1,0.9,1.2,1.7l1.6,9.1
		C-100.6-383.2-100.7-382.5-101.1-381.7z"/>
	<polygon style="fill:#303F9F;" points="-156.5,-292.9 -144.2,-288.8 -160.6,-277.3 	"/>
</g>
<path style="fill:#303F9F;" d="M-88.5-248.4h-94.2c-3.5,0-6.7-1.9-8.4-4.9l-47.1-81.6c-1.7-3-1.7-6.7,0-9.7l47.1-81.6
	c1.7-3,5-4.9,8.4-4.9h94.2c3.5,0,6.7,1.9,8.4,4.9l47.1,81.6c1.7,3,1.7,6.7,0,9.7l-47.1,81.6C-81.8-250.3-85.1-248.4-88.5-248.4z
	 M-180-262.7h88.9l44.4-77l-44.4-77H-180l-44.4,77L-180-262.7z"/>
<path style="fill:#FFFFFF;" d="M-471.4,26c0.7-0.6,1.7-1.2,2.8-1.7c1.1-0.6,2.3-0.9,3.6-1.2c1.8-0.3,3.6-0.5,5.4-0.6
	c1.8-0.1,3.6-0.1,5.3,0.1c1.7,0.1,3.3,0.3,4.8,0.6c1.5,0.3,2.8,0.7,3.8,1.1l0,0c0.7,0.3,1.4,0.6,2.2,0.9c0.8,0.3,1.5,0.7,2.3,1.1
	c0.7,0.4,1.4,0.8,2.1,1.3c0.7,0.5,1.2,1,1.7,1.6c0.5,0.6,0.9,1.3,1.1,2c0.2,0.7,0.3,1.4,0.3,2.2c0,0.7-0.2,1.4-0.5,2
	c-0.3,0.6-0.7,1.2-1.3,1.7c-0.4,0.3-0.7,0.5-1,0.7c-0.3,0.1-0.5,0.2-0.7,0.2c-0.2,0-0.4-0.1-0.5-0.2c-0.2-0.1-0.3-0.3-0.5-0.5
	c-0.3-0.3-0.4-0.6-0.4-0.9c0-0.3,0-0.5,0.1-0.8c0.1-0.2,0.2-0.5,0.4-0.7c0.2-0.2,0.3-0.5,0.4-0.7c0.1-0.2,0.2-0.4,0.2-0.7
	c0-0.2-0.1-0.4-0.2-0.7c-0.5-0.6-1.1-1.1-1.9-1.6c-0.8-0.5-1.6-0.9-2.6-1.3c-1-0.4-2-0.7-3-1c-1.1-0.3-2.1-0.6-3.1-0.8
	c-1-0.2-2-0.4-3-0.5c-0.9-0.1-1.8-0.2-2.5-0.3c-1.1,0-2.2,0-3.3,0c-1.1,0.1-2.1,0.2-3.1,0.4c-1,0.2-1.9,0.5-2.8,0.9
	c-0.9,0.4-1.7,0.9-2.5,1.6c-0.6,0.5-1.1,1-1.4,1.6c-0.3,0.6-0.5,1.1-0.7,1.6c-0.2,0.6-0.1,1.1,0,1.7c0.2,0.5,0.5,1.1,1,1.6
	c1,1.2,2,2.3,3.1,3.2c1.1,0.9,2.1,1.7,3.3,2.3c1.1,0.7,2.3,1.3,3.5,1.8c1.2,0.5,2.5,1.1,3.8,1.6l0.5,0.6c0.2,0.2,0.3,0.4,0.3,0.7
	c0.1,0.3,0.1,0.5,0.1,0.8c0,0.3-0.1,0.5-0.2,0.8c-0.1,0.2-0.2,0.4-0.4,0.6c-0.4,0.3-1,0.5-1.7,0.5c-0.7,0-1.5-0.2-2.4-0.5
	c-0.9-0.3-1.7-0.7-2.7-1.1c-0.9-0.5-1.8-1-2.7-1.5c-0.8-0.5-1.6-1-2.3-1.5c-0.7-0.5-1.2-0.9-1.6-1.2c-0.3-0.3-0.6-0.5-0.9-0.8
	c-0.3-0.3-0.6-0.6-1-0.9c-0.4-0.4-0.8-0.8-1.3-1.3c-0.5-0.5-1.1-1.2-1.8-2.1c-0.4-0.5-0.7-1.1-0.9-1.6c-0.2-0.6-0.4-1.1-0.4-1.6
	c-0.1-0.5-0.1-1-0.1-1.4c0-0.4,0.1-0.8,0.1-1c0.2-1.6,0.5-2.9,1.1-4C-473.2,27.8-472.5,26.8-471.4,26z"/>
<path style="fill:#FFFFFF;" d="M-465.2,16.5c0.8-0.5,1.8-1,2.9-1.5c1.1-0.5,2.4-0.7,3.7-0.8c1.8-0.1,3.6-0.2,5.5-0.1
	c1.8,0.1,3.6,0.3,5.3,0.6c1.7,0.3,3.2,0.6,4.7,1c1.4,0.4,2.7,0.9,3.7,1.5l0,0c0.7,0.3,1.4,0.7,2.1,1.1c0.7,0.4,1.4,0.8,2.1,1.3
	c0.7,0.5,1.4,0.9,2,1.5c0.6,0.5,1.1,1.1,1.6,1.8c0.4,0.7,0.7,1.3,0.9,2.1c0.2,0.7,0.2,1.5,0.1,2.2c-0.1,0.7-0.3,1.4-0.7,2
	c-0.4,0.6-0.8,1.1-1.4,1.5c-0.4,0.3-0.8,0.5-1,0.6c-0.3,0.1-0.5,0.1-0.7,0.1c-0.2,0-0.4-0.1-0.5-0.3c-0.1-0.2-0.3-0.4-0.5-0.6
	c-0.2-0.3-0.3-0.7-0.3-0.9c0-0.3,0.1-0.5,0.2-0.8c0.1-0.2,0.3-0.5,0.4-0.7c0.2-0.2,0.3-0.4,0.5-0.6c0.1-0.2,0.2-0.4,0.3-0.6
	c0-0.2,0-0.4-0.2-0.7c-0.4-0.6-1-1.2-1.7-1.8c-0.7-0.6-1.6-1.1-2.5-1.6c-0.9-0.5-1.9-0.9-2.9-1.3c-1-0.4-2-0.8-3-1.1
	c-1-0.3-2-0.6-2.9-0.8c-0.9-0.2-1.7-0.4-2.4-0.5c-1.1-0.2-2.2-0.2-3.3-0.3c-1.1,0-2.1,0-3.1,0.1c-1,0.1-2,0.4-2.9,0.7
	c-0.9,0.3-1.8,0.8-2.7,1.3c-0.7,0.4-1.2,0.9-1.5,1.5c-0.4,0.5-0.6,1.1-0.8,1.5c-0.2,0.6-0.3,1.1-0.1,1.7c0.1,0.5,0.4,1.1,0.8,1.7
	c0.9,1.3,1.8,2.5,2.8,3.4c1,1,2,1.8,3,2.6c1.1,0.8,2.2,1.5,3.3,2.1c1.2,0.6,2.4,1.3,3.6,1.9l0.4,0.6c0.1,0.2,0.2,0.4,0.3,0.7
	c0,0.3,0,0.5,0,0.8c0,0.3-0.1,0.5-0.2,0.7c-0.1,0.2-0.3,0.4-0.5,0.5c-0.5,0.3-1,0.4-1.7,0.3c-0.7-0.1-1.5-0.3-2.3-0.7
	c-0.8-0.4-1.7-0.8-2.6-1.4c-0.9-0.6-1.7-1.1-2.5-1.7c-0.8-0.6-1.5-1.1-2.1-1.7c-0.6-0.5-1.1-1-1.5-1.3c-0.3-0.3-0.6-0.6-0.9-0.9
	c-0.3-0.3-0.6-0.6-0.9-1c-0.4-0.4-0.7-0.9-1.2-1.5c-0.4-0.6-1-1.3-1.6-2.2c-0.4-0.6-0.6-1.1-0.8-1.7c-0.2-0.6-0.2-1.1-0.3-1.6
	c0-0.5,0-1,0-1.4c0.1-0.4,0.1-0.7,0.2-1c0.3-1.5,0.8-2.8,1.4-3.9C-467.2,18.1-466.3,17.2-465.2,16.5z"/>
<path style="fill:#FFFFFF;" d="M-444,105.9l15.5,5.2c1.2,0.4,2.1,1.1,2.7,2.1c0.6,1,0.8,2,0.4,3c-0.3,1-1.1,1.8-2.2,2.2
	c-1.1,0.4-2.3,0.4-3.4,0l-16-5.4c-2-0.7-4-1.9-5.8-3.8c-1.8-1.8-2.9-3.6-3.3-5.3l-4.4-19.8c-0.5-2.8-0.4-5.5,0.5-8
	c0.9-2.8,2.3-4.9,4.3-6.5l15.4-13c1.5-1.2,3.4-2,5.8-2.5c2.4-0.5,4.5-0.4,6.4,0.2l16.9,5.7c1.2,0.4,2.1,1.1,2.7,2.1
	c0.6,1,0.7,2,0.4,3c-0.3,1-1.1,1.8-2.1,2.2c-1.1,0.5-2.2,0.5-3.4,0.1l-16.3-5.5c-1.4-0.5-2.7-0.1-4,1l-14.6,12.1
	c-1.2,0.9-2,2.2-2.5,3.9c-0.6,1.7-0.7,3.4-0.3,5l4,18.1C-447.1,104.1-446,105.3-444,105.9z"/>
<path style="fill:#FFFFFF;" d="M-433,68.2l12.7,4.3c1,0.3,1.7,0.8,2.3,1.6c0.6,0.7,0.7,1.4,0.5,2.1c-0.2,0.7-0.8,1.1-1.6,1.4
	c-0.9,0.2-1.8,0.2-2.8-0.1L-435,73c-1.7-0.6-3.3-1.5-4.8-2.8c-1.5-1.3-2.5-2.6-2.9-3.7l-4.5-13.7c-0.6-1.9-0.6-3.7,0-5.4
	c0.6-1.8,1.7-3.2,3.1-4.2l11.8-8.1c1.1-0.7,2.6-1.2,4.5-1.4c1.9-0.2,3.6-0.1,5.2,0.4l13.9,4.7c1,0.3,1.7,0.8,2.3,1.6
	c0.5,0.7,0.7,1.4,0.5,2.1c-0.2,0.7-0.8,1.2-1.6,1.4c-0.9,0.3-1.8,0.2-2.7-0.1l-13.4-4.5c-1.1-0.4-2.2-0.2-3.2,0.5l-11.2,7.5
	c-0.9,0.6-1.5,1.4-1.9,2.5c-0.4,1.1-0.4,2.3,0,3.4l4.1,12.5C-435.5,66.8-434.6,67.7-433,68.2z"/>
<path style="fill:#FFFFFF;" d="M-400.1,69.7l5.9,2c0.5,0.2,0.8,0.4,1.1,0.7c0.3,0.3,0.3,0.7,0.2,1c-0.1,0.3-0.4,0.5-0.8,0.6
	c-0.4,0.1-0.8,0.1-1.3-0.1l-6.1-2c-0.8-0.3-1.5-0.7-2.2-1.3c-0.7-0.6-1.2-1.2-1.4-1.7l-2.1-6.4c-0.3-0.9-0.3-1.7,0-2.5
	c0.3-0.8,0.8-1.5,1.5-2l5.5-3.8c0.5-0.3,1.2-0.6,2.1-0.7c0.9-0.1,1.7,0,2.4,0.2l6.5,2.2c0.5,0.2,0.8,0.4,1,0.7
	c0.2,0.3,0.3,0.7,0.2,1c-0.1,0.3-0.4,0.5-0.8,0.7c-0.4,0.1-0.8,0.1-1.3,0l-6.2-2.1c-0.5-0.2-1-0.1-1.5,0.2l-5.2,3.5
	c-0.4,0.3-0.7,0.7-0.9,1.2c-0.2,0.5-0.2,1.1,0,1.6l1.9,5.8C-401.3,69.1-400.9,69.5-400.1,69.7z"/>
<path style="fill:#FFFFFF;" d="M-404.1,80.7l5.9,2c0.5,0.2,0.8,0.4,1.1,0.7c0.3,0.3,0.3,0.7,0.2,1c-0.1,0.3-0.4,0.5-0.8,0.6
	c-0.4,0.1-0.8,0.1-1.3-0.1l-6.1-2c-0.8-0.3-1.5-0.7-2.2-1.3c-0.7-0.6-1.2-1.2-1.4-1.7l-2.1-6.4c-0.3-0.9-0.3-1.7,0-2.5
	c0.3-0.8,0.8-1.5,1.5-2l5.5-3.8c0.5-0.3,1.2-0.6,2.1-0.7c0.9-0.1,1.7,0,2.4,0.2l6.5,2.2c0.5,0.2,0.8,0.4,1,0.7
	c0.2,0.3,0.3,0.7,0.2,1c-0.1,0.3-0.4,0.5-0.8,0.7c-0.4,0.1-0.8,0.1-1.3,0l-6.2-2.1c-0.5-0.2-1-0.1-1.5,0.2l-5.2,3.5
	c-0.4,0.3-0.7,0.7-0.9,1.2c-0.2,0.5-0.2,1.1,0,1.6l1.9,5.8C-405.3,80.1-404.9,80.5-404.1,80.7z"/>
<path style="fill:#FFFFFF;" d="M-391.8,22.9l-1.7-9.6c-0.2-0.9-0.6-1.8-1.4-2.8c-0.8-1-1.6-1.7-2.5-2.1l-0.7-0.3c0,0,0,0,0,0
	c-0.3-0.5-0.8-0.8-1.4-1l-2.4-0.7l-3.8-1.7c-0.6-0.3-1.2-0.3-1.7-0.2c-0.1,0-0.3,0.1-0.4,0.1l-0.5-0.1c-1-0.3-2.1-0.3-3.3-0.1
	c-1.2,0.2-2.2,0.6-2.9,1.2l-7.6,6.2c-0.9,0.8-1.6,1.8-2,3.1c-0.4,1.2-0.3,2.4,0,3.8l2.9,9.4c0.3,0.8,0.9,1.6,1.9,2.5
	c1,0.9,2,1.5,3.1,1.8l4.3,1.3l2.5,1.1c1,0.5,2.2,0.7,3.5,0.7c1.3,0,2.3-0.2,3-0.7l8.3-5.2c1.1-0.8,2-1.7,2.5-2.9
	C-391.8,25.4-391.6,24.1-391.8,22.9z M-396.7,24.6c-0.4,0.8-0.9,1.4-1.5,1.8l-7.6,4.8c-0.2,0.2-0.5,0.2-0.7,0.3
	c-0.1-0.1-0.3-0.1-0.4-0.2l-3.9-1.2l-5.2-2.4c-0.2-0.1-0.4-0.2-0.7-0.2c-0.1-0.1-0.1-0.3-0.2-0.4l-2.6-8.6c-0.2-0.8-0.2-1.5,0-2.4
	c0.2-0.8,0.6-1.4,1.2-1.9l7.2-5.8c0.6-0.5,1.3-0.7,2-0.5l5.9,1.7l4.1,1.8c0.7,0.3,1.1,0.9,1.2,1.7l1.6,9.1
	C-396.3,23.1-396.4,23.8-396.7,24.6z"/>
<polygon style="fill:#FFFFFF;" points="-452.2,113.4 -439.8,117.5 -456.3,129 "/>
<path style="fill:#4CAF50;" d="M941.1-257.5c-5.1,0-9.9-1.2-14.4-3.6c-15.4-8.1-21.1-27.6-12.8-43.5c5.7-10.8,16.7-17.5,28.7-17.5
	c5,0,10,1.2,14.4,3.6c1,0.5,1.7,1.4,2,2.4s0.2,2.2-0.3,3.1c-0.7,1.4-2.1,2.2-3.6,2.2c-0.7,0-1.3-0.2-1.9-0.5
	c-3.3-1.7-6.8-2.6-10.6-2.6c-8.9,0-17.1,5-21.4,13.1c-3,5.7-3.7,12.3-1.9,18.4c1.8,6.1,5.8,11.1,11.3,14c3.3,1.7,6.8,2.6,10.6,2.6
	c8.9,0,17.1-5,21.4-13.1c0.7-1.4,2.1-2.2,3.6-2.2c0.7,0,1.3,0.2,1.9,0.5c2,1.1,2.8,3.6,1.7,5.6C964.1-264.2,953.1-257.5,941.1-257.5
	z"/>
<path style="fill:#4CAF50;" d="M981.2-288.6c-0.2,0-0.5,0-0.7-0.1c-5.1-1.6-9.2-5.2-11.6-10c-2.4-4.8-2.8-10.3-1.1-15.5
	c3.4-10.7,14.7-16.8,25.1-13.4c1.3,0.4,2,1.8,1.6,3c-0.4,1.3-1.8,2-3,1.6c-7.9-2.5-16.4,2.1-19,10.3c-1.3,4-1,8.2,0.9,11.9
	c1.8,3.6,4.9,6.3,8.7,7.5c1.3,0.4,2,1.8,1.6,3C983.2-289.3,982.3-288.6,981.2-288.6z"/>
<path style="fill:#303F9F;" d="M949.4-299.2c-4.3,0-8.6-1.2-12.4-3.4c-5.5-3.3-9.3-8.4-10.8-14.6s-0.4-12.5,3-17.9
	c3.4-5.4,8.7-9.1,15-10.6c1.9-0.5,3.9-0.7,5.8-0.7c4.4,0,8.6,1.2,12.4,3.4c5.5,3.3,9.3,8.4,10.8,14.6c0.3,1.1,0.1,2.2-0.5,3.1
	c-0.6,0.9-1.5,1.6-2.5,1.8c-0.3,0.1-0.6,0.1-1,0.1c-1.9,0-3.6-1.3-4-3.2c-0.9-4-3.4-7.3-7-9.4c-2.5-1.5-5.3-2.2-8.2-2.2
	c-1.3,0-2.6,0.2-3.9,0.5c-4.2,1-7.7,3.5-10,7c-2.2,3.5-2.9,7.6-2,11.6c0.9,4,3.4,7.3,7,9.4c2.5,1.5,5.3,2.2,8.2,2.2
	c1.3,0,2.6-0.2,3.9-0.5c0.3-0.1,0.6-0.1,1-0.1c1.9,0,3.6,1.3,4,3.2c0.5,2.2-0.8,4.4-3,5C953.2-299.4,951.3-299.2,949.4-299.2z"/>
<path style="fill:#303F9F;" d="M970.4-339.5c-1.9,0-3.5-1.3-4-3.1c-0.3-1.1-0.1-2.2,0.4-3.1c0.6-0.9,1.5-1.6,2.5-1.9
	c1.6-0.4,3-1.5,3.8-3c0.9-1.5,1.1-3.3,0.7-5.1c-0.4-1.8-1.5-3.2-3-4.2c-1-0.6-2.1-0.9-3.3-0.9c-0.5,0-1,0.1-1.5,0.2
	c-3.4,0.9-5.4,4.5-4.5,8.1c0.6,2.2-0.8,4.4-3,5c-0.3,0.1-0.7,0.1-1,0.1c-1.9,0-3.5-1.3-4-3.1c-2-8,2.6-16.1,10.4-18.1
	c1.2-0.3,2.4-0.4,3.6-0.4c2.6,0,5.3,0.7,7.6,2.2c3.3,2.1,5.7,5.3,6.7,9.1c1,3.8,0.4,7.8-1.5,11.2c-2,3.4-5.1,5.9-8.9,6.8
	C971.1-339.5,970.8-339.5,970.4-339.5z"/>
<path style="fill:#303F9F;" d="M969.5-367.9c-0.8,0-1.5-0.5-1.8-1.3c-0.6-1.8-0.4-3.7,0.4-5.4c0.8-1.7,2.3-3,4.1-3.5
	c3.7-1.2,7.6,0.9,8.8,4.7c0.3,1-0.2,2.1-1.2,2.4c-1,0.3-2.1-0.2-2.4-1.2c-0.6-1.8-2.4-2.8-4.1-2.2c-0.8,0.3-1.5,0.8-1.9,1.6
	c-0.4,0.8-0.5,1.7-0.2,2.6c0.3,1-0.2,2.1-1.2,2.4C969.9-367.9,969.7-367.9,969.5-367.9z"/>
<path style="fill:#303F9F;" d="M990.6-294.4c-0.9,1.3-2.7,1.9-4.3,1.3c-3.7-1.3-6.7-3.8-8.5-7.2c-1.8-3.4-2.2-7.3-1-10.9
	c2.4-7.3,10.5-11.2,18.2-8.6c2,0.7,3.1,2.9,2.5,4.9c-0.6,2-2.8,3-4.8,2.3c-3.6-1.2-7.4,0.5-8.5,3.9c-0.5,1.6-0.3,3.4,0.5,4.9
	c0.9,1.6,2.3,2.8,4.1,3.4c2,0.7,3.1,2.9,2.5,4.9C991-295.1,990.8-294.7,990.6-294.4z"/>
<path style="fill:#303F9F;" d="M925.4-339.6c-3.8,0-7.4-1-10.3-2.9c-3.5-2.2-5.5-5.5-5.7-9.1c-0.5-7.1,6.6-13.4,15.8-14
	c4.3-0.3,8.5,0.7,11.7,2.8c3.5,2.2,5.5,5.5,5.7,9.1c0.1,1.3-0.9,2.5-2.3,2.6c-1.3,0.1-2.5-0.9-2.6-2.3c-0.1-2-1.4-3.9-3.5-5.3
	c-2.4-1.5-5.5-2.3-8.8-2.1c-6.4,0.4-11.6,4.5-11.3,8.8c0.1,2,1.4,3.9,3.5,5.3c2.4,1.5,5.5,2.3,8.8,2.1c1.3-0.1,2.5,0.9,2.6,2.3
	c0.1,1.3-0.9,2.5-2.3,2.6C926.3-339.6,925.9-339.6,925.4-339.6z"/>
<polygon style="fill:#303F9F;" points="919.5,-263.3 918,-259.3 913.7,-248 928.7,-256.3 931.5,-257.8 "/>
<path style="fill:#4CAF50;" d="M942.2-402.2c-5.3,0-10.3-1.2-14.9-3.7c-16-8.4-21.9-28.7-13.2-45.1c5.9-11.2,17.3-18.2,29.8-18.2
	c5.2,0,10.4,1.3,14.9,3.7c1,0.5,1.7,1.4,2.1,2.5c0.3,1.1,0.2,2.2-0.3,3.3c-0.7,1.4-2.2,2.3-3.8,2.3c-0.7,0-1.4-0.2-2-0.5
	c-3.4-1.8-7.1-2.7-11-2.7c-9.3,0-17.8,5.2-22.2,13.6c-3.1,5.9-3.9,12.7-2,19.1c1.8,6.3,6,11.5,11.7,14.5c3.4,1.8,7.1,2.7,11,2.7
	c9.3,0,17.8-5.2,22.2-13.6c0.7-1.4,2.2-2.3,3.8-2.3c0.7,0,1.4,0.2,2,0.5c2.1,1.1,2.9,3.7,1.8,5.8
	C966.1-409.2,954.7-402.2,942.2-402.2z"/>
<path style="fill:#303F9F;" d="M950.8-445.5c-4.5,0-9-1.2-12.8-3.5c-5.7-3.4-9.7-8.8-11.2-15.1c-1.5-6.4-0.4-13,3.2-18.6
	c3.5-5.6,9.1-9.5,15.6-11c2-0.5,4-0.7,6-0.7c4.5,0,9,1.2,12.8,3.5c5.7,3.4,9.7,8.8,11.2,15.1c0.3,1.1,0.1,2.3-0.5,3.2
	c-0.6,1-1.5,1.7-2.6,1.9c-0.3,0.1-0.7,0.1-1,0.1c-2,0-3.7-1.3-4.1-3.3c-1-4.1-3.6-7.6-7.3-9.8c-2.6-1.5-5.5-2.3-8.5-2.3
	c-1.3,0-2.7,0.2-4,0.5c-4.3,1-8,3.6-10.3,7.3c-2.3,3.6-3,7.9-2.1,12c1,4.1,3.6,7.6,7.3,9.8c2.6,1.5,5.5,2.3,8.5,2.3
	c1.3,0,2.7-0.2,4-0.5c0.3-0.1,0.7-0.1,1-0.1c2,0,3.7,1.3,4.2,3.3c0.5,2.3-0.9,4.6-3.2,5.1C954.8-445.7,952.8-445.5,950.8-445.5z"/>
<path style="fill:#303F9F;" d="M972.7-487.3c-2,0-3.7-1.3-4.1-3.2c-0.3-1.1-0.1-2.3,0.5-3.2c0.6-1,1.5-1.7,2.6-2
	c1.7-0.4,3.1-1.5,4-3.1c0.9-1.6,1.2-3.5,0.7-5.3c-0.5-1.8-1.6-3.4-3.1-4.3c-1-0.6-2.2-1-3.4-1c-0.5,0-1.1,0.1-1.6,0.2
	c-3.5,0.9-5.6,4.6-4.7,8.4c0.6,2.3-0.8,4.6-3.1,5.2c-0.3,0.1-0.7,0.1-1.1,0.1c-1.9,0-3.6-1.3-4.1-3.2c-2.1-8.3,2.7-16.7,10.8-18.7
	c1.2-0.3,2.5-0.5,3.7-0.5c2.8,0,5.5,0.8,7.9,2.2c3.5,2.1,5.9,5.5,6.9,9.5c1,4,0.5,8.1-1.6,11.6c-2,3.6-5.3,6.1-9.3,7.1
	C973.4-487.3,973-487.3,972.7-487.3z"/>
<path style="fill:#303F9F;" d="M971.7-516.8c-0.8,0-1.6-0.5-1.9-1.4c-0.6-1.9-0.4-3.9,0.4-5.6c0.9-1.8,2.4-3.1,4.2-3.7
	c3.8-1.2,7.9,1,9.2,4.9c0.3,1-0.2,2.1-1.3,2.5c-1,0.3-2.1-0.2-2.5-1.3c-0.6-1.8-2.5-2.9-4.2-2.3c-0.8,0.3-1.5,0.9-1.9,1.7
	c-0.4,0.8-0.5,1.8-0.2,2.7c0.3,1-0.2,2.1-1.3,2.5C972.1-516.8,971.9-516.8,971.7-516.8z"/>
<path style="fill:#303F9F;" d="M926-487.4c-4,0-7.7-1-10.7-3c-3.6-2.3-5.7-5.7-6-9.4c-0.5-7.4,6.9-13.9,16.4-14.5
	c4.5-0.3,8.8,0.8,12.2,2.9c3.6,2.3,5.7,5.7,6,9.4c0.1,1.4-1,2.6-2.4,2.7c-1.4,0.1-2.6-1-2.7-2.4c-0.1-2.1-1.4-4-3.7-5.5
	c-2.5-1.6-5.7-2.4-9.1-2.1c-6.6,0.4-12,4.6-11.7,9.2c0.1,2.1,1.4,4,3.7,5.5c2.5,1.6,5.7,2.4,9.1,2.1c1.4-0.1,2.6,1,2.7,2.4
	c0.1,1.4-1,2.6-2.4,2.7C926.9-487.5,926.4-487.4,926-487.4z"/>
<path style="fill:#303F9F;" d="M920.6-479.3c-4,0-7.7-1-10.7-3c-3.6-2.3-5.7-5.7-6-9.4c-0.5-7.4,6.9-13.9,16.4-14.5
	c4.5-0.3,8.8,0.8,12.2,2.9c3.6,2.3,5.7,5.7,6,9.4c0.1,1.4-1,2.6-2.4,2.7c-1.4,0.1-2.6-1-2.7-2.4c-0.1-2.1-1.4-4-3.7-5.5
	c-2.5-1.6-5.7-2.4-9.1-2.1c-6.6,0.4-12,4.6-11.7,9.2c0.1,2.1,1.4,4,3.7,5.5c2.5,1.6,5.7,2.4,9.1,2.1c1.4-0.1,2.6,1,2.7,2.4
	c0.1,1.4-1,2.6-2.4,2.7C921.5-479.3,921-479.3,920.6-479.3z"/>
<polygon style="fill:#303F9F;" points="919.8,-408.2 918.3,-404 913.8,-392.3 929.4,-400.9 932.3,-402.5 "/>
<path style="fill:#4CAF50;" d="M996-475c-2.7-0.9-5.5-1.1-8.2-0.8l0-2.7c0-1.4-1.1-2.5-2.5-2.5c0,0,0,0,0,0c-1.4,0-2.5,1.1-2.5,2.5
	l0,4c-0.6,0.2-1.2,0.5-1.8,0.8c-0.1,0-0.2,0.1-0.2,0.1c-4.9,2.5-8.9,6.9-10.8,12.7c-1.7,5.4-1.3,11.1,1.2,16.1
	c2.5,5,6.8,8.7,12,10.4c0.3,0.1,0.5,0.1,0.8,0.1c1.1,0,2.1-0.7,2.4-1.8c0.4-1.3-0.3-2.7-1.6-3.2c-4-1.3-7.2-4-9-7.8
	c-1.9-3.8-2.2-8.2-0.9-12.3c1.2-3.8,3.7-6.9,6.7-8.8l1.8,1.8c0.5,0.5,1.1,0.7,1.8,0.7c0.7,0,1.3-0.3,1.8-0.8c1-1,1-2.6,0-3.6
	l-0.3-0.3c2.6-0.6,5.3-0.6,8,0.3c1.3,0.4,2.7-0.3,3.2-1.6C998.1-473.2,997.4-474.6,996-475z"/>
<path style="fill:#4CAF50;" d="M639.5-505.8h-41.4c-1.5,0-2.9-0.8-3.7-2.1l-20.7-35.8c-0.8-1.3-0.8-3,0-4.3l20.7-35.8
	c0.8-1.3,2.2-2.1,3.7-2.1h41.4c1.5,0,2.9,0.8,3.7,2.1l20.7,35.8c0.8,1.3,0.8,3,0,4.3l-20.7,35.8C642.4-506.6,641-505.8,639.5-505.8z
	"/>
<path style="fill:#448AFF;" d="M639.5-414.8h-41.4c-1.5,0-2.9-0.8-3.7-2.1l-20.7-35.8c-0.8-1.3-0.8-3,0-4.3l20.7-35.8
	c0.8-1.3,2.2-2.1,3.7-2.1h41.4c1.5,0,2.9,0.8,3.7,2.1l20.7,35.8c0.8,1.3,0.8,3,0,4.3l-20.7,35.8C642.4-415.6,641-414.8,639.5-414.8z
	"/>
<path style="fill:#2637A7;" d="M740.5-414.8h-41.4c-1.5,0-2.9-0.8-3.7-2.1l-20.7-35.8c-0.8-1.3-0.8-3,0-4.3l20.7-35.8
	c0.8-1.3,2.2-2.1,3.7-2.1h41.4c1.5,0,2.9,0.8,3.7,2.1l20.7,35.8c0.8,1.3,0.8,3,0,4.3l-20.7,35.8C743.4-415.6,742-414.8,740.5-414.8z
	"/>
<path style="fill:#F44336;" d="M638.5-323.8h-41.4c-1.5,0-2.9-0.8-3.7-2.1l-20.7-35.8c-0.8-1.3-0.8-3,0-4.3l20.7-35.8
	c0.8-1.3,2.2-2.1,3.7-2.1h41.4c1.5,0,2.9,0.8,3.7,2.1l20.7,35.8c0.8,1.3,0.8,3,0,4.3l-20.7,35.8C641.4-324.6,640-323.8,638.5-323.8z
	"/>
<path style="fill:#FBC02D;" d="M739.5-323.8h-41.4c-1.5,0-2.9-0.8-3.7-2.1l-20.7-35.8c-0.8-1.3-0.8-3,0-4.3l20.7-35.8
	c0.8-1.3,2.2-2.1,3.7-2.1h41.4c1.5,0,2.9,0.8,3.7,2.1l20.7,35.8c0.8,1.3,0.8,3,0,4.3l-20.7,35.8C742.4-324.6,741-323.8,739.5-323.8z
	"/>
<path style="fill:#E64A19;" d="M633.5-232.8h-41.4c-1.5,0-2.9-0.8-3.7-2.1l-20.7-35.8c-0.8-1.3-0.8-3,0-4.3l20.7-35.8
	c0.8-1.3,2.2-2.1,3.7-2.1h41.4c1.5,0,2.9,0.8,3.7,2.1l20.7,35.8c0.8,1.3,0.8,3,0,4.3l-20.7,35.8C636.4-233.6,635-232.8,633.5-232.8z
	"/>
<path style="fill:#9E9E9E;" d="M734.5-232.8h-41.4c-1.5,0-2.9-0.8-3.7-2.1l-20.7-35.8c-0.8-1.3-0.8-3,0-4.3l20.7-35.8
	c0.8-1.3,2.2-2.1,3.7-2.1h41.4c1.5,0,2.9,0.8,3.7,2.1l20.7,35.8c0.8,1.3,0.8,3,0,4.3l-20.7,35.8C737.4-233.6,736-232.8,734.5-232.8z
	"/>
<path style="fill:#00796B;" d="M740.5-505.8h-41.4c-1.5,0-2.9-0.8-3.7-2.1l-20.7-35.8c-0.8-1.3-0.8-3,0-4.3l20.7-35.8
	c0.8-1.3,2.2-2.1,3.7-2.1h41.4c1.5,0,2.9,0.8,3.7,2.1l20.7,35.8c0.8,1.3,0.8,3,0,4.3l-20.7,35.8C743.4-506.6,742-505.8,740.5-505.8z
	"/>
<path style="fill:#303F9F;" d="M871.9-478.7l-2.3,0.6c-4.8,4.9-8.5,10.2-10.9,15.9c-2.4,5.7-3.7,11.2-3.7,16.5
	c-0.1,5.3,0.9,9.6,2.9,13c2,3.4,5.1,6.2,9.3,8.5c8.8-3.1,16-6.7,21.9-10.8c3-0.2,5.1,0.5,6.4,2c1.2,1.6,1.8,3.8,1.7,6.8
	c-7.5,7.8-18.4,13.7-32.4,17.8c-11.2-1.5-19.8-5.4-25.9-11.7c-6.1-6.3-9.1-14.2-9-23.5c0.1-4.9,1-9.7,2.7-14.2
	c1.7-4.6,4.3-9.6,7.8-15.1c6-5.3,12.1-9.3,18.3-11.8c6.2-2.6,13.3-4.3,21.3-5.3c6.6,2.4,11.5,5.6,14.8,9.7c3.2,4,5.3,8.9,6.1,14.8
	c-1.1,3.1-4.2,5.4-9.1,6.8c-4.9,1.4-10,1-15.2-1.2C875.9-469.6,874.5-475.8,871.9-478.7z"/>
<path style="fill:#303F9F;" d="M1040.9-478.7l-2.3,0.6c-4.8,4.9-8.5,10.2-10.9,15.9c-2.4,5.7-3.7,11.2-3.7,16.5
	c-0.1,5.3,0.9,9.6,2.9,13c2,3.4,5.1,6.2,9.3,8.5c8.8-3.1,16-6.7,21.9-10.8c3-0.2,5.1,0.5,6.4,2c1.2,1.6,1.8,3.8,1.7,6.8
	c-7.5,7.8-18.4,13.7-32.4,17.8c-11.2-1.5-19.8-5.4-25.9-11.7c-6.1-6.3-9.1-14.2-9-23.5c0.1-4.9,1-9.7,2.7-14.2
	c1.7-4.6,4.3-9.6,7.8-15.1c6-5.3,12.1-9.3,18.3-11.8c6.2-2.6,13.3-4.3,21.3-5.3c6.6,2.4,11.5,5.6,14.8,9.7c3.2,4,5.3,8.9,6.1,14.8
	c-1.1,3.1-4.2,5.4-9.1,6.8c-4.9,1.4-10,1-15.2-1.2C1044.9-469.6,1043.4-475.8,1040.9-478.7z"/>
<path style="fill:#303F9F;" d="M1118.2-478.7l-2.3,0.6c-4.8,4.9-8.5,10.2-10.9,15.9c-2.4,5.7-3.7,11.2-3.7,16.5
	c-0.1,5.3,0.9,9.6,2.9,13c2,3.4,5.1,6.2,9.3,8.5c8.8-3.1,16-6.7,21.9-10.8c3-0.2,5.1,0.5,6.4,2c1.2,1.6,1.8,3.8,1.7,6.8
	c-7.5,7.8-18.4,13.7-32.4,17.8c-11.2-1.5-19.8-5.4-25.9-11.7c-6.1-6.3-9.1-14.2-9-23.5c0.1-4.9,1-9.7,2.7-14.2
	c1.7-4.6,4.3-9.6,7.8-15.1c6-5.3,12.1-9.3,18.3-11.8c6.2-2.6,13.3-4.3,21.3-5.3c6.6,2.4,11.5,5.6,14.8,9.7c3.2,4,5.3,8.9,6.1,14.8
	c-1.1,3.1-4.2,5.4-9.1,6.8c-4.9,1.4-10,1-15.2-1.2C1122.2-469.6,1120.8-475.8,1118.2-478.7z"/>
<path style="fill:#303F9F;" d="M867.9-332.7l-2.3,0.6c-4.8,4.9-8.5,10.2-10.9,15.9c-2.4,5.7-3.7,11.2-3.7,16.5
	c-0.1,5.3,0.9,9.6,2.9,13c2,3.4,5.1,6.2,9.3,8.5c8.8-3.1,16-6.7,21.9-10.8c3-0.2,5.1,0.5,6.4,2c1.2,1.6,1.8,3.8,1.7,6.8
	c-7.5,7.8-18.4,13.7-32.4,17.8c-11.2-1.5-19.8-5.4-25.9-11.7c-6.1-6.3-9.1-14.2-9-23.5c0.1-4.9,1-9.7,2.7-14.2
	c1.7-4.6,4.3-9.6,7.8-15.1c6-5.3,12.1-9.3,18.3-11.8c6.2-2.6,13.3-4.3,21.3-5.3c6.6,2.4,11.5,5.6,14.8,9.7c3.2,4,5.3,8.9,6.1,14.8
	c-1.1,3.1-4.2,5.4-9.1,6.8c-4.9,1.4-10,1-15.2-1.2C871.9-323.6,870.5-329.8,867.9-332.7z"/>
<path style="fill:#303F9F;" d="M1036.9-332.7l-2.3,0.6c-4.8,4.9-8.5,10.2-10.9,15.9c-2.4,5.7-3.7,11.2-3.7,16.5
	c-0.1,5.3,0.9,9.6,2.9,13c2,3.4,5.1,6.2,9.3,8.5c8.8-3.1,16-6.7,21.9-10.8c3-0.2,5.1,0.5,6.4,2c1.2,1.6,1.8,3.8,1.7,6.8
	c-7.5,7.8-18.4,13.7-32.4,17.8c-11.2-1.5-19.8-5.4-25.9-11.7c-6.1-6.3-9.1-14.2-9-23.5c0.1-4.9,1-9.7,2.7-14.2
	c1.7-4.6,4.3-9.6,7.8-15.1c6-5.3,12.1-9.3,18.3-11.8c6.2-2.6,13.3-4.3,21.3-5.3c6.6,2.4,11.5,5.6,14.8,9.7c3.2,4,5.3,8.9,6.1,14.8
	c-1.1,3.1-4.2,5.4-9.1,6.8c-4.9,1.4-10,1-15.2-1.2C1040.9-323.6,1039.4-329.8,1036.9-332.7z"/>
<path style="fill:#303F9F;" d="M1114.2-332.7l-2.3,0.6c-4.8,4.9-8.5,10.2-10.9,15.9c-2.4,5.7-3.7,11.2-3.7,16.5
	c-0.1,5.3,0.9,9.6,2.9,13c2,3.4,5.1,6.2,9.3,8.5c8.8-3.1,16-6.7,21.9-10.8c3-0.2,5.1,0.5,6.4,2c1.2,1.6,1.8,3.8,1.7,6.8
	c-7.5,7.8-18.4,13.7-32.4,17.8c-11.2-1.5-19.8-5.4-25.9-11.7c-6.1-6.3-9.1-14.2-9-23.5c0.1-4.9,1-9.7,2.7-14.2
	c1.7-4.6,4.3-9.6,7.8-15.1c6-5.3,12.1-9.3,18.3-11.8c6.2-2.6,13.3-4.3,21.3-5.3c6.6,2.4,11.5,5.6,14.8,9.7c3.2,4,5.3,8.9,6.1,14.8
	c-1.1,3.1-4.2,5.4-9.1,6.8c-4.9,1.4-10,1-15.2-1.2C1118.2-323.6,1116.8-329.8,1114.2-332.7z"/>
<path style="fill:#303F9F;" d="M592.9,25.3l-2.3,0.6c-4.8,4.9-8.5,10.2-10.9,15.9c-2.4,5.7-3.7,11.2-3.7,16.5
	c-0.1,5.3,0.9,9.6,2.9,13c2,3.4,5.1,6.2,9.3,8.5c8.8-3.1,16-6.7,21.9-10.8c3-0.2,5.1,0.5,6.4,2c1.2,1.6,1.8,3.8,1.7,6.8
	c-7.5,7.8-18.4,13.7-32.4,17.8c-11.2-1.5-19.8-5.4-25.9-11.7c-6.1-6.3-9.1-14.2-9-23.5c0.1-4.9,1-9.7,2.7-14.2
	c1.7-4.6,4.3-9.6,7.8-15.1c6-5.3,12.1-9.3,18.3-11.8c6.2-2.6,13.3-4.3,21.3-5.3c6.6,2.4,11.5,5.6,14.8,9.7c3.2,4,5.3,8.9,6.1,14.8
	c-1.1,3.1-4.2,5.4-9.1,6.8c-4.9,1.4-10,1-15.2-1.2C596.9,34.4,595.5,28.2,592.9,25.3z"/>
<path style="fill:#303F9F;" d="M761.9,25.3l-2.3,0.6c-4.8,4.9-8.5,10.2-10.9,15.9c-2.4,5.7-3.7,11.2-3.7,16.5
	c-0.1,5.3,0.9,9.6,2.9,13c2,3.4,5.1,6.2,9.3,8.5c8.8-3.1,16-6.7,21.9-10.8c3-0.2,5.1,0.5,6.4,2c1.2,1.6,1.8,3.8,1.7,6.8
	c-7.5,7.8-18.4,13.7-32.4,17.8c-11.2-1.5-19.8-5.4-25.9-11.7c-6.1-6.3-9.1-14.2-9-23.5c0.1-4.9,1-9.7,2.7-14.2
	c1.7-4.6,4.3-9.6,7.8-15.1c6-5.3,12.1-9.3,18.3-11.8c6.2-2.6,13.3-4.3,21.3-5.3c6.6,2.4,11.5,5.6,14.8,9.7c3.2,4,5.3,8.9,6.1,14.8
	c-1.1,3.1-4.2,5.4-9.1,6.8c-4.9,1.4-10,1-15.2-1.2C765.9,34.4,764.4,28.2,761.9,25.3z"/>
<path style="fill:#303F9F;" d="M839.2,25.3l-2.3,0.6c-4.8,4.9-8.5,10.2-10.9,15.9c-2.4,5.7-3.7,11.2-3.7,16.5
	c-0.1,5.3,0.9,9.6,2.9,13c2,3.4,5.1,6.2,9.3,8.5c8.8-3.1,16-6.7,21.9-10.8c3-0.2,5.1,0.5,6.4,2c1.2,1.6,1.8,3.8,1.7,6.8
	c-7.5,7.8-18.4,13.7-32.4,17.8c-11.2-1.5-19.8-5.4-25.9-11.7c-6.1-6.3-9.1-14.2-9-23.5c0.1-4.9,1-9.7,2.7-14.2
	c1.7-4.6,4.3-9.6,7.8-15.1c6-5.3,12.1-9.3,18.3-11.8C831.9,16.8,839,15,847,14c6.6,2.4,11.5,5.6,14.8,9.7c3.2,4,5.3,8.9,6.1,14.8
	c-1.1,3.1-4.2,5.4-9.1,6.8c-4.9,1.4-10,1-15.2-1.2C843.2,34.4,841.8,28.2,839.2,25.3z"/>
<g>
	<g>
		<path style="fill:#FFFFFF;" d="M130.7,50.7c0.7-0.6,1.7-1.2,2.8-1.7c1.1-0.6,2.3-0.9,3.6-1.2c1.8-0.3,3.6-0.5,5.4-0.6
			c1.8-0.1,3.6-0.1,5.3,0.1c1.7,0.1,3.3,0.3,4.8,0.6c1.5,0.3,2.8,0.7,3.8,1.1l0,0c0.7,0.3,1.4,0.6,2.2,0.9c0.8,0.3,1.5,0.7,2.3,1.1
			c0.7,0.4,1.4,0.8,2.1,1.3c0.7,0.5,1.2,1,1.7,1.6c0.5,0.6,0.9,1.3,1.1,2c0.2,0.7,0.3,1.4,0.3,2.2c0,0.7-0.2,1.4-0.5,2
			c-0.3,0.6-0.7,1.2-1.3,1.7c-0.4,0.3-0.7,0.5-1,0.7c-0.3,0.1-0.5,0.2-0.7,0.2c-0.2,0-0.4-0.1-0.5-0.2c-0.2-0.1-0.3-0.3-0.5-0.5
			c-0.3-0.3-0.4-0.6-0.4-0.9c0-0.3,0-0.5,0.1-0.8c0.1-0.2,0.2-0.5,0.4-0.7c0.2-0.2,0.3-0.5,0.4-0.7c0.1-0.2,0.2-0.4,0.2-0.7
			c0-0.2-0.1-0.4-0.2-0.7c-0.5-0.6-1.1-1.1-1.9-1.6c-0.8-0.5-1.6-0.9-2.6-1.3c-1-0.4-2-0.7-3-1c-1.1-0.3-2.1-0.6-3.1-0.8
			c-1-0.2-2-0.4-3-0.5c-0.9-0.1-1.8-0.2-2.5-0.3c-1.1,0-2.2,0-3.3,0c-1.1,0.1-2.1,0.2-3.1,0.4c-1,0.2-1.9,0.5-2.8,0.9
			c-0.9,0.4-1.7,0.9-2.5,1.6c-0.6,0.5-1.1,1-1.4,1.6c-0.3,0.6-0.5,1.1-0.7,1.6c-0.2,0.6-0.1,1.1,0,1.7c0.2,0.5,0.5,1.1,1,1.6
			c1,1.2,2,2.3,3.1,3.2c1.1,0.9,2.1,1.7,3.3,2.3c1.1,0.7,2.3,1.3,3.5,1.8c1.2,0.5,2.5,1.1,3.8,1.6l0.5,0.6c0.2,0.2,0.3,0.4,0.3,0.7
			c0.1,0.3,0.1,0.5,0.1,0.8c0,0.3-0.1,0.5-0.2,0.8c-0.1,0.2-0.2,0.4-0.4,0.6c-0.4,0.3-1,0.5-1.7,0.5c-0.7,0-1.5-0.2-2.4-0.5
			c-0.9-0.3-1.7-0.7-2.7-1.1c-0.9-0.5-1.8-1-2.7-1.5c-0.8-0.5-1.6-1-2.3-1.5c-0.7-0.5-1.2-0.9-1.6-1.2c-0.3-0.3-0.6-0.5-0.9-0.8
			c-0.3-0.3-0.6-0.6-1-0.9c-0.4-0.4-0.8-0.8-1.3-1.3c-0.5-0.5-1.1-1.2-1.8-2.1c-0.4-0.5-0.7-1.1-0.9-1.6c-0.2-0.6-0.4-1.1-0.4-1.6
			c-0.1-0.5-0.1-1-0.1-1.4c0-0.4,0.1-0.8,0.1-1c0.2-1.6,0.5-2.9,1.1-4C128.9,52.5,129.7,51.6,130.7,50.7z"/>
		<path style="fill:#FFFFFF;" d="M136.9,41.2c0.8-0.5,1.8-1,2.9-1.5c1.1-0.5,2.4-0.7,3.7-0.8c1.8-0.1,3.6-0.2,5.5-0.1
			c1.8,0.1,3.6,0.3,5.3,0.6c1.7,0.3,3.2,0.6,4.7,1c1.4,0.4,2.7,0.9,3.7,1.5l0,0c0.7,0.3,1.4,0.7,2.1,1.1s1.4,0.8,2.1,1.3
			c0.7,0.5,1.4,0.9,2,1.5c0.6,0.5,1.1,1.1,1.6,1.8c0.4,0.7,0.7,1.3,0.9,2.1c0.2,0.7,0.2,1.5,0.1,2.2c-0.1,0.7-0.3,1.4-0.7,2
			c-0.4,0.6-0.8,1.1-1.4,1.5c-0.4,0.3-0.8,0.5-1,0.6c-0.3,0.1-0.5,0.1-0.7,0.1c-0.2,0-0.4-0.1-0.5-0.3c-0.1-0.2-0.3-0.4-0.5-0.6
			c-0.2-0.3-0.3-0.7-0.3-0.9c0-0.3,0.1-0.5,0.2-0.8c0.1-0.2,0.3-0.5,0.4-0.7c0.2-0.2,0.3-0.4,0.5-0.6c0.1-0.2,0.2-0.4,0.3-0.6
			c0-0.2,0-0.4-0.2-0.7c-0.4-0.6-1-1.2-1.7-1.8c-0.7-0.6-1.6-1.1-2.5-1.6c-0.9-0.5-1.9-0.9-2.9-1.3c-1-0.4-2-0.8-3-1.1
			c-1-0.3-2-0.6-2.9-0.8c-0.9-0.2-1.7-0.4-2.4-0.5c-1.1-0.2-2.2-0.2-3.3-0.3c-1.1,0-2.1,0-3.1,0.1c-1,0.1-2,0.4-2.9,0.7
			c-0.9,0.3-1.8,0.8-2.7,1.3c-0.7,0.4-1.2,0.9-1.5,1.5c-0.4,0.5-0.6,1.1-0.8,1.5c-0.2,0.6-0.3,1.1-0.1,1.7c0.1,0.5,0.4,1.1,0.8,1.7
			c0.9,1.3,1.8,2.5,2.8,3.4c1,1,2,1.8,3,2.6s2.2,1.5,3.3,2.1c1.2,0.6,2.4,1.3,3.6,1.9l0.4,0.6c0.1,0.2,0.2,0.4,0.3,0.7
			c0,0.3,0,0.5,0,0.8c0,0.3-0.1,0.5-0.2,0.7c-0.1,0.2-0.3,0.4-0.5,0.5c-0.5,0.3-1,0.4-1.7,0.3c-0.7-0.1-1.5-0.3-2.3-0.7
			c-0.8-0.4-1.7-0.8-2.6-1.4c-0.9-0.6-1.7-1.1-2.5-1.7c-0.8-0.6-1.5-1.1-2.1-1.7c-0.6-0.5-1.1-1-1.5-1.3c-0.3-0.3-0.6-0.6-0.9-0.9
			c-0.3-0.3-0.6-0.6-0.9-1c-0.4-0.4-0.7-0.9-1.2-1.5c-0.4-0.6-1-1.3-1.6-2.2c-0.4-0.6-0.6-1.1-0.8-1.7c-0.2-0.6-0.2-1.1-0.3-1.6
			c0-0.5,0-1,0-1.4c0.1-0.4,0.1-0.7,0.2-1c0.3-1.5,0.8-2.8,1.4-3.9C135,42.8,135.8,41.9,136.9,41.2z"/>
		<path style="fill:#FFFFFF;" d="M158.1,130.7l15.5,5.2c1.2,0.4,2.1,1.1,2.7,2.1c0.6,1,0.8,2,0.4,3c-0.3,1-1.1,1.8-2.2,2.2
			c-1.1,0.4-2.3,0.4-3.4,0l-16-5.4c-2-0.7-4-1.9-5.8-3.8c-1.8-1.8-2.9-3.6-3.3-5.3l-4.4-19.8c-0.5-2.8-0.4-5.5,0.5-8
			c0.9-2.8,2.3-4.9,4.3-6.5l15.4-13c1.5-1.2,3.4-2,5.8-2.5c2.4-0.5,4.5-0.4,6.4,0.2l16.9,5.7c1.2,0.4,2.1,1.1,2.7,2.1
			c0.6,1,0.7,2,0.4,3c-0.3,1-1.1,1.8-2.1,2.2c-1.1,0.5-2.2,0.5-3.4,0.1L172.1,87c-1.4-0.5-2.7-0.1-4,1L153.5,100
			c-1.2,0.9-2,2.2-2.5,3.9c-0.6,1.7-0.7,3.4-0.3,5l4,18.1C155,128.8,156.2,130,158.1,130.7z"/>
		<path style="fill:#FFFFFF;" d="M169.2,93l12.7,4.3c1,0.3,1.7,0.8,2.3,1.6c0.6,0.7,0.7,1.4,0.5,2.1c-0.2,0.7-0.8,1.1-1.6,1.4
			c-0.9,0.2-1.8,0.2-2.8-0.1l-13.2-4.4c-1.7-0.6-3.3-1.5-4.8-2.8c-1.5-1.3-2.5-2.6-2.9-3.7l-4.5-13.7c-0.6-1.9-0.6-3.7,0-5.4
			c0.6-1.8,1.7-3.2,3.1-4.2l11.8-8.1c1.1-0.7,2.6-1.2,4.5-1.4c1.9-0.2,3.6-0.1,5.2,0.4l13.9,4.7c1,0.3,1.7,0.8,2.3,1.6
			c0.5,0.7,0.7,1.4,0.5,2.1c-0.2,0.7-0.8,1.2-1.6,1.4c-0.9,0.3-1.8,0.2-2.7-0.1l-13.4-4.5c-1.1-0.4-2.2-0.2-3.2,0.5L164,71.9
			c-0.9,0.6-1.5,1.4-1.9,2.5c-0.4,1.1-0.4,2.3,0,3.4l4.1,12.5C166.6,91.5,167.6,92.4,169.2,93z"/>
		<path style="fill:#FFFFFF;" d="M202,94.4l5.9,2c0.5,0.2,0.8,0.4,1.1,0.7c0.3,0.3,0.3,0.7,0.2,1c-0.1,0.3-0.4,0.5-0.8,0.6
			c-0.4,0.1-0.8,0.1-1.3-0.1l-6.1-2c-0.8-0.3-1.5-0.7-2.2-1.3c-0.7-0.6-1.2-1.2-1.4-1.7l-2.1-6.4c-0.3-0.9-0.3-1.7,0-2.5
			c0.3-0.8,0.8-1.5,1.5-2l5.5-3.8c0.5-0.3,1.2-0.6,2.1-0.7c0.9-0.1,1.7,0,2.4,0.2l6.5,2.2c0.5,0.2,0.8,0.4,1,0.7
			c0.2,0.3,0.3,0.7,0.2,1c-0.1,0.3-0.4,0.5-0.8,0.7c-0.4,0.1-0.8,0.1-1.3,0l-6.2-2.1c-0.5-0.2-1-0.1-1.5,0.2l-5.2,3.5
			c-0.4,0.3-0.7,0.7-0.9,1.2c-0.2,0.5-0.2,1.1,0,1.6l1.9,5.8C200.8,93.8,201.2,94.2,202,94.4z"/>
		<path style="fill:#FFFFFF;" d="M198,105.4l5.9,2c0.5,0.2,0.8,0.4,1.1,0.7c0.3,0.3,0.3,0.7,0.2,1c-0.1,0.3-0.4,0.5-0.8,0.6
			c-0.4,0.1-0.8,0.1-1.3-0.1l-6.1-2c-0.8-0.3-1.5-0.7-2.2-1.3c-0.7-0.6-1.2-1.2-1.4-1.7l-2.1-6.4c-0.3-0.9-0.3-1.7,0-2.5
			c0.3-0.8,0.8-1.5,1.5-2l5.5-3.8c0.5-0.3,1.2-0.6,2.1-0.7c0.9-0.1,1.7,0,2.4,0.2l6.5,2.2c0.5,0.2,0.8,0.4,1,0.7
			c0.2,0.3,0.3,0.7,0.2,1c-0.1,0.3-0.4,0.5-0.8,0.7c-0.4,0.1-0.8,0.1-1.3,0l-6.2-2.1c-0.5-0.2-1-0.1-1.5,0.2l-5.2,3.5
			c-0.4,0.3-0.7,0.7-0.9,1.2c-0.2,0.5-0.2,1.1,0,1.6l1.9,5.8C196.8,104.8,197.2,105.2,198,105.4z"/>
		<path style="fill:#FFFFFF;" d="M210.3,47.7l-1.7-9.6c-0.2-0.9-0.6-1.8-1.4-2.8c-0.8-1-1.6-1.7-2.5-2.1l-0.7-0.3c0,0,0,0,0,0
			c-0.3-0.5-0.8-0.8-1.4-1l-2.4-0.7l-3.8-1.7c-0.6-0.3-1.2-0.3-1.7-0.2c-0.1,0-0.3,0.1-0.4,0.1l-0.5-0.1c-1-0.3-2.1-0.3-3.3-0.1
			c-1.2,0.2-2.2,0.6-2.9,1.2l-7.6,6.2c-0.9,0.8-1.6,1.8-2,3.1c-0.4,1.2-0.3,2.4,0,3.8l2.9,9.4c0.3,0.8,0.9,1.6,1.9,2.5
			c1,0.9,2,1.5,3.1,1.8l4.3,1.3l2.5,1.1c1,0.5,2.2,0.7,3.5,0.7c1.3,0,2.3-0.2,3-0.7l8.3-5.2c1.1-0.8,2-1.7,2.5-2.9
			C210.4,50.1,210.5,48.9,210.3,47.7z M205.4,49.3c-0.4,0.8-0.9,1.4-1.5,1.8l-7.6,4.8c-0.2,0.2-0.5,0.2-0.7,0.3
			c-0.1-0.1-0.3-0.1-0.4-0.2l-3.9-1.2l-5.2-2.4c-0.2-0.1-0.4-0.2-0.7-0.2c-0.1-0.1-0.1-0.3-0.2-0.4l-2.6-8.6c-0.2-0.8-0.2-1.5,0-2.4
			c0.2-0.8,0.6-1.4,1.2-1.9l7.2-5.8c0.6-0.5,1.3-0.7,2-0.5l5.9,1.7l4.1,1.8c0.7,0.3,1.1,0.9,1.2,1.7l1.6,9.1
			C205.9,47.8,205.8,48.5,205.4,49.3z"/>
		<polygon style="fill:#FFFFFF;" points="150,138.1 162.3,142.2 145.8,153.7 		"/>
	</g>
	<path style="fill:#FFFFFF;" d="M97.9,71.8l-2.3,0.6c-4.8,4.9-8.5,10.2-10.9,15.9c-2.4,5.7-3.7,11.2-3.7,16.5
		c-0.1,5.3,0.9,9.6,2.9,13c2,3.4,5.1,6.2,9.3,8.5c8.8-3.1,16-6.7,21.9-10.8c3-0.2,5.1,0.5,6.4,2c1.2,1.6,1.8,3.8,1.7,6.8
		c-7.5,7.8-18.4,13.7-32.4,17.8c-11.2-1.5-19.8-5.4-25.9-11.7c-6.1-6.3-9.1-14.2-9-23.5c0.1-4.9,1-9.7,2.7-14.2
		c1.7-4.6,4.3-9.6,7.8-15.1c6-5.3,12.1-9.3,18.3-11.8c6.2-2.6,13.3-4.3,21.3-5.3c6.6,2.4,11.5,5.6,14.8,9.7c3.2,4,5.3,8.9,6.1,14.8
		c-1.1,3.1-4.2,5.4-9.1,6.8c-4.9,1.4-10,1-15.2-1.2C101.9,80.9,100.5,74.6,97.9,71.8z"/>
	<path style="fill:#FFFFFF;" d="M266.9,71.8l-2.3,0.6c-4.8,4.9-8.5,10.2-10.9,15.9c-2.4,5.7-3.7,11.2-3.7,16.5
		c-0.1,5.3,0.9,9.6,2.9,13c2,3.4,5.1,6.2,9.3,8.5c8.8-3.1,16-6.7,21.9-10.8c3-0.2,5.1,0.5,6.4,2c1.2,1.6,1.8,3.8,1.7,6.8
		c-7.5,7.8-18.4,13.7-32.4,17.8c-11.2-1.5-19.8-5.4-25.9-11.7c-6.1-6.3-9.1-14.2-9-23.5c0.1-4.9,1-9.7,2.7-14.2
		c1.7-4.6,4.3-9.6,7.8-15.1c6-5.3,12.1-9.3,18.3-11.8c6.2-2.6,13.3-4.3,21.3-5.3c6.6,2.4,11.5,5.6,14.8,9.7c3.2,4,5.3,8.9,6.1,14.8
		c-1.1,3.1-4.2,5.4-9.1,6.8c-4.9,1.4-10,1-15.2-1.2C270.9,80.9,269.4,74.6,266.9,71.8z"/>
	<path style="fill:#FFFFFF;" d="M344.2,71.8l-2.3,0.6c-4.8,4.9-8.5,10.2-10.9,15.9c-2.4,5.7-3.7,11.2-3.7,16.5
		c-0.1,5.3,0.9,9.6,2.9,13c2,3.4,5.1,6.2,9.3,8.5c8.8-3.1,16-6.7,21.9-10.8c3-0.2,5.1,0.5,6.4,2c1.2,1.6,1.8,3.8,1.7,6.8
		c-7.5,7.8-18.4,13.7-32.4,17.8c-11.2-1.5-19.8-5.4-25.9-11.7c-6.1-6.3-9.1-14.2-9-23.5c0.1-4.9,1-9.7,2.7-14.2
		c1.7-4.6,4.3-9.6,7.8-15.1c6-5.3,12.1-9.3,18.3-11.8c6.2-2.6,13.3-4.3,21.3-5.3c6.6,2.4,11.5,5.6,14.8,9.7c3.2,4,5.3,8.9,6.1,14.8
		c-1.1,3.1-4.2,5.4-9.1,6.8c-4.9,1.4-10,1-15.2-1.2C348.2,80.9,346.8,74.6,344.2,71.8z"/>
</g>
<rect x="-720.5" y="370.1" style="fill:none;" width="393" height="204"/>
<text transform="matrix(1 0 0 1 -720.4513 418.7368)" style="font-family:'Tillana-ExtraBold'; font-size:57px;">CECC</text>
<rect x="756.9" y="482.6" style="fill:none;" width="373" height="108.9"/>
<text transform="matrix(1 0 0 1 827.2772 503.9604)"><tspan x="0" y="0" style="font-family:'Tillana-ExtraBold'; font-size:25px;">Cultura &#xC9;tica y </tspan><tspan x="-57.1" y="30" style="font-family:'Tillana-ExtraBold'; font-size:25px;">Convivencia Ciudadana</tspan></text>
<path style="fill:#303F9F;" d="M448.5,477.9l-47.1-81.6c-1.7-3-5-4.9-8.4-4.9h-65c-1.8-0.3-3.7-0.4-5.7-0.4H106
	c-2,0-3.9,0.1-5.7,0.4H73.8c-3.5,0-6.7,1.9-8.4,4.9l-47.1,81.6c-1.7,3-1.7,6.7,0,9.7l47.1,81.6c1.7,3,5,4.9,8.4,4.9H168
	c1,0,1.9-0.2,2.8-0.4H296c0.9,0.3,1.8,0.4,2.8,0.4H393c3.5,0,6.7-1.9,8.4-4.9l47.1-81.6C450.2,484.6,450.2,480.9,448.5,477.9z"/>
<g>
	<g>
		<path style="fill:#FFFFFF;" d="M147.7,441.7c0.7-0.6,1.7-1.2,2.8-1.7c1.1-0.6,2.3-0.9,3.6-1.2c1.8-0.3,3.6-0.5,5.4-0.6
			c1.8-0.1,3.6-0.1,5.3,0.1c1.7,0.1,3.3,0.3,4.8,0.6c1.5,0.3,2.8,0.7,3.8,1.1l0,0c0.7,0.3,1.4,0.6,2.2,0.9c0.8,0.3,1.5,0.7,2.3,1.1
			c0.7,0.4,1.4,0.8,2.1,1.3c0.7,0.5,1.2,1,1.7,1.6c0.5,0.6,0.9,1.3,1.1,2c0.2,0.7,0.3,1.4,0.3,2.2c0,0.7-0.2,1.4-0.5,2
			c-0.3,0.6-0.7,1.2-1.3,1.7c-0.4,0.3-0.7,0.5-1,0.7c-0.3,0.1-0.5,0.2-0.7,0.2c-0.2,0-0.4-0.1-0.5-0.2c-0.2-0.1-0.3-0.3-0.5-0.5
			c-0.3-0.3-0.4-0.6-0.4-0.9c0-0.3,0-0.5,0.1-0.8c0.1-0.2,0.2-0.5,0.4-0.7c0.2-0.2,0.3-0.5,0.4-0.7c0.1-0.2,0.2-0.4,0.2-0.7
			c0-0.2-0.1-0.4-0.2-0.7c-0.5-0.6-1.1-1.1-1.9-1.6c-0.8-0.5-1.6-0.9-2.6-1.3c-1-0.4-2-0.7-3-1c-1.1-0.3-2.1-0.6-3.1-0.8
			c-1-0.2-2-0.4-3-0.5c-0.9-0.1-1.8-0.2-2.5-0.3c-1.1,0-2.2,0-3.3,0c-1.1,0.1-2.1,0.2-3.1,0.4c-1,0.2-1.9,0.5-2.8,0.9
			c-0.9,0.4-1.7,0.9-2.5,1.6c-0.6,0.5-1.1,1-1.4,1.6c-0.3,0.6-0.5,1.1-0.7,1.6c-0.2,0.6-0.1,1.1,0,1.7c0.2,0.5,0.5,1.1,1,1.6
			c1,1.2,2,2.3,3.1,3.2c1.1,0.9,2.1,1.7,3.3,2.3c1.1,0.7,2.3,1.3,3.5,1.8c1.2,0.5,2.5,1.1,3.8,1.6l0.5,0.6c0.2,0.2,0.3,0.4,0.3,0.7
			c0.1,0.3,0.1,0.5,0.1,0.8c0,0.3-0.1,0.5-0.2,0.8c-0.1,0.2-0.2,0.4-0.4,0.6c-0.4,0.3-1,0.5-1.7,0.5c-0.7,0-1.5-0.2-2.4-0.5
			c-0.9-0.3-1.7-0.7-2.7-1.1c-0.9-0.5-1.8-1-2.7-1.5c-0.8-0.5-1.6-1-2.3-1.5c-0.7-0.5-1.2-0.9-1.6-1.2c-0.3-0.3-0.6-0.5-0.9-0.8
			c-0.3-0.3-0.6-0.6-1-0.9c-0.4-0.4-0.8-0.8-1.3-1.3c-0.5-0.5-1.1-1.2-1.8-2.1c-0.4-0.5-0.7-1.1-0.9-1.6c-0.2-0.6-0.4-1.1-0.4-1.6
			c-0.1-0.5-0.1-1-0.1-1.4c0-0.4,0.1-0.8,0.1-1c0.2-1.6,0.5-2.9,1.1-4C145.9,443.5,146.7,442.6,147.7,441.7z"/>
		<path style="fill:#FFFFFF;" d="M153.9,432.2c0.8-0.5,1.8-1,2.9-1.5c1.1-0.5,2.4-0.7,3.7-0.8c1.8-0.1,3.6-0.2,5.5-0.1
			c1.8,0.1,3.6,0.3,5.3,0.6c1.7,0.3,3.2,0.6,4.7,1c1.4,0.4,2.7,0.9,3.7,1.5l0,0c0.7,0.3,1.4,0.7,2.1,1.1s1.4,0.8,2.1,1.3
			c0.7,0.5,1.4,0.9,2,1.5c0.6,0.5,1.1,1.1,1.6,1.8c0.4,0.7,0.7,1.3,0.9,2.1c0.2,0.7,0.2,1.5,0.1,2.2c-0.1,0.7-0.3,1.4-0.7,2
			c-0.4,0.6-0.8,1.1-1.4,1.5c-0.4,0.3-0.8,0.5-1,0.6c-0.3,0.1-0.5,0.1-0.7,0.1c-0.2,0-0.4-0.1-0.5-0.3c-0.1-0.2-0.3-0.4-0.5-0.6
			c-0.2-0.3-0.3-0.7-0.3-0.9c0-0.3,0.1-0.5,0.2-0.8c0.1-0.2,0.3-0.5,0.4-0.7c0.2-0.2,0.3-0.4,0.5-0.6c0.1-0.2,0.2-0.4,0.3-0.6
			c0-0.2,0-0.4-0.2-0.7c-0.4-0.6-1-1.2-1.7-1.8c-0.7-0.6-1.6-1.1-2.5-1.6c-0.9-0.5-1.9-0.9-2.9-1.3c-1-0.4-2-0.8-3-1.1
			c-1-0.3-2-0.6-2.9-0.8c-0.9-0.2-1.7-0.4-2.4-0.5c-1.1-0.2-2.2-0.2-3.3-0.3c-1.1,0-2.1,0-3.1,0.1c-1,0.1-2,0.4-2.9,0.7
			c-0.9,0.3-1.8,0.8-2.7,1.3c-0.7,0.4-1.2,0.9-1.5,1.5c-0.4,0.5-0.6,1.1-0.8,1.5c-0.2,0.6-0.3,1.1-0.1,1.7c0.1,0.5,0.4,1.1,0.8,1.7
			c0.9,1.3,1.8,2.5,2.8,3.4c1,1,2,1.8,3,2.6c1.1,0.8,2.2,1.5,3.3,2.1c1.2,0.6,2.4,1.3,3.6,1.9l0.4,0.6c0.1,0.2,0.2,0.4,0.3,0.7
			c0,0.3,0,0.5,0,0.8c0,0.3-0.1,0.5-0.2,0.7c-0.1,0.2-0.3,0.4-0.5,0.5c-0.5,0.3-1,0.4-1.7,0.3c-0.7-0.1-1.5-0.3-2.3-0.7
			c-0.8-0.4-1.7-0.8-2.6-1.4c-0.9-0.6-1.7-1.1-2.5-1.7c-0.8-0.6-1.5-1.1-2.1-1.7c-0.6-0.5-1.1-1-1.5-1.3c-0.3-0.3-0.6-0.6-0.9-0.9
			c-0.3-0.3-0.6-0.6-0.9-1c-0.4-0.4-0.7-0.9-1.2-1.5c-0.4-0.6-1-1.3-1.6-2.2c-0.4-0.6-0.6-1.1-0.8-1.7c-0.2-0.6-0.2-1.1-0.3-1.6
			c0-0.5,0-1,0-1.4c0.1-0.4,0.1-0.7,0.2-1c0.3-1.5,0.8-2.8,1.4-3.9C152,433.8,152.8,432.9,153.9,432.2z"/>
		<path style="fill:#FFFFFF;" d="M175.1,521.7l15.5,5.2c1.2,0.4,2.1,1.1,2.7,2.1c0.6,1,0.8,2,0.4,3c-0.3,1-1.1,1.8-2.2,2.2
			c-1.1,0.4-2.3,0.4-3.4,0l-16-5.4c-2-0.7-4-1.9-5.8-3.8c-1.8-1.8-2.9-3.6-3.3-5.3l-4.4-19.8c-0.5-2.8-0.4-5.5,0.5-8
			c0.9-2.8,2.3-4.9,4.3-6.5l15.4-13c1.5-1.2,3.4-2,5.8-2.5c2.4-0.5,4.5-0.4,6.4,0.2l16.9,5.7c1.2,0.4,2.1,1.1,2.7,2.1
			c0.6,1,0.7,2,0.4,3c-0.3,1-1.1,1.8-2.1,2.2c-1.1,0.5-2.2,0.5-3.4,0.1l-16.3-5.5c-1.4-0.5-2.7-0.1-4,1L170.5,491
			c-1.2,0.9-2,2.2-2.5,3.9c-0.6,1.7-0.7,3.4-0.3,5l4,18.1C172,519.8,173.2,521,175.1,521.7z"/>
		<path style="fill:#FFFFFF;" d="M186.2,484l12.7,4.3c1,0.3,1.7,0.8,2.3,1.6c0.6,0.7,0.7,1.4,0.5,2.1c-0.2,0.7-0.8,1.1-1.6,1.4
			c-0.9,0.2-1.8,0.2-2.8-0.1l-13.2-4.4c-1.7-0.6-3.3-1.5-4.8-2.8c-1.5-1.3-2.5-2.6-2.9-3.7l-4.5-13.7c-0.6-1.9-0.6-3.7,0-5.4
			c0.6-1.8,1.7-3.2,3.1-4.2l11.8-8.1c1.1-0.7,2.6-1.2,4.5-1.4c1.9-0.2,3.6-0.1,5.2,0.4l13.9,4.7c1,0.3,1.7,0.8,2.3,1.6
			c0.5,0.7,0.7,1.4,0.5,2.1c-0.2,0.7-0.8,1.2-1.6,1.4c-0.9,0.3-1.8,0.2-2.7-0.1l-13.4-4.5c-1.1-0.4-2.2-0.2-3.2,0.5l-11.2,7.5
			c-0.9,0.6-1.5,1.4-1.9,2.5c-0.4,1.1-0.4,2.3,0,3.4l4.1,12.5C183.6,482.5,184.6,483.4,186.2,484z"/>
		<path style="fill:#FFFFFF;" d="M219,485.4l5.9,2c0.5,0.2,0.8,0.4,1.1,0.7c0.3,0.3,0.3,0.7,0.2,1c-0.1,0.3-0.4,0.5-0.8,0.6
			c-0.4,0.1-0.8,0.1-1.3-0.1l-6.1-2c-0.8-0.3-1.5-0.7-2.2-1.3c-0.7-0.6-1.2-1.2-1.4-1.7l-2.1-6.4c-0.3-0.9-0.3-1.7,0-2.5
			c0.3-0.8,0.8-1.5,1.5-2l5.5-3.8c0.5-0.3,1.2-0.6,2.1-0.7c0.9-0.1,1.7,0,2.4,0.2l6.5,2.2c0.5,0.2,0.8,0.4,1,0.7
			c0.2,0.3,0.3,0.7,0.2,1c-0.1,0.3-0.4,0.5-0.8,0.7c-0.4,0.1-0.8,0.1-1.3,0l-6.2-2.1c-0.5-0.2-1-0.1-1.5,0.2l-5.2,3.5
			c-0.4,0.3-0.7,0.7-0.9,1.2c-0.2,0.5-0.2,1.1,0,1.6l1.9,5.8C217.8,484.8,218.2,485.2,219,485.4z"/>
		<path style="fill:#FFFFFF;" d="M215,496.4l5.9,2c0.5,0.2,0.8,0.4,1.1,0.7c0.3,0.3,0.3,0.7,0.2,1c-0.1,0.3-0.4,0.5-0.8,0.6
			c-0.4,0.1-0.8,0.1-1.3-0.1l-6.1-2c-0.8-0.3-1.5-0.7-2.2-1.3c-0.7-0.6-1.2-1.2-1.4-1.7l-2.1-6.4c-0.3-0.9-0.3-1.7,0-2.5
			c0.3-0.8,0.8-1.5,1.5-2l5.5-3.8c0.5-0.3,1.2-0.6,2.1-0.7c0.9-0.1,1.7,0,2.4,0.2l6.5,2.2c0.5,0.2,0.8,0.4,1,0.7
			c0.2,0.3,0.3,0.7,0.2,1c-0.1,0.3-0.4,0.5-0.8,0.7c-0.4,0.1-0.8,0.1-1.3,0l-6.2-2.1c-0.5-0.2-1-0.1-1.5,0.2l-5.2,3.5
			c-0.4,0.3-0.7,0.7-0.9,1.2c-0.2,0.5-0.2,1.1,0,1.6l1.9,5.8C213.8,495.8,214.2,496.2,215,496.4z"/>
		<path style="fill:#FFFFFF;" d="M227.3,438.7l-1.7-9.6c-0.2-0.9-0.6-1.8-1.4-2.8c-0.8-1-1.6-1.7-2.5-2.1l-0.7-0.3c0,0,0,0,0,0
			c-0.3-0.5-0.8-0.8-1.4-1l-2.4-0.7l-3.8-1.7c-0.6-0.3-1.2-0.3-1.7-0.2c-0.1,0-0.3,0.1-0.4,0.1l-0.5-0.1c-1-0.3-2.1-0.3-3.3-0.1
			c-1.2,0.2-2.2,0.6-2.9,1.2l-7.6,6.2c-0.9,0.8-1.6,1.8-2,3.1c-0.4,1.2-0.3,2.4,0,3.8l2.9,9.4c0.3,0.8,0.9,1.6,1.9,2.5
			c1,0.9,2,1.5,3.1,1.8l4.3,1.3l2.5,1.1c1,0.5,2.2,0.7,3.5,0.7c1.3,0,2.3-0.2,3-0.7l8.3-5.2c1.1-0.8,2-1.7,2.5-2.9
			C227.4,441.1,227.5,439.9,227.3,438.7z M222.4,440.3c-0.4,0.8-0.9,1.4-1.5,1.8l-7.6,4.8c-0.2,0.2-0.5,0.2-0.7,0.3
			c-0.1-0.1-0.3-0.1-0.4-0.2l-3.9-1.2l-5.2-2.4c-0.2-0.1-0.4-0.2-0.7-0.2c-0.1-0.1-0.1-0.3-0.2-0.4l-2.6-8.6c-0.2-0.8-0.2-1.5,0-2.4
			c0.2-0.8,0.6-1.4,1.2-1.9l7.2-5.8c0.6-0.5,1.3-0.7,2-0.5l5.9,1.7l4.1,1.8c0.7,0.3,1.1,0.9,1.2,1.7l1.6,9.1
			C222.9,438.8,222.8,439.5,222.4,440.3z"/>
		<polygon style="fill:#FFFFFF;" points="167,529.1 179.3,533.2 162.8,544.7 		"/>
	</g>
	<path style="fill:#FFFFFF;" d="M114.9,462.8l-2.3,0.6c-4.8,4.9-8.5,10.2-10.9,15.9c-2.4,5.7-3.7,11.2-3.7,16.5
		c-0.1,5.3,0.9,9.6,2.9,13c2,3.4,5.1,6.2,9.3,8.5c8.8-3.1,16-6.7,21.9-10.8c3-0.2,5.1,0.5,6.4,2c1.2,1.6,1.8,3.8,1.7,6.8
		c-7.5,7.8-18.4,13.7-32.4,17.8c-11.2-1.5-19.8-5.4-25.9-11.7c-6.1-6.3-9.1-14.2-9-23.5c0.1-4.9,1-9.7,2.7-14.2
		c1.7-4.6,4.3-9.6,7.8-15.1c6-5.3,12.1-9.3,18.3-11.8c6.2-2.6,13.3-4.3,21.3-5.3c6.6,2.4,11.5,5.6,14.8,9.7c3.2,4,5.3,8.9,6.1,14.8
		c-1.1,3.1-4.2,5.4-9.1,6.8c-4.9,1.4-10,1-15.2-1.2C118.9,471.9,117.5,465.6,114.9,462.8z"/>
	<path style="fill:#FFFFFF;" d="M283.9,462.8l-2.3,0.6c-4.8,4.9-8.5,10.2-10.9,15.9c-2.4,5.7-3.7,11.2-3.7,16.5
		c-0.1,5.3,0.9,9.6,2.9,13c2,3.4,5.1,6.2,9.3,8.5c8.8-3.1,16-6.7,21.9-10.8c3-0.2,5.1,0.5,6.4,2c1.2,1.6,1.8,3.8,1.7,6.8
		c-7.5,7.8-18.4,13.7-32.4,17.8c-11.2-1.5-19.8-5.4-25.9-11.7c-6.1-6.3-9.1-14.2-9-23.5c0.1-4.9,1-9.7,2.7-14.2
		c1.7-4.6,4.3-9.6,7.8-15.1c6-5.3,12.1-9.3,18.3-11.8c6.2-2.6,13.3-4.3,21.3-5.3c6.6,2.4,11.5,5.6,14.8,9.7c3.2,4,5.3,8.9,6.1,14.8
		c-1.1,3.1-4.2,5.4-9.1,6.8c-4.9,1.4-10,1-15.2-1.2C287.9,471.9,286.4,465.6,283.9,462.8z"/>
	<path style="fill:#FFFFFF;" d="M361.2,462.8l-2.3,0.6c-4.8,4.9-8.5,10.2-10.9,15.9c-2.4,5.7-3.7,11.2-3.7,16.5
		c-0.1,5.3,0.9,9.6,2.9,13c2,3.4,5.1,6.2,9.3,8.5c8.8-3.1,16-6.7,21.9-10.8c3-0.2,5.1,0.5,6.4,2c1.2,1.6,1.8,3.8,1.7,6.8
		c-7.5,7.8-18.4,13.7-32.4,17.8c-11.2-1.5-19.8-5.4-25.9-11.7c-6.1-6.3-9.1-14.2-9-23.5c0.1-4.9,1-9.7,2.7-14.2
		c1.7-4.6,4.3-9.6,7.8-15.1c6-5.3,12.1-9.3,18.3-11.8c6.2-2.6,13.3-4.3,21.3-5.3c6.6,2.4,11.5,5.6,14.8,9.7c3.2,4,5.3,8.9,6.1,14.8
		c-1.1,3.1-4.2,5.4-9.1,6.8c-4.9,1.4-10,1-15.2-1.2C365.2,471.9,363.8,465.6,361.2,462.8z"/>
</g>
<g>
	<path style="fill:#FFFFFF;" d="M77.1,550.7l-0.3,0.1c-0.6,0.6-1.1,1.3-1.4,2.1c-0.3,0.7-0.5,1.5-0.5,2.2c0,0.7,0.1,1.3,0.4,1.7
		c0.3,0.4,0.6,0.8,1.2,1.1c1.1-0.4,2-0.9,2.8-1.4c0.4,0,0.6,0.1,0.8,0.3c0.2,0.2,0.2,0.5,0.2,0.9c-1,1-2.3,1.8-4.1,2.3
		c-1.4-0.2-2.5-0.7-3.3-1.5c-0.8-0.8-1.2-1.9-1.1-3.1c0-0.6,0.1-1.3,0.3-1.9c0.2-0.6,0.5-1.3,1-2c0.8-0.7,1.5-1.2,2.3-1.6
		c0.8-0.3,1.7-0.6,2.7-0.7c0.8,0.3,1.5,0.7,1.9,1.3c0.4,0.5,0.7,1.2,0.8,1.9c-0.1,0.4-0.5,0.7-1.2,0.9c-0.6,0.2-1.3,0.1-1.9-0.2
		C77.7,551.9,77.5,551,77.1,550.7z"/>
	<path style="fill:#FFFFFF;" d="M82.2,555.5l-0.3-3.3c0.6-0.2,1.2-0.3,1.9-0.2c0.7,0.1,1.2,0.4,1.5,0.8c0,0.5-0.1,1.1-0.4,1.9
		c-0.3,0.8-0.5,1.5-0.9,2.1c0.1,0.3,0.4,0.5,1,0.7c0.8-0.8,1.3-1.4,1.6-1.8c0.3-1.7,0.6-2.9,0.8-3.7c0.9-0.2,1.7-0.2,2.2-0.1
		s0.8,0.4,1,0.8l-1.2,2.4c0,1.2,0.2,2.6,0.4,4.1c-0.3,0.4-0.8,0.5-1.6,0.4c-0.8-0.1-1.5-0.3-2-0.8l0.6-1.3l-0.2-0.1
		c-0.2,0.2-0.8,1-1.9,2.2c-2.1-0.2-3.3-1-3.6-2.3L82.2,555.5z"/>
	<path style="fill:#FFFFFF;" d="M93.1,552.4l-0.2-3.7c0.6-0.4,1.2-0.6,1.8-0.7c0.6-0.1,1.1,0,1.6,0.2l-1,3.4c-0.3,5-0.4,7.6-0.4,7.8
		c-0.3,0.3-0.7,0.4-1.2,0.4c-0.6,0-1.1,0-1.6-0.2c-0.5-0.1-0.8-0.3-0.9-0.6C92.1,557.3,92.7,555,93.1,552.4z"/>
	<path style="fill:#FFFFFF;" d="M101.3,553L101.3,553c-0.1,0.8-0.2,1.8-0.3,3c-0.1,1.2-0.2,1.9-0.2,2.1c0.7-0.4,1.5-0.8,2.2-1.4
		c0.4,0,0.6,0.1,0.8,0.3c0.1,0.2,0.2,0.5,0.1,0.9c-1.2,1.1-2.4,1.7-3.6,2c-1.4-0.1-2.3-0.7-2.7-1.7c0.6-1.6,1.1-3.2,1.5-4.8
		l-1.8,0.3c-0.2-0.3-0.4-0.5-0.4-0.8c0-0.2,0.1-0.5,0.3-0.9l2,0.1l-0.2-2.6c0.7-0.4,1.4-0.6,2-0.7c0.6,0,1,0.1,1.3,0.5l-0.7,2.4
		l2.4-0.4c0.4,0.4,0.4,0.9,0,1.6L101.3,553z"/>
	<path style="fill:#FFFFFF;" d="M105.7,555.5l-0.3-3.3c0.6-0.2,1.2-0.3,1.9-0.2c0.7,0.1,1.2,0.4,1.5,0.8c0,0.5-0.1,1.1-0.4,1.9
		c-0.3,0.8-0.5,1.5-0.9,2.1c0.1,0.3,0.4,0.5,1,0.7c0.8-0.8,1.3-1.4,1.6-1.8c0.3-1.7,0.6-2.9,0.8-3.7c0.9-0.2,1.7-0.2,2.2-0.1
		c0.5,0.1,0.8,0.4,1,0.8l-1.2,2.4c0,1.2,0.2,2.6,0.4,4.1c-0.3,0.4-0.8,0.5-1.6,0.4c-0.8-0.1-1.5-0.3-2-0.8l0.6-1.3l-0.2-0.1
		c-0.2,0.2-0.8,1-1.9,2.2c-2.1-0.2-3.3-1-3.6-2.3L105.7,555.5z"/>
	<path style="fill:#FFFFFF;" d="M118.5,554.2l2.3-2.2c0.7,0.2,1.2,0.5,1.6,1c0.4,0.5,0.6,1.2,0.7,2c-0.4,0.4-0.8,0.6-1.3,0.6
		c-0.5,0.1-1,0-1.5-0.3c0-0.2-0.1-0.5-0.2-1c-0.1,0.1-0.6,0.5-1.3,1.1c0,1.1-0.1,2.4-0.2,4c-0.5,0.4-1.1,0.5-2,0.4
		c-0.9-0.1-1.4-0.4-1.6-0.7c0.5-1.3,1-2.7,1.4-4l-0.5-2.2c0.4-0.4,0.9-0.6,1.5-0.7c0.6-0.1,1-0.1,1.5-0.1c0.1,0.4,0.2,0.8,0.2,1.2
		l-0.5,0.6L118.5,554.2z"/>
	<path style="fill:#FFFFFF;" d="M123.3,556.6c0-1.1,0.5-2.1,1.5-3.1c1-1,2.3-1.5,3.9-1.5c0.4,0.3,0.8,0.9,1.2,1.7
		c0-0.7,0-1.2,0.3-1.5c0.9-0.2,1.7-0.2,2.1-0.1c0.5,0.1,0.8,0.4,1,0.9l-1.3,2.4c0,1.3,0.1,2.7,0.3,4.1c-0.3,0.4-0.8,0.5-1.6,0.4
		c-0.8-0.1-1.4-0.3-2-0.8l0.6-1.2l-0.2-0.3c-0.9,0.8-1.6,1.5-2.1,2.1c-1.2-0.1-2.2-0.4-2.7-0.9C123.6,558.2,123.3,557.5,123.3,556.6
		z M127.2,555c-0.3,0.5-0.5,1-0.5,1.6c0,0.5,0.2,0.9,0.5,1.1c0.6-0.4,1.4-1,2.4-1.8l0.1-0.8c-0.3-0.6-0.7-1.1-1.1-1.3
		C128,554.1,127.5,554.5,127.2,555z"/>
	<path style="fill:#FFFFFF;" d="M146.8,551c-0.8,0-1.4,0-1.8,0.1l-0.4,1l-0.4,1.9c1.7-0.3,2.8-0.4,3.1-0.4c0.2,0.1,0.3,0.3,0.3,0.6
		c0.1,0.4,0,0.9-0.3,1.4c-1.2-0.1-2.3-0.2-3.3-0.2l-0.5,2.8c1.9-0.3,3.4-0.6,4.4-0.9c0.3,0.1,0.5,0.3,0.6,0.6c0.2,0.5,0,1.1-0.5,1.7
		l-5.5,0.3c-1.4-0.3-2.1-1-2.2-1.9c0-0.1,0.1-0.4,0.3-0.8c0.1-0.4,0.2-0.7,0.3-0.8c0-0.1,0.1-0.3,0.2-0.6c0.1-0.3,0.2-0.5,0.2-0.7
		c0-0.1,0.1-0.3,0.2-0.6c0.1-0.3,0.1-0.5,0.2-0.8c0.1-0.2,0.1-0.5,0.2-0.8l-0.1-1.9c-0.4-0.1-0.7-0.2-1-0.3
		c-0.1-0.2-0.1-0.4-0.1-0.7c0-0.2,0.1-0.4,0.2-0.5c1.7-0.1,3.1-0.2,4.2-0.2c1.1,0,2.5,0,4.2,0.1c0.5,1.2,0.1,2.2-1.2,2.8L146.8,551z
		 M146.5,545.1c0.7-0.1,1.3-0.1,1.7,0.1c0.4,0.1,0.7,0.5,0.9,0.9l-2.9,2.5c-0.3,0-0.6-0.1-0.8-0.2c-0.2-0.1-0.4-0.3-0.3-0.5l1-1.3
		L146.5,545.1z"/>
	<path style="fill:#FFFFFF;" d="M154.5,553L154.5,553c-0.1,0.8-0.2,1.8-0.3,3c-0.1,1.2-0.2,1.9-0.2,2.1c0.7-0.4,1.5-0.8,2.2-1.4
		c0.4,0,0.6,0.1,0.8,0.3c0.1,0.2,0.2,0.5,0.1,0.9c-1.2,1.1-2.4,1.7-3.6,2c-1.4-0.1-2.3-0.7-2.7-1.7c0.6-1.6,1.1-3.2,1.5-4.8
		l-1.8,0.3c-0.2-0.3-0.4-0.5-0.4-0.8c0-0.2,0.1-0.5,0.3-0.9l2,0.1l-0.2-2.6c0.7-0.4,1.4-0.6,2-0.7c0.6,0,1,0.1,1.3,0.5l-0.7,2.4
		l2.4-0.4c0.4,0.4,0.4,0.9,0,1.6L154.5,553z"/>
	<path style="fill:#FFFFFF;" d="M159.1,555.4l-0.1-2.8c1.4-0.6,2.4-0.7,3.2-0.2l-0.7,2.5c-0.1,0.7-0.1,2.2-0.2,4.5
		c-0.4,0.4-1.1,0.5-1.8,0.4c-0.8-0.1-1.3-0.3-1.7-0.7C158.4,557.6,158.9,556.3,159.1,555.4z M162.4,549.6c0,0.4-0.1,0.8-0.4,1.1
		c-0.3,0.3-0.7,0.5-1.1,0.5c-0.4,0-0.8-0.2-1.1-0.5c-0.3-0.3-0.5-0.7-0.5-1.1s0.2-0.8,0.5-1.1c0.3-0.3,0.7-0.5,1.1-0.5
		c0.4,0,0.8,0.2,1.1,0.5C162.3,548.9,162.4,549.2,162.4,549.6z"/>
	<path style="fill:#FFFFFF;" d="M162.9,556.7c0-0.6,0.1-1.2,0.3-1.6c0.2-0.5,0.6-0.9,1-1.4c1.1-1,2.4-1.6,3.8-1.9
		c0.9,0.2,1.5,0.4,1.9,0.8c0.2,0.2,0.3,0.4,0.4,0.7c0.1,0.2,0.2,0.5,0.3,0.9c-0.1,0.5-0.4,0.9-1,1.1c-0.5,0.2-1.2,0.3-2.1,0.2
		c0.1-0.6,0-1.3-0.4-2.1l-0.4,0.1c-0.5,0.8-0.8,1.7-0.8,2.6c0,0.8,0.2,1.4,0.7,2c1-0.3,1.9-0.7,2.7-1.3c0.3,0,0.6,0.1,0.7,0.3
		c0.2,0.2,0.2,0.5,0.1,1c-0.4,0.4-1,0.8-1.7,1.1s-1.5,0.5-2.3,0.6c-1.2-0.1-2.1-0.5-2.7-1.1C163.2,558.2,162.9,557.5,162.9,556.7z"
		/>
	<path style="fill:#FFFFFF;" d="M171.5,556.6c0-1.1,0.5-2.1,1.5-3.1c1-1,2.3-1.5,3.9-1.5c0.4,0.3,0.8,0.9,1.2,1.7
		c0-0.7,0-1.2,0.3-1.5c0.9-0.2,1.7-0.2,2.1-0.1c0.5,0.1,0.8,0.4,1,0.9l-1.3,2.4c0,1.3,0.1,2.7,0.3,4.1c-0.3,0.4-0.8,0.5-1.6,0.4
		c-0.8-0.1-1.4-0.3-2-0.8l0.6-1.2l-0.2-0.3c-0.9,0.8-1.6,1.5-2.1,2.1c-1.2-0.1-2.2-0.4-2.7-0.9C171.8,558.2,171.5,557.5,171.5,556.6
		z M175.4,555c-0.3,0.5-0.5,1-0.5,1.6c0,0.5,0.2,0.9,0.5,1.1c0.6-0.4,1.4-1,2.4-1.8l0.1-0.8c-0.3-0.6-0.7-1.1-1.1-1.3
		C176.2,554.1,175.7,554.5,175.4,555z"/>
	<path style="fill:#FFFFFF;" d="M193.5,555.9L193.5,555.9c0.2-1.8,0.4-3,0.6-3.7c1-0.2,1.7-0.2,2.2-0.1s0.8,0.4,1,0.8l-1.5,2.5
		c-0.5,3.5-0.7,5.8-0.7,7.2c-0.5,0.6-1.1,1.1-1.8,1.3c-0.8,0.3-1.7,0.4-2.9,0.4c-1.5-0.7-2.4-1.6-2.7-2.7c0.4-0.6,0.9-1,1.5-1.2
		c0.5-0.2,1.1-0.1,1.5,0.1c0.1,0.5,0.2,0.8,0.4,1.1c0.1,0.3,0.3,0.6,0.5,0.9c0.5,0,0.8-0.1,0.9-0.4c0.1-1.1,0.2-2,0.4-2.8l0.7-1.3
		l-0.2-0.2c-0.4,0.5-1,1.1-1.6,1.7c-0.9-0.1-1.7-0.4-2.3-0.7c-0.6-0.4-1-0.9-1.1-1.5l0.7-1.8c0-0.5-0.1-1-0.1-1.7
		c-0.1-0.7-0.1-1.2-0.1-1.5c0.3-0.1,0.7-0.2,1.2-0.2s0.9,0.1,1.3,0.2c0.4,0.2,0.8,0.4,1.1,0.7c-0.1,1.1-0.5,2.4-1.1,3.8
		c0.1,0.3,0.4,0.5,0.7,0.7C192.5,557,193,556.5,193.5,555.9z"/>
	<path style="fill:#FFFFFF;" d="M209.1,550.7l-0.3,0.1c-0.6,0.6-1.1,1.3-1.4,2.1c-0.3,0.7-0.5,1.5-0.5,2.2c0,0.7,0.1,1.3,0.4,1.7
		c0.3,0.4,0.6,0.8,1.2,1.1c1.1-0.4,2-0.9,2.8-1.4c0.4,0,0.6,0.1,0.8,0.3c0.2,0.2,0.2,0.5,0.2,0.9c-1,1-2.3,1.8-4.1,2.3
		c-1.4-0.2-2.5-0.7-3.3-1.5c-0.8-0.8-1.2-1.9-1.1-3.1c0-0.6,0.1-1.3,0.3-1.9c0.2-0.6,0.5-1.3,1-2c0.8-0.7,1.5-1.2,2.3-1.6
		c0.8-0.3,1.7-0.6,2.7-0.7c0.8,0.3,1.5,0.7,1.9,1.3c0.4,0.5,0.7,1.2,0.8,1.9c-0.1,0.4-0.5,0.7-1.2,0.9c-0.6,0.2-1.3,0.1-1.9-0.2
		C209.6,551.9,209.4,551,209.1,550.7z"/>
	<path style="fill:#FFFFFF;" d="M213.2,556.4c0-0.4,0.1-0.9,0.4-1.4c0.2-0.5,0.6-1,1-1.5c0.4-0.5,0.9-0.9,1.6-1.2
		c0.7-0.3,1.4-0.5,2.1-0.5s1.5,0.4,2.2,1.2c0.7,0.8,1.1,1.6,1.1,2.4c0,0.7-0.2,1.4-0.7,2c-0.5,0.7-1.1,1.2-1.9,1.7
		c-0.8,0.4-1.6,0.7-2.4,0.7c-0.8,0-1.6-0.4-2.3-1.1C213.5,558,213.2,557.3,213.2,556.4z M217.8,553.3c-0.5,0.5-0.9,1-1.2,1.6
		c-0.3,0.6-0.5,1.2-0.5,1.8c0,0.3,0.1,0.6,0.2,1c0.1,0.3,0.3,0.6,0.5,0.9c0.9-0.7,1.5-1.5,1.8-2.4c0-0.6-0.1-1.2-0.2-1.6
		C218.4,554.1,218.1,553.7,217.8,553.3z"/>
	<path style="fill:#FFFFFF;" d="M231.3,554.1l-0.7,2.2c0,1.1,0.1,2.2,0.4,3.2c-0.3,0.4-0.8,0.5-1.6,0.4c-0.8-0.1-1.4-0.3-2-0.8
		c0-0.6,0.1-1.4,0.3-2.2c0.2-0.8,0.3-1.5,0.5-2c-0.1-0.3-0.3-0.6-0.5-0.7c-0.5,0.3-1.2,0.8-1.9,1.5c0,1-0.1,2.2-0.2,3.8
		c-0.5,0.4-1.1,0.5-2,0.4c-0.9-0.1-1.4-0.4-1.6-0.7c0.5-1.3,1-2.7,1.4-4l-0.5-2.2c0.8-0.7,1.8-1,2.9-0.8c0.1,0.4,0.2,0.8,0.2,1.2
		l-0.5,0.6l0.2,0.3c0.8-0.8,1.6-1.5,2.6-2.2c0.8,0,1.5,0.3,2,0.7C230.8,553.1,231.1,553.6,231.3,554.1z"/>
	<path style="fill:#FFFFFF;" d="M237.9,552.6c0.5-0.5,1-0.7,1.7-0.8c0.6-0.1,1.1,0.1,1.5,0.4c-0.2,2.8-1.3,5.3-3.4,7.6
		c-0.8,0.2-1.5,0.1-2.3-0.1c-0.7-0.2-1.3-0.6-1.7-1.2c0.3-1.5,0.3-2.6,0-3.3l-1.2-1.5c0.6-1.2,1.6-1.7,3.1-1.7
		c0.8,1.3,1.1,3.2,1,5.9l0.2,0.1c1-1.2,1.6-2.4,1.9-3.6L237.9,552.6z"/>
	<path style="fill:#FFFFFF;" d="M242.4,555.4l-0.1-2.8c1.4-0.6,2.4-0.7,3.2-0.2l-0.7,2.5c-0.1,0.7-0.1,2.2-0.2,4.5
		c-0.4,0.4-1.1,0.5-1.8,0.4c-0.8-0.1-1.3-0.3-1.7-0.7C241.7,557.6,242.2,556.3,242.4,555.4z M245.7,549.6c0,0.4-0.1,0.8-0.4,1.1
		c-0.3,0.3-0.7,0.5-1.1,0.5c-0.4,0-0.8-0.2-1.1-0.5c-0.3-0.3-0.5-0.7-0.5-1.1s0.2-0.8,0.5-1.1c0.3-0.3,0.7-0.5,1.1-0.5
		c0.4,0,0.8,0.2,1.1,0.5C245.6,548.9,245.7,549.2,245.7,549.6z"/>
	<path style="fill:#FFFFFF;" d="M251.7,552.6c0.5-0.5,1-0.7,1.7-0.8c0.6-0.1,1.1,0.1,1.5,0.4c-0.2,2.8-1.3,5.3-3.4,7.6
		c-0.8,0.2-1.5,0.1-2.3-0.1c-0.7-0.2-1.3-0.6-1.7-1.2c0.3-1.5,0.3-2.6,0-3.3l-1.2-1.5c0.6-1.2,1.6-1.7,3.1-1.7
		c0.8,1.3,1.1,3.2,1,5.9l0.2,0.1c1-1.2,1.6-2.4,1.9-3.6L251.7,552.6z"/>
	<path style="fill:#FFFFFF;" d="M261.8,557.1c0.3,0,0.6,0.1,0.8,0.3c0.2,0.2,0.2,0.5,0.1,1c-0.4,0.4-1,0.8-1.9,1.1
		c-0.8,0.3-1.7,0.5-2.4,0.5c-1.1-0.2-2-0.6-2.5-1.1c-0.6-0.6-0.8-1.3-0.8-2.1c0.1-1.1,0.5-2,1.3-2.9c1.5-1,3-1.7,4.4-1.8
		c0.7,0.1,1.2,0.3,1.6,0.6c0.7,0.6,0.8,1.6,0.3,3c-0.5,0.3-1.2,0.6-2.1,0.9c-0.9,0.3-1.6,0.5-2.3,0.7c0.1,0.4,0.2,0.7,0.5,1.1
		C259.9,558,260.9,557.7,261.8,557.1z M259.6,553.5l-0.3,0.1c-0.7,0.7-1,1.5-1.1,2.4c0.7-0.2,1.3-0.5,1.8-0.8
		C260.2,554.5,260.1,553.9,259.6,553.5z"/>
	<path style="fill:#FFFFFF;" d="M273,554.1l-0.7,2.2c0,1.1,0.1,2.2,0.4,3.2c-0.3,0.4-0.8,0.5-1.6,0.4c-0.8-0.1-1.4-0.3-2-0.8
		c0-0.6,0.1-1.4,0.3-2.2c0.2-0.8,0.3-1.5,0.5-2c-0.1-0.3-0.3-0.6-0.5-0.7c-0.5,0.3-1.2,0.8-1.9,1.5c0,1-0.1,2.2-0.2,3.8
		c-0.5,0.4-1.1,0.5-2,0.4s-1.4-0.4-1.6-0.7c0.5-1.3,1-2.7,1.4-4l-0.5-2.2c0.8-0.7,1.8-1,2.9-0.8c0.1,0.4,0.2,0.8,0.2,1.2l-0.5,0.6
		l0.2,0.3c0.8-0.8,1.6-1.5,2.6-2.2c0.8,0,1.5,0.3,2,0.7C272.4,553.1,272.8,553.6,273,554.1z"/>
	<path style="fill:#FFFFFF;" d="M274.1,556.7c0-0.6,0.1-1.2,0.3-1.6c0.2-0.5,0.6-0.9,1-1.4c1.1-1,2.4-1.6,3.8-1.9
		c0.9,0.2,1.5,0.4,1.9,0.8c0.2,0.2,0.3,0.4,0.4,0.7c0.1,0.2,0.2,0.5,0.3,0.9c-0.1,0.5-0.4,0.9-1,1.1c-0.5,0.2-1.2,0.3-2.1,0.2
		c0.1-0.6,0-1.3-0.4-2.1l-0.4,0.1c-0.5,0.8-0.8,1.7-0.8,2.6c0,0.8,0.2,1.4,0.7,2c1-0.3,1.9-0.7,2.7-1.3c0.3,0,0.6,0.1,0.7,0.3
		c0.2,0.2,0.2,0.5,0.1,1c-0.4,0.4-1,0.8-1.7,1.1c-0.7,0.3-1.5,0.5-2.3,0.6c-1.2-0.1-2.1-0.5-2.7-1.1
		C274.3,558.2,274.1,557.5,274.1,556.7z"/>
	<path style="fill:#FFFFFF;" d="M283.7,555.4l-0.1-2.8c1.4-0.6,2.4-0.7,3.2-0.2l-0.7,2.5c-0.1,0.7-0.1,2.2-0.2,4.5
		c-0.4,0.4-1.1,0.5-1.8,0.4c-0.8-0.1-1.3-0.3-1.7-0.7C283.1,557.6,283.5,556.3,283.7,555.4z M287.1,549.6c0,0.4-0.1,0.8-0.4,1.1
		c-0.3,0.3-0.7,0.5-1.1,0.5c-0.4,0-0.8-0.2-1.1-0.5c-0.3-0.3-0.5-0.7-0.5-1.1s0.2-0.8,0.5-1.1c0.3-0.3,0.7-0.5,1.1-0.5
		c0.4,0,0.8,0.2,1.1,0.5C286.9,548.9,287.1,549.2,287.1,549.6z"/>
	<path style="fill:#FFFFFF;" d="M287.6,556.6c0-1.1,0.5-2.1,1.5-3.1c1-1,2.3-1.5,3.9-1.5c0.4,0.3,0.8,0.9,1.2,1.7
		c0-0.7,0-1.2,0.3-1.5c0.9-0.2,1.7-0.2,2.1-0.1c0.5,0.1,0.8,0.4,1,0.9l-1.3,2.4c0,1.3,0.1,2.7,0.3,4.1c-0.3,0.4-0.8,0.5-1.6,0.4
		c-0.8-0.1-1.4-0.3-2-0.8l0.6-1.2l-0.2-0.3c-0.9,0.8-1.6,1.5-2.1,2.1c-1.2-0.1-2.2-0.4-2.7-0.9C287.9,558.2,287.6,557.5,287.6,556.6
		z M291.4,555c-0.3,0.5-0.5,1-0.5,1.6c0,0.5,0.2,0.9,0.5,1.1c0.6-0.4,1.4-1,2.4-1.8l0.1-0.8c-0.3-0.6-0.7-1.1-1.1-1.3
		C292.2,554.1,291.8,554.5,291.4,555z"/>
	<path style="fill:#FFFFFF;" d="M309.7,550.7l-0.3,0.1c-0.6,0.6-1.1,1.3-1.4,2.1c-0.3,0.7-0.5,1.5-0.5,2.2c0,0.7,0.1,1.3,0.4,1.7
		c0.3,0.4,0.6,0.8,1.2,1.1c1.1-0.4,2-0.9,2.8-1.4c0.4,0,0.6,0.1,0.8,0.3c0.2,0.2,0.2,0.5,0.2,0.9c-1,1-2.3,1.8-4.1,2.3
		c-1.4-0.2-2.5-0.7-3.3-1.5c-0.8-0.8-1.2-1.9-1.1-3.1c0-0.6,0.1-1.3,0.3-1.9c0.2-0.6,0.5-1.3,1-2c0.8-0.7,1.5-1.2,2.3-1.6
		c0.8-0.3,1.7-0.6,2.7-0.7c0.8,0.3,1.5,0.7,1.9,1.3c0.4,0.5,0.7,1.2,0.8,1.9c-0.1,0.4-0.5,0.7-1.2,0.9s-1.3,0.1-1.9-0.2
		C310.2,551.9,310.1,551,309.7,550.7z"/>
	<path style="fill:#FFFFFF;" d="M315,555.4l-0.1-2.8c1.4-0.6,2.4-0.7,3.2-0.2l-0.7,2.5c-0.1,0.7-0.1,2.2-0.2,4.5
		c-0.4,0.4-1.1,0.5-1.8,0.4c-0.8-0.1-1.3-0.3-1.7-0.7C314.4,557.6,314.8,556.3,315,555.4z M318.3,549.6c0,0.4-0.1,0.8-0.4,1.1
		c-0.3,0.3-0.7,0.5-1.1,0.5c-0.4,0-0.8-0.2-1.1-0.5c-0.3-0.3-0.5-0.7-0.5-1.1s0.2-0.8,0.5-1.1c0.3-0.3,0.7-0.5,1.1-0.5
		c0.4,0,0.8,0.2,1.1,0.5C318.2,548.9,318.3,549.2,318.3,549.6z"/>
	<path style="fill:#FFFFFF;" d="M319.7,555.5l-0.3-3.3c0.6-0.2,1.2-0.3,1.9-0.2c0.7,0.1,1.2,0.4,1.5,0.8c0,0.5-0.1,1.1-0.4,1.9
		c-0.3,0.8-0.5,1.5-0.9,2.1c0.1,0.3,0.4,0.5,1,0.7c0.8-0.8,1.3-1.4,1.6-1.8c0.3-1.7,0.6-2.9,0.8-3.7c0.9-0.2,1.7-0.2,2.2-0.1
		s0.8,0.4,1,0.8l-1.2,2.4c0,1.2,0.2,2.6,0.4,4.1c-0.3,0.4-0.8,0.5-1.6,0.4c-0.8-0.1-1.5-0.3-2-0.8l0.6-1.3l-0.2-0.1
		c-0.2,0.2-0.8,1-1.9,2.2c-2.1-0.2-3.3-1-3.6-2.3L319.7,555.5z"/>
	<path style="fill:#FFFFFF;" d="M336.1,552.4l-0.2-3.8c1.4-0.6,2.5-0.7,3.3-0.3l-1,3.5c-0.1,0.6-0.3,3.2-0.8,7.8
		c-0.4,0.3-0.9,0.5-1.8,0.4c-0.8-0.1-1.4-0.3-1.8-0.8l0.9-1.1l-0.2-0.2c-0.8,0.7-1.5,1.4-2,2c-1.2,0-2.1-0.3-2.7-0.9
		c-0.6-0.6-0.9-1.3-0.9-2.2c0-0.5,0.2-1.1,0.4-1.6c0.3-0.5,0.6-1,1.1-1.5c0.5-0.4,1-0.8,1.8-1.1c0.7-0.3,1.5-0.4,2.3-0.4
		c0.5,0.4,0.9,1.1,1.3,1.9C335.9,553.4,336,552.9,336.1,552.4z M335.2,555.9l0.2-0.8c-0.4-0.6-0.8-1.1-1.2-1.3
		c-0.6,0.3-1,0.7-1.4,1.2c-0.3,0.5-0.5,1-0.5,1.5c0,0.5,0.1,0.9,0.5,1.1C333.4,557.2,334.2,556.6,335.2,555.9z"/>
	<path style="fill:#FFFFFF;" d="M339.1,556.6c0-1.1,0.5-2.1,1.5-3.1c1-1,2.3-1.5,3.9-1.5c0.4,0.3,0.8,0.9,1.2,1.7
		c0-0.7,0-1.2,0.3-1.5c0.9-0.2,1.7-0.2,2.1-0.1c0.5,0.1,0.8,0.4,1,0.9l-1.3,2.4c0,1.3,0.1,2.7,0.3,4.1c-0.3,0.4-0.8,0.5-1.6,0.4
		c-0.8-0.1-1.4-0.3-2-0.8l0.6-1.2l-0.2-0.3c-0.9,0.8-1.6,1.5-2.1,2.1c-1.2-0.1-2.2-0.4-2.7-0.9C339.4,558.2,339.1,557.5,339.1,556.6
		z M343,555c-0.3,0.5-0.5,1-0.5,1.6c0,0.5,0.2,0.9,0.5,1.1c0.6-0.4,1.4-1,2.4-1.8l0.1-0.8c-0.3-0.6-0.7-1.1-1.1-1.3
		C343.8,554.1,343.3,554.5,343,555z"/>
	<path style="fill:#FFFFFF;" d="M356.9,552.4l-0.2-3.8c1.4-0.6,2.5-0.7,3.3-0.3l-1,3.5c-0.1,0.6-0.3,3.2-0.8,7.8
		c-0.4,0.3-0.9,0.5-1.8,0.4c-0.8-0.1-1.4-0.3-1.8-0.8l0.9-1.1l-0.2-0.2c-0.8,0.7-1.5,1.4-2,2c-1.2,0-2.1-0.3-2.7-0.9
		c-0.6-0.6-0.9-1.3-0.9-2.2c0-0.5,0.2-1.1,0.4-1.6c0.3-0.5,0.6-1,1.1-1.5c0.5-0.4,1-0.8,1.8-1.1c0.7-0.3,1.5-0.4,2.3-0.4
		c0.5,0.4,0.9,1.1,1.3,1.9C356.7,553.4,356.8,552.9,356.9,552.4z M356,555.9l0.2-0.8c-0.4-0.6-0.8-1.1-1.2-1.3
		c-0.6,0.3-1,0.7-1.4,1.2c-0.3,0.5-0.5,1-0.5,1.5c0,0.5,0.1,0.9,0.5,1.1C354.2,557.2,355,556.6,356,555.9z"/>
	<path style="fill:#FFFFFF;" d="M359.9,556.6c0-1.1,0.5-2.1,1.5-3.1c1-1,2.3-1.5,3.9-1.5c0.4,0.3,0.8,0.9,1.2,1.7
		c0-0.7,0-1.2,0.3-1.5c0.9-0.2,1.7-0.2,2.1-0.1c0.5,0.1,0.8,0.4,1,0.9l-1.3,2.4c0,1.3,0.1,2.7,0.3,4.1c-0.3,0.4-0.8,0.5-1.6,0.4
		c-0.8-0.1-1.4-0.3-2-0.8l0.6-1.2l-0.2-0.3c-0.9,0.8-1.6,1.5-2.1,2.1c-1.2-0.1-2.2-0.4-2.7-0.9C360.2,558.2,359.9,557.5,359.9,556.6
		z M363.8,555c-0.3,0.5-0.5,1-0.5,1.6c0,0.5,0.2,0.9,0.5,1.1c0.6-0.4,1.4-1,2.4-1.8l0.1-0.8c-0.3-0.6-0.7-1.1-1.1-1.3
		C364.6,554.1,364.1,554.5,363.8,555z"/>
	<path style="fill:#FFFFFF;" d="M379.6,554.1l-0.7,2.2c0,1.1,0.1,2.2,0.4,3.2c-0.3,0.4-0.8,0.5-1.6,0.4c-0.8-0.1-1.4-0.3-2-0.8
		c0-0.6,0.1-1.4,0.3-2.2c0.2-0.8,0.3-1.5,0.5-2c-0.1-0.3-0.3-0.6-0.5-0.7c-0.5,0.3-1.2,0.8-1.9,1.5c0,1-0.1,2.2-0.2,3.8
		c-0.5,0.4-1.1,0.5-2,0.4c-0.9-0.1-1.4-0.4-1.6-0.7c0.5-1.3,1-2.7,1.4-4l-0.5-2.2c0.8-0.7,1.8-1,2.9-0.8c0.1,0.4,0.2,0.8,0.2,1.2
		l-0.5,0.6l0.2,0.3c0.8-0.8,1.6-1.5,2.6-2.2c0.8,0,1.5,0.3,2,0.7C379.1,553.1,379.4,553.6,379.6,554.1z"/>
	<path style="fill:#FFFFFF;" d="M380.7,556.6c0-1.1,0.5-2.1,1.5-3.1c1-1,2.3-1.5,3.9-1.5c0.4,0.3,0.8,0.9,1.2,1.7
		c0-0.7,0-1.2,0.3-1.5c0.9-0.2,1.7-0.2,2.1-0.1c0.5,0.1,0.8,0.4,1,0.9l-1.3,2.4c0,1.3,0.1,2.7,0.3,4.1c-0.3,0.4-0.8,0.5-1.6,0.4
		c-0.8-0.1-1.4-0.3-2-0.8l0.6-1.2l-0.2-0.3c-0.9,0.8-1.6,1.5-2.1,2.1c-1.2-0.1-2.2-0.4-2.7-0.9C381,558.2,380.7,557.5,380.7,556.6z
		 M384.6,555c-0.3,0.5-0.5,1-0.5,1.6c0,0.5,0.2,0.9,0.5,1.1c0.6-0.4,1.4-1,2.4-1.8l0.1-0.8c-0.3-0.6-0.7-1.1-1.1-1.3
		C385.4,554.1,384.9,554.5,384.6,555z"/>
</g>
<path style="fill:#303F9F;" d="M-494.2,164.8l-0.4,0.1c-0.8,0.9-1.4,1.8-1.8,2.8c-0.4,1-0.6,2-0.6,2.9c0,0.9,0.1,1.7,0.5,2.3
	c0.3,0.6,0.8,1.1,1.5,1.5c1.4-0.5,2.6-1.2,3.5-1.9c0.5,0,0.8,0.1,1,0.4c0.2,0.3,0.3,0.7,0.3,1.2c-1.2,1.4-3,2.4-5.3,3.1
	c-1.8-0.3-3.2-1-4.2-2.1c-1-1.1-1.5-2.5-1.5-4.1c0-0.9,0.2-1.7,0.4-2.5c0.3-0.8,0.7-1.7,1.3-2.7c1-0.9,2-1.6,3-2.1
	c1-0.5,2.1-0.8,3.4-0.9c1.1,0.4,1.9,1,2.4,1.7c0.5,0.7,0.9,1.6,1,2.6c-0.2,0.6-0.7,1-1.5,1.2c-0.8,0.3-1.6,0.2-2.5-0.2
	C-493.6,166.4-493.8,165.3-494.2,164.8z"/>
<path style="fill:#303F9F;" d="M-487.7,171.3l-0.4-4.4c0.7-0.3,1.5-0.4,2.5-0.2c0.9,0.2,1.6,0.5,1.9,1.1c0,0.6-0.2,1.5-0.5,2.6
	c-0.3,1.1-0.7,2.1-1.1,2.9c0.1,0.4,0.5,0.7,1.2,1c1-1.1,1.7-1.9,2-2.4c0.3-2.2,0.7-3.9,1.1-5c1.2-0.2,2.1-0.3,2.8-0.1
	c0.6,0.1,1.1,0.5,1.3,1.1l-1.6,3.3c0,1.7,0.2,3.5,0.5,5.6c-0.3,0.5-1,0.7-2.1,0.6c-1-0.1-1.9-0.5-2.6-1.1l0.7-1.7l-0.2-0.2
	c-0.2,0.3-1,1.3-2.4,3c-2.7-0.3-4.3-1.3-4.6-3L-487.7,171.3z"/>
<path style="fill:#303F9F;" d="M-473.9,167.1l-0.2-4.9c0.8-0.5,1.5-0.8,2.3-0.9c0.8-0.1,1.5,0,2.1,0.2l-1.2,4.6
	c-0.4,6.8-0.5,10.3-0.6,10.5c-0.3,0.3-0.9,0.5-1.6,0.6c-0.7,0.1-1.4,0-2-0.2c-0.6-0.2-1-0.5-1.1-0.8
	C-475.2,173.7-474.4,170.7-473.9,167.1z"/>
<path style="fill:#303F9F;" d="M-463.5,168L-463.5,168c-0.1,1-0.2,2.4-0.4,4c-0.2,1.6-0.2,2.6-0.3,2.9c0.9-0.5,1.9-1.1,2.8-1.9
	c0.5,0,0.8,0.2,1,0.4c0.2,0.2,0.2,0.6,0.2,1.3c-1.6,1.4-3.1,2.3-4.6,2.7c-1.8-0.2-3-0.9-3.5-2.3c0.8-2.1,1.4-4.3,1.9-6.4l-2.3,0.4
	c-0.3-0.4-0.5-0.7-0.5-1c0-0.3,0.1-0.7,0.4-1.2l2.5,0.1l-0.3-3.5c1-0.6,1.8-0.8,2.6-0.9c0.8,0,1.3,0.2,1.7,0.6l-0.9,3.2l3-0.6
	c0.5,0.5,0.5,1.2,0,2.2L-463.5,168z"/>
<path style="fill:#303F9F;" d="M-457.8,171.3l-0.4-4.4c0.7-0.3,1.5-0.4,2.5-0.2c0.9,0.2,1.6,0.5,1.9,1.1c0,0.6-0.2,1.5-0.5,2.6
	s-0.7,2.1-1.1,2.9c0.1,0.4,0.5,0.7,1.2,1c1-1.1,1.7-1.9,2-2.4c0.3-2.2,0.7-3.9,1.1-5c1.2-0.2,2.1-0.3,2.8-0.1
	c0.6,0.1,1.1,0.5,1.3,1.1l-1.6,3.3c0,1.7,0.2,3.5,0.5,5.6c-0.3,0.5-1,0.7-2.1,0.6c-1-0.1-1.9-0.5-2.6-1.1l0.7-1.7l-0.2-0.2
	c-0.2,0.3-1,1.3-2.4,3c-2.7-0.3-4.3-1.3-4.6-3L-457.8,171.3z"/>
<path style="fill:#303F9F;" d="M-441.6,169.6l2.9-2.9c0.9,0.2,1.5,0.7,2.1,1.3c0.5,0.7,0.8,1.6,0.9,2.7c-0.5,0.5-1,0.8-1.7,0.9
	c-0.7,0.1-1.3-0.1-1.9-0.4c0-0.2-0.1-0.7-0.3-1.4c-0.2,0.1-0.7,0.6-1.7,1.5c0,1.5-0.1,3.3-0.3,5.4c-0.6,0.5-1.5,0.6-2.5,0.5
	c-1.1-0.1-1.8-0.5-2-1c0.7-1.8,1.3-3.6,1.7-5.3l-0.7-3c0.5-0.5,1.2-0.8,1.9-1c0.7-0.2,1.3-0.2,1.9-0.1c0.2,0.5,0.3,1.1,0.3,1.6
	l-0.6,0.8L-441.6,169.6z"/>
<path style="fill:#303F9F;" d="M-435.3,172.8c0-1.5,0.6-2.8,1.9-4.1c1.3-1.3,3-2,5-2c0.5,0.5,1.1,1.2,1.6,2.3
	c-0.1-0.9,0.1-1.6,0.3-2.1c1.2-0.3,2.1-0.3,2.7-0.2c0.6,0.1,1,0.5,1.2,1.2l-1.7,3.3c0,1.7,0.1,3.6,0.3,5.6c-0.4,0.5-1,0.7-2,0.6
	c-1-0.1-1.8-0.5-2.5-1.1l0.7-1.6l-0.3-0.4c-1.1,1.1-2,2-2.7,2.8c-1.6-0.1-2.7-0.5-3.5-1.3C-434.9,174.9-435.3,174-435.3,172.8z
	 M-430.4,170.7c-0.4,0.7-0.7,1.4-0.7,2.1s0.2,1.2,0.6,1.5c0.7-0.5,1.7-1.3,3.1-2.4l0.1-1c-0.4-0.8-0.8-1.4-1.4-1.8
	C-429.4,169.4-430,170-430.4,170.7z"/>
<path style="fill:#303F9F;" d="M-405.5,165.3c-1.1,0-1.8,0.1-2.4,0.2l-0.5,1.4l-0.4,2.6c2.2-0.4,3.6-0.6,4-0.6
	c0.2,0.2,0.4,0.4,0.4,0.8c0.1,0.6,0,1.2-0.4,1.8c-1.5-0.2-2.9-0.3-4.2-0.3l-0.6,3.8c2.4-0.4,4.3-0.8,5.6-1.2
	c0.4,0.1,0.7,0.4,0.8,0.8c0.2,0.7,0,1.5-0.6,2.3l-7,0.5c-1.8-0.5-2.7-1.3-2.8-2.5c0.1-0.2,0.2-0.5,0.4-1.1c0.2-0.5,0.3-0.9,0.3-1
	c0-0.1,0.1-0.4,0.3-0.8c0.1-0.4,0.2-0.7,0.3-0.9c0.1-0.2,0.1-0.5,0.2-0.8c0.1-0.4,0.2-0.7,0.3-1c0.1-0.3,0.2-0.7,0.3-1.1l-0.2-2.6
	c-0.4-0.2-0.9-0.3-1.3-0.4c-0.1-0.3-0.1-0.6-0.1-0.9c0-0.3,0.1-0.5,0.3-0.7c2.2-0.2,4-0.3,5.4-0.3c1.4,0,3.2,0,5.3,0.2
	c0.7,1.7,0.2,2.9-1.5,3.7L-405.5,165.3z M-405.8,157.3c0.9-0.1,1.6-0.1,2.1,0.1c0.5,0.2,0.9,0.6,1.2,1.2l-3.7,3.4
	c-0.4,0-0.7-0.1-1.1-0.2c-0.3-0.2-0.4-0.4-0.4-0.7l1.3-1.8L-405.8,157.3z"/>
<path style="fill:#303F9F;" d="M-395.6,168L-395.6,168c-0.1,1-0.2,2.4-0.4,4c-0.2,1.6-0.2,2.6-0.3,2.9c0.9-0.5,1.9-1.1,2.8-1.9
	c0.5,0,0.8,0.2,1,0.4c0.2,0.2,0.2,0.6,0.2,1.3c-1.6,1.4-3.1,2.3-4.6,2.7c-1.8-0.2-3-0.9-3.5-2.3c0.8-2.1,1.4-4.3,1.9-6.4l-2.3,0.4
	c-0.3-0.4-0.5-0.7-0.5-1c0-0.3,0.1-0.7,0.4-1.2l2.5,0.1l-0.3-3.5c1-0.6,1.8-0.8,2.6-0.9c0.8,0,1.3,0.2,1.7,0.6l-0.9,3.2l3-0.6
	c0.5,0.5,0.5,1.2,0,2.2L-395.6,168z"/>
<path style="fill:#303F9F;" d="M-389.8,171.1l-0.2-3.8c1.7-0.9,3.1-0.9,4.1-0.2l-0.9,3.4c-0.1,0.9-0.2,2.9-0.2,6.1
	c-0.6,0.5-1.3,0.7-2.3,0.5c-1-0.1-1.7-0.5-2.2-1C-390.6,174.1-390,172.4-389.8,171.1z M-385.5,163.4c0,0.6-0.2,1.1-0.6,1.5
	c-0.4,0.4-0.8,0.6-1.4,0.6c-0.5,0-1-0.2-1.4-0.6c-0.4-0.4-0.6-0.9-0.6-1.5c0-0.6,0.2-1.1,0.6-1.5c0.4-0.4,0.9-0.6,1.4-0.6
	c0.5,0,1,0.2,1.4,0.6C-385.7,162.4-385.5,162.9-385.5,163.4z"/>
<path style="fill:#303F9F;" d="M-384.9,173c0-0.8,0.1-1.6,0.4-2.2c0.3-0.6,0.7-1.2,1.3-1.8c1.5-1.3,3.1-2.1,4.9-2.5
	c1.1,0.2,1.9,0.6,2.4,1.1c0.2,0.3,0.4,0.6,0.6,0.9c0.1,0.3,0.3,0.7,0.4,1.2c-0.1,0.7-0.6,1.2-1.2,1.5c-0.7,0.3-1.5,0.4-2.6,0.2
	c0.1-0.8-0.1-1.8-0.4-2.8l-0.6,0.2c-0.7,1.1-1,2.2-1.1,3.5c0,1,0.3,1.9,1,2.7c1.3-0.4,2.5-0.9,3.4-1.7c0.4,0,0.8,0.1,1,0.4
	c0.2,0.3,0.2,0.7,0.1,1.3c-0.5,0.6-1.2,1-2.1,1.5c-0.9,0.4-1.9,0.7-2.9,0.8c-1.6-0.2-2.7-0.7-3.4-1.4
	C-384.5,175-384.9,174.1-384.9,173z"/>
<path style="fill:#303F9F;" d="M-373.9,172.8c0-1.5,0.6-2.8,1.9-4.1c1.3-1.3,3-2,5-2c0.5,0.5,1.1,1.2,1.6,2.3
	c-0.1-0.9,0.1-1.6,0.3-2.1c1.2-0.3,2.1-0.3,2.7-0.2c0.6,0.1,1,0.5,1.2,1.2l-1.7,3.3c0,1.7,0.1,3.6,0.3,5.6c-0.4,0.5-1,0.7-2,0.6
	c-1-0.1-1.8-0.5-2.5-1.1l0.7-1.6l-0.3-0.4c-1.1,1.1-2,2-2.7,2.8c-1.6-0.1-2.7-0.5-3.5-1.3S-373.9,174-373.9,172.8z M-369,170.7
	c-0.4,0.7-0.7,1.4-0.7,2.1s0.2,1.2,0.6,1.5c0.7-0.5,1.7-1.3,3.1-2.4l0.1-1c-0.4-0.8-0.8-1.4-1.4-1.8C-368,169.4-368.5,170-369,170.7
	z"/>
<path style="fill:#303F9F;" d="M-426.7,183.5L-426.7,183.5c0.3-1.7,0.5-2.9,0.7-3.6c1.2-0.2,2.1-0.2,2.7-0.1c0.6,0.1,1,0.4,1.3,0.8
	l-1.8,2.5c-0.6,3.4-0.9,5.7-0.9,7c-0.6,0.6-1.3,1.1-2.3,1.3c-0.9,0.3-2.1,0.4-3.6,0.4c-1.9-0.7-3-1.5-3.4-2.7c0.5-0.6,1.1-1,1.8-1.2
	c0.7-0.2,1.3-0.1,1.9,0.1c0.2,0.5,0.3,0.8,0.5,1.1s0.4,0.5,0.6,0.8c0.6,0,0.9-0.1,1.1-0.4c0.1-1.1,0.3-2,0.5-2.7l0.8-1.3l-0.3-0.2
	c-0.5,0.5-1.2,1.1-1.9,1.7c-1.2-0.1-2.1-0.3-2.9-0.7c-0.8-0.4-1.2-0.9-1.4-1.4l0.9-1.8c0-0.5-0.1-1-0.2-1.7
	c-0.1-0.7-0.2-1.2-0.2-1.5c0.4-0.1,0.9-0.2,1.5-0.2c0.6,0,1.1,0.1,1.7,0.2c0.5,0.2,1,0.4,1.3,0.7c-0.1,1.1-0.6,2.3-1.3,3.7
	c0.1,0.3,0.4,0.5,0.9,0.7C-427.9,184.6-427.3,184.1-426.7,183.5z"/>
<path style="fill:#303F9F;" d="M-529.1,191l-0.3,0.1c-0.7,1.1-1.2,2.2-1.5,3.5c-0.3,1.2-0.5,2.5-0.5,3.6c0,1.2,0.1,2.1,0.4,2.9
	c0.3,0.7,0.7,1.4,1.3,1.9c1.2-0.7,2.3-1.5,3.1-2.4c0.4,0,0.7,0.1,0.9,0.4c0.2,0.3,0.3,0.8,0.2,1.5c-1.1,1.7-2.6,3-4.6,3.9
	c-1.6-0.3-2.8-1.2-3.7-2.6c-0.9-1.4-1.3-3.1-1.3-5.2c0-1.1,0.1-2.1,0.4-3.1c0.2-1,0.6-2.1,1.1-3.3c0.9-1.2,1.7-2,2.6-2.6
	c0.9-0.6,1.9-1,3-1.2c0.9,0.5,1.6,1.2,2.1,2.1c0.5,0.9,0.7,2,0.9,3.2c-0.2,0.7-0.6,1.2-1.3,1.5c-0.7,0.3-1.4,0.2-2.1-0.3
	C-528.5,193-528.7,191.6-529.1,191z"/>
<path style="fill:#303F9F;" d="M-524.5,200.6c0-0.7,0.1-1.4,0.4-2.3c0.3-0.8,0.6-1.7,1.1-2.4c0.5-0.8,1-1.5,1.8-2
	c0.7-0.5,1.5-0.8,2.4-0.8c0.8,0,1.7,0.7,2.4,2.1c0.8,1.4,1.2,2.7,1.2,4c0,1.1-0.3,2.3-0.8,3.4c-0.5,1.1-1.2,2-2.1,2.8
	c-0.9,0.7-1.7,1.1-2.7,1.1c-0.9,0-1.8-0.6-2.6-1.9C-524.1,203.4-524.5,202-524.5,200.6z M-519.3,195.3c-0.5,0.8-1,1.7-1.3,2.7
	c-0.4,1-0.6,2-0.6,2.9c0,0.5,0.1,1,0.2,1.6c0.2,0.6,0.4,1.1,0.6,1.4c1-1.2,1.7-2.5,2-4.1c0-1.1-0.1-1.9-0.2-2.6
	C-518.8,196.7-519,196-519.3,195.3z"/>
<path style="fill:#303F9F;" d="M-504.4,196.8l-0.7,3.7c0,1.9,0.1,3.7,0.4,5.3c-0.3,0.6-0.9,0.8-1.8,0.7c-0.9-0.1-1.6-0.6-2.2-1.3
	c0-1,0.2-2.3,0.4-3.7c0.2-1.4,0.4-2.5,0.6-3.4c-0.1-0.6-0.3-1-0.6-1.2c-0.6,0.5-1.3,1.3-2.1,2.5c0,1.6-0.1,3.7-0.3,6.4
	c-0.5,0.6-1.3,0.8-2.2,0.6c-1-0.2-1.6-0.6-1.8-1.2c0.6-2.2,1.1-4.4,1.5-6.7l-0.6-3.7c0.9-1.2,2-1.7,3.3-1.4c0.2,0.7,0.2,1.4,0.2,2
	l-0.6,1.1l0.2,0.5c0.9-1.3,1.8-2.5,2.8-3.6c0.9,0.1,1.6,0.5,2.2,1.1C-505,195.1-504.6,195.9-504.4,196.8z"/>
<path style="fill:#303F9F;" d="M-497.1,194.3c0.5-0.8,1.1-1.2,1.8-1.4c0.7-0.1,1.2,0.1,1.6,0.7c-0.2,4.6-1.5,8.8-3.7,12.7
	c-0.8,0.3-1.7,0.2-2.5-0.2c-0.8-0.4-1.4-1.1-1.9-2c0.3-2.4,0.3-4.3,0-5.6l-1.4-2.5c0.7-2,1.8-2.9,3.4-2.8c0.9,2.1,1.3,5.4,1.1,9.8
	l0.2,0.2c1.1-1.9,1.8-3.9,2.1-6L-497.1,194.3z"/>
<path style="fill:#303F9F;" d="M-492.1,198.9l-0.1-4.7c1.5-1.1,2.7-1.2,3.6-0.3l-0.8,4.3c-0.1,1.1-0.1,3.6-0.2,7.5
	c-0.5,0.6-1.2,0.8-2,0.6c-0.9-0.2-1.5-0.6-1.9-1.2C-492.8,202.5-492.3,200.5-492.1,198.9z M-488.4,189.3c0,0.7-0.2,1.3-0.5,1.8
	c-0.3,0.5-0.7,0.8-1.2,0.8c-0.5,0-0.9-0.3-1.2-0.8c-0.3-0.5-0.5-1.1-0.5-1.8c0-0.7,0.2-1.3,0.5-1.8c0.3-0.5,0.8-0.8,1.2-0.8
	c0.5,0,0.9,0.3,1.2,0.8C-488.5,188-488.4,188.6-488.4,189.3z"/>
<path style="fill:#303F9F;" d="M-481.8,194.3c0.5-0.8,1.1-1.2,1.8-1.4c0.7-0.1,1.2,0.1,1.6,0.7c-0.2,4.6-1.5,8.8-3.7,12.7
	c-0.8,0.3-1.7,0.2-2.5-0.2c-0.8-0.4-1.4-1.1-1.9-2c0.3-2.4,0.3-4.3,0-5.6l-1.4-2.5c0.7-2,1.8-2.9,3.4-2.8c0.9,2.1,1.3,5.4,1.1,9.8
	l0.2,0.2c1.1-1.9,1.8-3.9,2.1-6L-481.8,194.3z"/>
<path style="fill:#303F9F;" d="M-470.5,201.8c0.4,0,0.7,0.1,0.9,0.4c0.2,0.3,0.2,0.9,0.1,1.6c-0.5,0.7-1.2,1.3-2.1,1.8
	c-0.9,0.5-1.8,0.8-2.7,0.9c-1.2-0.3-2.2-0.9-2.8-1.9c-0.6-1-0.9-2.2-0.9-3.5c0.1-1.8,0.5-3.4,1.4-4.9c1.7-1.7,3.3-2.8,4.9-3.1
	c0.8,0.1,1.4,0.4,1.8,1c0.8,1.1,0.9,2.8,0.4,5c-0.6,0.5-1.4,1-2.3,1.5c-0.9,0.5-1.8,0.9-2.5,1.1c0.1,0.6,0.3,1.2,0.6,1.9
	C-472.6,203.4-471.5,202.8-470.5,201.8z M-472.9,195.7l-0.3,0.2c-0.7,1.2-1.1,2.6-1.2,4c0.7-0.4,1.4-0.9,2-1.4
	C-472.2,197.4-472.4,196.4-472.9,195.7z"/>
<path style="fill:#303F9F;" d="M-458.1,196.8l-0.7,3.7c0,1.9,0.1,3.7,0.4,5.3c-0.3,0.6-0.9,0.8-1.8,0.7c-0.9-0.1-1.6-0.6-2.2-1.3
	c0-1,0.2-2.3,0.4-3.7c0.2-1.4,0.4-2.5,0.6-3.4c-0.1-0.6-0.3-1-0.6-1.2c-0.6,0.5-1.3,1.3-2.1,2.5c0,1.6-0.1,3.7-0.3,6.4
	c-0.5,0.6-1.3,0.8-2.2,0.6c-1-0.2-1.6-0.6-1.8-1.2c0.6-2.2,1.1-4.4,1.5-6.7l-0.6-3.7c0.9-1.2,2-1.7,3.3-1.4c0.2,0.7,0.2,1.4,0.2,2
	l-0.6,1.1l0.2,0.5c0.9-1.3,1.8-2.5,2.8-3.6c0.9,0.1,1.6,0.5,2.2,1.1C-458.7,195.1-458.3,195.9-458.1,196.8z"/>
<path style="fill:#303F9F;" d="M-456.8,201.1c0-1,0.1-1.9,0.4-2.7c0.3-0.8,0.6-1.5,1.1-2.3c1.3-1.6,2.7-2.6,4.3-3.1
	c1,0.3,1.7,0.7,2.1,1.4c0.2,0.4,0.4,0.7,0.5,1.1c0.1,0.4,0.2,0.9,0.4,1.5c-0.1,0.9-0.5,1.5-1.1,1.8c-0.6,0.4-1.3,0.5-2.3,0.3
	c0.1-1-0.1-2.2-0.4-3.5l-0.5,0.2c-0.6,1.3-0.9,2.8-0.9,4.4c0,1.3,0.3,2.4,0.8,3.4c1.2-0.5,2.2-1.2,3-2.1c0.4,0,0.7,0.2,0.8,0.5
	c0.2,0.4,0.2,0.9,0.1,1.6c-0.5,0.7-1.1,1.3-1.9,1.8c-0.8,0.5-1.6,0.9-2.5,1c-1.4-0.2-2.4-0.8-3-1.8
	C-456.5,203.7-456.8,202.5-456.8,201.1z"/>
<path style="fill:#303F9F;" d="M-446.1,198.9l-0.1-4.7c1.5-1.1,2.7-1.2,3.6-0.3l-0.8,4.3c-0.1,1.1-0.1,3.6-0.2,7.5
	c-0.5,0.6-1.2,0.8-2,0.6c-0.9-0.2-1.5-0.6-1.9-1.2C-446.8,202.5-446.3,200.5-446.1,198.9z M-442.4,189.3c0,0.7-0.2,1.3-0.5,1.8
	c-0.3,0.5-0.7,0.8-1.2,0.8c-0.5,0-0.9-0.3-1.2-0.8c-0.3-0.5-0.5-1.1-0.5-1.8c0-0.7,0.2-1.3,0.5-1.8c0.3-0.5,0.8-0.8,1.2-0.8
	c0.5,0,0.9,0.3,1.2,0.8C-442.5,188-442.4,188.6-442.4,189.3z"/>
<path style="fill:#303F9F;" d="M-441.8,201c0-1.8,0.6-3.5,1.7-5.1c1.1-1.6,2.6-2.4,4.4-2.5c0.5,0.6,0.9,1.5,1.4,2.8
	c-0.1-1.1,0.1-2,0.3-2.6c1-0.3,1.8-0.4,2.4-0.2c0.5,0.2,0.9,0.7,1.1,1.4l-1.5,4c0,2.1,0.1,4.4,0.3,6.9c-0.3,0.6-0.9,0.8-1.8,0.7
	c-0.9-0.1-1.6-0.6-2.2-1.3l0.6-2l-0.3-0.4c-1,1.4-1.7,2.5-2.4,3.4c-1.4-0.1-2.4-0.6-3.1-1.6C-441.5,203.6-441.8,202.4-441.8,201z
	 M-437.6,198.3c-0.4,0.9-0.6,1.7-0.6,2.6c0,0.9,0.2,1.5,0.5,1.9c0.6-0.7,1.5-1.7,2.7-3l0.1-1.3c-0.3-1-0.7-1.8-1.2-2.2
	C-436.7,196.7-437.2,197.4-437.6,198.3z"/>
<path style="fill:#303F9F;" d="M-417.2,191l-0.3,0.1c-0.7,1.1-1.2,2.2-1.5,3.5c-0.3,1.2-0.5,2.5-0.5,3.6c0,1.2,0.1,2.1,0.4,2.9
	c0.3,0.7,0.7,1.4,1.3,1.9c1.2-0.7,2.3-1.5,3.1-2.4c0.4,0,0.7,0.1,0.9,0.4c0.2,0.3,0.3,0.8,0.2,1.5c-1.1,1.7-2.6,3-4.6,3.9
	c-1.6-0.3-2.8-1.2-3.7-2.6c-0.9-1.4-1.3-3.1-1.3-5.2c0-1.1,0.1-2.1,0.4-3.1c0.2-1,0.6-2.1,1.1-3.3c0.9-1.2,1.7-2,2.6-2.6
	c0.9-0.6,1.9-1,3-1.2c0.9,0.5,1.6,1.2,2.1,2.1c0.5,0.9,0.7,2,0.9,3.2c-0.2,0.7-0.6,1.2-1.3,1.5c-0.7,0.3-1.4,0.2-2.1-0.3
	C-416.6,193-416.8,191.6-417.2,191z"/>
<path style="fill:#303F9F;" d="M-411.3,198.9l-0.1-4.7c1.5-1.1,2.7-1.2,3.6-0.3l-0.8,4.3c-0.1,1.1-0.1,3.6-0.2,7.5
	c-0.5,0.6-1.2,0.8-2,0.6c-0.9-0.2-1.5-0.6-1.9-1.2C-412,202.5-411.5,200.5-411.3,198.9z M-407.6,189.3c0,0.7-0.2,1.3-0.5,1.8
	c-0.3,0.5-0.7,0.8-1.2,0.8c-0.5,0-0.9-0.3-1.2-0.8c-0.3-0.5-0.5-1.1-0.5-1.8c0-0.7,0.2-1.3,0.5-1.8c0.3-0.5,0.8-0.8,1.2-0.8
	c0.5,0,0.9,0.3,1.2,0.8C-407.8,188-407.6,188.6-407.6,189.3z"/>
<path style="fill:#303F9F;" d="M-406.1,199.1l-0.3-5.5c0.6-0.4,1.4-0.5,2.2-0.3c0.8,0.2,1.4,0.7,1.7,1.4c0,0.8-0.1,1.9-0.4,3.3
	s-0.6,2.6-1,3.6c0.1,0.5,0.4,0.9,1.1,1.2c0.9-1.4,1.5-2.4,1.8-3c0.3-2.8,0.6-4.8,0.9-6.2c1.1-0.3,1.9-0.3,2.4-0.2
	c0.6,0.2,0.9,0.6,1.1,1.3l-1.4,4c0,2.1,0.2,4.4,0.5,6.9c-0.3,0.6-0.9,0.8-1.8,0.7c-0.9-0.1-1.6-0.6-2.2-1.3l0.6-2.1l-0.2-0.2
	c-0.2,0.4-0.9,1.6-2.1,3.7c-2.4-0.4-3.7-1.7-4-3.8L-406.1,199.1z"/>
<path style="fill:#303F9F;" d="M-387.8,193.9l-0.2-6.4c1.5-1,2.8-1.2,3.7-0.6l-1.1,5.8c-0.1,1-0.4,5.4-0.9,13.1
	c-0.4,0.6-1.1,0.8-2,0.7c-0.9-0.1-1.6-0.5-2-1.3l0.9-1.9l-0.2-0.4c-0.9,1.2-1.6,2.3-2.3,3.3c-1.3,0-2.3-0.5-3-1.5
	c-0.7-1-1-2.2-1-3.6c0-0.9,0.2-1.8,0.5-2.7c0.3-0.9,0.7-1.7,1.2-2.4c0.5-0.7,1.2-1.3,2-1.8c0.8-0.5,1.6-0.7,2.6-0.7
	c0.5,0.7,1,1.8,1.4,3.2C-388.1,195.5-387.9,194.7-387.8,193.9z M-388.9,199.7l0.3-1.3c-0.5-1.1-0.9-1.8-1.4-2.2
	c-0.6,0.5-1.2,1.2-1.5,2c-0.4,0.9-0.6,1.7-0.6,2.6c0,0.9,0.2,1.5,0.5,1.9C-390.9,202-390,201-388.9,199.7z"/>
<path style="fill:#303F9F;" d="M-384.5,201c0-1.8,0.6-3.5,1.7-5.1c1.1-1.6,2.6-2.4,4.4-2.5c0.5,0.6,0.9,1.5,1.4,2.8
	c-0.1-1.1,0.1-2,0.3-2.6c1-0.3,1.8-0.4,2.4-0.2c0.5,0.2,0.9,0.7,1.1,1.4l-1.5,4c0,2.1,0.1,4.4,0.3,6.9c-0.3,0.6-0.9,0.8-1.8,0.7
	c-0.9-0.1-1.6-0.6-2.2-1.3l0.6-2l-0.3-0.4c-1,1.4-1.7,2.5-2.4,3.4c-1.4-0.1-2.4-0.6-3.1-1.6C-384.2,203.6-384.5,202.4-384.5,201z
	 M-380.2,198.3c-0.4,0.9-0.6,1.7-0.6,2.6c0,0.9,0.2,1.5,0.5,1.9c0.6-0.7,1.5-1.7,2.7-3l0.1-1.3c-0.3-1-0.7-1.8-1.2-2.2
	C-379.3,196.7-379.8,197.4-380.2,198.3z"/>
<path style="fill:#303F9F;" d="M-364.7,193.9l-0.2-6.4c1.5-1,2.8-1.2,3.7-0.6l-1.1,5.8c-0.1,1-0.4,5.4-0.9,13.1
	c-0.4,0.6-1,0.8-2,0.7c-0.9-0.1-1.6-0.5-2-1.3l1-1.9l-0.2-0.4c-0.9,1.2-1.6,2.3-2.3,3.3c-1.3,0-2.3-0.5-3-1.5c-0.7-1-1-2.2-1-3.6
	c0-0.9,0.2-1.8,0.5-2.7c0.3-0.9,0.7-1.7,1.2-2.4c0.5-0.7,1.2-1.3,2-1.8c0.8-0.5,1.6-0.7,2.6-0.7c0.5,0.7,1,1.8,1.4,3.2
	C-365,195.5-364.8,194.7-364.7,193.9z M-365.8,199.7l0.3-1.3c-0.5-1.1-0.9-1.8-1.4-2.2c-0.6,0.5-1.2,1.2-1.5,2
	c-0.4,0.9-0.6,1.7-0.6,2.6c0,0.9,0.2,1.5,0.5,1.9C-367.8,202-366.9,201-365.8,199.7z"/>
<path style="fill:#303F9F;" d="M-361.4,201c0-1.8,0.6-3.5,1.7-5.1c1.1-1.6,2.6-2.4,4.4-2.5c0.5,0.6,0.9,1.5,1.4,2.8
	c-0.1-1.1,0.1-2,0.3-2.6c1-0.3,1.8-0.4,2.4-0.2c0.5,0.2,0.9,0.7,1.1,1.4l-1.5,4c0,2.1,0.1,4.4,0.3,6.9c-0.3,0.6-0.9,0.8-1.8,0.7
	c-0.9-0.1-1.6-0.6-2.2-1.3l0.6-2l-0.3-0.4c-1,1.4-1.7,2.5-2.4,3.4c-1.4-0.1-2.4-0.6-3.1-1.6C-361.1,203.6-361.4,202.4-361.4,201z
	 M-357.1,198.3c-0.4,0.9-0.6,1.7-0.6,2.6c0,0.9,0.2,1.5,0.5,1.9c0.6-0.7,1.5-1.7,2.7-3l0.1-1.3c-0.3-1-0.7-1.8-1.2-2.2
	C-356.2,196.7-356.7,197.4-357.1,198.3z"/>
<path style="fill:#303F9F;" d="M-339.5,196.8l-0.7,3.7c0,1.9,0.1,3.7,0.4,5.3c-0.3,0.6-0.9,0.8-1.8,0.7c-0.9-0.1-1.6-0.6-2.2-1.3
	c0-1,0.2-2.3,0.4-3.7c0.2-1.4,0.4-2.5,0.6-3.4c-0.1-0.6-0.3-1-0.6-1.2c-0.6,0.5-1.3,1.3-2.1,2.5c0,1.6-0.1,3.7-0.3,6.4
	c-0.5,0.6-1.3,0.8-2.2,0.6c-1-0.2-1.6-0.6-1.8-1.2c0.6-2.2,1.1-4.4,1.5-6.7l-0.6-3.7c0.9-1.2,2-1.7,3.3-1.4c0.2,0.7,0.2,1.4,0.2,2
	l-0.6,1.1l0.2,0.5c0.9-1.3,1.8-2.5,2.8-3.6c0.9,0.1,1.6,0.5,2.2,1.1C-340.1,195.1-339.7,195.9-339.5,196.8z"/>
<path style="fill:#303F9F;" d="M-338.2,201c0-1.8,0.6-3.5,1.7-5.1c1.1-1.6,2.6-2.4,4.4-2.5c0.5,0.6,0.9,1.5,1.4,2.8
	c-0.1-1.1,0.1-2,0.3-2.6c1-0.3,1.8-0.4,2.4-0.2c0.5,0.2,0.9,0.7,1.1,1.4l-1.5,4c0,2.1,0.1,4.4,0.3,6.9c-0.3,0.6-0.9,0.8-1.8,0.7
	c-0.9-0.1-1.6-0.6-2.2-1.3l0.6-2l-0.3-0.4c-1,1.4-1.7,2.5-2.4,3.4c-1.4-0.1-2.4-0.6-3.1-1.6C-337.9,203.6-338.2,202.4-338.2,201z
	 M-334,198.3c-0.4,0.9-0.6,1.7-0.6,2.6c0,0.9,0.2,1.5,0.5,1.9c0.6-0.7,1.5-1.7,2.7-3l0.1-1.3c-0.3-1-0.7-1.8-1.2-2.2
	C-333.1,196.7-333.6,197.4-334,198.3z"/>
<path style="fill:#4CAF50;" d="M-194.2-236.1l-0.4,0.1c-0.8,0.9-1.4,1.8-1.8,2.8c-0.4,1-0.6,2-0.6,2.9c0,0.9,0.1,1.7,0.5,2.3
	c0.3,0.6,0.8,1.1,1.5,1.5c1.4-0.5,2.6-1.2,3.5-1.9c0.5,0,0.8,0.1,1,0.4c0.2,0.3,0.3,0.7,0.3,1.2c-1.2,1.4-3,2.4-5.3,3.1
	c-1.8-0.3-3.2-1-4.2-2.1c-1-1.1-1.5-2.5-1.5-4.1c0-0.9,0.2-1.7,0.4-2.5c0.3-0.8,0.7-1.7,1.3-2.7c1-0.9,2-1.6,3-2.1
	c1-0.5,2.1-0.8,3.4-0.9c1.1,0.4,1.9,1,2.4,1.7c0.5,0.7,0.9,1.6,1,2.6c-0.2,0.6-0.7,1-1.5,1.2c-0.8,0.3-1.6,0.2-2.5-0.2
	C-193.6-234.5-193.8-235.6-194.2-236.1z"/>
<path style="fill:#4CAF50;" d="M-187.7-229.6l-0.4-4.4c0.7-0.3,1.5-0.4,2.5-0.2c0.9,0.2,1.6,0.5,1.9,1.1c0,0.6-0.2,1.5-0.5,2.6
	s-0.7,2.1-1.1,2.9c0.1,0.4,0.5,0.7,1.2,1c1-1.1,1.7-1.9,2-2.4c0.3-2.2,0.7-3.9,1.1-5c1.2-0.2,2.1-0.3,2.8-0.1
	c0.6,0.1,1.1,0.5,1.3,1.1l-1.6,3.3c0,1.7,0.2,3.5,0.5,5.6c-0.3,0.5-1,0.7-2.1,0.6c-1-0.1-1.9-0.5-2.6-1.1l0.7-1.7l-0.2-0.2
	c-0.2,0.3-1,1.3-2.4,3c-2.7-0.3-4.3-1.3-4.6-3L-187.7-229.6z"/>
<path style="fill:#4CAF50;" d="M-173.9-233.9l-0.2-4.9c0.8-0.5,1.5-0.8,2.3-0.9s1.5,0,2.1,0.2l-1.2,4.6c-0.4,6.8-0.5,10.3-0.6,10.5
	c-0.3,0.3-0.9,0.5-1.6,0.6c-0.7,0.1-1.4,0-2-0.2c-0.6-0.2-1-0.5-1.1-0.8C-175.2-227.3-174.4-230.3-173.9-233.9z"/>
<path style="fill:#4CAF50;" d="M-163.5-233L-163.5-233c-0.1,1-0.2,2.4-0.4,4c-0.2,1.6-0.2,2.6-0.3,2.9c0.9-0.5,1.9-1.1,2.8-1.9
	c0.5,0,0.8,0.2,1,0.4c0.2,0.2,0.2,0.6,0.2,1.3c-1.6,1.4-3.1,2.3-4.6,2.7c-1.8-0.2-3-0.9-3.5-2.3c0.8-2.1,1.4-4.3,1.9-6.4l-2.3,0.4
	c-0.3-0.4-0.5-0.7-0.5-1c0-0.3,0.1-0.7,0.4-1.2l2.5,0.1l-0.3-3.5c1-0.6,1.8-0.8,2.6-0.9c0.8,0,1.3,0.2,1.7,0.6l-0.9,3.2l3-0.6
	c0.5,0.5,0.5,1.2,0,2.2L-163.5-233z"/>
<path style="fill:#4CAF50;" d="M-157.8-229.6l-0.4-4.4c0.7-0.3,1.5-0.4,2.5-0.2c0.9,0.2,1.6,0.5,1.9,1.1c0,0.6-0.2,1.5-0.5,2.6
	c-0.3,1.1-0.7,2.1-1.1,2.9c0.1,0.4,0.5,0.7,1.2,1c1-1.1,1.7-1.9,2-2.4c0.3-2.2,0.7-3.9,1.1-5c1.2-0.2,2.1-0.3,2.8-0.1
	c0.6,0.1,1.1,0.5,1.3,1.1l-1.6,3.3c0,1.7,0.2,3.5,0.5,5.6c-0.3,0.5-1,0.7-2.1,0.6c-1-0.1-1.9-0.5-2.6-1.1l0.7-1.7l-0.2-0.2
	c-0.2,0.3-1,1.3-2.4,3c-2.7-0.3-4.3-1.3-4.6-3L-157.8-229.6z"/>
<path style="fill:#4CAF50;" d="M-141.6-231.4l2.9-2.9c0.9,0.2,1.5,0.7,2.1,1.3c0.5,0.7,0.8,1.6,0.9,2.7c-0.5,0.5-1,0.8-1.7,0.9
	c-0.7,0.1-1.3-0.1-1.9-0.4c0-0.2-0.1-0.7-0.3-1.4c-0.2,0.1-0.7,0.6-1.7,1.5c0,1.5-0.1,3.3-0.3,5.4c-0.6,0.5-1.5,0.6-2.5,0.5
	c-1.1-0.1-1.8-0.5-2-1c0.7-1.8,1.3-3.6,1.7-5.3l-0.7-3c0.5-0.5,1.2-0.8,1.9-1c0.7-0.2,1.3-0.2,1.9-0.1c0.2,0.5,0.3,1.1,0.3,1.6
	l-0.6,0.8L-141.6-231.4z"/>
<path style="fill:#4CAF50;" d="M-135.3-228.1c0-1.5,0.6-2.8,1.9-4.1c1.3-1.3,3-2,5-2c0.5,0.5,1.1,1.2,1.6,2.3
	c-0.1-0.9,0.1-1.6,0.3-2.1c1.2-0.3,2.1-0.3,2.7-0.2c0.6,0.1,1,0.5,1.2,1.2l-1.7,3.3c0,1.7,0.1,3.6,0.3,5.6c-0.4,0.5-1,0.7-2,0.6
	c-1-0.1-1.8-0.5-2.5-1.1l0.7-1.6l-0.3-0.4c-1.1,1.1-2,2-2.7,2.8c-1.6-0.1-2.7-0.5-3.5-1.3C-134.9-226-135.3-227-135.3-228.1z
	 M-130.4-230.3c-0.4,0.7-0.7,1.4-0.7,2.1c0,0.7,0.2,1.2,0.6,1.5c0.7-0.5,1.7-1.3,3.1-2.4l0.1-1c-0.4-0.8-0.8-1.4-1.4-1.8
	C-129.4-231.6-130-231-130.4-230.3z"/>
<path style="fill:#4CAF50;" d="M-105.5-235.7c-1.1,0-1.8,0.1-2.4,0.2l-0.5,1.4l-0.4,2.6c2.2-0.4,3.6-0.6,4-0.6
	c0.2,0.2,0.4,0.4,0.4,0.8c0.1,0.6,0,1.2-0.4,1.8c-1.5-0.2-2.9-0.3-4.2-0.3l-0.6,3.8c2.4-0.4,4.3-0.8,5.6-1.2
	c0.4,0.1,0.7,0.4,0.8,0.8c0.2,0.7,0,1.5-0.6,2.3l-7,0.5c-1.8-0.5-2.7-1.3-2.8-2.5c0.1-0.2,0.2-0.5,0.4-1.1c0.2-0.5,0.3-0.9,0.3-1
	c0-0.1,0.1-0.4,0.3-0.8c0.1-0.4,0.2-0.7,0.3-0.9c0.1-0.2,0.1-0.5,0.2-0.8c0.1-0.4,0.2-0.7,0.3-1c0.1-0.3,0.2-0.7,0.3-1.1l-0.2-2.6
	c-0.4-0.2-0.9-0.3-1.3-0.4c-0.1-0.3-0.1-0.6-0.1-0.9c0-0.3,0.1-0.5,0.3-0.7c2.2-0.2,4-0.3,5.4-0.3c1.4,0,3.2,0,5.3,0.2
	c0.7,1.7,0.2,2.9-1.5,3.7L-105.5-235.7z M-105.8-243.6c0.9-0.1,1.6-0.1,2.1,0.1c0.5,0.2,0.9,0.6,1.2,1.2l-3.7,3.4
	c-0.4,0-0.7-0.1-1.1-0.2c-0.3-0.2-0.4-0.4-0.4-0.7l1.3-1.8L-105.8-243.6z"/>
<path style="fill:#4CAF50;" d="M-95.6-233L-95.6-233c-0.1,1-0.2,2.4-0.4,4c-0.2,1.6-0.2,2.6-0.3,2.9c0.9-0.5,1.9-1.1,2.8-1.9
	c0.5,0,0.8,0.2,1,0.4c0.2,0.2,0.2,0.6,0.2,1.3c-1.6,1.4-3.1,2.3-4.6,2.7c-1.8-0.2-3-0.9-3.5-2.3c0.8-2.1,1.4-4.3,1.9-6.4l-2.3,0.4
	c-0.3-0.4-0.5-0.7-0.5-1c0-0.3,0.1-0.7,0.4-1.2l2.5,0.1l-0.3-3.5c1-0.6,1.8-0.8,2.6-0.9c0.8,0,1.3,0.2,1.7,0.6l-0.9,3.2l3-0.6
	c0.5,0.5,0.5,1.2,0,2.2L-95.6-233z"/>
<path style="fill:#4CAF50;" d="M-89.8-229.8l-0.2-3.8c1.7-0.9,3.1-0.9,4.1-0.2l-0.9,3.4c-0.1,0.9-0.2,2.9-0.2,6.1
	c-0.6,0.5-1.3,0.7-2.3,0.5c-1-0.1-1.7-0.5-2.2-1C-90.6-226.9-90-228.5-89.8-229.8z M-85.5-237.5c0,0.6-0.2,1.1-0.6,1.5
	c-0.4,0.4-0.8,0.6-1.4,0.6c-0.5,0-1-0.2-1.4-0.6c-0.4-0.4-0.6-0.9-0.6-1.5c0-0.6,0.2-1.1,0.6-1.5c0.4-0.4,0.9-0.6,1.4-0.6
	c0.5,0,1,0.2,1.4,0.6C-85.7-238.6-85.5-238.1-85.5-237.5z"/>
<path style="fill:#4CAF50;" d="M-84.9-228c0-0.8,0.1-1.6,0.4-2.2s0.7-1.2,1.3-1.8c1.5-1.3,3.1-2.1,4.9-2.5c1.1,0.2,1.9,0.6,2.4,1.1
	c0.2,0.3,0.4,0.6,0.6,0.9c0.1,0.3,0.3,0.7,0.4,1.2c-0.1,0.7-0.6,1.2-1.2,1.5c-0.7,0.3-1.5,0.4-2.6,0.2c0.1-0.8-0.1-1.8-0.4-2.8
	l-0.6,0.2c-0.7,1.1-1,2.2-1.1,3.5c0,1,0.3,1.9,1,2.7c1.3-0.4,2.5-0.9,3.4-1.7c0.4,0,0.8,0.1,1,0.4c0.2,0.3,0.2,0.7,0.1,1.3
	c-0.5,0.6-1.2,1-2.1,1.5c-0.9,0.4-1.9,0.7-2.9,0.8c-1.6-0.2-2.7-0.7-3.4-1.4C-84.5-226-84.9-226.9-84.9-228z"/>
<path style="fill:#4CAF50;" d="M-73.9-228.1c0-1.5,0.6-2.8,1.9-4.1c1.3-1.3,3-2,5-2c0.5,0.5,1.1,1.2,1.6,2.3
	c-0.1-0.9,0.1-1.6,0.3-2.1c1.2-0.3,2.1-0.3,2.7-0.2c0.6,0.1,1,0.5,1.2,1.2l-1.7,3.3c0,1.7,0.1,3.6,0.3,5.6c-0.4,0.5-1,0.7-2,0.6
	c-1-0.1-1.8-0.5-2.5-1.1l0.7-1.6l-0.3-0.4c-1.1,1.1-2,2-2.7,2.8c-1.6-0.1-2.7-0.5-3.5-1.3C-73.5-226-73.9-227-73.9-228.1z
	 M-69-230.3c-0.4,0.7-0.7,1.4-0.7,2.1c0,0.7,0.2,1.2,0.6,1.5c0.7-0.5,1.7-1.3,3.1-2.4l0.1-1c-0.4-0.8-0.8-1.4-1.4-1.8
	C-68-231.6-68.5-231-69-230.3z"/>
<path style="fill:#4CAF50;" d="M-126.7-217.5L-126.7-217.5c0.3-1.7,0.5-2.9,0.7-3.6c1.2-0.2,2.1-0.2,2.7-0.1c0.6,0.1,1,0.4,1.3,0.8
	l-1.8,2.5c-0.6,3.4-0.9,5.7-0.9,7c-0.6,0.6-1.3,1.1-2.3,1.3c-0.9,0.3-2.1,0.4-3.6,0.4c-1.9-0.7-3-1.5-3.4-2.7c0.5-0.6,1.1-1,1.8-1.2
	c0.7-0.2,1.3-0.1,1.9,0.1c0.2,0.5,0.3,0.8,0.5,1.1c0.1,0.3,0.4,0.5,0.6,0.8c0.6,0,0.9-0.1,1.1-0.4c0.1-1.1,0.3-2,0.5-2.7l0.8-1.3
	l-0.3-0.2c-0.5,0.5-1.2,1.1-1.9,1.7c-1.2-0.1-2.1-0.3-2.9-0.7c-0.8-0.4-1.2-0.9-1.4-1.4l0.9-1.8c0-0.5-0.1-1-0.2-1.7
	c-0.1-0.7-0.2-1.2-0.2-1.5c0.4-0.1,0.9-0.2,1.5-0.2c0.6,0,1.1,0.1,1.7,0.2c0.5,0.2,1,0.4,1.3,0.7c-0.1,1.1-0.6,2.3-1.3,3.7
	c0.1,0.3,0.4,0.5,0.9,0.7C-127.9-216.4-127.3-216.9-126.7-217.5z"/>
<path style="fill:#4CAF50;" d="M-229.1-209.9l-0.3,0.1c-0.7,1.1-1.2,2.2-1.5,3.5c-0.3,1.2-0.5,2.5-0.5,3.6c0,1.2,0.1,2.1,0.4,2.9
	c0.3,0.7,0.7,1.4,1.3,1.9c1.2-0.7,2.3-1.5,3.1-2.4c0.4,0,0.7,0.1,0.9,0.4c0.2,0.3,0.3,0.8,0.2,1.5c-1.1,1.7-2.6,3-4.6,3.9
	c-1.6-0.3-2.8-1.2-3.7-2.6c-0.9-1.4-1.3-3.1-1.3-5.2c0-1.1,0.1-2.1,0.4-3.1c0.2-1,0.6-2.1,1.1-3.3c0.9-1.2,1.7-2,2.6-2.6
	c0.9-0.6,1.9-1,3-1.2c0.9,0.5,1.6,1.2,2.1,2.1c0.5,0.9,0.7,2,0.9,3.2c-0.2,0.7-0.6,1.2-1.3,1.5c-0.7,0.3-1.4,0.2-2.1-0.3
	C-228.5-207.9-228.7-209.3-229.1-209.9z"/>
<path style="fill:#4CAF50;" d="M-224.5-200.3c0-0.7,0.1-1.4,0.4-2.3c0.3-0.8,0.6-1.7,1.1-2.4c0.5-0.8,1-1.5,1.8-2
	c0.7-0.5,1.5-0.8,2.4-0.8s1.7,0.7,2.4,2.1c0.8,1.4,1.2,2.7,1.2,4c0,1.1-0.3,2.3-0.8,3.4c-0.5,1.1-1.2,2-2.1,2.8
	c-0.9,0.7-1.7,1.1-2.7,1.1c-0.9,0-1.8-0.6-2.6-1.9C-224.1-197.6-224.5-198.9-224.5-200.3z M-219.3-205.6c-0.5,0.8-1,1.7-1.3,2.7
	c-0.4,1-0.6,2-0.6,2.9c0,0.5,0.1,1,0.2,1.6c0.2,0.6,0.4,1.1,0.6,1.4c1-1.2,1.7-2.5,2-4.1c0-1.1-0.1-1.9-0.2-2.6
	C-218.8-204.2-219-204.9-219.3-205.6z"/>
<path style="fill:#4CAF50;" d="M-204.4-204.2l-0.7,3.7c0,1.9,0.1,3.7,0.4,5.3c-0.3,0.6-0.9,0.8-1.8,0.7c-0.9-0.1-1.6-0.6-2.2-1.3
	c0-1,0.2-2.3,0.4-3.7c0.2-1.4,0.4-2.5,0.6-3.4c-0.1-0.6-0.3-1-0.6-1.2c-0.6,0.5-1.3,1.3-2.1,2.5c0,1.6-0.1,3.7-0.3,6.4
	c-0.5,0.6-1.3,0.8-2.2,0.6c-1-0.2-1.6-0.6-1.8-1.2c0.6-2.2,1.1-4.4,1.5-6.7l-0.6-3.7c0.9-1.2,2-1.7,3.3-1.4c0.2,0.7,0.2,1.4,0.2,2
	l-0.6,1.1l0.2,0.5c0.9-1.3,1.8-2.5,2.8-3.6c0.9,0.1,1.6,0.5,2.2,1.1C-205-205.8-204.6-205-204.4-204.2z"/>
<path style="fill:#4CAF50;" d="M-197.1-206.6c0.5-0.8,1.1-1.2,1.8-1.4c0.7-0.1,1.2,0.1,1.6,0.7c-0.2,4.6-1.5,8.8-3.7,12.7
	c-0.8,0.3-1.7,0.2-2.5-0.2c-0.8-0.4-1.4-1.1-1.9-2c0.3-2.4,0.3-4.3,0-5.6l-1.4-2.5c0.7-2,1.8-2.9,3.4-2.8c0.9,2.1,1.3,5.4,1.1,9.8
	l0.2,0.2c1.1-1.9,1.8-3.9,2.1-6L-197.1-206.6z"/>
<path style="fill:#4CAF50;" d="M-192.1-202.1l-0.1-4.7c1.5-1.1,2.7-1.2,3.6-0.3l-0.8,4.3c-0.1,1.1-0.1,3.6-0.2,7.5
	c-0.5,0.6-1.2,0.8-2,0.6c-0.9-0.2-1.5-0.6-1.9-1.2C-192.8-198.4-192.3-200.5-192.1-202.1z M-188.4-211.6c0,0.7-0.2,1.3-0.5,1.8
	c-0.3,0.5-0.7,0.8-1.2,0.8c-0.5,0-0.9-0.3-1.2-0.8c-0.3-0.5-0.5-1.1-0.5-1.8c0-0.7,0.2-1.3,0.5-1.8c0.3-0.5,0.8-0.8,1.2-0.8
	c0.5,0,0.9,0.3,1.2,0.8C-188.5-213-188.4-212.3-188.4-211.6z"/>
<path style="fill:#4CAF50;" d="M-181.8-206.6c0.5-0.8,1.1-1.2,1.8-1.4c0.7-0.1,1.2,0.1,1.6,0.7c-0.2,4.6-1.5,8.8-3.7,12.7
	c-0.8,0.3-1.7,0.2-2.5-0.2c-0.8-0.4-1.4-1.1-1.9-2c0.3-2.4,0.3-4.3,0-5.6l-1.4-2.5c0.7-2,1.8-2.9,3.4-2.8c0.9,2.1,1.3,5.4,1.1,9.8
	l0.2,0.2c1.1-1.9,1.8-3.9,2.1-6L-181.8-206.6z"/>
<path style="fill:#4CAF50;" d="M-170.5-199.2c0.4,0,0.7,0.1,0.9,0.4c0.2,0.3,0.2,0.9,0.1,1.6c-0.5,0.7-1.2,1.3-2.1,1.8
	c-0.9,0.5-1.8,0.8-2.7,0.9c-1.2-0.3-2.2-0.9-2.8-1.9c-0.6-1-0.9-2.2-0.9-3.5c0.1-1.8,0.5-3.4,1.4-4.9c1.7-1.7,3.3-2.8,4.9-3.1
	c0.8,0.1,1.4,0.4,1.8,1c0.8,1.1,0.9,2.8,0.4,5c-0.6,0.5-1.4,1-2.3,1.5c-0.9,0.5-1.8,0.9-2.5,1.1c0.1,0.6,0.3,1.2,0.6,1.9
	C-172.6-197.6-171.5-198.2-170.5-199.2z M-172.9-205.2l-0.3,0.2c-0.7,1.2-1.1,2.6-1.2,4c0.7-0.4,1.4-0.9,2-1.4
	C-172.2-203.5-172.4-204.5-172.9-205.2z"/>
<path style="fill:#4CAF50;" d="M-158.1-204.2l-0.7,3.7c0,1.9,0.1,3.7,0.4,5.3c-0.3,0.6-0.9,0.8-1.8,0.7c-0.9-0.1-1.6-0.6-2.2-1.3
	c0-1,0.2-2.3,0.4-3.7c0.2-1.4,0.4-2.5,0.6-3.4c-0.1-0.6-0.3-1-0.6-1.2c-0.6,0.5-1.3,1.3-2.1,2.5c0,1.6-0.1,3.7-0.3,6.4
	c-0.5,0.6-1.3,0.8-2.2,0.6c-1-0.2-1.6-0.6-1.8-1.2c0.6-2.2,1.1-4.4,1.5-6.7l-0.6-3.7c0.9-1.2,2-1.7,3.3-1.4c0.2,0.7,0.2,1.4,0.2,2
	l-0.6,1.1l0.2,0.5c0.9-1.3,1.8-2.5,2.8-3.6c0.9,0.1,1.6,0.5,2.2,1.1C-158.7-205.8-158.3-205-158.1-204.2z"/>
<path style="fill:#4CAF50;" d="M-156.8-199.8c0-1,0.1-1.9,0.4-2.7c0.3-0.8,0.6-1.5,1.1-2.3c1.3-1.6,2.7-2.6,4.3-3.1
	c1,0.3,1.7,0.7,2.1,1.4c0.2,0.4,0.4,0.7,0.5,1.1c0.1,0.4,0.2,0.9,0.4,1.5c-0.1,0.9-0.5,1.5-1.1,1.8c-0.6,0.4-1.3,0.5-2.3,0.3
	c0.1-1-0.1-2.2-0.4-3.5l-0.5,0.2c-0.6,1.3-0.9,2.8-0.9,4.4c0,1.3,0.3,2.4,0.8,3.4c1.2-0.5,2.2-1.2,3-2.1c0.4,0,0.7,0.2,0.8,0.5
	c0.2,0.4,0.2,0.9,0.1,1.6c-0.5,0.7-1.1,1.3-1.9,1.8c-0.8,0.5-1.6,0.9-2.5,1c-1.4-0.2-2.4-0.8-3-1.8
	C-156.5-197.3-156.8-198.4-156.8-199.8z"/>
<path style="fill:#4CAF50;" d="M-146.1-202.1l-0.1-4.7c1.5-1.1,2.7-1.2,3.6-0.3l-0.8,4.3c-0.1,1.1-0.1,3.6-0.2,7.5
	c-0.5,0.6-1.2,0.8-2,0.6c-0.9-0.2-1.5-0.6-1.9-1.2C-146.8-198.4-146.3-200.5-146.1-202.1z M-142.4-211.6c0,0.7-0.2,1.3-0.5,1.8
	c-0.3,0.5-0.7,0.8-1.2,0.8c-0.5,0-0.9-0.3-1.2-0.8c-0.3-0.5-0.5-1.1-0.5-1.8c0-0.7,0.2-1.3,0.5-1.8c0.3-0.5,0.8-0.8,1.2-0.8
	c0.5,0,0.9,0.3,1.2,0.8C-142.5-213-142.4-212.3-142.4-211.6z"/>
<path style="fill:#4CAF50;" d="M-141.8-200c0-1.8,0.6-3.5,1.7-5.1c1.1-1.6,2.6-2.4,4.4-2.5c0.5,0.6,0.9,1.5,1.4,2.8
	c-0.1-1.1,0.1-2,0.3-2.6c1-0.3,1.8-0.4,2.4-0.2c0.5,0.2,0.9,0.7,1.1,1.4l-1.5,4c0,2.1,0.1,4.4,0.3,6.9c-0.3,0.6-0.9,0.8-1.8,0.7
	c-0.9-0.1-1.6-0.6-2.2-1.3l0.6-2l-0.3-0.4c-1,1.4-1.7,2.5-2.4,3.4c-1.4-0.1-2.4-0.6-3.1-1.6C-141.5-197.4-141.8-198.6-141.8-200z
	 M-137.6-202.7c-0.4,0.9-0.6,1.7-0.6,2.6s0.2,1.5,0.5,1.9c0.6-0.7,1.5-1.7,2.7-3l0.1-1.3c-0.3-1-0.7-1.8-1.2-2.2
	C-136.7-204.2-137.2-203.5-137.6-202.7z"/>
<path style="fill:#4CAF50;" d="M-117.2-209.9l-0.3,0.1c-0.7,1.1-1.2,2.2-1.5,3.5c-0.3,1.2-0.5,2.5-0.5,3.6c0,1.2,0.1,2.1,0.4,2.9
	c0.3,0.7,0.7,1.4,1.3,1.9c1.2-0.7,2.3-1.5,3.1-2.4c0.4,0,0.7,0.1,0.9,0.4c0.2,0.3,0.3,0.8,0.2,1.5c-1.1,1.7-2.6,3-4.6,3.9
	c-1.6-0.3-2.8-1.2-3.7-2.6c-0.9-1.4-1.3-3.1-1.3-5.2c0-1.1,0.1-2.1,0.4-3.1c0.2-1,0.6-2.1,1.1-3.3c0.9-1.2,1.7-2,2.6-2.6
	c0.9-0.6,1.9-1,3-1.2c0.9,0.5,1.6,1.2,2.1,2.1c0.5,0.9,0.7,2,0.9,3.2c-0.2,0.7-0.6,1.2-1.3,1.5c-0.7,0.3-1.4,0.2-2.1-0.3
	C-116.6-207.9-116.8-209.3-117.2-209.9z"/>
<path style="fill:#4CAF50;" d="M-111.3-202.1l-0.1-4.7c1.5-1.1,2.7-1.2,3.6-0.3l-0.8,4.3c-0.1,1.1-0.1,3.6-0.2,7.5
	c-0.5,0.6-1.2,0.8-2,0.6c-0.9-0.2-1.5-0.6-1.9-1.2C-112-198.4-111.5-200.5-111.3-202.1z M-107.6-211.6c0,0.7-0.2,1.3-0.5,1.8
	c-0.3,0.5-0.7,0.8-1.2,0.8c-0.5,0-0.9-0.3-1.2-0.8c-0.3-0.5-0.5-1.1-0.5-1.8c0-0.7,0.2-1.3,0.5-1.8c0.3-0.5,0.8-0.8,1.2-0.8
	c0.5,0,0.9,0.3,1.2,0.8C-107.8-213-107.6-212.3-107.6-211.6z"/>
<path style="fill:#4CAF50;" d="M-106.1-201.8l-0.3-5.5c0.6-0.4,1.4-0.5,2.2-0.3c0.8,0.2,1.4,0.7,1.7,1.4c0,0.8-0.1,1.9-0.4,3.3
	c-0.3,1.4-0.6,2.6-1,3.6c0.1,0.5,0.4,0.9,1.1,1.2c0.9-1.4,1.5-2.4,1.8-3c0.3-2.8,0.6-4.8,0.9-6.2c1.1-0.3,1.9-0.3,2.4-0.2
	c0.6,0.2,0.9,0.6,1.1,1.3l-1.4,4c0,2.1,0.2,4.4,0.5,6.9c-0.3,0.6-0.9,0.8-1.8,0.7c-0.9-0.1-1.6-0.6-2.2-1.3l0.6-2.1l-0.2-0.2
	c-0.2,0.4-0.9,1.6-2.1,3.7c-2.4-0.4-3.7-1.7-4-3.8L-106.1-201.8z"/>
<path style="fill:#4CAF50;" d="M-87.8-207.1l-0.2-6.4c1.5-1,2.8-1.2,3.7-0.6l-1.1,5.8c-0.1,1-0.4,5.4-0.9,13.1
	c-0.4,0.6-1.1,0.8-2,0.7c-0.9-0.1-1.6-0.5-2-1.3l0.9-1.9l-0.2-0.4c-0.9,1.2-1.6,2.3-2.3,3.3c-1.3,0-2.3-0.5-3-1.5
	c-0.7-1-1-2.2-1-3.6c0-0.9,0.2-1.8,0.5-2.7c0.3-0.9,0.7-1.7,1.2-2.4c0.5-0.7,1.2-1.3,2-1.8c0.8-0.5,1.6-0.7,2.6-0.7
	c0.5,0.7,1,1.8,1.4,3.2C-88.1-205.4-87.9-206.3-87.8-207.1z M-88.9-201.2l0.3-1.3c-0.5-1.1-0.9-1.8-1.4-2.2c-0.6,0.5-1.2,1.2-1.5,2
	c-0.4,0.9-0.6,1.7-0.6,2.6c0,0.9,0.2,1.5,0.5,1.9C-90.9-199-90-200-88.9-201.2z"/>
<path style="fill:#4CAF50;" d="M-84.5-200c0-1.8,0.6-3.5,1.7-5.1c1.1-1.6,2.6-2.4,4.4-2.5c0.5,0.6,0.9,1.5,1.4,2.8
	c-0.1-1.1,0.1-2,0.3-2.6c1-0.3,1.8-0.4,2.4-0.2c0.5,0.2,0.9,0.7,1.1,1.4l-1.5,4c0,2.1,0.1,4.4,0.3,6.9c-0.3,0.6-0.9,0.8-1.8,0.7
	c-0.9-0.1-1.6-0.6-2.2-1.3l0.6-2l-0.3-0.4c-1,1.4-1.7,2.5-2.4,3.4c-1.4-0.1-2.4-0.6-3.1-1.6C-84.2-197.4-84.5-198.6-84.5-200z
	 M-80.2-202.7c-0.4,0.9-0.6,1.7-0.6,2.6s0.2,1.5,0.5,1.9c0.6-0.7,1.5-1.7,2.7-3l0.1-1.3c-0.3-1-0.7-1.8-1.2-2.2
	C-79.3-204.2-79.8-203.5-80.2-202.7z"/>
<path style="fill:#4CAF50;" d="M-64.7-207.1l-0.2-6.4c1.5-1,2.8-1.2,3.7-0.6l-1.1,5.8c-0.1,1-0.4,5.4-0.9,13.1c-0.4,0.6-1,0.8-2,0.7
	c-0.9-0.1-1.6-0.5-2-1.3l1-1.9l-0.2-0.4c-0.9,1.2-1.6,2.3-2.3,3.3c-1.3,0-2.3-0.5-3-1.5c-0.7-1-1-2.2-1-3.6c0-0.9,0.2-1.8,0.5-2.7
	c0.3-0.9,0.7-1.7,1.2-2.4c0.5-0.7,1.2-1.3,2-1.8c0.8-0.5,1.6-0.7,2.6-0.7c0.5,0.7,1,1.8,1.4,3.2C-65-205.4-64.8-206.3-64.7-207.1z
	 M-65.8-201.2l0.3-1.3c-0.5-1.1-0.9-1.8-1.4-2.2c-0.6,0.5-1.2,1.2-1.5,2c-0.4,0.9-0.6,1.7-0.6,2.6c0,0.9,0.2,1.5,0.5,1.9
	C-67.8-199-66.9-200-65.8-201.2z"/>
<path style="fill:#4CAF50;" d="M-61.4-200c0-1.8,0.6-3.5,1.7-5.1c1.1-1.6,2.6-2.4,4.4-2.5c0.5,0.6,0.9,1.5,1.4,2.8
	c-0.1-1.1,0.1-2,0.3-2.6c1-0.3,1.8-0.4,2.4-0.2c0.5,0.2,0.9,0.7,1.1,1.4l-1.5,4c0,2.1,0.1,4.4,0.3,6.9c-0.3,0.6-0.9,0.8-1.8,0.7
	c-0.9-0.1-1.6-0.6-2.2-1.3l0.6-2l-0.3-0.4c-1,1.4-1.7,2.5-2.4,3.4c-1.4-0.1-2.4-0.6-3.1-1.6C-61.1-197.4-61.4-198.6-61.4-200z
	 M-57.1-202.7c-0.4,0.9-0.6,1.7-0.6,2.6s0.2,1.5,0.5,1.9c0.6-0.7,1.5-1.7,2.7-3l0.1-1.3c-0.3-1-0.7-1.8-1.2-2.2
	C-56.2-204.2-56.7-203.5-57.1-202.7z"/>
<path style="fill:#4CAF50;" d="M-39.5-204.2l-0.7,3.7c0,1.9,0.1,3.7,0.4,5.3c-0.3,0.6-0.9,0.8-1.8,0.7c-0.9-0.1-1.6-0.6-2.2-1.3
	c0-1,0.2-2.3,0.4-3.7c0.2-1.4,0.4-2.5,0.6-3.4c-0.1-0.6-0.3-1-0.6-1.2c-0.6,0.5-1.3,1.3-2.1,2.5c0,1.6-0.1,3.7-0.3,6.4
	c-0.5,0.6-1.3,0.8-2.2,0.6c-1-0.2-1.6-0.6-1.8-1.2c0.6-2.2,1.1-4.4,1.5-6.7l-0.6-3.7c0.9-1.2,2-1.7,3.3-1.4c0.2,0.7,0.2,1.4,0.2,2
	l-0.6,1.1l0.2,0.5c0.9-1.3,1.8-2.5,2.8-3.6c0.9,0.1,1.6,0.5,2.2,1.1C-40.1-205.8-39.7-205-39.5-204.2z"/>
<path style="fill:#4CAF50;" d="M-38.2-200c0-1.8,0.6-3.5,1.7-5.1c1.1-1.6,2.6-2.4,4.4-2.5c0.5,0.6,0.9,1.5,1.4,2.8
	c-0.1-1.1,0.1-2,0.3-2.6c1-0.3,1.8-0.4,2.4-0.2c0.5,0.2,0.9,0.7,1.1,1.4l-1.5,4c0,2.1,0.1,4.4,0.3,6.9c-0.3,0.6-0.9,0.8-1.8,0.7
	c-0.9-0.1-1.6-0.6-2.2-1.3l0.6-2l-0.3-0.4c-1,1.4-1.7,2.5-2.4,3.4c-1.4-0.1-2.4-0.6-3.1-1.6C-37.9-197.4-38.2-198.6-38.2-200z
	 M-34-202.7c-0.4,0.9-0.6,1.7-0.6,2.6s0.2,1.5,0.5,1.9c0.6-0.7,1.5-1.7,2.7-3l0.1-1.3c-0.3-1-0.7-1.8-1.2-2.2
	C-33.1-204.2-33.6-203.5-34-202.7z"/>
</svg>
