<?xml version="1.0" encoding="iso-8859-1"?>
<!-- Generator: Adobe Illustrator 22.1.0, SVG Export Plug-In . SVG Version: 6.00 Build 0)  -->
<svg version="1.1" id="Capa_1" xmlns="http://www.w3.org/2000/svg" xmlns:xlink="http://www.w3.org/1999/xlink" x="0px" y="0px"
	 viewBox="0 0 319 146.9" style="enable-background:new 0 0 319 146.9;" xml:space="preserve">
<path style="fill:#303F9F;" d="M-931.8,171.6h-94.2c-3.5,0-6.7-1.9-8.4-4.9l-47.1-81.6c-1.7-3-1.7-6.7,0-9.7l47.1-81.6
	c1.7-3,5-4.9,8.4-4.9h94.2c3.5,0,6.7,1.9,8.4,4.9l47.1,81.6c1.7,3,1.7,6.7,0,9.7l-47.1,81.6C-925.1,169.7-928.3,171.6-931.8,171.6z"
	/>
<path style="fill:#303F9F;" d="M-116.3,104.4l-47.1-81.6c-1.7-3-5-4.9-8.4-4.9h-65c-1.8-0.3-3.7-0.4-5.7-0.4h-216.3
	c-2,0-3.9,0.1-5.7,0.4H-491c-3.5,0-6.7,1.9-8.4,4.9l-47.1,81.6c-1.7,3-1.7,6.7,0,9.7l47.1,81.6c1.7,3,5,4.9,8.4,4.9h94.2
	c1,0,1.9-0.2,2.8-0.4h125.2c0.9,0.3,1.8,0.4,2.8,0.4h94.2c3.5,0,6.7-1.9,8.4-4.9l47.1-81.6C-114.5,111.1-114.5,107.4-116.3,104.4z"
	/>
<rect x="-1166.8" y="-158" style="fill:none;" width="95" height="225.6"/>
<text transform="matrix(1 0 0 1 -1166.8073 -134.2262)"><tspan x="0" y="0" style="font-family:'MVBoli'; font-size:31px;">CECC</tspan><tspan x="0" y="37.2" style="font-family:'OCRAExtended'; font-size:31px;">CECC</tspan></text>
<g>
	<path style="fill:#303F9F;" d="M-723.6-362.7c0.7-0.6,1.7-1.2,2.8-1.7c1.1-0.6,2.3-0.9,3.6-1.2c1.8-0.3,3.6-0.5,5.4-0.6
		c1.8-0.1,3.6-0.1,5.3,0.1c1.7,0.1,3.3,0.3,4.8,0.6c1.5,0.3,2.8,0.7,3.8,1.1l0,0c0.7,0.3,1.4,0.6,2.2,0.9c0.8,0.3,1.5,0.7,2.3,1.1
		c0.7,0.4,1.4,0.8,2.1,1.3c0.7,0.5,1.2,1,1.7,1.6c0.5,0.6,0.9,1.3,1.1,2c0.2,0.7,0.3,1.4,0.3,2.2c0,0.7-0.2,1.4-0.5,2
		c-0.3,0.6-0.7,1.2-1.3,1.7c-0.4,0.3-0.7,0.5-1,0.7c-0.3,0.1-0.5,0.2-0.7,0.2c-0.2,0-0.4-0.1-0.5-0.2c-0.2-0.1-0.3-0.3-0.5-0.5
		c-0.3-0.3-0.4-0.6-0.4-0.9c0-0.3,0-0.5,0.1-0.8c0.1-0.2,0.2-0.5,0.4-0.7c0.2-0.2,0.3-0.5,0.4-0.7c0.1-0.2,0.2-0.4,0.2-0.7
		c0-0.2-0.1-0.4-0.2-0.7c-0.5-0.6-1.1-1.1-1.9-1.6c-0.8-0.5-1.6-0.9-2.6-1.3c-1-0.4-2-0.7-3-1c-1.1-0.3-2.1-0.6-3.1-0.8
		c-1-0.2-2-0.4-3-0.5c-0.9-0.1-1.8-0.2-2.5-0.3c-1.1,0-2.2,0-3.3,0c-1.1,0.1-2.1,0.2-3.1,0.4c-1,0.2-1.9,0.5-2.8,0.9
		c-0.9,0.4-1.7,0.9-2.5,1.6c-0.6,0.5-1.1,1-1.4,1.6c-0.3,0.6-0.5,1.1-0.7,1.6c-0.2,0.6-0.1,1.1,0,1.7c0.2,0.5,0.5,1.1,1,1.6
		c1,1.2,2,2.3,3.1,3.2c1.1,0.9,2.1,1.7,3.3,2.3s2.3,1.3,3.5,1.8c1.2,0.5,2.5,1.1,3.8,1.6l0.5,0.6c0.2,0.2,0.3,0.4,0.3,0.7
		c0.1,0.3,0.1,0.5,0.1,0.8c0,0.3-0.1,0.5-0.2,0.8c-0.1,0.2-0.2,0.4-0.4,0.6c-0.4,0.3-1,0.5-1.7,0.5c-0.7,0-1.5-0.2-2.4-0.5
		c-0.9-0.3-1.7-0.7-2.7-1.1c-0.9-0.5-1.8-1-2.7-1.5c-0.8-0.5-1.6-1-2.3-1.5c-0.7-0.5-1.2-0.9-1.6-1.2c-0.3-0.3-0.6-0.5-0.9-0.8
		c-0.3-0.3-0.6-0.6-1-0.9c-0.4-0.4-0.8-0.8-1.3-1.3c-0.5-0.5-1.1-1.2-1.8-2.1c-0.4-0.5-0.7-1.1-0.9-1.6c-0.2-0.6-0.4-1.1-0.4-1.6
		c-0.1-0.5-0.1-1-0.1-1.4c0-0.4,0.1-0.8,0.1-1c0.2-1.6,0.5-2.9,1.1-4C-725.4-360.9-724.6-361.9-723.6-362.7z"/>
	<path style="fill:#303F9F;" d="M-717.4-372.3c0.8-0.5,1.8-1,2.9-1.5c1.1-0.5,2.4-0.7,3.7-0.8c1.8-0.1,3.6-0.2,5.5-0.1
		c1.8,0.1,3.6,0.3,5.3,0.6c1.7,0.3,3.2,0.6,4.7,1c1.4,0.4,2.7,0.9,3.7,1.5l0,0c0.7,0.3,1.4,0.7,2.1,1.1c0.7,0.4,1.4,0.8,2.1,1.3
		c0.7,0.5,1.4,0.9,2,1.5c0.6,0.5,1.1,1.1,1.6,1.8c0.4,0.7,0.7,1.3,0.9,2.1c0.2,0.7,0.2,1.5,0.1,2.2c-0.1,0.7-0.3,1.4-0.7,2
		c-0.4,0.6-0.8,1.1-1.4,1.5c-0.4,0.3-0.8,0.5-1,0.6c-0.3,0.1-0.5,0.1-0.7,0.1c-0.2,0-0.4-0.1-0.5-0.3c-0.1-0.2-0.3-0.4-0.5-0.6
		c-0.2-0.3-0.3-0.7-0.3-0.9c0-0.3,0.1-0.5,0.2-0.8c0.1-0.2,0.3-0.5,0.4-0.7c0.2-0.2,0.3-0.4,0.5-0.6c0.1-0.2,0.2-0.4,0.3-0.6
		c0-0.2,0-0.4-0.2-0.7c-0.4-0.6-1-1.2-1.7-1.8c-0.7-0.6-1.6-1.1-2.5-1.6c-0.9-0.5-1.9-0.9-2.9-1.3c-1-0.4-2-0.8-3-1.1
		c-1-0.3-2-0.6-2.9-0.8c-0.9-0.2-1.7-0.4-2.4-0.5c-1.1-0.2-2.2-0.2-3.3-0.3c-1.1,0-2.1,0-3.1,0.1c-1,0.1-2,0.4-2.9,0.7
		c-0.9,0.3-1.8,0.8-2.7,1.3c-0.7,0.4-1.2,0.9-1.5,1.5c-0.4,0.5-0.6,1.1-0.8,1.5c-0.2,0.6-0.3,1.1-0.1,1.7c0.1,0.5,0.4,1.1,0.8,1.7
		c0.9,1.3,1.8,2.5,2.8,3.4c1,1,2,1.8,3,2.6s2.2,1.5,3.3,2.1c1.2,0.6,2.4,1.3,3.6,1.9l0.4,0.6c0.1,0.2,0.2,0.4,0.3,0.7
		c0,0.3,0,0.5,0,0.8c0,0.3-0.1,0.5-0.2,0.7c-0.1,0.2-0.3,0.4-0.5,0.5c-0.5,0.3-1,0.4-1.7,0.3c-0.7-0.1-1.5-0.3-2.3-0.7
		c-0.8-0.4-1.7-0.8-2.6-1.4c-0.9-0.6-1.7-1.1-2.5-1.7c-0.8-0.6-1.5-1.1-2.1-1.7c-0.6-0.5-1.1-1-1.5-1.3c-0.3-0.3-0.6-0.6-0.9-0.9
		c-0.3-0.3-0.6-0.6-0.9-1c-0.4-0.4-0.7-0.9-1.2-1.5c-0.4-0.6-1-1.3-1.6-2.2c-0.4-0.6-0.6-1.1-0.8-1.7c-0.2-0.6-0.2-1.1-0.3-1.6
		c0-0.5,0-1,0-1.4c0.1-0.4,0.1-0.7,0.2-1c0.3-1.5,0.8-2.8,1.4-3.9C-719.3-370.6-718.4-371.5-717.4-372.3z"/>
	<path style="fill:#4CAF50;" d="M-696.2-282.8l15.5,5.2c1.2,0.4,2.1,1.1,2.7,2.1c0.6,1,0.8,2,0.4,3c-0.3,1-1.1,1.8-2.2,2.2
		c-1.1,0.4-2.3,0.4-3.4,0l-16-5.4c-2-0.7-4-1.9-5.8-3.8c-1.8-1.8-2.9-3.6-3.3-5.3l-4.4-19.8c-0.5-2.8-0.4-5.5,0.5-8
		c0.9-2.8,2.3-4.9,4.3-6.5l15.4-13c1.5-1.2,3.4-2,5.8-2.5c2.4-0.5,4.5-0.4,6.4,0.2l16.9,5.7c1.2,0.4,2.1,1.1,2.7,2.1
		c0.6,1,0.7,2,0.4,3c-0.3,1-1.1,1.8-2.1,2.2c-1.1,0.5-2.2,0.5-3.4,0.1l-16.3-5.5c-1.4-0.5-2.7-0.1-4,1l-14.6,12.1
		c-1.2,0.9-2,2.2-2.5,3.9c-0.6,1.7-0.7,3.4-0.3,5l4,18.1C-699.2-284.7-698.1-283.4-696.2-282.8z"/>
	<path style="fill:#303F9F;" d="M-685.1-320.5l12.7,4.3c1,0.3,1.7,0.8,2.3,1.6c0.6,0.7,0.7,1.4,0.5,2.1c-0.2,0.7-0.8,1.1-1.6,1.4
		c-0.9,0.2-1.8,0.2-2.8-0.1l-13.2-4.4c-1.7-0.6-3.3-1.5-4.8-2.8c-1.5-1.3-2.5-2.6-2.9-3.7l-4.5-13.7c-0.6-1.9-0.6-3.7,0-5.4
		c0.6-1.8,1.7-3.2,3.1-4.2l11.8-8.1c1.1-0.7,2.6-1.2,4.5-1.4c1.9-0.2,3.6-0.1,5.2,0.4l13.9,4.7c1,0.3,1.7,0.8,2.3,1.6
		c0.5,0.7,0.7,1.4,0.5,2.1c-0.2,0.7-0.8,1.2-1.6,1.4c-0.9,0.3-1.8,0.2-2.7-0.1l-13.4-4.5c-1.1-0.4-2.2-0.2-3.2,0.5l-11.2,7.5
		c-0.9,0.6-1.5,1.4-1.9,2.5c-0.4,1.1-0.4,2.3,0,3.4l4.1,12.5C-687.7-321.9-686.7-321-685.1-320.5z"/>
	<path style="fill:#303F9F;" d="M-652.3-319l5.9,2c0.5,0.2,0.8,0.4,1.1,0.7c0.3,0.3,0.3,0.7,0.2,1c-0.1,0.3-0.4,0.5-0.8,0.6
		c-0.4,0.1-0.8,0.1-1.3-0.1l-6.1-2c-0.8-0.3-1.5-0.7-2.2-1.3c-0.7-0.6-1.2-1.2-1.4-1.7l-2.1-6.4c-0.3-0.9-0.3-1.7,0-2.5
		c0.3-0.8,0.8-1.5,1.5-2l5.5-3.8c0.5-0.3,1.2-0.6,2.1-0.7c0.9-0.1,1.7,0,2.4,0.2l6.5,2.2c0.5,0.2,0.8,0.4,1,0.7
		c0.2,0.3,0.3,0.7,0.2,1c-0.1,0.3-0.4,0.5-0.8,0.7c-0.4,0.1-0.8,0.1-1.3,0l-6.2-2.1c-0.5-0.2-1-0.1-1.5,0.2l-5.2,3.5
		c-0.4,0.3-0.7,0.7-0.9,1.2c-0.2,0.5-0.2,1.1,0,1.6l1.9,5.8C-653.5-319.7-653-319.2-652.3-319z"/>
	<path style="fill:#4CAF50;" d="M-656.3-308l5.9,2c0.5,0.2,0.8,0.4,1.1,0.7c0.3,0.3,0.3,0.7,0.2,1c-0.1,0.3-0.4,0.5-0.8,0.6
		c-0.4,0.1-0.8,0.1-1.3-0.1l-6.1-2c-0.8-0.3-1.5-0.7-2.2-1.3c-0.7-0.6-1.2-1.2-1.4-1.7l-2.1-6.4c-0.3-0.9-0.3-1.7,0-2.5
		c0.3-0.8,0.8-1.5,1.5-2l5.5-3.8c0.5-0.3,1.2-0.6,2.1-0.7c0.9-0.1,1.7,0,2.4,0.2l6.5,2.2c0.5,0.2,0.8,0.4,1,0.7
		c0.2,0.3,0.3,0.7,0.2,1c-0.1,0.3-0.4,0.5-0.8,0.7c-0.4,0.1-0.8,0.1-1.3,0l-6.2-2.1c-0.5-0.2-1-0.1-1.5,0.2l-5.2,3.5
		c-0.4,0.3-0.7,0.7-0.9,1.2c-0.2,0.5-0.2,1.1,0,1.6l1.9,5.8C-657.5-308.7-657-308.2-656.3-308z"/>
	<path style="fill:#303F9F;" d="M-644-365.8l-1.7-9.6c-0.2-0.9-0.6-1.8-1.4-2.8c-0.8-1-1.6-1.7-2.5-2.1l-0.7-0.3c0,0,0,0,0,0
		c-0.3-0.5-0.8-0.8-1.4-1l-2.4-0.7l-3.8-1.7c-0.6-0.3-1.2-0.3-1.7-0.2c-0.1,0-0.3,0.1-0.4,0.1l-0.5-0.1c-1-0.3-2.1-0.3-3.3-0.1
		c-1.2,0.2-2.2,0.6-2.9,1.2l-7.6,6.2c-0.9,0.8-1.6,1.8-2,3.1c-0.4,1.2-0.3,2.4,0,3.8l2.9,9.4c0.3,0.8,0.9,1.6,1.9,2.5
		c1,0.9,2,1.5,3.1,1.8l4.3,1.3l2.5,1.1c1,0.5,2.2,0.7,3.5,0.7c1.3,0,2.3-0.2,3-0.7l8.3-5.2c1.1-0.8,2-1.7,2.5-2.9
		C-643.9-363.4-643.7-364.6-644-365.8z M-648.9-364.2c-0.4,0.8-0.9,1.4-1.5,1.8l-7.6,4.8c-0.2,0.2-0.5,0.2-0.7,0.3
		c-0.1-0.1-0.3-0.1-0.4-0.2l-3.9-1.2l-5.2-2.4c-0.2-0.1-0.4-0.2-0.7-0.2c-0.1-0.1-0.1-0.3-0.2-0.4l-2.6-8.6c-0.2-0.8-0.2-1.5,0-2.4
		c0.2-0.8,0.6-1.4,1.2-1.9l7.2-5.8c0.6-0.5,1.3-0.7,2-0.5l5.9,1.7l4.1,1.8c0.7,0.3,1.1,0.9,1.2,1.7l1.6,9.1
		C-648.4-365.6-648.5-364.9-648.9-364.2z"/>
	<polygon style="fill:#303F9F;" points="-704.3,-275.3 -692,-271.2 -708.4,-259.7 	"/>
</g>
<path style="fill:#303F9F;" d="M-636.3-230.8h-94.2c-3.5,0-6.7-1.9-8.4-4.9l-47.1-81.6c-1.7-3-1.7-6.7,0-9.7l47.1-81.6
	c1.7-3,5-4.9,8.4-4.9h94.2c3.5,0,6.7,1.9,8.4,4.9l47.1,81.6c1.7,3,1.7,6.7,0,9.7l-47.1,81.6C-629.6-232.7-632.8-230.8-636.3-230.8z
	 M-727.8-245.2h88.9l44.4-77l-44.4-77h-88.9l-44.4,77L-727.8-245.2z"/>
<path style="fill:#FFFFFF;" d="M-1019.2,43.6c0.7-0.6,1.7-1.2,2.8-1.7c1.1-0.6,2.3-0.9,3.6-1.2c1.8-0.3,3.6-0.5,5.4-0.6
	c1.8-0.1,3.6-0.1,5.3,0.1c1.7,0.1,3.3,0.3,4.8,0.6c1.5,0.3,2.8,0.7,3.8,1.1l0,0c0.7,0.3,1.4,0.6,2.2,0.9s1.5,0.7,2.3,1.1
	c0.7,0.4,1.4,0.8,2.1,1.3c0.7,0.5,1.2,1,1.7,1.6c0.5,0.6,0.9,1.3,1.1,2c0.2,0.7,0.3,1.4,0.3,2.2c0,0.7-0.2,1.4-0.5,2
	c-0.3,0.6-0.7,1.2-1.3,1.7c-0.4,0.3-0.7,0.5-1,0.7c-0.3,0.1-0.5,0.2-0.7,0.2c-0.2,0-0.4-0.1-0.5-0.2c-0.2-0.1-0.3-0.3-0.5-0.5
	c-0.3-0.3-0.4-0.6-0.4-0.9c0-0.3,0-0.5,0.1-0.8c0.1-0.2,0.2-0.5,0.4-0.7c0.2-0.2,0.3-0.5,0.4-0.7c0.1-0.2,0.2-0.4,0.2-0.7
	c0-0.2-0.1-0.4-0.2-0.7c-0.5-0.6-1.1-1.1-1.9-1.6c-0.8-0.5-1.6-0.9-2.6-1.3c-1-0.4-2-0.7-3-1c-1.1-0.3-2.1-0.6-3.1-0.8
	c-1-0.2-2-0.4-3-0.5c-0.9-0.1-1.8-0.2-2.5-0.3c-1.1,0-2.2,0-3.3,0c-1.1,0.1-2.1,0.2-3.1,0.4c-1,0.2-1.9,0.5-2.8,0.9
	c-0.9,0.4-1.7,0.9-2.5,1.6c-0.6,0.5-1.1,1-1.4,1.6c-0.3,0.6-0.5,1.1-0.7,1.6c-0.2,0.6-0.1,1.1,0,1.7c0.2,0.5,0.5,1.1,1,1.6
	c1,1.2,2,2.3,3.1,3.2c1.1,0.9,2.1,1.7,3.3,2.3s2.3,1.3,3.5,1.8c1.2,0.5,2.5,1.1,3.8,1.6l0.5,0.6c0.2,0.2,0.3,0.4,0.3,0.7
	c0.1,0.3,0.1,0.5,0.1,0.8c0,0.3-0.1,0.5-0.2,0.8c-0.1,0.2-0.2,0.4-0.4,0.6c-0.4,0.3-1,0.5-1.7,0.5c-0.7,0-1.5-0.2-2.4-0.5
	c-0.9-0.3-1.7-0.7-2.7-1.1c-0.9-0.5-1.8-1-2.7-1.5c-0.8-0.5-1.6-1-2.3-1.5c-0.7-0.5-1.2-0.9-1.6-1.2c-0.3-0.3-0.6-0.5-0.9-0.8
	c-0.3-0.3-0.6-0.6-1-0.9c-0.4-0.4-0.8-0.8-1.3-1.3c-0.5-0.5-1.1-1.2-1.8-2.1c-0.4-0.5-0.7-1.1-0.9-1.6c-0.2-0.6-0.4-1.1-0.4-1.6
	c-0.1-0.5-0.1-1-0.1-1.4c0-0.4,0.1-0.8,0.1-1c0.2-1.6,0.5-2.9,1.1-4C-1021,45.4-1020.2,44.4-1019.2,43.6z"/>
<path style="fill:#FFFFFF;" d="M-1013,34c0.8-0.5,1.8-1,2.9-1.5c1.1-0.5,2.4-0.7,3.7-0.8c1.8-0.1,3.6-0.2,5.5-0.1
	c1.8,0.1,3.6,0.3,5.3,0.6c1.7,0.3,3.2,0.6,4.7,1c1.4,0.4,2.7,0.9,3.7,1.5l0,0c0.7,0.3,1.4,0.7,2.1,1.1c0.7,0.4,1.4,0.8,2.1,1.3
	c0.7,0.5,1.4,0.9,2,1.5c0.6,0.5,1.1,1.1,1.6,1.8c0.4,0.7,0.7,1.3,0.9,2.1c0.2,0.7,0.2,1.5,0.1,2.2c-0.1,0.7-0.3,1.4-0.7,2
	c-0.4,0.6-0.8,1.1-1.4,1.5c-0.4,0.3-0.8,0.5-1,0.6c-0.3,0.1-0.5,0.1-0.7,0.1c-0.2,0-0.4-0.1-0.5-0.3c-0.1-0.2-0.3-0.4-0.5-0.6
	c-0.2-0.3-0.3-0.7-0.3-0.9c0-0.3,0.1-0.5,0.2-0.8c0.1-0.2,0.3-0.5,0.4-0.7c0.2-0.2,0.3-0.4,0.5-0.6c0.1-0.2,0.2-0.4,0.3-0.6
	c0-0.2,0-0.4-0.2-0.7c-0.4-0.6-1-1.2-1.7-1.8c-0.7-0.6-1.6-1.1-2.5-1.6c-0.9-0.5-1.9-0.9-2.9-1.3c-1-0.4-2-0.8-3-1.1
	c-1-0.3-2-0.6-2.9-0.8c-0.9-0.2-1.7-0.4-2.4-0.5c-1.1-0.2-2.2-0.2-3.3-0.3c-1.1,0-2.1,0-3.1,0.1c-1,0.1-2,0.4-2.9,0.7
	c-0.9,0.3-1.8,0.8-2.7,1.3c-0.7,0.4-1.2,0.9-1.5,1.5c-0.4,0.5-0.6,1.1-0.8,1.5c-0.2,0.6-0.3,1.1-0.1,1.7c0.1,0.5,0.4,1.1,0.8,1.7
	c0.9,1.3,1.8,2.5,2.8,3.4c1,1,2,1.8,3,2.6c1.1,0.8,2.2,1.5,3.3,2.1c1.2,0.6,2.4,1.3,3.6,1.9l0.4,0.6c0.1,0.2,0.2,0.4,0.3,0.7
	c0,0.3,0,0.5,0,0.8c0,0.3-0.1,0.5-0.2,0.7c-0.1,0.2-0.3,0.4-0.5,0.5c-0.5,0.3-1,0.4-1.7,0.3c-0.7-0.1-1.5-0.3-2.3-0.7
	c-0.8-0.4-1.7-0.8-2.6-1.4c-0.9-0.6-1.7-1.1-2.5-1.7c-0.8-0.6-1.5-1.1-2.1-1.7c-0.6-0.5-1.1-1-1.5-1.3c-0.3-0.3-0.6-0.6-0.9-0.9
	c-0.3-0.3-0.6-0.6-0.9-1c-0.4-0.4-0.7-0.9-1.2-1.5c-0.4-0.6-1-1.3-1.6-2.2c-0.4-0.6-0.6-1.1-0.8-1.7c-0.2-0.6-0.2-1.1-0.3-1.6
	c0-0.5,0-1,0-1.4c0.1-0.4,0.1-0.7,0.2-1c0.3-1.5,0.8-2.8,1.4-3.9C-1014.9,35.6-1014.1,34.8-1013,34z"/>
<path style="fill:#FFFFFF;" d="M-991.8,123.5l15.5,5.2c1.2,0.4,2.1,1.1,2.7,2.1c0.6,1,0.8,2,0.4,3c-0.3,1-1.1,1.8-2.2,2.2
	c-1.1,0.4-2.3,0.4-3.4,0l-16-5.4c-2-0.7-4-1.9-5.8-3.8c-1.8-1.8-2.9-3.6-3.3-5.3l-4.4-19.8c-0.5-2.8-0.4-5.5,0.5-8
	c0.9-2.8,2.3-4.9,4.3-6.5l15.4-13c1.5-1.2,3.4-2,5.8-2.5c2.4-0.5,4.5-0.4,6.4,0.2l16.9,5.7c1.2,0.4,2.1,1.1,2.7,2.1
	c0.6,1,0.7,2,0.4,3c-0.3,1-1.1,1.8-2.1,2.2c-1.1,0.5-2.2,0.5-3.4,0.1l-16.3-5.5c-1.4-0.5-2.7-0.1-4,1l-14.6,12.1
	c-1.2,0.9-2,2.2-2.5,3.9c-0.6,1.7-0.7,3.4-0.3,5l4,18.1C-994.9,121.6-993.7,122.9-991.8,123.5z"/>
<path style="fill:#FFFFFF;" d="M-980.7,85.8l12.7,4.3c1,0.3,1.7,0.8,2.3,1.6c0.6,0.7,0.7,1.4,0.5,2.1c-0.2,0.7-0.8,1.1-1.6,1.4
	c-0.9,0.2-1.8,0.2-2.8-0.1l-13.2-4.4c-1.7-0.6-3.3-1.5-4.8-2.8c-1.5-1.3-2.5-2.6-2.9-3.7l-4.5-13.7c-0.6-1.9-0.6-3.7,0-5.4
	c0.6-1.8,1.7-3.2,3.1-4.2l11.8-8.1c1.1-0.7,2.6-1.2,4.5-1.4c1.9-0.2,3.6-0.1,5.2,0.4l13.9,4.7c1,0.3,1.7,0.8,2.3,1.6
	c0.5,0.7,0.7,1.4,0.5,2.1c-0.2,0.7-0.8,1.2-1.6,1.4c-0.9,0.3-1.8,0.2-2.7-0.1l-13.4-4.5c-1.1-0.4-2.2-0.2-3.2,0.5l-11.2,7.5
	c-0.9,0.6-1.5,1.4-1.9,2.5c-0.4,1.1-0.4,2.3,0,3.4l4.1,12.5C-983.3,84.4-982.3,85.3-980.7,85.8z"/>
<path style="fill:#FFFFFF;" d="M-947.9,87.3l5.9,2c0.5,0.2,0.8,0.4,1.1,0.7c0.3,0.3,0.3,0.7,0.2,1c-0.1,0.3-0.4,0.5-0.8,0.6
	c-0.4,0.1-0.8,0.1-1.3-0.1l-6.1-2c-0.8-0.3-1.5-0.7-2.2-1.3c-0.7-0.6-1.2-1.2-1.4-1.7l-2.1-6.4c-0.3-0.9-0.3-1.7,0-2.5
	c0.3-0.8,0.8-1.5,1.5-2l5.5-3.8c0.5-0.3,1.2-0.6,2.1-0.7c0.9-0.1,1.7,0,2.4,0.2l6.5,2.2c0.5,0.2,0.8,0.4,1,0.7
	c0.2,0.3,0.3,0.7,0.2,1c-0.1,0.3-0.4,0.5-0.8,0.7c-0.4,0.1-0.8,0.1-1.3,0l-6.2-2.1c-0.5-0.2-1-0.1-1.5,0.2l-5.2,3.5
	c-0.4,0.3-0.7,0.7-0.9,1.2c-0.2,0.5-0.2,1.1,0,1.6l1.9,5.8C-949.1,86.6-948.7,87-947.9,87.3z"/>
<path style="fill:#FFFFFF;" d="M-951.9,98.3l5.9,2c0.5,0.2,0.8,0.4,1.1,0.7c0.3,0.3,0.3,0.7,0.2,1c-0.1,0.3-0.4,0.5-0.8,0.6
	c-0.4,0.1-0.8,0.1-1.3-0.1l-6.1-2c-0.8-0.3-1.5-0.7-2.2-1.3c-0.7-0.6-1.2-1.2-1.4-1.7l-2.1-6.4c-0.3-0.9-0.3-1.7,0-2.5
	c0.3-0.8,0.8-1.5,1.5-2l5.5-3.8c0.5-0.3,1.2-0.6,2.1-0.7c0.9-0.1,1.7,0,2.4,0.2l6.5,2.2c0.5,0.2,0.8,0.4,1,0.7
	c0.2,0.3,0.3,0.7,0.2,1c-0.1,0.3-0.4,0.5-0.8,0.7c-0.4,0.1-0.8,0.1-1.3,0l-6.2-2.1c-0.5-0.2-1-0.1-1.5,0.2l-5.2,3.5
	c-0.4,0.3-0.7,0.7-0.9,1.2c-0.2,0.5-0.2,1.1,0,1.6l1.9,5.8C-953.1,97.6-952.7,98-951.9,98.3z"/>
<path style="fill:#FFFFFF;" d="M-939.6,40.5l-1.7-9.6c-0.2-0.9-0.6-1.8-1.4-2.8c-0.8-1-1.6-1.7-2.5-2.1l-0.7-0.3c0,0,0,0,0,0
	c-0.3-0.5-0.8-0.8-1.4-1l-2.4-0.7l-3.8-1.7c-0.6-0.3-1.2-0.3-1.7-0.2c-0.1,0-0.3,0.1-0.4,0.1l-0.5-0.1c-1-0.3-2.1-0.3-3.3-0.1
	c-1.2,0.2-2.2,0.6-2.9,1.2l-7.6,6.2c-0.9,0.8-1.6,1.8-2,3.1c-0.4,1.2-0.3,2.4,0,3.8l2.9,9.4c0.3,0.8,0.9,1.6,1.9,2.5
	c1,0.9,2,1.5,3.1,1.8l4.3,1.3l2.5,1.1c1,0.5,2.2,0.7,3.5,0.7c1.3,0,2.3-0.2,3-0.7l8.3-5.2c1.1-0.8,2-1.7,2.5-2.9
	C-939.5,42.9-939.4,41.7-939.6,40.5z M-944.5,42.1c-0.4,0.8-0.9,1.4-1.5,1.8l-7.6,4.8c-0.2,0.2-0.5,0.2-0.7,0.3
	c-0.1-0.1-0.3-0.1-0.4-0.2l-3.9-1.2l-5.2-2.4c-0.2-0.1-0.4-0.2-0.7-0.2c-0.1-0.1-0.1-0.3-0.2-0.4l-2.6-8.6c-0.2-0.8-0.2-1.5,0-2.4
	c0.2-0.8,0.6-1.4,1.2-1.9l7.2-5.8c0.6-0.5,1.3-0.7,2-0.5l5.9,1.7l4.1,1.8c0.7,0.3,1.1,0.9,1.2,1.7l1.6,9.1
	C-944,40.7-944.1,41.4-944.5,42.1z"/>
<polygon style="fill:#FFFFFF;" points="-999.9,130.9 -987.6,135.1 -1004.1,146.6 "/>
<path style="fill:#4CAF50;" d="M393.3-239.9c-5.1,0-9.9-1.2-14.4-3.6c-15.4-8.1-21.1-27.6-12.8-43.5c5.7-10.8,16.7-17.5,28.7-17.5
	c5,0,10,1.2,14.4,3.6c1,0.5,1.7,1.4,2,2.4s0.2,2.2-0.3,3.1c-0.7,1.4-2.1,2.2-3.6,2.2c-0.7,0-1.3-0.2-1.9-0.5
	c-3.3-1.7-6.8-2.6-10.6-2.6c-8.9,0-17.1,5-21.4,13.1c-3,5.7-3.7,12.3-1.9,18.4c1.8,6.1,5.8,11.1,11.3,14c3.3,1.7,6.8,2.6,10.6,2.6
	c8.9,0,17.1-5,21.4-13.1c0.7-1.4,2.1-2.2,3.6-2.2c0.7,0,1.3,0.2,1.9,0.5c2,1.1,2.8,3.6,1.7,5.6C416.3-246.6,405.3-239.9,393.3-239.9
	z"/>
<path style="fill:#4CAF50;" d="M433.5-271c-0.2,0-0.5,0-0.7-0.1c-5.1-1.6-9.2-5.2-11.6-10c-2.4-4.8-2.8-10.3-1.1-15.5
	c3.4-10.7,14.7-16.8,25.1-13.4c1.3,0.4,2,1.8,1.6,3c-0.4,1.3-1.8,2-3,1.6c-7.9-2.5-16.4,2.1-19,10.3c-1.3,4-1,8.2,0.9,11.9
	c1.8,3.6,4.9,6.3,8.7,7.5c1.3,0.4,2,1.8,1.6,3C435.4-271.7,434.5-271,433.5-271z"/>
<path style="fill:#303F9F;" d="M401.6-281.6c-4.3,0-8.6-1.2-12.4-3.4c-5.5-3.3-9.3-8.4-10.8-14.6c-1.5-6.1-0.4-12.5,3-17.9
	c3.4-5.4,8.7-9.1,15-10.6c1.9-0.5,3.9-0.7,5.8-0.7c4.4,0,8.6,1.2,12.4,3.4c5.5,3.3,9.3,8.4,10.8,14.6c0.3,1.1,0.1,2.2-0.5,3.1
	c-0.6,0.9-1.5,1.6-2.5,1.8c-0.3,0.1-0.6,0.1-1,0.1c-1.9,0-3.6-1.3-4-3.2c-0.9-4-3.4-7.3-7-9.4c-2.5-1.5-5.3-2.2-8.2-2.2
	c-1.3,0-2.6,0.2-3.9,0.5c-4.2,1-7.7,3.5-10,7c-2.2,3.5-2.9,7.6-2,11.6c0.9,4,3.4,7.3,7,9.4c2.5,1.5,5.3,2.2,8.2,2.2
	c1.3,0,2.6-0.2,3.9-0.5c0.3-0.1,0.6-0.1,1-0.1c1.9,0,3.6,1.3,4,3.2c0.5,2.2-0.8,4.4-3,5C405.5-281.9,403.5-281.6,401.6-281.6z"/>
<path style="fill:#303F9F;" d="M422.6-321.9c-1.9,0-3.5-1.3-4-3.1c-0.3-1.1-0.1-2.2,0.4-3.1c0.6-0.9,1.5-1.6,2.5-1.9
	c1.6-0.4,3-1.5,3.8-3c0.9-1.5,1.1-3.3,0.7-5.1c-0.4-1.8-1.5-3.2-3-4.2c-1-0.6-2.1-0.9-3.3-0.9c-0.5,0-1,0.1-1.5,0.2
	c-3.4,0.9-5.4,4.5-4.5,8.1c0.6,2.2-0.8,4.4-3,5c-0.3,0.1-0.7,0.1-1,0.1c-1.9,0-3.5-1.3-4-3.1c-2-8,2.6-16.1,10.4-18.1
	c1.2-0.3,2.4-0.4,3.6-0.4c2.6,0,5.3,0.7,7.6,2.2c3.3,2.1,5.7,5.3,6.7,9.1c1,3.8,0.4,7.8-1.5,11.2c-2,3.4-5.1,5.9-8.9,6.8
	C423.3-321.9,423-321.9,422.6-321.9z"/>
<path style="fill:#303F9F;" d="M421.7-350.3c-0.8,0-1.5-0.5-1.8-1.3c-0.6-1.8-0.4-3.7,0.4-5.4c0.8-1.7,2.3-3,4.1-3.5
	c3.7-1.2,7.6,0.9,8.8,4.7c0.3,1-0.2,2.1-1.2,2.4c-1,0.3-2.1-0.2-2.4-1.2c-0.6-1.8-2.4-2.8-4.1-2.2c-0.8,0.3-1.5,0.8-1.9,1.6
	c-0.4,0.8-0.5,1.7-0.2,2.6c0.3,1-0.2,2.1-1.2,2.4C422.1-350.3,421.9-350.3,421.7-350.3z"/>
<path style="fill:#303F9F;" d="M442.8-276.9c-0.9,1.3-2.7,1.9-4.3,1.3c-3.7-1.3-6.7-3.8-8.5-7.2c-1.8-3.4-2.2-7.3-1-10.9
	c2.4-7.3,10.5-11.2,18.2-8.6c2,0.7,3.1,2.9,2.5,4.9c-0.6,2-2.8,3-4.8,2.3c-3.6-1.2-7.4,0.5-8.5,3.9c-0.5,1.6-0.3,3.4,0.5,4.9
	c0.9,1.6,2.3,2.8,4.1,3.4c2,0.7,3.1,2.9,2.5,4.9C443.2-277.5,443-277.2,442.8-276.9z"/>
<path style="fill:#303F9F;" d="M377.6-322c-3.8,0-7.4-1-10.3-2.9c-3.5-2.2-5.5-5.5-5.7-9.1c-0.5-7.1,6.6-13.4,15.8-14
	c4.3-0.3,8.5,0.7,11.7,2.8c3.5,2.2,5.5,5.5,5.7,9.1c0.1,1.3-0.9,2.5-2.3,2.6c-1.3,0.1-2.5-0.9-2.6-2.3c-0.1-2-1.4-3.9-3.5-5.3
	c-2.4-1.5-5.5-2.3-8.8-2.1c-6.4,0.4-11.6,4.5-11.3,8.8c0.1,2,1.4,3.9,3.5,5.3c2.4,1.5,5.5,2.3,8.8,2.1c1.3-0.1,2.5,0.9,2.6,2.3
	c0.1,1.3-0.9,2.5-2.3,2.6C378.6-322,378.1-322,377.6-322z"/>
<polygon style="fill:#303F9F;" points="371.7,-245.7 370.2,-241.7 365.9,-230.4 381,-238.7 383.7,-240.2 "/>
<path style="fill:#4CAF50;" d="M394.5-384.6c-5.3,0-10.3-1.2-14.9-3.7c-16-8.4-21.9-28.7-13.2-45.1c5.9-11.2,17.3-18.2,29.8-18.2
	c5.2,0,10.4,1.3,14.9,3.7c1,0.5,1.7,1.4,2.1,2.5c0.3,1.1,0.2,2.2-0.3,3.3c-0.7,1.4-2.2,2.3-3.8,2.3c-0.7,0-1.4-0.2-2-0.5
	c-3.4-1.8-7.1-2.7-11-2.7c-9.3,0-17.8,5.2-22.2,13.6c-3.1,5.9-3.9,12.7-2,19.1c1.8,6.3,6,11.5,11.7,14.5c3.4,1.8,7.1,2.7,11,2.7
	c9.3,0,17.8-5.2,22.2-13.6c0.7-1.4,2.2-2.3,3.8-2.3c0.7,0,1.4,0.2,2,0.5c2.1,1.1,2.9,3.7,1.8,5.8
	C418.3-391.6,406.9-384.6,394.5-384.6z"/>
<path style="fill:#303F9F;" d="M403-427.9c-4.5,0-9-1.2-12.8-3.5c-5.7-3.4-9.7-8.8-11.2-15.1c-1.5-6.4-0.4-13,3.2-18.6
	c3.5-5.6,9.1-9.5,15.6-11c2-0.5,4-0.7,6-0.7c4.5,0,9,1.2,12.8,3.5c5.7,3.4,9.7,8.8,11.2,15.1c0.3,1.1,0.1,2.3-0.5,3.2
	c-0.6,1-1.5,1.7-2.6,1.9c-0.3,0.1-0.7,0.1-1,0.1c-2,0-3.7-1.3-4.1-3.3c-1-4.1-3.6-7.6-7.3-9.8c-2.6-1.5-5.5-2.3-8.5-2.3
	c-1.3,0-2.7,0.2-4,0.5c-4.3,1-8,3.6-10.3,7.3c-2.3,3.6-3,7.9-2.1,12c1,4.1,3.6,7.6,7.3,9.8c2.6,1.5,5.5,2.3,8.5,2.3
	c1.3,0,2.7-0.2,4-0.5c0.3-0.1,0.7-0.1,1-0.1c2,0,3.7,1.3,4.2,3.3c0.5,2.3-0.9,4.6-3.2,5.1C407.1-428.2,405-427.9,403-427.9z"/>
<path style="fill:#303F9F;" d="M424.9-469.7c-2,0-3.7-1.3-4.1-3.2c-0.3-1.1-0.1-2.3,0.5-3.2c0.6-1,1.5-1.7,2.6-2
	c1.7-0.4,3.1-1.5,4-3.1c0.9-1.6,1.2-3.5,0.7-5.3c-0.5-1.8-1.6-3.4-3.1-4.3c-1-0.6-2.2-1-3.4-1c-0.5,0-1.1,0.1-1.6,0.2
	c-3.5,0.9-5.6,4.6-4.7,8.4c0.6,2.3-0.8,4.6-3.1,5.2c-0.3,0.1-0.7,0.1-1.1,0.1c-1.9,0-3.6-1.3-4.1-3.2c-2.1-8.3,2.7-16.7,10.8-18.7
	c1.2-0.3,2.5-0.5,3.7-0.5c2.8,0,5.5,0.8,7.9,2.2c3.5,2.1,5.9,5.5,6.9,9.5c1,4,0.5,8.1-1.6,11.6c-2,3.6-5.3,6.1-9.3,7.1
	C425.6-469.8,425.2-469.7,424.9-469.7z"/>
<path style="fill:#303F9F;" d="M423.9-499.2c-0.8,0-1.6-0.5-1.9-1.4c-0.6-1.9-0.4-3.9,0.4-5.6c0.9-1.8,2.4-3.1,4.2-3.7
	c3.8-1.2,7.9,1,9.2,4.9c0.3,1-0.2,2.1-1.3,2.5c-1,0.3-2.1-0.2-2.5-1.3c-0.6-1.8-2.5-2.9-4.2-2.3c-0.8,0.3-1.5,0.9-1.9,1.7
	c-0.4,0.8-0.5,1.8-0.2,2.7c0.3,1-0.2,2.1-1.3,2.5C424.3-499.3,424.1-499.2,423.9-499.2z"/>
<path style="fill:#303F9F;" d="M378.2-469.9c-4,0-7.7-1-10.7-3c-3.6-2.3-5.7-5.7-6-9.4c-0.5-7.4,6.9-13.9,16.4-14.5
	c4.5-0.3,8.8,0.8,12.2,2.9c3.6,2.3,5.7,5.7,6,9.4c0.1,1.4-1,2.6-2.4,2.7c-1.4,0.1-2.6-1-2.7-2.4c-0.1-2.1-1.4-4-3.7-5.5
	c-2.5-1.6-5.7-2.4-9.1-2.1c-6.6,0.4-12,4.6-11.7,9.2c0.1,2.1,1.4,4,3.7,5.5c2.5,1.6,5.7,2.4,9.1,2.1c1.4-0.1,2.6,1,2.7,2.4
	c0.1,1.4-1,2.6-2.4,2.7C379.1-469.9,378.7-469.9,378.2-469.9z"/>
<path style="fill:#303F9F;" d="M372.8-461.7c-4,0-7.7-1-10.7-3c-3.6-2.3-5.7-5.7-6-9.4c-0.5-7.4,6.9-13.9,16.4-14.5
	c4.5-0.3,8.8,0.8,12.2,2.9c3.6,2.3,5.7,5.7,6,9.4c0.1,1.4-1,2.6-2.4,2.7c-1.4,0.1-2.6-1-2.7-2.4c-0.1-2.1-1.4-4-3.7-5.5
	c-2.5-1.6-5.7-2.4-9.1-2.1c-6.6,0.4-12,4.6-11.7,9.2c0.1,2.1,1.4,4,3.7,5.5c2.5,1.6,5.7,2.4,9.1,2.1c1.4-0.1,2.6,1,2.7,2.4
	c0.1,1.4-1,2.6-2.4,2.7C373.7-461.7,373.3-461.7,372.8-461.7z"/>
<polygon style="fill:#303F9F;" points="372.1,-390.6 370.5,-386.5 366,-374.8 381.6,-383.4 384.5,-385 "/>
<path style="fill:#4CAF50;" d="M448.2-457.5c-2.7-0.9-5.5-1.1-8.2-0.8l0-2.7c0-1.4-1.1-2.5-2.5-2.5c0,0,0,0,0,0
	c-1.4,0-2.5,1.1-2.5,2.5l0,4c-0.6,0.2-1.2,0.5-1.8,0.8c-0.1,0-0.2,0.1-0.2,0.1c-4.9,2.5-8.9,6.9-10.8,12.7
	c-1.7,5.4-1.3,11.1,1.2,16.1c2.5,5,6.8,8.7,12,10.4c0.3,0.1,0.5,0.1,0.8,0.1c1.1,0,2.1-0.7,2.4-1.8c0.4-1.3-0.3-2.7-1.6-3.2
	c-4-1.3-7.2-4-9-7.8c-1.9-3.8-2.2-8.2-0.9-12.3c1.2-3.8,3.7-6.9,6.7-8.8l1.8,1.8c0.5,0.5,1.1,0.7,1.8,0.7c0.7,0,1.3-0.3,1.8-0.8
	c1-1,1-2.6,0-3.6l-0.3-0.3c2.6-0.6,5.3-0.6,8,0.3c1.3,0.4,2.7-0.3,3.2-1.6C450.3-455.6,449.6-457.1,448.2-457.5z"/>
<path style="fill:#4CAF50;" d="M91.7-488.2H50.3c-1.5,0-2.9-0.8-3.7-2.1L26-526.2c-0.8-1.3-0.8-3,0-4.3l20.7-35.8
	c0.8-1.3,2.2-2.1,3.7-2.1h41.4c1.5,0,2.9,0.8,3.7,2.1l20.7,35.8c0.8,1.3,0.8,3,0,4.3l-20.7,35.8C94.7-489,93.2-488.2,91.7-488.2z"/>
<path style="fill:#448AFF;" d="M91.7-397.2H50.3c-1.5,0-2.9-0.8-3.7-2.1L26-435.2c-0.8-1.3-0.8-3,0-4.3l20.7-35.8
	c0.8-1.3,2.2-2.1,3.7-2.1h41.4c1.5,0,2.9,0.8,3.7,2.1l20.7,35.8c0.8,1.3,0.8,3,0,4.3l-20.7,35.8C94.7-398,93.2-397.2,91.7-397.2z"/>
<path style="fill:#2637A7;" d="M192.7-397.2h-41.4c-1.5,0-2.9-0.8-3.7-2.1L127-435.2c-0.8-1.3-0.8-3,0-4.3l20.7-35.8
	c0.8-1.3,2.2-2.1,3.7-2.1h41.4c1.5,0,2.9,0.8,3.7,2.1l20.7,35.8c0.8,1.3,0.8,3,0,4.3l-20.7,35.8C195.7-398,194.2-397.2,192.7-397.2z
	"/>
<path style="fill:#F44336;" d="M90.7-306.2H49.3c-1.5,0-2.9-0.8-3.7-2.1L25-344.2c-0.8-1.3-0.8-3,0-4.3l20.7-35.8
	c0.8-1.3,2.2-2.1,3.7-2.1h41.4c1.5,0,2.9,0.8,3.7,2.1l20.7,35.8c0.8,1.3,0.8,3,0,4.3l-20.7,35.8C93.7-307,92.2-306.2,90.7-306.2z"/>
<path style="fill:#FBC02D;" d="M191.7-306.2h-41.4c-1.5,0-2.9-0.8-3.7-2.1L126-344.2c-0.8-1.3-0.8-3,0-4.3l20.7-35.8
	c0.8-1.3,2.2-2.1,3.7-2.1h41.4c1.5,0,2.9,0.8,3.7,2.1l20.7,35.8c0.8,1.3,0.8,3,0,4.3l-20.7,35.8C194.7-307,193.2-306.2,191.7-306.2z
	"/>
<path style="fill:#E64A19;" d="M85.7-215.2H44.3c-1.5,0-2.9-0.8-3.7-2.1L20-253.2c-0.8-1.3-0.8-3,0-4.3l20.7-35.8
	c0.8-1.3,2.2-2.1,3.7-2.1h41.4c1.5,0,2.9,0.8,3.7,2.1l20.7,35.8c0.8,1.3,0.8,3,0,4.3l-20.7,35.8C88.7-216,87.2-215.2,85.7-215.2z"/>
<path style="fill:#9E9E9E;" d="M186.7-215.2h-41.4c-1.5,0-2.9-0.8-3.7-2.1L121-253.2c-0.8-1.3-0.8-3,0-4.3l20.7-35.8
	c0.8-1.3,2.2-2.1,3.7-2.1h41.4c1.5,0,2.9,0.8,3.7,2.1l20.7,35.8c0.8,1.3,0.8,3,0,4.3l-20.7,35.8C189.7-216,188.2-215.2,186.7-215.2z
	"/>
<path style="fill:#00796B;" d="M192.7-488.2h-41.4c-1.5,0-2.9-0.8-3.7-2.1L127-526.2c-0.8-1.3-0.8-3,0-4.3l20.7-35.8
	c0.8-1.3,2.2-2.1,3.7-2.1h41.4c1.5,0,2.9,0.8,3.7,2.1l20.7,35.8c0.8,1.3,0.8,3,0,4.3l-20.7,35.8C195.7-489,194.2-488.2,192.7-488.2z
	"/>
<path style="fill:#303F9F;" d="M324.1-461.1l-2.3,0.6c-4.8,4.9-8.5,10.2-10.9,15.9c-2.4,5.7-3.7,11.2-3.7,16.5
	c-0.1,5.3,0.9,9.6,2.9,13c2,3.4,5.1,6.2,9.3,8.5c8.8-3.1,16-6.7,21.9-10.8c3-0.2,5.1,0.5,6.4,2c1.2,1.6,1.8,3.8,1.7,6.8
	c-7.5,7.8-18.4,13.7-32.4,17.8c-11.2-1.5-19.8-5.4-25.9-11.7c-6.1-6.3-9.1-14.2-9-23.5c0.1-4.9,1-9.7,2.7-14.2
	c1.7-4.6,4.3-9.6,7.8-15.1c6-5.3,12.1-9.3,18.3-11.8c6.2-2.6,13.3-4.3,21.3-5.3c6.6,2.4,11.5,5.6,14.8,9.7c3.2,4,5.3,8.9,6.1,14.8
	c-1.1,3.1-4.2,5.4-9.1,6.8c-4.9,1.4-10,1-15.2-1.2C328.1-452,326.7-458.3,324.1-461.1z"/>
<path style="fill:#303F9F;" d="M493.1-461.1l-2.3,0.6c-4.8,4.9-8.5,10.2-10.9,15.9c-2.4,5.7-3.7,11.2-3.7,16.5
	c-0.1,5.3,0.9,9.6,2.9,13c2,3.4,5.1,6.2,9.3,8.5c8.8-3.1,16-6.7,21.9-10.8c3-0.2,5.1,0.5,6.4,2c1.2,1.6,1.8,3.8,1.7,6.8
	c-7.5,7.8-18.4,13.7-32.4,17.8c-11.2-1.5-19.8-5.4-25.9-11.7c-6.1-6.3-9.1-14.2-9-23.5c0.1-4.9,1-9.7,2.7-14.2
	c1.7-4.6,4.3-9.6,7.8-15.1c6-5.3,12.1-9.3,18.3-11.8c6.2-2.6,13.3-4.3,21.3-5.3c6.6,2.4,11.5,5.6,14.8,9.7c3.2,4,5.3,8.9,6.1,14.8
	c-1.1,3.1-4.2,5.4-9.1,6.8c-4.9,1.4-10,1-15.2-1.2C497.1-452,495.6-458.3,493.1-461.1z"/>
<path style="fill:#303F9F;" d="M570.4-461.1l-2.3,0.6c-4.8,4.9-8.5,10.2-10.9,15.9c-2.4,5.7-3.7,11.2-3.7,16.5
	c-0.1,5.3,0.9,9.6,2.9,13c2,3.4,5.1,6.2,9.3,8.5c8.8-3.1,16-6.7,21.9-10.8c3-0.2,5.1,0.5,6.4,2c1.2,1.6,1.8,3.8,1.7,6.8
	c-7.5,7.8-18.4,13.7-32.4,17.8c-11.2-1.5-19.8-5.4-25.9-11.7c-6.1-6.3-9.1-14.2-9-23.5c0.1-4.9,1-9.7,2.7-14.2
	c1.7-4.6,4.3-9.6,7.8-15.1c6-5.3,12.1-9.3,18.3-11.8c6.2-2.6,13.3-4.3,21.3-5.3c6.6,2.4,11.5,5.6,14.8,9.7c3.2,4,5.3,8.9,6.1,14.8
	c-1.1,3.1-4.2,5.4-9.1,6.8c-4.9,1.4-10,1-15.2-1.2C574.5-452,573-458.3,570.4-461.1z"/>
<path style="fill:#303F9F;" d="M320.1-315.1l-2.3,0.6c-4.8,4.9-8.5,10.2-10.9,15.9c-2.4,5.7-3.7,11.2-3.7,16.5
	c-0.1,5.3,0.9,9.6,2.9,13c2,3.4,5.1,6.2,9.3,8.5c8.8-3.1,16-6.7,21.9-10.8c3-0.2,5.1,0.5,6.4,2c1.2,1.6,1.8,3.8,1.7,6.8
	c-7.5,7.8-18.4,13.7-32.4,17.8c-11.2-1.5-19.8-5.4-25.9-11.7c-6.1-6.3-9.1-14.2-9-23.5c0.1-4.9,1-9.7,2.7-14.2
	c1.7-4.6,4.3-9.6,7.8-15.1c6-5.3,12.1-9.3,18.3-11.8c6.2-2.6,13.3-4.3,21.3-5.3c6.6,2.4,11.5,5.6,14.8,9.7c3.2,4,5.3,8.9,6.1,14.8
	c-1.1,3.1-4.2,5.4-9.1,6.8c-4.9,1.4-10,1-15.2-1.2C324.1-306,322.7-312.3,320.1-315.1z"/>
<path style="fill:#303F9F;" d="M489.1-315.1l-2.3,0.6c-4.8,4.9-8.5,10.2-10.9,15.9c-2.4,5.7-3.7,11.2-3.7,16.5
	c-0.1,5.3,0.9,9.6,2.9,13c2,3.4,5.1,6.2,9.3,8.5c8.8-3.1,16-6.7,21.9-10.8c3-0.2,5.1,0.5,6.4,2c1.2,1.6,1.8,3.8,1.7,6.8
	c-7.5,7.8-18.4,13.7-32.4,17.8c-11.2-1.5-19.8-5.4-25.9-11.7c-6.1-6.3-9.1-14.2-9-23.5c0.1-4.9,1-9.7,2.7-14.2
	c1.7-4.6,4.3-9.6,7.8-15.1c6-5.3,12.1-9.3,18.3-11.8c6.2-2.6,13.3-4.3,21.3-5.3c6.6,2.4,11.5,5.6,14.8,9.7c3.2,4,5.3,8.9,6.1,14.8
	c-1.1,3.1-4.2,5.4-9.1,6.8c-4.9,1.4-10,1-15.2-1.2C493.1-306,491.6-312.3,489.1-315.1z"/>
<path style="fill:#303F9F;" d="M566.4-315.1l-2.3,0.6c-4.8,4.9-8.5,10.2-10.9,15.9c-2.4,5.7-3.7,11.2-3.7,16.5
	c-0.1,5.3,0.9,9.6,2.9,13c2,3.4,5.1,6.2,9.3,8.5c8.8-3.1,16-6.7,21.9-10.8c3-0.2,5.1,0.5,6.4,2c1.2,1.6,1.8,3.8,1.7,6.8
	c-7.5,7.8-18.4,13.7-32.4,17.8c-11.2-1.5-19.8-5.4-25.9-11.7c-6.1-6.3-9.1-14.2-9-23.5c0.1-4.9,1-9.7,2.7-14.2
	c1.7-4.6,4.3-9.6,7.8-15.1c6-5.3,12.1-9.3,18.3-11.8c6.2-2.6,13.3-4.3,21.3-5.3c6.6,2.4,11.5,5.6,14.8,9.7c3.2,4,5.3,8.9,6.1,14.8
	c-1.1,3.1-4.2,5.4-9.1,6.8c-4.9,1.4-10,1-15.2-1.2C570.5-306,569-312.3,566.4-315.1z"/>
<g>
	<g>
		<path style="fill:#303F9F;" d="M75.9,21.9c0.7-0.6,1.7-1.2,2.8-1.7c1.1-0.6,2.3-0.9,3.6-1.2c1.8-0.3,3.6-0.5,5.4-0.6
			c1.8-0.1,3.6-0.1,5.3,0.1c1.7,0.1,3.3,0.3,4.8,0.6c1.5,0.3,2.8,0.7,3.8,1.1l0,0c0.7,0.3,1.4,0.6,2.2,0.9c0.8,0.3,1.5,0.7,2.3,1.1
			c0.7,0.4,1.4,0.8,2.1,1.3c0.7,0.5,1.2,1,1.7,1.6c0.5,0.6,0.9,1.3,1.1,2c0.2,0.7,0.3,1.4,0.3,2.2c0,0.7-0.2,1.4-0.5,2
			c-0.3,0.6-0.7,1.2-1.3,1.7c-0.4,0.3-0.7,0.5-1,0.7c-0.3,0.1-0.5,0.2-0.7,0.2c-0.2,0-0.4-0.1-0.5-0.2c-0.2-0.1-0.3-0.3-0.5-0.5
			c-0.3-0.3-0.4-0.6-0.4-0.9c0-0.3,0-0.5,0.1-0.8c0.1-0.2,0.2-0.5,0.4-0.7c0.2-0.2,0.3-0.5,0.4-0.7c0.1-0.2,0.2-0.4,0.2-0.7
			c0-0.2-0.1-0.4-0.2-0.7c-0.5-0.6-1.1-1.1-1.9-1.6c-0.8-0.5-1.6-0.9-2.6-1.3c-1-0.4-2-0.7-3-1c-1.1-0.3-2.1-0.6-3.1-0.8
			c-1-0.2-2-0.4-3-0.5C92.5,23.1,91.7,23,91,23c-1.1,0-2.2,0-3.3,0c-1.1,0.1-2.1,0.2-3.1,0.4c-1,0.2-1.9,0.5-2.8,0.9
			c-0.9,0.4-1.7,0.9-2.5,1.6c-0.6,0.5-1.1,1-1.4,1.6c-0.3,0.6-0.5,1.1-0.7,1.6c-0.2,0.6-0.1,1.1,0,1.7c0.2,0.5,0.5,1.1,1,1.6
			c1,1.2,2,2.3,3.1,3.2c1.1,0.9,2.1,1.7,3.3,2.3c1.1,0.7,2.3,1.3,3.5,1.8c1.2,0.5,2.5,1.1,3.8,1.6l0.5,0.6c0.2,0.2,0.3,0.4,0.3,0.7
			c0.1,0.3,0.1,0.5,0.1,0.8c0,0.3-0.1,0.5-0.2,0.8c-0.1,0.2-0.2,0.4-0.4,0.6c-0.4,0.3-1,0.5-1.7,0.5c-0.7,0-1.5-0.2-2.4-0.5
			c-0.9-0.3-1.7-0.7-2.7-1.1c-0.9-0.5-1.8-1-2.7-1.5c-0.8-0.5-1.6-1-2.3-1.5c-0.7-0.5-1.2-0.9-1.6-1.2c-0.3-0.3-0.6-0.5-0.9-0.8
			c-0.3-0.3-0.6-0.6-1-0.9c-0.4-0.4-0.8-0.8-1.3-1.3c-0.5-0.5-1.1-1.2-1.8-2.1c-0.4-0.5-0.7-1.1-0.9-1.6c-0.2-0.6-0.4-1.1-0.4-1.6
			c-0.1-0.5-0.1-1-0.1-1.4c0-0.4,0.1-0.8,0.1-1c0.2-1.6,0.5-2.9,1.1-4C74.1,23.7,74.9,22.7,75.9,21.9z"/>
		<path style="fill:#303F9F;" d="M82.1,12.3c0.8-0.5,1.8-1,2.9-1.5c1.1-0.5,2.4-0.7,3.7-0.8c1.8-0.1,3.6-0.2,5.5-0.1
			c1.8,0.1,3.6,0.3,5.3,0.6c1.7,0.3,3.2,0.6,4.7,1c1.4,0.4,2.7,0.9,3.7,1.5l0,0c0.7,0.3,1.4,0.7,2.1,1.1c0.7,0.4,1.4,0.8,2.1,1.3
			c0.7,0.5,1.4,0.9,2,1.5c0.6,0.5,1.1,1.1,1.6,1.8c0.4,0.7,0.7,1.3,0.9,2.1c0.2,0.7,0.2,1.5,0.1,2.2c-0.1,0.7-0.3,1.4-0.7,2
			c-0.4,0.6-0.8,1.1-1.4,1.5c-0.4,0.3-0.8,0.5-1,0.6c-0.3,0.1-0.5,0.1-0.7,0.1c-0.2,0-0.4-0.1-0.5-0.3c-0.1-0.2-0.3-0.4-0.5-0.6
			c-0.2-0.3-0.3-0.7-0.3-0.9c0-0.3,0.1-0.5,0.2-0.8c0.1-0.2,0.3-0.5,0.4-0.7c0.2-0.2,0.3-0.4,0.5-0.6c0.1-0.2,0.2-0.4,0.3-0.6
			c0-0.2,0-0.4-0.2-0.7c-0.4-0.6-1-1.2-1.7-1.8c-0.7-0.6-1.6-1.1-2.5-1.6c-0.9-0.5-1.9-0.9-2.9-1.3c-1-0.4-2-0.8-3-1.1
			c-1-0.3-2-0.6-2.9-0.8c-0.9-0.2-1.7-0.4-2.4-0.5c-1.1-0.2-2.2-0.2-3.3-0.3c-1.1,0-2.1,0-3.1,0.1c-1,0.1-2,0.4-2.9,0.7
			c-0.9,0.3-1.8,0.8-2.7,1.3c-0.7,0.4-1.2,0.9-1.5,1.5c-0.4,0.5-0.6,1.1-0.8,1.5c-0.2,0.6-0.3,1.1-0.1,1.7c0.1,0.5,0.4,1.1,0.8,1.7
			c0.9,1.3,1.8,2.5,2.8,3.4c1,1,2,1.8,3,2.6c1.1,0.8,2.2,1.5,3.3,2.1c1.2,0.6,2.4,1.3,3.6,1.9l0.4,0.6c0.1,0.2,0.2,0.4,0.3,0.7
			c0,0.3,0,0.5,0,0.8c0,0.3-0.1,0.5-0.2,0.7c-0.1,0.2-0.3,0.4-0.5,0.5c-0.5,0.3-1,0.4-1.7,0.3c-0.7-0.1-1.5-0.3-2.3-0.7
			c-0.8-0.4-1.7-0.8-2.6-1.4c-0.9-0.6-1.7-1.1-2.5-1.7c-0.8-0.6-1.5-1.1-2.1-1.7c-0.6-0.5-1.1-1-1.5-1.3c-0.3-0.3-0.6-0.6-0.9-0.9
			c-0.3-0.3-0.6-0.6-0.9-1c-0.4-0.4-0.7-0.9-1.2-1.5c-0.4-0.6-1-1.3-1.6-2.2c-0.4-0.6-0.6-1.1-0.8-1.7c-0.2-0.6-0.2-1.1-0.3-1.6
			c0-0.5,0-1,0-1.4c0.1-0.4,0.1-0.7,0.2-1c0.3-1.5,0.8-2.8,1.4-3.9C80.2,13.9,81,13,82.1,12.3z"/>
		<path style="fill:#4CAF50;" d="M103.3,101.8l15.5,5.2c1.2,0.4,2.1,1.1,2.7,2.1c0.6,1,0.8,2,0.4,3c-0.3,1-1.1,1.8-2.2,2.2
			c-1.1,0.4-2.3,0.4-3.4,0l-16-5.4c-2-0.7-4-1.9-5.8-3.8c-1.8-1.8-2.9-3.6-3.3-5.3l-4.4-19.8c-0.5-2.8-0.4-5.5,0.5-8
			c0.9-2.8,2.3-4.9,4.3-6.5l15.4-13c1.5-1.2,3.4-2,5.8-2.5c2.4-0.5,4.5-0.4,6.4,0.2l16.9,5.7c1.2,0.4,2.1,1.1,2.7,2.1
			c0.6,1,0.7,2,0.4,3c-0.3,1-1.1,1.8-2.1,2.2c-1.1,0.5-2.2,0.5-3.4,0.1l-16.3-5.5c-1.4-0.5-2.7-0.1-4,1L98.7,71.2
			c-1.2,0.9-2,2.2-2.5,3.9c-0.6,1.7-0.7,3.4-0.3,5l4,18.1C100.3,99.9,101.4,101.2,103.3,101.8z"/>
		<path style="fill:#303F9F;" d="M114.4,64.1l12.7,4.3c1,0.3,1.7,0.8,2.3,1.6c0.6,0.7,0.7,1.4,0.5,2.1c-0.2,0.7-0.8,1.1-1.6,1.4
			c-0.9,0.2-1.8,0.2-2.8-0.1l-13.2-4.4c-1.7-0.6-3.3-1.5-4.8-2.8c-1.5-1.3-2.5-2.6-2.9-3.7l-4.5-13.7c-0.6-1.9-0.6-3.7,0-5.4
			c0.6-1.8,1.7-3.2,3.1-4.2l11.8-8.1c1.1-0.7,2.6-1.2,4.5-1.4c1.9-0.2,3.6-0.1,5.2,0.4l13.9,4.7c1,0.3,1.7,0.8,2.3,1.6
			c0.5,0.7,0.7,1.4,0.5,2.1c-0.2,0.7-0.8,1.2-1.6,1.4c-0.9,0.3-1.8,0.2-2.7-0.1l-13.4-4.5c-1.1-0.4-2.2-0.2-3.2,0.5L109.2,43
			c-0.9,0.6-1.5,1.4-1.9,2.5c-0.4,1.1-0.4,2.3,0,3.4l4.1,12.5C111.8,62.7,112.8,63.6,114.4,64.1z"/>
		<path style="fill:#303F9F;" d="M147.2,65.6l5.9,2c0.5,0.2,0.8,0.4,1.1,0.7c0.3,0.3,0.3,0.7,0.2,1c-0.1,0.3-0.4,0.5-0.8,0.6
			c-0.4,0.1-0.8,0.1-1.3-0.1l-6.1-2c-0.8-0.3-1.5-0.7-2.2-1.3c-0.7-0.6-1.2-1.2-1.4-1.7l-2.1-6.4c-0.3-0.9-0.3-1.7,0-2.5
			c0.3-0.8,0.8-1.5,1.5-2l5.5-3.8c0.5-0.3,1.2-0.6,2.1-0.7c0.9-0.1,1.7,0,2.4,0.2l6.5,2.2c0.5,0.2,0.8,0.4,1,0.7
			c0.2,0.3,0.3,0.7,0.2,1c-0.1,0.3-0.4,0.5-0.8,0.7c-0.4,0.1-0.8,0.1-1.3,0l-6.2-2.1c-0.5-0.2-1-0.1-1.5,0.2l-5.2,3.5
			c-0.4,0.3-0.7,0.7-0.9,1.2c-0.2,0.5-0.2,1.1,0,1.6l1.9,5.8C146,64.9,146.5,65.3,147.2,65.6z"/>
		<path style="fill:#4CAF50;" d="M143.2,76.6l5.9,2c0.5,0.2,0.8,0.4,1.1,0.7c0.3,0.3,0.3,0.7,0.2,1c-0.1,0.3-0.4,0.5-0.8,0.6
			c-0.4,0.1-0.8,0.1-1.3-0.1l-6.1-2c-0.8-0.3-1.5-0.7-2.2-1.3c-0.7-0.6-1.2-1.2-1.4-1.7l-2.1-6.4c-0.3-0.9-0.3-1.7,0-2.5
			c0.3-0.8,0.8-1.5,1.5-2l5.5-3.8c0.5-0.3,1.2-0.6,2.1-0.7c0.9-0.1,1.7,0,2.4,0.2l6.5,2.2c0.5,0.2,0.8,0.4,1,0.7
			c0.2,0.3,0.3,0.7,0.2,1c-0.1,0.3-0.4,0.5-0.8,0.7c-0.4,0.1-0.8,0.1-1.3,0l-6.2-2.1c-0.5-0.2-1-0.1-1.5,0.2l-5.2,3.5
			c-0.4,0.3-0.7,0.7-0.9,1.2c-0.2,0.5-0.2,1.1,0,1.6l1.9,5.8C142,75.9,142.5,76.3,143.2,76.6z"/>
		<path style="fill:#303F9F;" d="M155.5,18.8l-1.7-9.6c-0.2-0.9-0.6-1.8-1.4-2.8c-0.8-1-1.6-1.7-2.5-2.1l-0.7-0.3c0,0,0,0,0,0
			c-0.3-0.5-0.8-0.8-1.4-1l-2.4-0.7l-3.8-1.7c-0.6-0.3-1.2-0.3-1.7-0.2c-0.1,0-0.3,0.1-0.4,0.1l-0.5-0.1c-1-0.3-2.1-0.3-3.3-0.1
			c-1.2,0.2-2.2,0.6-2.9,1.2l-7.6,6.2c-0.9,0.8-1.6,1.8-2,3.1c-0.4,1.2-0.3,2.4,0,3.8l2.9,9.4c0.3,0.8,0.9,1.6,1.9,2.5
			c1,0.9,2,1.5,3.1,1.8l4.3,1.3l2.5,1.1c1,0.5,2.2,0.7,3.5,0.7c1.3,0,2.3-0.2,3-0.7l8.3-5.2c1.1-0.8,2-1.7,2.5-2.9
			C155.6,21.2,155.8,20,155.5,18.8z M150.6,20.4c-0.4,0.8-0.9,1.4-1.5,1.8l-7.6,4.8c-0.2,0.2-0.5,0.2-0.7,0.3
			c-0.1-0.1-0.3-0.1-0.4-0.2l-3.9-1.2l-5.2-2.4c-0.2-0.1-0.4-0.2-0.7-0.2c-0.1-0.1-0.1-0.3-0.2-0.4l-2.6-8.6c-0.2-0.8-0.2-1.5,0-2.4
			c0.2-0.8,0.6-1.4,1.2-1.9l7.2-5.8c0.6-0.5,1.3-0.7,2-0.5l5.9,1.7l4.1,1.8c0.7,0.3,1.1,0.9,1.2,1.7l1.6,9.1
			C151.1,19,151,19.7,150.6,20.4z"/>
		<polygon style="fill:#303F9F;" points="95.2,109.2 107.5,113.3 91.1,124.9 		"/>
	</g>
	<path style="fill:#303F9F;" d="M43.1,42.9l-2.3,0.6c-4.8,4.9-8.5,10.2-10.9,15.9c-2.4,5.7-3.7,11.2-3.7,16.5
		c-0.1,5.3,0.9,9.6,2.9,13c2,3.4,5.1,6.2,9.3,8.5c8.8-3.1,16-6.7,21.9-10.8c3-0.2,5.1,0.5,6.4,2c1.2,1.6,1.8,3.8,1.7,6.8
		c-7.5,7.8-18.4,13.7-32.4,17.8c-11.2-1.5-19.8-5.4-25.9-11.7c-6.1-6.3-9.1-14.2-9-23.5c0.1-4.9,1-9.7,2.7-14.2
		c1.7-4.6,4.3-9.6,7.8-15.1c6-5.3,12.1-9.3,18.3-11.8c6.2-2.6,13.3-4.3,21.3-5.3c6.6,2.4,11.5,5.6,14.8,9.7c3.2,4,5.3,8.9,6.1,14.8
		c-1.1,3.1-4.2,5.4-9.1,6.8c-4.9,1.4-10,1-15.2-1.2C47.1,52,45.7,45.7,43.1,42.9z"/>
	<path style="fill:#303F9F;" d="M212.1,42.9l-2.3,0.6c-4.8,4.9-8.5,10.2-10.9,15.9c-2.4,5.7-3.7,11.2-3.7,16.5
		c-0.1,5.3,0.9,9.6,2.9,13c2,3.4,5.1,6.2,9.3,8.5c8.8-3.1,16-6.7,21.9-10.8c3-0.2,5.1,0.5,6.4,2c1.2,1.6,1.8,3.8,1.7,6.8
		c-7.5,7.8-18.4,13.7-32.4,17.8c-11.2-1.5-19.8-5.4-25.9-11.7c-6.1-6.3-9.1-14.2-9-23.5c0.1-4.9,1-9.7,2.7-14.2
		c1.7-4.6,4.3-9.6,7.8-15.1c6-5.3,12.1-9.3,18.3-11.8c6.2-2.6,13.3-4.3,21.3-5.3c6.6,2.4,11.5,5.6,14.8,9.7c3.2,4,5.3,8.9,6.1,14.8
		c-1.1,3.1-4.2,5.4-9.1,6.8c-4.9,1.4-10,1-15.2-1.2C216.1,52,214.6,45.7,212.1,42.9z"/>
	<path style="fill:#303F9F;" d="M289.4,42.9l-2.3,0.6c-4.8,4.9-8.5,10.2-10.9,15.9c-2.4,5.7-3.7,11.2-3.7,16.5
		c-0.1,5.3,0.9,9.6,2.9,13c2,3.4,5.1,6.2,9.3,8.5c8.8-3.1,16-6.7,21.9-10.8c3-0.2,5.1,0.5,6.4,2c1.2,1.6,1.8,3.8,1.7,6.8
		c-7.5,7.8-18.4,13.7-32.4,17.8c-11.2-1.5-19.8-5.4-25.9-11.7c-6.1-6.3-9.1-14.2-9-23.5c0.1-4.9,1-9.7,2.7-14.2
		c1.7-4.6,4.3-9.6,7.8-15.1c6-5.3,12.1-9.3,18.3-11.8c6.2-2.6,13.3-4.3,21.3-5.3c6.6,2.4,11.5,5.6,14.8,9.7c3.2,4,5.3,8.9,6.1,14.8
		c-1.1,3.1-4.2,5.4-9.1,6.8c-4.9,1.4-10,1-15.2-1.2C293.5,52,292,45.7,289.4,42.9z"/>
</g>
<g>
	<g>
		<path style="fill:#FFFFFF;" d="M-417.1,68.3c0.7-0.6,1.7-1.2,2.8-1.7c1.1-0.6,2.3-0.9,3.6-1.2c1.8-0.3,3.6-0.5,5.4-0.6
			c1.8-0.1,3.6-0.1,5.3,0.1c1.7,0.1,3.3,0.3,4.8,0.6c1.5,0.3,2.8,0.7,3.8,1.1l0,0c0.7,0.3,1.4,0.6,2.2,0.9s1.5,0.7,2.3,1.1
			c0.7,0.4,1.4,0.8,2.1,1.3c0.7,0.5,1.2,1,1.7,1.6c0.5,0.6,0.9,1.3,1.1,2c0.2,0.7,0.3,1.4,0.3,2.2c0,0.7-0.2,1.4-0.5,2
			c-0.3,0.6-0.7,1.2-1.3,1.7c-0.4,0.3-0.7,0.5-1,0.7c-0.3,0.1-0.5,0.2-0.7,0.2c-0.2,0-0.4-0.1-0.5-0.2c-0.2-0.1-0.3-0.3-0.5-0.5
			c-0.3-0.3-0.4-0.6-0.4-0.9c0-0.3,0-0.5,0.1-0.8c0.1-0.2,0.2-0.5,0.4-0.7c0.2-0.2,0.3-0.5,0.4-0.7c0.1-0.2,0.2-0.4,0.2-0.7
			c0-0.2-0.1-0.4-0.2-0.7c-0.5-0.6-1.1-1.1-1.9-1.6c-0.8-0.5-1.6-0.9-2.6-1.3c-1-0.4-2-0.7-3-1c-1.1-0.3-2.1-0.6-3.1-0.8
			c-1-0.2-2-0.4-3-0.5c-0.9-0.1-1.8-0.2-2.5-0.3c-1.1,0-2.2,0-3.3,0c-1.1,0.1-2.1,0.2-3.1,0.4c-1,0.2-1.9,0.5-2.8,0.9
			c-0.9,0.4-1.7,0.9-2.5,1.6c-0.6,0.5-1.1,1-1.4,1.6c-0.3,0.6-0.5,1.1-0.7,1.6c-0.2,0.6-0.1,1.1,0,1.7c0.2,0.5,0.5,1.1,1,1.6
			c1,1.2,2,2.3,3.1,3.2c1.1,0.9,2.1,1.7,3.3,2.3c1.1,0.7,2.3,1.3,3.5,1.8c1.2,0.5,2.5,1.1,3.8,1.6l0.5,0.6c0.2,0.2,0.3,0.4,0.3,0.7
			c0.1,0.3,0.1,0.5,0.1,0.8c0,0.3-0.1,0.5-0.2,0.8c-0.1,0.2-0.2,0.4-0.4,0.6c-0.4,0.3-1,0.5-1.7,0.5c-0.7,0-1.5-0.2-2.4-0.5
			c-0.9-0.3-1.7-0.7-2.7-1.1c-0.9-0.5-1.8-1-2.7-1.5c-0.8-0.5-1.6-1-2.3-1.5c-0.7-0.5-1.2-0.9-1.6-1.2c-0.3-0.3-0.6-0.5-0.9-0.8
			c-0.3-0.3-0.6-0.6-1-0.9c-0.4-0.4-0.8-0.8-1.3-1.3c-0.5-0.5-1.1-1.2-1.8-2.1c-0.4-0.5-0.7-1.1-0.9-1.6c-0.2-0.6-0.4-1.1-0.4-1.6
			c-0.1-0.5-0.1-1-0.1-1.4c0-0.4,0.1-0.8,0.1-1c0.2-1.6,0.5-2.9,1.1-4C-418.9,70.1-418.1,69.1-417.1,68.3z"/>
		<path style="fill:#FFFFFF;" d="M-410.9,58.7c0.8-0.5,1.8-1,2.9-1.5c1.1-0.5,2.4-0.7,3.7-0.8c1.8-0.1,3.6-0.2,5.5-0.1
			c1.8,0.1,3.6,0.3,5.3,0.6c1.7,0.3,3.2,0.6,4.7,1c1.4,0.4,2.7,0.9,3.7,1.5l0,0c0.7,0.3,1.4,0.7,2.1,1.1s1.4,0.8,2.1,1.3
			c0.7,0.5,1.4,0.9,2,1.5c0.6,0.5,1.1,1.1,1.6,1.8c0.4,0.7,0.7,1.3,0.9,2.1c0.2,0.7,0.2,1.5,0.1,2.2c-0.1,0.7-0.3,1.4-0.7,2
			c-0.4,0.6-0.8,1.1-1.4,1.5c-0.4,0.3-0.8,0.5-1,0.6c-0.3,0.1-0.5,0.1-0.7,0.1c-0.2,0-0.4-0.1-0.5-0.3c-0.1-0.2-0.3-0.4-0.5-0.6
			c-0.2-0.3-0.3-0.7-0.3-0.9c0-0.3,0.1-0.5,0.2-0.8c0.1-0.2,0.3-0.5,0.4-0.7c0.2-0.2,0.3-0.4,0.5-0.6c0.1-0.2,0.2-0.4,0.3-0.6
			c0-0.2,0-0.4-0.2-0.7c-0.4-0.6-1-1.2-1.7-1.8c-0.7-0.6-1.6-1.1-2.5-1.6c-0.9-0.5-1.9-0.9-2.9-1.3c-1-0.4-2-0.8-3-1.1
			c-1-0.3-2-0.6-2.9-0.8c-0.9-0.2-1.7-0.4-2.4-0.5c-1.1-0.2-2.2-0.2-3.3-0.3c-1.1,0-2.1,0-3.1,0.1c-1,0.1-2,0.4-2.9,0.7
			c-0.9,0.3-1.8,0.8-2.7,1.3c-0.7,0.4-1.2,0.9-1.5,1.5c-0.4,0.5-0.6,1.1-0.8,1.5c-0.2,0.6-0.3,1.1-0.1,1.7c0.1,0.5,0.4,1.1,0.8,1.7
			c0.9,1.3,1.8,2.5,2.8,3.4c1,1,2,1.8,3,2.6c1.1,0.8,2.2,1.5,3.3,2.1c1.2,0.6,2.4,1.3,3.6,1.9l0.4,0.6c0.1,0.2,0.2,0.4,0.3,0.7
			c0,0.3,0,0.5,0,0.8c0,0.3-0.1,0.5-0.2,0.7c-0.1,0.2-0.3,0.4-0.5,0.5c-0.5,0.3-1,0.4-1.7,0.3c-0.7-0.1-1.5-0.3-2.3-0.7
			c-0.8-0.4-1.7-0.8-2.6-1.4c-0.9-0.6-1.7-1.1-2.5-1.7c-0.8-0.6-1.5-1.1-2.1-1.7c-0.6-0.5-1.1-1-1.5-1.3c-0.3-0.3-0.6-0.6-0.9-0.9
			c-0.3-0.3-0.6-0.6-0.9-1c-0.4-0.4-0.7-0.9-1.2-1.5c-0.4-0.6-1-1.3-1.6-2.2c-0.4-0.6-0.6-1.1-0.8-1.7c-0.2-0.6-0.2-1.1-0.3-1.6
			c0-0.5,0-1,0-1.4c0.1-0.4,0.1-0.7,0.2-1c0.3-1.5,0.8-2.8,1.4-3.9C-412.8,60.4-412,59.5-410.9,58.7z"/>
		<path style="fill:#FFFFFF;" d="M-389.7,148.2l15.5,5.2c1.2,0.4,2.1,1.1,2.7,2.1c0.6,1,0.8,2,0.4,3c-0.3,1-1.1,1.8-2.2,2.2
			c-1.1,0.4-2.3,0.4-3.4,0l-16-5.4c-2-0.7-4-1.9-5.8-3.8c-1.8-1.8-2.9-3.6-3.3-5.3l-4.4-19.8c-0.5-2.8-0.4-5.5,0.5-8
			c0.9-2.8,2.3-4.9,4.3-6.5l15.4-13c1.5-1.2,3.4-2,5.8-2.5c2.4-0.5,4.5-0.4,6.4,0.2l16.9,5.7c1.2,0.4,2.1,1.1,2.7,2.1
			c0.6,1,0.7,2,0.4,3c-0.3,1-1.1,1.8-2.1,2.2c-1.1,0.5-2.2,0.5-3.4,0.1l-16.3-5.5c-1.4-0.5-2.7-0.1-4,1l-14.6,12.1
			c-1.2,0.9-2,2.2-2.5,3.9c-0.6,1.7-0.7,3.4-0.3,5l4,18.1C-392.7,146.3-391.6,147.6-389.7,148.2z"/>
		<path style="fill:#FFFFFF;" d="M-378.6,110.5l12.7,4.3c1,0.3,1.7,0.8,2.3,1.6c0.6,0.7,0.7,1.4,0.5,2.1c-0.2,0.7-0.8,1.1-1.6,1.4
			c-0.9,0.2-1.8,0.2-2.8-0.1l-13.2-4.4c-1.7-0.6-3.3-1.5-4.8-2.8c-1.5-1.3-2.5-2.6-2.9-3.7l-4.5-13.7c-0.6-1.9-0.6-3.7,0-5.4
			c0.6-1.8,1.7-3.2,3.1-4.2l11.8-8.1c1.1-0.7,2.6-1.2,4.5-1.4c1.9-0.2,3.6-0.1,5.2,0.4l13.9,4.7c1,0.3,1.7,0.8,2.3,1.6
			c0.5,0.7,0.7,1.4,0.5,2.1c-0.2,0.7-0.8,1.2-1.6,1.4c-0.9,0.3-1.8,0.2-2.7-0.1l-13.4-4.5c-1.1-0.4-2.2-0.2-3.2,0.5l-11.2,7.5
			c-0.9,0.6-1.5,1.4-1.9,2.5c-0.4,1.1-0.4,2.3,0,3.4l4.1,12.5C-381.2,109.1-380.2,110-378.6,110.5z"/>
		<path style="fill:#FFFFFF;" d="M-345.8,112l5.9,2c0.5,0.2,0.8,0.4,1.1,0.7c0.3,0.3,0.3,0.7,0.2,1c-0.1,0.3-0.4,0.5-0.8,0.6
			c-0.4,0.1-0.8,0.1-1.3-0.1l-6.1-2c-0.8-0.3-1.5-0.7-2.2-1.3c-0.7-0.6-1.2-1.2-1.4-1.7l-2.1-6.4c-0.3-0.9-0.3-1.7,0-2.5
			c0.3-0.8,0.8-1.5,1.5-2l5.5-3.8c0.5-0.3,1.2-0.6,2.1-0.7c0.9-0.1,1.7,0,2.4,0.2l6.5,2.2c0.5,0.2,0.8,0.4,1,0.7
			c0.2,0.3,0.3,0.7,0.2,1c-0.1,0.3-0.4,0.5-0.8,0.7c-0.4,0.1-0.8,0.1-1.3,0l-6.2-2.1c-0.5-0.2-1-0.1-1.5,0.2l-5.2,3.5
			c-0.4,0.3-0.7,0.7-0.9,1.2c-0.2,0.5-0.2,1.1,0,1.6l1.9,5.8C-347,111.3-346.5,111.8-345.8,112z"/>
		<path style="fill:#FFFFFF;" d="M-349.8,123l5.9,2c0.5,0.2,0.8,0.4,1.1,0.7c0.3,0.3,0.3,0.7,0.2,1c-0.1,0.3-0.4,0.5-0.8,0.6
			c-0.4,0.1-0.8,0.1-1.3-0.1l-6.1-2c-0.8-0.3-1.5-0.7-2.2-1.3c-0.7-0.6-1.2-1.2-1.4-1.7l-2.1-6.4c-0.3-0.9-0.3-1.7,0-2.5
			c0.3-0.8,0.8-1.5,1.5-2l5.5-3.8c0.5-0.3,1.2-0.6,2.1-0.7c0.9-0.1,1.7,0,2.4,0.2l6.5,2.2c0.5,0.2,0.8,0.4,1,0.7
			c0.2,0.3,0.3,0.7,0.2,1c-0.1,0.3-0.4,0.5-0.8,0.7c-0.4,0.1-0.8,0.1-1.3,0l-6.2-2.1c-0.5-0.2-1-0.1-1.5,0.2l-5.2,3.5
			c-0.4,0.3-0.7,0.7-0.9,1.2c-0.2,0.5-0.2,1.1,0,1.6l1.9,5.8C-351,122.3-350.5,122.8-349.8,123z"/>
		<path style="fill:#FFFFFF;" d="M-337.5,65.2l-1.7-9.6c-0.2-0.9-0.6-1.8-1.4-2.8c-0.8-1-1.6-1.7-2.5-2.1l-0.7-0.3c0,0,0,0,0,0
			c-0.3-0.5-0.8-0.8-1.4-1l-2.4-0.7l-3.8-1.7c-0.6-0.3-1.2-0.3-1.7-0.2c-0.1,0-0.3,0.1-0.4,0.1l-0.5-0.1c-1-0.3-2.1-0.3-3.3-0.1
			c-1.2,0.2-2.2,0.6-2.9,1.2l-7.6,6.2c-0.9,0.8-1.6,1.8-2,3.1c-0.4,1.2-0.3,2.4,0,3.8l2.9,9.4c0.3,0.8,0.9,1.6,1.9,2.5
			c1,0.9,2,1.5,3.1,1.8l4.3,1.3l2.5,1.1c1,0.5,2.2,0.7,3.5,0.7c1.3,0,2.3-0.2,3-0.7l8.3-5.2c1.1-0.8,2-1.7,2.5-2.9
			C-337.4,67.6-337.2,66.4-337.5,65.2z M-342.4,66.8c-0.4,0.8-0.9,1.4-1.5,1.8l-7.6,4.8c-0.2,0.2-0.5,0.2-0.7,0.3
			c-0.1-0.1-0.3-0.1-0.4-0.2l-3.9-1.2l-5.2-2.4c-0.2-0.1-0.4-0.2-0.7-0.2c-0.1-0.1-0.1-0.3-0.2-0.4l-2.6-8.6c-0.2-0.8-0.2-1.5,0-2.4
			c0.2-0.8,0.6-1.4,1.2-1.9l7.2-5.8c0.6-0.5,1.3-0.7,2-0.5l5.9,1.7l4.1,1.8c0.7,0.3,1.1,0.9,1.2,1.7l1.6,9.1
			C-341.9,65.4-342,66.1-342.4,66.8z"/>
		<polygon style="fill:#FFFFFF;" points="-397.8,155.7 -385.5,159.8 -401.9,171.3 		"/>
	</g>
	<path style="fill:#FFFFFF;" d="M-449.9,89.3l-2.3,0.6c-4.8,4.9-8.5,10.2-10.9,15.9c-2.4,5.7-3.7,11.2-3.7,16.5
		c-0.1,5.3,0.9,9.6,2.9,13c2,3.4,5.1,6.2,9.3,8.5c8.8-3.1,16-6.7,21.9-10.8c3-0.2,5.1,0.5,6.4,2c1.2,1.6,1.8,3.8,1.7,6.8
		c-7.5,7.8-18.4,13.7-32.4,17.8c-11.2-1.5-19.8-5.4-25.9-11.7c-6.1-6.3-9.1-14.2-9-23.5c0.1-4.9,1-9.7,2.7-14.2
		c1.7-4.6,4.3-9.6,7.8-15.1c6-5.3,12.1-9.3,18.3-11.8c6.2-2.6,13.3-4.3,21.3-5.3c6.6,2.4,11.5,5.6,14.8,9.7c3.2,4,5.3,8.9,6.1,14.8
		c-1.1,3.1-4.2,5.4-9.1,6.8c-4.9,1.4-10,1-15.2-1.2C-445.9,98.4-447.3,92.2-449.9,89.3z"/>
	<path style="fill:#FFFFFF;" d="M-280.9,89.3l-2.3,0.6c-4.8,4.9-8.5,10.2-10.9,15.9c-2.4,5.7-3.7,11.2-3.7,16.5
		c-0.1,5.3,0.9,9.6,2.9,13c2,3.4,5.1,6.2,9.3,8.5c8.8-3.1,16-6.7,21.9-10.8c3-0.2,5.1,0.5,6.4,2c1.2,1.6,1.8,3.8,1.7,6.8
		c-7.5,7.8-18.4,13.7-32.4,17.8c-11.2-1.5-19.8-5.4-25.9-11.7c-6.1-6.3-9.1-14.2-9-23.5c0.1-4.9,1-9.7,2.7-14.2
		c1.7-4.6,4.3-9.6,7.8-15.1c6-5.3,12.1-9.3,18.3-11.8c6.2-2.6,13.3-4.3,21.3-5.3c6.6,2.4,11.5,5.6,14.8,9.7c3.2,4,5.3,8.9,6.1,14.8
		c-1.1,3.1-4.2,5.4-9.1,6.8c-4.9,1.4-10,1-15.2-1.2C-276.9,98.4-278.4,92.2-280.9,89.3z"/>
	<path style="fill:#FFFFFF;" d="M-203.6,89.3l-2.3,0.6c-4.8,4.9-8.5,10.2-10.9,15.9c-2.4,5.7-3.7,11.2-3.7,16.5
		c-0.1,5.3,0.9,9.6,2.9,13c2,3.4,5.1,6.2,9.3,8.5c8.8-3.1,16-6.7,21.9-10.8c3-0.2,5.1,0.5,6.4,2c1.2,1.6,1.8,3.8,1.7,6.8
		c-7.5,7.8-18.4,13.7-32.4,17.8c-11.2-1.5-19.8-5.4-25.9-11.7c-6.1-6.3-9.1-14.2-9-23.5c0.1-4.9,1-9.7,2.7-14.2
		c1.7-4.6,4.3-9.6,7.8-15.1c6-5.3,12.1-9.3,18.3-11.8c6.2-2.6,13.3-4.3,21.3-5.3c6.6,2.4,11.5,5.6,14.8,9.7c3.2,4,5.3,8.9,6.1,14.8
		c-1.1,3.1-4.2,5.4-9.1,6.8c-4.9,1.4-10,1-15.2-1.2C-199.5,98.4-201,92.2-203.6,89.3z"/>
</g>
<rect x="-1268.2" y="387.7" style="fill:none;" width="393" height="204"/>
<text transform="matrix(1 0 0 1 -1268.2325 436.3041)" style="font-family:'Tillana-ExtraBold'; font-size:57px;">CECC</text>
<rect x="209.2" y="500.2" style="fill:none;" width="373" height="108.9"/>
<text transform="matrix(1 0 0 1 279.496 521.5276)"><tspan x="0" y="0" style="font-family:'Tillana-ExtraBold'; font-size:25px;">Cultura &#xC9;tica y </tspan><tspan x="-57.1" y="30" style="font-family:'Tillana-ExtraBold'; font-size:25px;">Convivencia Ciudadana</tspan></text>
<path style="fill:#303F9F;" d="M-99.3,495.4l-47.1-81.6c-1.7-3-5-4.9-8.4-4.9h-65c-1.8-0.3-3.7-0.4-5.7-0.4h-216.3
	c-2,0-3.9,0.1-5.7,0.4H-474c-3.5,0-6.7,1.9-8.4,4.9l-47.1,81.6c-1.7,3-1.7,6.7,0,9.7l47.1,81.6c1.7,3,5,4.9,8.4,4.9h94.2
	c1,0,1.9-0.2,2.8-0.4h125.2c0.9,0.3,1.8,0.4,2.8,0.4h94.2c3.5,0,6.7-1.9,8.4-4.9l47.1-81.6C-97.5,502.1-97.5,498.4-99.3,495.4z"/>
<g>
	<g>
		<path style="fill:#FFFFFF;" d="M-400.1,459.3c0.7-0.6,1.7-1.2,2.8-1.7c1.1-0.6,2.3-0.9,3.6-1.2c1.8-0.3,3.6-0.5,5.4-0.6
			c1.8-0.1,3.6-0.1,5.3,0.1c1.7,0.1,3.3,0.3,4.8,0.6c1.5,0.3,2.8,0.7,3.8,1.1l0,0c0.7,0.3,1.4,0.6,2.2,0.9c0.8,0.3,1.5,0.7,2.3,1.1
			c0.7,0.4,1.4,0.8,2.1,1.3c0.7,0.5,1.2,1,1.7,1.6c0.5,0.6,0.9,1.3,1.1,2c0.2,0.7,0.3,1.4,0.3,2.2c0,0.7-0.2,1.4-0.5,2
			c-0.3,0.6-0.7,1.2-1.3,1.7c-0.4,0.3-0.7,0.5-1,0.7c-0.3,0.1-0.5,0.2-0.7,0.2c-0.2,0-0.4-0.1-0.5-0.2c-0.2-0.1-0.3-0.3-0.5-0.5
			c-0.3-0.3-0.4-0.6-0.4-0.9c0-0.3,0-0.5,0.1-0.8c0.1-0.2,0.2-0.5,0.4-0.7c0.2-0.2,0.3-0.5,0.4-0.7c0.1-0.2,0.2-0.4,0.2-0.7
			c0-0.2-0.1-0.4-0.2-0.7c-0.5-0.6-1.1-1.1-1.9-1.6c-0.8-0.5-1.6-0.9-2.6-1.3c-1-0.4-2-0.7-3-1c-1.1-0.3-2.1-0.6-3.1-0.8
			c-1-0.2-2-0.4-3-0.5c-0.9-0.1-1.8-0.2-2.5-0.3c-1.1,0-2.2,0-3.3,0c-1.1,0.1-2.1,0.2-3.1,0.4c-1,0.2-1.9,0.5-2.8,0.9
			c-0.9,0.4-1.7,0.9-2.5,1.6c-0.6,0.5-1.1,1-1.4,1.6c-0.3,0.6-0.5,1.1-0.7,1.6c-0.2,0.6-0.1,1.1,0,1.7c0.2,0.5,0.5,1.1,1,1.6
			c1,1.2,2,2.3,3.1,3.2c1.1,0.9,2.1,1.7,3.3,2.3c1.1,0.7,2.3,1.3,3.5,1.8c1.2,0.5,2.5,1.1,3.8,1.6l0.5,0.6c0.2,0.2,0.3,0.4,0.3,0.7
			c0.1,0.3,0.1,0.5,0.1,0.8c0,0.3-0.1,0.5-0.2,0.8c-0.1,0.2-0.2,0.4-0.4,0.6c-0.4,0.3-1,0.5-1.7,0.5c-0.7,0-1.5-0.2-2.4-0.5
			c-0.9-0.3-1.7-0.7-2.7-1.1c-0.9-0.5-1.8-1-2.7-1.5c-0.8-0.5-1.6-1-2.3-1.5c-0.7-0.5-1.2-0.9-1.6-1.2c-0.3-0.3-0.6-0.5-0.9-0.8
			c-0.3-0.3-0.6-0.6-1-0.9c-0.4-0.4-0.8-0.8-1.3-1.3c-0.5-0.5-1.1-1.2-1.8-2.1c-0.4-0.5-0.7-1.1-0.9-1.6c-0.2-0.6-0.4-1.1-0.4-1.6
			c-0.1-0.5-0.1-1-0.1-1.4c0-0.4,0.1-0.8,0.1-1c0.2-1.6,0.5-2.9,1.1-4C-401.9,461.1-401.1,460.1-400.1,459.3z"/>
		<path style="fill:#FFFFFF;" d="M-393.9,449.7c0.8-0.5,1.8-1,2.9-1.5c1.1-0.5,2.4-0.7,3.7-0.8c1.8-0.1,3.6-0.2,5.5-0.1
			c1.8,0.1,3.6,0.3,5.3,0.6c1.7,0.3,3.2,0.6,4.7,1c1.4,0.4,2.7,0.9,3.7,1.5l0,0c0.7,0.3,1.4,0.7,2.1,1.1c0.7,0.4,1.4,0.8,2.1,1.3
			c0.7,0.5,1.4,0.9,2,1.5c0.6,0.5,1.1,1.1,1.6,1.8c0.4,0.7,0.7,1.3,0.9,2.1c0.2,0.7,0.2,1.5,0.1,2.2c-0.1,0.7-0.3,1.4-0.7,2
			c-0.4,0.6-0.8,1.1-1.4,1.5c-0.4,0.3-0.8,0.5-1,0.6c-0.3,0.1-0.5,0.1-0.7,0.1c-0.2,0-0.4-0.1-0.5-0.3c-0.1-0.2-0.3-0.4-0.5-0.6
			c-0.2-0.3-0.3-0.7-0.3-0.9c0-0.3,0.1-0.5,0.2-0.8c0.1-0.2,0.3-0.5,0.4-0.7c0.2-0.2,0.3-0.4,0.5-0.6c0.1-0.2,0.2-0.4,0.3-0.6
			c0-0.2,0-0.4-0.2-0.7c-0.4-0.6-1-1.2-1.7-1.8c-0.7-0.6-1.6-1.1-2.5-1.6c-0.9-0.5-1.9-0.9-2.9-1.3c-1-0.4-2-0.8-3-1.1
			c-1-0.3-2-0.6-2.9-0.8c-0.9-0.2-1.7-0.4-2.4-0.5c-1.1-0.2-2.2-0.2-3.3-0.3c-1.1,0-2.1,0-3.1,0.1c-1,0.1-2,0.4-2.9,0.7
			c-0.9,0.3-1.8,0.8-2.7,1.3c-0.7,0.4-1.2,0.9-1.5,1.5c-0.4,0.5-0.6,1.1-0.8,1.5c-0.2,0.6-0.3,1.1-0.1,1.7c0.1,0.5,0.4,1.1,0.8,1.7
			c0.9,1.3,1.8,2.5,2.8,3.4c1,1,2,1.8,3,2.6c1.1,0.8,2.2,1.5,3.3,2.1c1.2,0.6,2.4,1.3,3.6,1.9l0.4,0.6c0.1,0.2,0.2,0.4,0.3,0.7
			c0,0.3,0,0.5,0,0.8c0,0.3-0.1,0.5-0.2,0.7c-0.1,0.2-0.3,0.4-0.5,0.5c-0.5,0.3-1,0.4-1.7,0.3c-0.7-0.1-1.5-0.3-2.3-0.7
			c-0.8-0.4-1.7-0.8-2.6-1.4c-0.9-0.6-1.7-1.1-2.5-1.7c-0.8-0.6-1.5-1.1-2.1-1.7c-0.6-0.5-1.1-1-1.5-1.3c-0.3-0.3-0.6-0.6-0.9-0.9
			c-0.3-0.3-0.6-0.6-0.9-1c-0.4-0.4-0.7-0.9-1.2-1.5c-0.4-0.6-1-1.3-1.6-2.2c-0.4-0.6-0.6-1.1-0.8-1.7c-0.2-0.6-0.2-1.1-0.3-1.6
			c0-0.5,0-1,0-1.4c0.1-0.4,0.1-0.7,0.2-1c0.3-1.5,0.8-2.8,1.4-3.9C-395.8,451.4-395,450.5-393.9,449.7z"/>
		<path style="fill:#FFFFFF;" d="M-372.7,539.2l15.5,5.2c1.2,0.4,2.1,1.1,2.7,2.1c0.6,1,0.8,2,0.4,3c-0.3,1-1.1,1.8-2.2,2.2
			c-1.1,0.4-2.3,0.4-3.4,0l-16-5.4c-2-0.7-4-1.9-5.8-3.8c-1.8-1.8-2.9-3.6-3.3-5.3l-4.4-19.8c-0.5-2.8-0.4-5.5,0.5-8
			c0.9-2.8,2.3-4.9,4.3-6.5l15.4-13c1.5-1.2,3.4-2,5.8-2.5c2.4-0.5,4.5-0.4,6.4,0.2l16.9,5.7c1.2,0.4,2.1,1.1,2.7,2.1
			c0.6,1,0.7,2,0.4,3c-0.3,1-1.1,1.8-2.1,2.2c-1.1,0.5-2.2,0.5-3.4,0.1l-16.3-5.5c-1.4-0.5-2.7-0.1-4,1l-14.6,12.1
			c-1.2,0.9-2,2.2-2.5,3.9c-0.6,1.7-0.7,3.4-0.3,5l4,18.1C-375.7,537.3-374.6,538.6-372.7,539.2z"/>
		<path style="fill:#FFFFFF;" d="M-361.6,501.5l12.7,4.3c1,0.3,1.7,0.8,2.3,1.6c0.6,0.7,0.7,1.4,0.5,2.1c-0.2,0.7-0.8,1.1-1.6,1.4
			c-0.9,0.2-1.8,0.2-2.8-0.1l-13.2-4.4c-1.7-0.6-3.3-1.5-4.8-2.8c-1.5-1.3-2.5-2.6-2.9-3.7l-4.5-13.7c-0.6-1.9-0.6-3.7,0-5.4
			c0.6-1.8,1.7-3.2,3.1-4.2l11.8-8.1c1.1-0.7,2.6-1.2,4.5-1.4c1.9-0.2,3.6-0.1,5.2,0.4l13.9,4.7c1,0.3,1.7,0.8,2.3,1.6
			c0.5,0.7,0.7,1.4,0.5,2.1c-0.2,0.7-0.8,1.2-1.6,1.4c-0.9,0.3-1.8,0.2-2.7-0.1l-13.4-4.5c-1.1-0.4-2.2-0.2-3.2,0.5l-11.2,7.5
			c-0.9,0.6-1.5,1.4-1.9,2.5c-0.4,1.1-0.4,2.3,0,3.4l4.1,12.5C-364.2,500.1-363.2,501-361.6,501.5z"/>
		<path style="fill:#FFFFFF;" d="M-328.8,503l5.9,2c0.5,0.2,0.8,0.4,1.1,0.7c0.3,0.3,0.3,0.7,0.2,1c-0.1,0.3-0.4,0.5-0.8,0.6
			c-0.4,0.1-0.8,0.1-1.3-0.1l-6.1-2c-0.8-0.3-1.5-0.7-2.2-1.3c-0.7-0.6-1.2-1.2-1.4-1.7l-2.1-6.4c-0.3-0.9-0.3-1.7,0-2.5
			c0.3-0.8,0.8-1.5,1.5-2l5.5-3.8c0.5-0.3,1.2-0.6,2.1-0.7c0.9-0.1,1.7,0,2.4,0.2l6.5,2.2c0.5,0.2,0.8,0.4,1,0.7
			c0.2,0.3,0.3,0.7,0.2,1c-0.1,0.3-0.4,0.5-0.8,0.7c-0.4,0.1-0.8,0.1-1.3,0l-6.2-2.1c-0.5-0.2-1-0.1-1.5,0.2l-5.2,3.5
			c-0.4,0.3-0.7,0.7-0.9,1.2c-0.2,0.5-0.2,1.1,0,1.6l1.9,5.8C-330,502.3-329.5,502.8-328.8,503z"/>
		<path style="fill:#FFFFFF;" d="M-332.8,514l5.9,2c0.5,0.2,0.8,0.4,1.1,0.7c0.3,0.3,0.3,0.7,0.2,1c-0.1,0.3-0.4,0.5-0.8,0.6
			c-0.4,0.1-0.8,0.1-1.3-0.1l-6.1-2c-0.8-0.3-1.5-0.7-2.2-1.3c-0.7-0.6-1.2-1.2-1.4-1.7l-2.1-6.4c-0.3-0.9-0.3-1.7,0-2.5
			c0.3-0.8,0.8-1.5,1.5-2l5.5-3.8c0.5-0.3,1.2-0.6,2.1-0.7c0.9-0.1,1.7,0,2.4,0.2l6.5,2.2c0.5,0.2,0.8,0.4,1,0.7
			c0.2,0.3,0.3,0.7,0.2,1c-0.1,0.3-0.4,0.5-0.8,0.7c-0.4,0.1-0.8,0.1-1.3,0l-6.2-2.1c-0.5-0.2-1-0.1-1.5,0.2l-5.2,3.5
			c-0.4,0.3-0.7,0.7-0.9,1.2c-0.2,0.5-0.2,1.1,0,1.6l1.9,5.8C-334,513.3-333.5,513.8-332.8,514z"/>
		<path style="fill:#FFFFFF;" d="M-320.5,456.2l-1.7-9.6c-0.2-0.9-0.6-1.8-1.4-2.8c-0.8-1-1.6-1.7-2.5-2.1l-0.7-0.3c0,0,0,0,0,0
			c-0.3-0.5-0.8-0.8-1.4-1l-2.4-0.7l-3.8-1.7c-0.6-0.3-1.2-0.3-1.7-0.2c-0.1,0-0.3,0.1-0.4,0.1l-0.5-0.1c-1-0.3-2.1-0.3-3.3-0.1
			c-1.2,0.2-2.2,0.6-2.9,1.2l-7.6,6.2c-0.9,0.8-1.6,1.8-2,3.1c-0.4,1.2-0.3,2.4,0,3.8l2.9,9.4c0.3,0.8,0.9,1.6,1.9,2.5
			c1,0.9,2,1.5,3.1,1.8l4.3,1.3l2.5,1.1c1,0.5,2.2,0.7,3.5,0.7c1.3,0,2.3-0.2,3-0.7l8.3-5.2c1.1-0.8,2-1.7,2.5-2.9
			C-320.4,458.6-320.2,457.4-320.5,456.2z M-325.4,457.8c-0.4,0.8-0.9,1.4-1.5,1.8l-7.6,4.8c-0.2,0.2-0.5,0.2-0.7,0.3
			c-0.1-0.1-0.3-0.1-0.4-0.2l-3.9-1.2l-5.2-2.4c-0.2-0.1-0.4-0.2-0.7-0.2c-0.1-0.1-0.1-0.3-0.2-0.4l-2.6-8.6c-0.2-0.8-0.2-1.5,0-2.4
			c0.2-0.8,0.6-1.4,1.2-1.9l7.2-5.8c0.6-0.5,1.3-0.7,2-0.5l5.9,1.7l4.1,1.8c0.7,0.3,1.1,0.9,1.2,1.7l1.6,9.1
			C-324.9,456.4-325,457.1-325.4,457.8z"/>
		<polygon style="fill:#FFFFFF;" points="-380.8,546.7 -368.5,550.8 -384.9,562.3 		"/>
	</g>
	<path style="fill:#FFFFFF;" d="M-432.9,480.3l-2.3,0.6c-4.8,4.9-8.5,10.2-10.9,15.9c-2.4,5.7-3.7,11.2-3.7,16.5
		c-0.1,5.3,0.9,9.6,2.9,13c2,3.4,5.1,6.2,9.3,8.5c8.8-3.1,16-6.7,21.9-10.8c3-0.2,5.1,0.5,6.4,2c1.2,1.6,1.8,3.8,1.7,6.8
		c-7.5,7.8-18.4,13.7-32.4,17.8c-11.2-1.5-19.8-5.4-25.9-11.7c-6.1-6.3-9.1-14.2-9-23.5c0.1-4.9,1-9.7,2.7-14.2
		c1.7-4.6,4.3-9.6,7.8-15.1c6-5.3,12.1-9.3,18.3-11.8c6.2-2.6,13.3-4.3,21.3-5.3c6.6,2.4,11.5,5.6,14.8,9.7c3.2,4,5.3,8.9,6.1,14.8
		c-1.1,3.1-4.2,5.4-9.1,6.8c-4.9,1.4-10,1-15.2-1.2C-428.9,489.4-430.3,483.2-432.9,480.3z"/>
	<path style="fill:#FFFFFF;" d="M-263.9,480.3l-2.3,0.6c-4.8,4.9-8.5,10.2-10.9,15.9c-2.4,5.7-3.7,11.2-3.7,16.5
		c-0.1,5.3,0.9,9.6,2.9,13c2,3.4,5.1,6.2,9.3,8.5c8.8-3.1,16-6.7,21.9-10.8c3-0.2,5.1,0.5,6.4,2c1.2,1.6,1.8,3.8,1.7,6.8
		c-7.5,7.8-18.4,13.7-32.4,17.8c-11.2-1.5-19.8-5.4-25.9-11.7c-6.1-6.3-9.1-14.2-9-23.5c0.1-4.9,1-9.7,2.7-14.2
		c1.7-4.6,4.3-9.6,7.8-15.1c6-5.3,12.1-9.3,18.3-11.8c6.2-2.6,13.3-4.3,21.3-5.3c6.6,2.4,11.5,5.6,14.8,9.7c3.2,4,5.3,8.9,6.1,14.8
		c-1.1,3.1-4.2,5.4-9.1,6.8c-4.9,1.4-10,1-15.2-1.2C-259.9,489.4-261.4,483.2-263.9,480.3z"/>
	<path style="fill:#FFFFFF;" d="M-186.6,480.3l-2.3,0.6c-4.8,4.9-8.5,10.2-10.9,15.9c-2.4,5.7-3.7,11.2-3.7,16.5
		c-0.1,5.3,0.9,9.6,2.9,13c2,3.4,5.1,6.2,9.3,8.5c8.8-3.1,16-6.7,21.9-10.8c3-0.2,5.1,0.5,6.4,2c1.2,1.6,1.8,3.8,1.7,6.8
		c-7.5,7.8-18.4,13.7-32.4,17.8c-11.2-1.5-19.8-5.4-25.9-11.7c-6.1-6.3-9.1-14.2-9-23.5c0.1-4.9,1-9.7,2.7-14.2
		c1.7-4.6,4.3-9.6,7.8-15.1c6-5.3,12.1-9.3,18.3-11.8c6.2-2.6,13.3-4.3,21.3-5.3c6.6,2.4,11.5,5.6,14.8,9.7c3.2,4,5.3,8.9,6.1,14.8
		c-1.1,3.1-4.2,5.4-9.1,6.8c-4.9,1.4-10,1-15.2-1.2C-182.5,489.4-184,483.2-186.6,480.3z"/>
</g>
<g>
	<path style="fill:#FFFFFF;" d="M-470.6,568.2l-0.3,0.1c-0.6,0.6-1.1,1.3-1.4,2.1c-0.3,0.7-0.5,1.5-0.5,2.2c0,0.7,0.1,1.3,0.4,1.7
		c0.3,0.4,0.6,0.8,1.2,1.1c1.1-0.4,2-0.9,2.8-1.4c0.4,0,0.6,0.1,0.8,0.3c0.2,0.2,0.2,0.5,0.2,0.9c-1,1-2.3,1.8-4.1,2.3
		c-1.4-0.2-2.5-0.7-3.3-1.5c-0.8-0.8-1.2-1.9-1.1-3.1c0-0.6,0.1-1.3,0.3-1.9c0.2-0.6,0.5-1.3,1-2c0.8-0.7,1.5-1.2,2.3-1.6
		c0.8-0.3,1.7-0.6,2.7-0.7c0.8,0.3,1.5,0.7,1.9,1.3c0.4,0.5,0.7,1.2,0.8,1.9c-0.1,0.4-0.5,0.7-1.2,0.9c-0.6,0.2-1.3,0.1-1.9-0.2
		C-470.1,569.4-470.3,568.6-470.6,568.2z"/>
	<path style="fill:#FFFFFF;" d="M-465.5,573.1l-0.3-3.3c0.6-0.2,1.2-0.3,1.9-0.2c0.7,0.1,1.2,0.4,1.5,0.8c0,0.5-0.1,1.1-0.4,1.9
		s-0.5,1.5-0.9,2.1c0.1,0.3,0.4,0.5,1,0.7c0.8-0.8,1.3-1.4,1.6-1.8c0.3-1.7,0.6-2.9,0.8-3.7c0.9-0.2,1.7-0.2,2.2-0.1
		c0.5,0.1,0.8,0.4,1,0.8l-1.2,2.4c0,1.2,0.2,2.6,0.4,4.1c-0.3,0.4-0.8,0.5-1.6,0.4c-0.8-0.1-1.5-0.3-2-0.8l0.6-1.3l-0.2-0.1
		c-0.2,0.2-0.8,1-1.9,2.2c-2.1-0.2-3.3-1-3.6-2.3L-465.5,573.1z"/>
	<path style="fill:#FFFFFF;" d="M-454.7,569.9l-0.2-3.7c0.6-0.4,1.2-0.6,1.8-0.7c0.6-0.1,1.1,0,1.6,0.2l-1,3.4
		c-0.3,5-0.4,7.6-0.4,7.8c-0.3,0.3-0.7,0.4-1.2,0.4c-0.6,0-1.1,0-1.6-0.2c-0.5-0.1-0.8-0.3-0.9-0.6
		C-455.7,574.8-455.1,572.6-454.7,569.9z"/>
	<path style="fill:#FFFFFF;" d="M-446.5,570.6L-446.5,570.6c-0.1,0.8-0.2,1.8-0.3,3c-0.1,1.2-0.2,1.9-0.2,2.1
		c0.7-0.4,1.5-0.8,2.2-1.4c0.4,0,0.6,0.1,0.8,0.3c0.1,0.2,0.2,0.5,0.1,0.9c-1.2,1.1-2.4,1.7-3.6,2c-1.4-0.1-2.3-0.7-2.7-1.7
		c0.6-1.6,1.1-3.2,1.5-4.8l-1.8,0.3c-0.2-0.3-0.4-0.5-0.4-0.8c0-0.2,0.1-0.5,0.3-0.9l2,0.1l-0.2-2.6c0.7-0.4,1.4-0.6,2-0.7
		c0.6,0,1,0.1,1.3,0.5l-0.7,2.4l2.4-0.4c0.4,0.4,0.4,0.9,0,1.6L-446.5,570.6z"/>
	<path style="fill:#FFFFFF;" d="M-442.1,573.1l-0.3-3.3c0.6-0.2,1.2-0.3,1.9-0.2c0.7,0.1,1.2,0.4,1.5,0.8c0,0.5-0.1,1.1-0.4,1.9
		s-0.5,1.5-0.9,2.1c0.1,0.3,0.4,0.5,1,0.7c0.8-0.8,1.3-1.4,1.6-1.8c0.3-1.7,0.6-2.9,0.8-3.7c0.9-0.2,1.7-0.2,2.2-0.1
		c0.5,0.1,0.8,0.4,1,0.8l-1.2,2.4c0,1.2,0.2,2.6,0.4,4.1c-0.3,0.4-0.8,0.5-1.6,0.4c-0.8-0.1-1.5-0.3-2-0.8l0.6-1.3l-0.2-0.1
		c-0.2,0.2-0.8,1-1.9,2.2c-2.1-0.2-3.3-1-3.6-2.3L-442.1,573.1z"/>
	<path style="fill:#FFFFFF;" d="M-429.3,571.8l2.3-2.2c0.7,0.2,1.2,0.5,1.6,1c0.4,0.5,0.6,1.2,0.7,2c-0.4,0.4-0.8,0.6-1.3,0.6
		c-0.5,0.1-1,0-1.5-0.3c0-0.2-0.1-0.5-0.2-1c-0.1,0.1-0.6,0.5-1.3,1.1c0,1.1-0.1,2.4-0.2,4c-0.5,0.4-1.1,0.5-2,0.4
		c-0.9-0.1-1.4-0.4-1.6-0.7c0.5-1.3,1-2.7,1.4-4l-0.5-2.2c0.4-0.4,0.9-0.6,1.5-0.7c0.6-0.1,1-0.1,1.5-0.1c0.1,0.4,0.2,0.8,0.2,1.2
		l-0.5,0.6L-429.3,571.8z"/>
	<path style="fill:#FFFFFF;" d="M-424.4,574.2c0-1.1,0.5-2.1,1.5-3.1c1-1,2.3-1.5,3.9-1.5c0.4,0.3,0.8,0.9,1.2,1.7
		c0-0.7,0-1.2,0.3-1.5c0.9-0.2,1.7-0.2,2.1-0.1c0.5,0.1,0.8,0.4,1,0.9l-1.3,2.4c0,1.3,0.1,2.7,0.3,4.1c-0.3,0.4-0.8,0.5-1.6,0.4
		c-0.8-0.1-1.4-0.3-2-0.8l0.6-1.2l-0.2-0.3c-0.9,0.8-1.6,1.5-2.1,2.1c-1.2-0.1-2.2-0.4-2.7-0.9C-424.1,575.8-424.4,575-424.4,574.2z
		 M-420.6,572.6c-0.3,0.5-0.5,1-0.5,1.6c0,0.5,0.2,0.9,0.5,1.1c0.6-0.4,1.4-1,2.4-1.8l0.1-0.8c-0.3-0.6-0.7-1.1-1.1-1.3
		C-419.8,571.6-420.2,572.1-420.6,572.6z"/>
	<path style="fill:#FFFFFF;" d="M-401,568.6c-0.8,0-1.4,0-1.8,0.1l-0.4,1l-0.4,1.9c1.7-0.3,2.8-0.4,3.1-0.4c0.2,0.1,0.3,0.3,0.3,0.6
		c0.1,0.4,0,0.9-0.3,1.4c-1.2-0.1-2.3-0.2-3.3-0.2l-0.5,2.8c1.9-0.3,3.4-0.6,4.4-0.9c0.3,0.1,0.5,0.3,0.6,0.6c0.2,0.5,0,1.1-0.5,1.7
		l-5.5,0.3c-1.4-0.3-2.1-1-2.2-1.9c0-0.1,0.1-0.4,0.3-0.8c0.1-0.4,0.2-0.7,0.3-0.8c0-0.1,0.1-0.3,0.2-0.6c0.1-0.3,0.2-0.5,0.2-0.7
		c0-0.1,0.1-0.3,0.2-0.6c0.1-0.3,0.1-0.5,0.2-0.8c0.1-0.2,0.1-0.5,0.2-0.8l-0.1-1.9c-0.4-0.1-0.7-0.2-1-0.3
		c-0.1-0.2-0.1-0.4-0.1-0.7c0-0.2,0.1-0.4,0.2-0.5c1.7-0.1,3.1-0.2,4.2-0.2c1.1,0,2.5,0,4.2,0.1c0.5,1.2,0.1,2.2-1.2,2.8L-401,568.6
		z M-401.3,562.7c0.7-0.1,1.3-0.1,1.7,0.1c0.4,0.1,0.7,0.5,0.9,0.9l-2.9,2.5c-0.3,0-0.6-0.1-0.8-0.2c-0.2-0.1-0.4-0.3-0.3-0.5l1-1.3
		L-401.3,562.7z"/>
	<path style="fill:#FFFFFF;" d="M-393.3,570.6L-393.3,570.6c-0.1,0.8-0.2,1.8-0.3,3c-0.1,1.2-0.2,1.9-0.2,2.1
		c0.7-0.4,1.5-0.8,2.2-1.4c0.4,0,0.6,0.1,0.8,0.3c0.1,0.2,0.2,0.5,0.1,0.9c-1.2,1.1-2.4,1.7-3.6,2c-1.4-0.1-2.3-0.7-2.7-1.7
		c0.6-1.6,1.1-3.2,1.5-4.8l-1.8,0.3c-0.2-0.3-0.4-0.5-0.4-0.8c0-0.2,0.1-0.5,0.3-0.9l2,0.1l-0.2-2.6c0.7-0.4,1.4-0.6,2-0.7
		c0.6,0,1,0.1,1.3,0.5l-0.7,2.4l2.4-0.4c0.4,0.4,0.4,0.9,0,1.6L-393.3,570.6z"/>
	<path style="fill:#FFFFFF;" d="M-388.7,572.9l-0.1-2.8c1.4-0.6,2.4-0.7,3.2-0.2l-0.7,2.5c-0.1,0.7-0.1,2.2-0.2,4.5
		c-0.4,0.4-1.1,0.5-1.8,0.4c-0.8-0.1-1.3-0.3-1.7-0.7C-389.3,575.1-388.9,573.9-388.7,572.9z M-385.4,567.2c0,0.4-0.1,0.8-0.4,1.1
		c-0.3,0.3-0.7,0.5-1.1,0.5c-0.4,0-0.8-0.2-1.1-0.5c-0.3-0.3-0.5-0.7-0.5-1.1s0.2-0.8,0.5-1.1c0.3-0.3,0.7-0.5,1.1-0.5
		c0.4,0,0.8,0.2,1.1,0.5C-385.5,566.4-385.4,566.8-385.4,567.2z"/>
	<path style="fill:#FFFFFF;" d="M-384.9,574.3c0-0.6,0.1-1.2,0.3-1.6c0.2-0.5,0.6-0.9,1-1.4c1.1-1,2.4-1.6,3.8-1.9
		c0.9,0.2,1.5,0.4,1.9,0.8c0.2,0.2,0.3,0.4,0.4,0.7c0.1,0.2,0.2,0.5,0.3,0.9c-0.1,0.5-0.4,0.9-1,1.1c-0.5,0.2-1.2,0.3-2.1,0.2
		c0.1-0.6,0-1.3-0.4-2.1l-0.4,0.1c-0.5,0.8-0.8,1.7-0.8,2.6c0,0.8,0.2,1.4,0.7,2c1-0.3,1.9-0.7,2.7-1.3c0.3,0,0.6,0.1,0.7,0.3
		s0.2,0.5,0.1,1c-0.4,0.4-1,0.8-1.7,1.1s-1.5,0.5-2.3,0.6c-1.2-0.1-2.1-0.5-2.7-1.1C-384.6,575.8-384.9,575.1-384.9,574.3z"/>
	<path style="fill:#FFFFFF;" d="M-376.3,574.2c0-1.1,0.5-2.1,1.5-3.1c1-1,2.3-1.5,3.9-1.5c0.4,0.3,0.8,0.9,1.2,1.7
		c0-0.7,0-1.2,0.3-1.5c0.9-0.2,1.7-0.2,2.1-0.1c0.5,0.1,0.8,0.4,1,0.9l-1.3,2.4c0,1.3,0.1,2.7,0.3,4.1c-0.3,0.4-0.8,0.5-1.6,0.4
		c-0.8-0.1-1.4-0.3-2-0.8l0.6-1.2l-0.2-0.3c-0.9,0.8-1.6,1.5-2.1,2.1c-1.2-0.1-2.2-0.4-2.7-0.9C-376,575.8-376.3,575-376.3,574.2z
		 M-372.4,572.6c-0.3,0.5-0.5,1-0.5,1.6c0,0.5,0.2,0.9,0.5,1.1c0.6-0.4,1.4-1,2.4-1.8l0.1-0.8c-0.3-0.6-0.7-1.1-1.1-1.3
		C-371.6,571.6-372.1,572.1-372.4,572.6z"/>
	<path style="fill:#FFFFFF;" d="M-354.3,573.5L-354.3,573.5c0.2-1.8,0.4-3,0.6-3.7c1-0.2,1.7-0.2,2.2-0.1c0.5,0.1,0.8,0.4,1,0.8
		l-1.5,2.5c-0.5,3.5-0.7,5.8-0.7,7.2c-0.5,0.6-1.1,1.1-1.8,1.3c-0.8,0.3-1.7,0.4-2.9,0.4c-1.5-0.7-2.4-1.6-2.7-2.7
		c0.4-0.6,0.9-1,1.5-1.2c0.5-0.2,1.1-0.1,1.5,0.1c0.1,0.5,0.2,0.8,0.4,1.1c0.1,0.3,0.3,0.6,0.5,0.9c0.5,0,0.8-0.1,0.9-0.4
		c0.1-1.1,0.2-2,0.4-2.8l0.7-1.3l-0.2-0.2c-0.4,0.5-1,1.1-1.6,1.7c-0.9-0.1-1.7-0.4-2.3-0.7c-0.6-0.4-1-0.9-1.1-1.5l0.7-1.8
		c0-0.5-0.1-1-0.1-1.7s-0.1-1.2-0.1-1.5c0.3-0.1,0.7-0.2,1.2-0.2s0.9,0.1,1.3,0.2c0.4,0.2,0.8,0.4,1.1,0.7c-0.1,1.1-0.5,2.4-1.1,3.8
		c0.1,0.3,0.4,0.5,0.7,0.7C-355.3,574.6-354.8,574.1-354.3,573.5z"/>
	<path style="fill:#FFFFFF;" d="M-338.7,568.2l-0.3,0.1c-0.6,0.6-1.1,1.3-1.4,2.1c-0.3,0.7-0.5,1.5-0.5,2.2c0,0.7,0.1,1.3,0.4,1.7
		c0.3,0.4,0.6,0.8,1.2,1.1c1.1-0.4,2-0.9,2.8-1.4c0.4,0,0.6,0.1,0.8,0.3c0.2,0.2,0.2,0.5,0.2,0.9c-1,1-2.3,1.8-4.1,2.3
		c-1.4-0.2-2.5-0.7-3.3-1.5c-0.8-0.8-1.2-1.9-1.1-3.1c0-0.6,0.1-1.3,0.3-1.9c0.2-0.6,0.5-1.3,1-2c0.8-0.7,1.5-1.2,2.3-1.6
		c0.8-0.3,1.7-0.6,2.7-0.7c0.8,0.3,1.5,0.7,1.9,1.3c0.4,0.5,0.7,1.2,0.8,1.9c-0.1,0.4-0.5,0.7-1.2,0.9c-0.6,0.2-1.3,0.1-1.9-0.2
		C-338.2,569.4-338.4,568.6-338.7,568.2z"/>
	<path style="fill:#FFFFFF;" d="M-334.6,574c0-0.4,0.1-0.9,0.4-1.4c0.2-0.5,0.6-1,1-1.5c0.4-0.5,0.9-0.9,1.6-1.2
		c0.7-0.3,1.4-0.5,2.1-0.5c0.8,0,1.5,0.4,2.2,1.2c0.7,0.8,1.1,1.6,1.1,2.4c0,0.7-0.2,1.4-0.7,2c-0.5,0.7-1.1,1.2-1.9,1.7
		c-0.8,0.4-1.6,0.7-2.4,0.7c-0.8,0-1.6-0.4-2.3-1.1C-334.2,575.6-334.6,574.8-334.6,574z M-329.9,570.8c-0.5,0.5-0.9,1-1.2,1.6
		c-0.3,0.6-0.5,1.2-0.5,1.8c0,0.3,0.1,0.6,0.2,1c0.1,0.3,0.3,0.6,0.5,0.9c0.9-0.7,1.5-1.5,1.8-2.4c0-0.6-0.1-1.2-0.2-1.6
		S-329.6,571.2-329.9,570.8z"/>
	<path style="fill:#FFFFFF;" d="M-316.5,571.7l-0.7,2.2c0,1.1,0.1,2.2,0.4,3.2c-0.3,0.4-0.8,0.5-1.6,0.4c-0.8-0.1-1.4-0.3-2-0.8
		c0-0.6,0.1-1.4,0.3-2.2c0.2-0.8,0.3-1.5,0.5-2c-0.1-0.3-0.3-0.6-0.5-0.7c-0.5,0.3-1.2,0.8-1.9,1.5c0,1-0.1,2.2-0.2,3.8
		c-0.5,0.4-1.1,0.5-2,0.4c-0.9-0.1-1.4-0.4-1.6-0.7c0.5-1.3,1-2.7,1.4-4l-0.5-2.2c0.8-0.7,1.8-1,2.9-0.8c0.1,0.4,0.2,0.8,0.2,1.2
		l-0.5,0.6l0.2,0.3c0.8-0.8,1.6-1.5,2.6-2.2c0.8,0,1.5,0.3,2,0.7C-317,570.7-316.7,571.2-316.5,571.7z"/>
	<path style="fill:#FFFFFF;" d="M-309.9,570.2c0.5-0.5,1-0.7,1.7-0.8c0.6-0.1,1.1,0.1,1.5,0.4c-0.2,2.8-1.3,5.3-3.4,7.6
		c-0.8,0.2-1.5,0.1-2.3-0.1c-0.7-0.2-1.3-0.6-1.7-1.2c0.3-1.5,0.3-2.6,0-3.3l-1.2-1.5c0.6-1.2,1.6-1.7,3.1-1.7
		c0.8,1.3,1.1,3.2,1,5.9l0.2,0.1c1-1.2,1.6-2.4,1.9-3.6L-309.9,570.2z"/>
	<path style="fill:#FFFFFF;" d="M-305.4,572.9l-0.1-2.8c1.4-0.6,2.4-0.7,3.2-0.2l-0.7,2.5c-0.1,0.7-0.1,2.2-0.2,4.5
		c-0.4,0.4-1.1,0.5-1.8,0.4c-0.8-0.1-1.3-0.3-1.7-0.7C-306.1,575.1-305.6,573.9-305.4,572.9z M-302.1,567.2c0,0.4-0.1,0.8-0.4,1.1
		c-0.3,0.3-0.7,0.5-1.1,0.5c-0.4,0-0.8-0.2-1.1-0.5c-0.3-0.3-0.5-0.7-0.5-1.1s0.2-0.8,0.5-1.1c0.3-0.3,0.7-0.5,1.1-0.5
		c0.4,0,0.8,0.2,1.1,0.5C-302.2,566.4-302.1,566.8-302.1,567.2z"/>
	<path style="fill:#FFFFFF;" d="M-296.1,570.2c0.5-0.5,1-0.7,1.7-0.8c0.6-0.1,1.1,0.1,1.5,0.4c-0.2,2.8-1.3,5.3-3.4,7.6
		c-0.8,0.2-1.5,0.1-2.3-0.1c-0.7-0.2-1.3-0.6-1.7-1.2c0.3-1.5,0.3-2.6,0-3.3l-1.2-1.5c0.6-1.2,1.6-1.7,3.1-1.7
		c0.8,1.3,1.1,3.2,1,5.9l0.2,0.1c1-1.2,1.6-2.4,1.9-3.6L-296.1,570.2z"/>
	<path style="fill:#FFFFFF;" d="M-286,574.7c0.3,0,0.6,0.1,0.8,0.3c0.2,0.2,0.2,0.5,0.1,1c-0.4,0.4-1,0.8-1.9,1.1
		c-0.8,0.3-1.7,0.5-2.4,0.5c-1.1-0.2-2-0.6-2.5-1.1c-0.6-0.6-0.8-1.3-0.8-2.1c0.1-1.1,0.5-2,1.3-2.9c1.5-1,3-1.7,4.4-1.8
		c0.7,0.1,1.2,0.3,1.6,0.6c0.7,0.6,0.8,1.6,0.3,3c-0.5,0.3-1.2,0.6-2.1,0.9c-0.9,0.3-1.6,0.5-2.3,0.7c0.1,0.4,0.2,0.7,0.5,1.1
		C-287.9,575.6-286.9,575.3-286,574.7z M-288.2,571.1l-0.3,0.1c-0.7,0.7-1,1.5-1.1,2.4c0.7-0.2,1.3-0.5,1.8-0.8
		C-287.5,572.1-287.7,571.5-288.2,571.1z"/>
	<path style="fill:#FFFFFF;" d="M-274.8,571.7l-0.7,2.2c0,1.1,0.1,2.2,0.4,3.2c-0.3,0.4-0.8,0.5-1.6,0.4c-0.8-0.1-1.4-0.3-2-0.8
		c0-0.6,0.1-1.4,0.3-2.2c0.2-0.8,0.3-1.5,0.5-2c-0.1-0.3-0.3-0.6-0.5-0.7c-0.5,0.3-1.2,0.8-1.9,1.5c0,1-0.1,2.2-0.2,3.8
		c-0.5,0.4-1.1,0.5-2,0.4s-1.4-0.4-1.6-0.7c0.5-1.3,1-2.7,1.4-4l-0.5-2.2c0.8-0.7,1.8-1,2.9-0.8c0.1,0.4,0.2,0.8,0.2,1.2l-0.5,0.6
		l0.2,0.3c0.8-0.8,1.6-1.5,2.6-2.2c0.8,0,1.5,0.3,2,0.7C-275.4,570.7-275,571.2-274.8,571.7z"/>
	<path style="fill:#FFFFFF;" d="M-273.7,574.3c0-0.6,0.1-1.2,0.3-1.6c0.2-0.5,0.6-0.9,1-1.4c1.1-1,2.4-1.6,3.8-1.9
		c0.9,0.2,1.5,0.4,1.9,0.8c0.2,0.2,0.3,0.4,0.4,0.7c0.1,0.2,0.2,0.5,0.3,0.9c-0.1,0.5-0.4,0.9-1,1.1c-0.5,0.2-1.2,0.3-2.1,0.2
		c0.1-0.6,0-1.3-0.4-2.1l-0.4,0.1c-0.5,0.8-0.8,1.7-0.8,2.6c0,0.8,0.2,1.4,0.7,2c1-0.3,1.9-0.7,2.7-1.3c0.3,0,0.6,0.1,0.7,0.3
		c0.2,0.2,0.2,0.5,0.1,1c-0.4,0.4-1,0.8-1.7,1.1c-0.7,0.3-1.5,0.5-2.3,0.6c-1.2-0.1-2.1-0.5-2.7-1.1
		C-273.4,575.8-273.7,575.1-273.7,574.3z"/>
	<path style="fill:#FFFFFF;" d="M-264,572.9l-0.1-2.8c1.4-0.6,2.4-0.7,3.2-0.2l-0.7,2.5c-0.1,0.7-0.1,2.2-0.2,4.5
		c-0.4,0.4-1.1,0.5-1.8,0.4c-0.8-0.1-1.3-0.3-1.7-0.7C-264.7,575.1-264.2,573.9-264,572.9z M-260.7,567.2c0,0.4-0.1,0.8-0.4,1.1
		c-0.3,0.3-0.7,0.5-1.1,0.5c-0.4,0-0.8-0.2-1.1-0.5c-0.3-0.3-0.5-0.7-0.5-1.1s0.2-0.8,0.5-1.1c0.3-0.3,0.7-0.5,1.1-0.5
		c0.4,0,0.8,0.2,1.1,0.5C-260.9,566.4-260.7,566.8-260.7,567.2z"/>
	<path style="fill:#FFFFFF;" d="M-260.2,574.2c0-1.1,0.5-2.1,1.5-3.1c1-1,2.3-1.5,3.9-1.5c0.4,0.3,0.8,0.9,1.2,1.7
		c0-0.7,0-1.2,0.3-1.5c0.9-0.2,1.7-0.2,2.1-0.1c0.5,0.1,0.8,0.4,1,0.9l-1.3,2.4c0,1.3,0.1,2.7,0.3,4.1c-0.3,0.4-0.8,0.5-1.6,0.4
		c-0.8-0.1-1.4-0.3-2-0.8l0.6-1.2l-0.2-0.3c-0.9,0.8-1.6,1.5-2.1,2.1c-1.2-0.1-2.2-0.4-2.7-0.9C-259.9,575.8-260.2,575-260.2,574.2z
		 M-256.4,572.6c-0.3,0.5-0.5,1-0.5,1.6c0,0.5,0.2,0.9,0.5,1.1c0.6-0.4,1.4-1,2.4-1.8l0.1-0.8c-0.3-0.6-0.7-1.1-1.1-1.3
		C-255.6,571.6-256,572.1-256.4,572.6z"/>
	<path style="fill:#FFFFFF;" d="M-238,568.2l-0.3,0.1c-0.6,0.6-1.1,1.3-1.4,2.1c-0.3,0.7-0.5,1.5-0.5,2.2c0,0.7,0.1,1.3,0.4,1.7
		c0.3,0.4,0.6,0.8,1.2,1.1c1.1-0.4,2-0.9,2.8-1.4c0.4,0,0.6,0.1,0.8,0.3c0.2,0.2,0.2,0.5,0.2,0.9c-1,1-2.3,1.8-4.1,2.3
		c-1.4-0.2-2.5-0.7-3.3-1.5c-0.8-0.8-1.2-1.9-1.1-3.1c0-0.6,0.1-1.3,0.3-1.9c0.2-0.6,0.5-1.3,1-2c0.8-0.7,1.5-1.2,2.3-1.6
		c0.8-0.3,1.7-0.6,2.7-0.7c0.8,0.3,1.5,0.7,1.9,1.3c0.4,0.5,0.7,1.2,0.8,1.9c-0.1,0.4-0.5,0.7-1.2,0.9c-0.6,0.2-1.3,0.1-1.9-0.2
		C-237.5,569.4-237.7,568.6-238,568.2z"/>
	<path style="fill:#FFFFFF;" d="M-232.8,572.9l-0.1-2.8c1.4-0.6,2.4-0.7,3.2-0.2l-0.7,2.5c-0.1,0.7-0.1,2.2-0.2,4.5
		c-0.4,0.4-1.1,0.5-1.8,0.4c-0.8-0.1-1.3-0.3-1.7-0.7C-233.4,575.1-233,573.9-232.8,572.9z M-229.4,567.2c0,0.4-0.1,0.8-0.4,1.1
		c-0.3,0.3-0.7,0.5-1.1,0.5s-0.8-0.2-1.1-0.5c-0.3-0.3-0.5-0.7-0.5-1.1s0.2-0.8,0.5-1.1c0.3-0.3,0.7-0.5,1.1-0.5s0.8,0.2,1.1,0.5
		C-229.6,566.4-229.4,566.8-229.4,567.2z"/>
	<path style="fill:#FFFFFF;" d="M-228.1,573.1l-0.3-3.3c0.6-0.2,1.2-0.3,1.9-0.2c0.7,0.1,1.2,0.4,1.5,0.8c0,0.5-0.1,1.1-0.4,1.9
		s-0.5,1.5-0.9,2.1c0.1,0.3,0.4,0.5,1,0.7c0.8-0.8,1.3-1.4,1.6-1.8c0.3-1.7,0.6-2.9,0.8-3.7c0.9-0.2,1.7-0.2,2.2-0.1s0.8,0.4,1,0.8
		l-1.2,2.4c0,1.2,0.2,2.6,0.4,4.1c-0.3,0.4-0.8,0.5-1.6,0.4c-0.8-0.1-1.5-0.3-2-0.8l0.6-1.3l-0.2-0.1c-0.2,0.2-0.8,1-1.9,2.2
		c-2.1-0.2-3.3-1-3.6-2.3L-228.1,573.1z"/>
	<path style="fill:#FFFFFF;" d="M-211.7,569.9l-0.2-3.8c1.4-0.6,2.5-0.7,3.3-0.3l-1,3.5c-0.1,0.6-0.3,3.2-0.8,7.8
		c-0.4,0.3-0.9,0.5-1.8,0.4c-0.8-0.1-1.4-0.3-1.8-0.8l0.9-1.1l-0.2-0.2c-0.8,0.7-1.5,1.4-2,2c-1.2,0-2.1-0.3-2.7-0.9
		s-0.9-1.3-0.9-2.2c0-0.5,0.2-1.1,0.4-1.6c0.3-0.5,0.6-1,1.1-1.5c0.5-0.4,1-0.8,1.8-1.1c0.7-0.3,1.5-0.4,2.3-0.4
		c0.5,0.4,0.9,1.1,1.3,1.9C-211.9,570.9-211.7,570.4-211.7,569.9z M-212.6,573.4l0.2-0.8c-0.4-0.6-0.8-1.1-1.2-1.3
		c-0.6,0.3-1,0.7-1.4,1.2c-0.3,0.5-0.5,1-0.5,1.5c0,0.5,0.1,0.9,0.5,1.1C-214.4,574.8-213.6,574.2-212.6,573.4z"/>
	<path style="fill:#FFFFFF;" d="M-208.7,574.2c0-1.1,0.5-2.1,1.5-3.1c1-1,2.3-1.5,3.9-1.5c0.4,0.3,0.8,0.9,1.2,1.7
		c0-0.7,0-1.2,0.3-1.5c0.9-0.2,1.7-0.2,2.1-0.1c0.5,0.1,0.8,0.4,1,0.9l-1.3,2.4c0,1.3,0.1,2.7,0.3,4.1c-0.3,0.4-0.8,0.5-1.6,0.4
		c-0.8-0.1-1.4-0.3-2-0.8l0.6-1.2l-0.2-0.3c-0.9,0.8-1.6,1.5-2.1,2.1c-1.2-0.1-2.2-0.4-2.7-0.9C-208.4,575.8-208.7,575-208.7,574.2z
		 M-204.8,572.6c-0.3,0.5-0.5,1-0.5,1.6c0,0.5,0.2,0.9,0.5,1.1c0.6-0.4,1.4-1,2.4-1.8l0.1-0.8c-0.3-0.6-0.7-1.1-1.1-1.3
		C-204,571.6-204.5,572.1-204.8,572.6z"/>
	<path style="fill:#FFFFFF;" d="M-190.9,569.9l-0.2-3.8c1.4-0.6,2.5-0.7,3.3-0.3l-1,3.5c-0.1,0.6-0.3,3.2-0.8,7.8
		c-0.4,0.3-0.9,0.5-1.8,0.4c-0.8-0.1-1.4-0.3-1.8-0.8l0.9-1.1l-0.2-0.2c-0.8,0.7-1.5,1.4-2,2c-1.2,0-2.1-0.3-2.7-0.9
		s-0.9-1.3-0.9-2.2c0-0.5,0.2-1.1,0.4-1.6c0.3-0.5,0.6-1,1.1-1.5c0.5-0.4,1-0.8,1.8-1.1c0.7-0.3,1.5-0.4,2.3-0.4
		c0.5,0.4,0.9,1.1,1.3,1.9C-191.1,570.9-191,570.4-190.9,569.9z M-191.8,573.4l0.2-0.8c-0.4-0.6-0.8-1.1-1.2-1.3
		c-0.6,0.3-1,0.7-1.4,1.2c-0.3,0.5-0.5,1-0.5,1.5c0,0.5,0.1,0.9,0.5,1.1C-193.6,574.8-192.8,574.2-191.8,573.4z"/>
	<path style="fill:#FFFFFF;" d="M-187.9,574.2c0-1.1,0.5-2.1,1.5-3.1c1-1,2.3-1.5,3.9-1.5c0.4,0.3,0.8,0.9,1.2,1.7
		c0-0.7,0-1.2,0.3-1.5c0.9-0.2,1.7-0.2,2.1-0.1c0.5,0.1,0.8,0.4,1,0.9l-1.3,2.4c0,1.3,0.1,2.7,0.3,4.1c-0.3,0.4-0.8,0.5-1.6,0.4
		c-0.8-0.1-1.4-0.3-2-0.8l0.6-1.2l-0.2-0.3c-0.9,0.8-1.6,1.5-2.1,2.1c-1.2-0.1-2.2-0.4-2.7-0.9C-187.6,575.8-187.9,575-187.9,574.2z
		 M-184,572.6c-0.3,0.5-0.5,1-0.5,1.6c0,0.5,0.2,0.9,0.5,1.1c0.6-0.4,1.4-1,2.4-1.8l0.1-0.8c-0.3-0.6-0.7-1.1-1.1-1.3
		C-183.2,571.6-183.7,572.1-184,572.6z"/>
	<path style="fill:#FFFFFF;" d="M-168.2,571.7l-0.7,2.2c0,1.1,0.1,2.2,0.4,3.2c-0.3,0.4-0.8,0.5-1.6,0.4c-0.8-0.1-1.4-0.3-2-0.8
		c0-0.6,0.1-1.4,0.3-2.2c0.2-0.8,0.3-1.5,0.5-2c-0.1-0.3-0.3-0.6-0.5-0.7c-0.5,0.3-1.2,0.8-1.9,1.5c0,1-0.1,2.2-0.2,3.8
		c-0.5,0.4-1.1,0.5-2,0.4s-1.4-0.4-1.6-0.7c0.5-1.3,1-2.7,1.4-4l-0.5-2.2c0.8-0.7,1.8-1,2.9-0.8c0.1,0.4,0.2,0.8,0.2,1.2l-0.5,0.6
		l0.2,0.3c0.8-0.8,1.6-1.5,2.6-2.2c0.8,0,1.5,0.3,2,0.7C-168.7,570.7-168.3,571.2-168.2,571.7z"/>
	<path style="fill:#FFFFFF;" d="M-167.1,574.2c0-1.1,0.5-2.1,1.5-3.1c1-1,2.3-1.5,3.9-1.5c0.4,0.3,0.8,0.9,1.2,1.7
		c0-0.7,0-1.2,0.3-1.5c0.9-0.2,1.7-0.2,2.1-0.1c0.5,0.1,0.8,0.4,1,0.9l-1.3,2.4c0,1.3,0.1,2.7,0.3,4.1c-0.3,0.4-0.8,0.5-1.6,0.4
		c-0.8-0.1-1.4-0.3-2-0.8l0.6-1.2l-0.2-0.3c-0.9,0.8-1.6,1.5-2.1,2.1c-1.2-0.1-2.2-0.4-2.7-0.9C-166.8,575.8-167.1,575-167.1,574.2z
		 M-163.2,572.6c-0.3,0.5-0.5,1-0.5,1.6c0,0.5,0.2,0.9,0.5,1.1c0.6-0.4,1.4-1,2.4-1.8l0.1-0.8c-0.3-0.6-0.7-1.1-1.1-1.3
		C-162.4,571.6-162.9,572.1-163.2,572.6z"/>
</g>
<g>
	<path style="fill:#4CAF50;" d="M5.4,133.2l-0.3,0.1c-0.6,0.6-1.1,1.3-1.4,2.1c-0.3,0.7-0.5,1.5-0.5,2.2c0,0.7,0.1,1.3,0.4,1.7
		c0.3,0.4,0.6,0.8,1.2,1.1c1.1-0.4,2-0.9,2.8-1.4c0.4,0,0.6,0.1,0.8,0.3c0.2,0.2,0.2,0.5,0.2,0.9c-1,1-2.3,1.8-4.1,2.3
		c-1.4-0.2-2.5-0.7-3.3-1.5c-0.8-0.8-1.2-1.9-1.1-3.1c0-0.6,0.1-1.3,0.3-1.9c0.2-0.6,0.5-1.3,1-2c0.8-0.7,1.5-1.2,2.3-1.6
		c0.8-0.3,1.7-0.6,2.7-0.7c0.8,0.3,1.5,0.7,1.9,1.3c0.4,0.5,0.7,1.2,0.8,1.9c-0.1,0.4-0.5,0.7-1.2,0.9c-0.6,0.2-1.3,0.1-1.9-0.2
		C5.9,134.4,5.7,133.6,5.4,133.2z"/>
	<path style="fill:#4CAF50;" d="M10.5,138.1l-0.3-3.3c0.6-0.2,1.2-0.3,1.9-0.2c0.7,0.1,1.2,0.4,1.5,0.8c0,0.5-0.1,1.1-0.4,1.9
		c-0.3,0.8-0.5,1.5-0.9,2.1c0.1,0.3,0.4,0.5,1,0.7c0.8-0.8,1.3-1.4,1.6-1.8c0.3-1.7,0.6-2.9,0.8-3.7c0.9-0.2,1.7-0.2,2.2-0.1
		c0.5,0.1,0.8,0.4,1,0.8l-1.2,2.4c0,1.2,0.2,2.6,0.4,4.1c-0.3,0.4-0.8,0.5-1.6,0.4c-0.8-0.1-1.5-0.3-2-0.8l0.6-1.3l-0.2-0.1
		c-0.2,0.2-0.8,1-1.9,2.2c-2.1-0.2-3.3-1-3.6-2.3L10.5,138.1z"/>
	<path style="fill:#4CAF50;" d="M21.3,134.9l-0.2-3.7c0.6-0.4,1.2-0.6,1.8-0.7c0.6-0.1,1.1,0,1.6,0.2l-1,3.4c-0.3,5-0.4,7.6-0.4,7.8
		c-0.3,0.3-0.7,0.4-1.2,0.4c-0.6,0-1.1,0-1.6-0.2c-0.5-0.1-0.8-0.3-0.9-0.6C20.3,139.8,20.9,137.6,21.3,134.9z"/>
	<path style="fill:#4CAF50;" d="M29.5,135.6L29.5,135.6c-0.1,0.8-0.2,1.8-0.3,3c-0.1,1.2-0.2,1.9-0.2,2.1c0.7-0.4,1.5-0.8,2.2-1.4
		c0.4,0,0.6,0.1,0.8,0.3c0.1,0.2,0.2,0.5,0.1,0.9c-1.2,1.1-2.4,1.7-3.6,2c-1.4-0.1-2.3-0.7-2.7-1.7c0.6-1.6,1.1-3.2,1.5-4.8
		l-1.8,0.3c-0.2-0.3-0.4-0.5-0.4-0.8c0-0.2,0.1-0.5,0.3-0.9l2,0.1l-0.2-2.6c0.7-0.4,1.4-0.6,2-0.7c0.6,0,1,0.1,1.3,0.5l-0.7,2.4
		l2.4-0.4c0.4,0.4,0.4,0.9,0,1.6L29.5,135.6z"/>
	<path style="fill:#4CAF50;" d="M33.9,138.1l-0.3-3.3c0.6-0.2,1.2-0.3,1.9-0.2c0.7,0.1,1.2,0.4,1.5,0.8c0,0.5-0.1,1.1-0.4,1.9
		c-0.3,0.8-0.5,1.5-0.9,2.1c0.1,0.3,0.4,0.5,1,0.7c0.8-0.8,1.3-1.4,1.6-1.8c0.3-1.7,0.6-2.9,0.8-3.7c0.9-0.2,1.7-0.2,2.2-0.1
		s0.8,0.4,1,0.8l-1.2,2.4c0,1.2,0.2,2.6,0.4,4.1c-0.3,0.4-0.8,0.5-1.6,0.4c-0.8-0.1-1.5-0.3-2-0.8l0.6-1.3l-0.2-0.1
		c-0.2,0.2-0.8,1-1.9,2.2c-2.1-0.2-3.3-1-3.6-2.3L33.9,138.1z"/>
	<path style="fill:#4CAF50;" d="M46.7,136.8l2.3-2.2c0.7,0.2,1.2,0.5,1.6,1s0.6,1.2,0.7,2c-0.4,0.4-0.8,0.6-1.3,0.6
		c-0.5,0.1-1,0-1.5-0.3c0-0.2-0.1-0.5-0.2-1c-0.1,0.1-0.6,0.5-1.3,1.1c0,1.1-0.1,2.4-0.2,4c-0.5,0.4-1.1,0.5-2,0.4
		c-0.9-0.1-1.4-0.4-1.6-0.7c0.5-1.3,1-2.7,1.4-4l-0.5-2.2c0.4-0.4,0.9-0.6,1.5-0.7c0.6-0.1,1-0.1,1.5-0.1c0.1,0.4,0.2,0.8,0.2,1.2
		l-0.5,0.6L46.7,136.8z"/>
	<path style="fill:#4CAF50;" d="M51.6,139.2c0-1.1,0.5-2.1,1.5-3.1c1-1,2.3-1.5,3.9-1.5c0.4,0.3,0.8,0.9,1.2,1.7
		c0-0.7,0-1.2,0.3-1.5c0.9-0.2,1.7-0.2,2.1-0.1c0.5,0.1,0.8,0.4,1,0.9l-1.3,2.4c0,1.3,0.1,2.7,0.3,4.1c-0.3,0.4-0.8,0.5-1.6,0.4
		c-0.8-0.1-1.4-0.3-2-0.8l0.6-1.2l-0.2-0.3c-0.9,0.8-1.6,1.5-2.1,2.1c-1.2-0.1-2.2-0.4-2.7-0.9C51.9,140.8,51.6,140,51.6,139.2z
		 M55.4,137.6c-0.3,0.5-0.5,1-0.5,1.6c0,0.5,0.2,0.9,0.5,1.1c0.6-0.4,1.4-1,2.4-1.8l0.1-0.8c-0.3-0.6-0.7-1.1-1.1-1.3
		C56.2,136.6,55.8,137.1,55.4,137.6z"/>
	<path style="fill:#4CAF50;" d="M75,133.6c-0.8,0-1.4,0-1.8,0.1l-0.4,1l-0.4,1.9c1.7-0.3,2.8-0.4,3.1-0.4c0.2,0.1,0.3,0.3,0.3,0.6
		c0.1,0.4,0,0.9-0.3,1.4c-1.2-0.1-2.3-0.2-3.3-0.2l-0.5,2.8c1.9-0.3,3.4-0.6,4.4-0.9c0.3,0.1,0.5,0.3,0.6,0.6c0.2,0.5,0,1.1-0.5,1.7
		l-5.5,0.3c-1.4-0.3-2.1-1-2.2-1.9c0-0.1,0.1-0.4,0.3-0.8c0.1-0.4,0.2-0.7,0.3-0.8c0-0.1,0.1-0.3,0.2-0.6c0.1-0.3,0.2-0.5,0.2-0.7
		s0.1-0.3,0.2-0.6c0.1-0.3,0.1-0.5,0.2-0.8c0.1-0.2,0.1-0.5,0.2-0.8l-0.1-1.9c-0.4-0.1-0.7-0.2-1-0.3c-0.1-0.2-0.1-0.4-0.1-0.7
		c0-0.2,0.1-0.4,0.2-0.5c1.7-0.1,3.1-0.2,4.2-0.2c1.1,0,2.5,0,4.2,0.1c0.5,1.2,0.1,2.2-1.2,2.8L75,133.6z M74.7,127.7
		c0.7-0.1,1.3-0.1,1.7,0.1c0.4,0.1,0.7,0.5,0.9,0.9l-2.9,2.5c-0.3,0-0.6-0.1-0.8-0.2c-0.2-0.1-0.4-0.3-0.3-0.5l1-1.3L74.7,127.7z"/>
	<path style="fill:#4CAF50;" d="M82.7,135.6L82.7,135.6c-0.1,0.8-0.2,1.8-0.3,3c-0.1,1.2-0.2,1.9-0.2,2.1c0.7-0.4,1.5-0.8,2.2-1.4
		c0.4,0,0.6,0.1,0.8,0.3c0.1,0.2,0.2,0.5,0.1,0.9c-1.2,1.1-2.4,1.7-3.6,2c-1.4-0.1-2.3-0.7-2.7-1.7c0.6-1.6,1.1-3.2,1.5-4.8
		l-1.8,0.3c-0.2-0.3-0.4-0.5-0.4-0.8c0-0.2,0.1-0.5,0.3-0.9l2,0.1l-0.2-2.6c0.7-0.4,1.4-0.6,2-0.7c0.6,0,1,0.1,1.3,0.5l-0.7,2.4
		l2.4-0.4c0.4,0.4,0.4,0.9,0,1.6L82.7,135.6z"/>
	<path style="fill:#4CAF50;" d="M87.3,137.9l-0.1-2.8c1.4-0.6,2.4-0.7,3.2-0.2l-0.7,2.5c-0.1,0.7-0.1,2.2-0.2,4.5
		c-0.4,0.4-1.1,0.5-1.8,0.4c-0.8-0.1-1.3-0.3-1.7-0.7C86.7,140.1,87.1,138.9,87.3,137.9z M90.6,132.2c0,0.4-0.1,0.8-0.4,1.1
		c-0.3,0.3-0.7,0.5-1.1,0.5c-0.4,0-0.8-0.2-1.1-0.5c-0.3-0.3-0.5-0.7-0.5-1.1s0.2-0.8,0.5-1.1c0.3-0.3,0.7-0.5,1.1-0.5
		c0.4,0,0.8,0.2,1.1,0.5C90.5,131.4,90.6,131.8,90.6,132.2z"/>
	<path style="fill:#4CAF50;" d="M91.1,139.3c0-0.6,0.1-1.2,0.3-1.6c0.2-0.5,0.6-0.9,1-1.4c1.1-1,2.4-1.6,3.8-1.9
		c0.9,0.2,1.5,0.4,1.9,0.8c0.2,0.2,0.3,0.4,0.4,0.7c0.1,0.2,0.2,0.5,0.3,0.9c-0.1,0.5-0.4,0.9-1,1.1c-0.5,0.2-1.2,0.3-2.1,0.2
		c0.1-0.6,0-1.3-0.4-2.1l-0.4,0.1c-0.5,0.8-0.8,1.7-0.8,2.6c0,0.8,0.2,1.4,0.7,2c1-0.3,1.9-0.7,2.7-1.3c0.3,0,0.6,0.1,0.7,0.3
		s0.2,0.5,0.1,1c-0.4,0.4-1,0.8-1.7,1.1s-1.5,0.5-2.3,0.6c-1.2-0.1-2.1-0.5-2.7-1.1C91.4,140.8,91.1,140.1,91.1,139.3z"/>
	<path style="fill:#4CAF50;" d="M99.7,139.2c0-1.1,0.5-2.1,1.5-3.1c1-1,2.3-1.5,3.9-1.5c0.4,0.3,0.8,0.9,1.2,1.7
		c0-0.7,0-1.2,0.3-1.5c0.9-0.2,1.7-0.2,2.1-0.1c0.5,0.1,0.8,0.4,1,0.9l-1.3,2.4c0,1.3,0.1,2.7,0.3,4.1c-0.3,0.4-0.8,0.5-1.6,0.4
		c-0.8-0.1-1.4-0.3-2-0.8l0.6-1.2l-0.2-0.3c-0.9,0.8-1.6,1.5-2.1,2.1c-1.2-0.1-2.2-0.4-2.7-0.9C100,140.8,99.7,140,99.7,139.2z
		 M103.6,137.6c-0.3,0.5-0.5,1-0.5,1.6c0,0.5,0.2,0.9,0.5,1.1c0.6-0.4,1.4-1,2.4-1.8l0.1-0.8c-0.3-0.6-0.7-1.1-1.1-1.3
		C104.4,136.6,103.9,137.1,103.6,137.6z"/>
	<path style="fill:#4CAF50;" d="M121.7,138.5L121.7,138.5c0.2-1.8,0.4-3,0.6-3.7c1-0.2,1.7-0.2,2.2-0.1c0.5,0.1,0.8,0.4,1,0.8
		L124,138c-0.5,3.5-0.7,5.8-0.7,7.2c-0.5,0.6-1.1,1.1-1.8,1.3c-0.8,0.3-1.7,0.4-2.9,0.4c-1.5-0.7-2.4-1.6-2.7-2.7
		c0.4-0.6,0.9-1,1.5-1.2c0.5-0.2,1.1-0.1,1.5,0.1c0.1,0.5,0.2,0.8,0.4,1.1c0.1,0.3,0.3,0.6,0.5,0.9c0.5,0,0.8-0.1,0.9-0.4
		c0.1-1.1,0.2-2,0.4-2.8l0.7-1.3l-0.2-0.2c-0.4,0.5-1,1.1-1.6,1.7c-0.9-0.1-1.7-0.4-2.3-0.7c-0.6-0.4-1-0.9-1.1-1.5l0.7-1.8
		c0-0.5-0.1-1-0.1-1.7s-0.1-1.2-0.1-1.5c0.3-0.1,0.7-0.2,1.2-0.2s0.9,0.1,1.3,0.2c0.4,0.2,0.8,0.4,1.1,0.7c-0.1,1.1-0.5,2.4-1.1,3.8
		c0.1,0.3,0.4,0.5,0.7,0.7C120.7,139.6,121.2,139.1,121.7,138.5z"/>
	<path style="fill:#4CAF50;" d="M137.3,133.2l-0.3,0.1c-0.6,0.6-1.1,1.3-1.4,2.1c-0.3,0.7-0.5,1.5-0.5,2.2c0,0.7,0.1,1.3,0.4,1.7
		c0.3,0.4,0.6,0.8,1.2,1.1c1.1-0.4,2-0.9,2.8-1.4c0.4,0,0.6,0.1,0.8,0.3c0.2,0.2,0.2,0.5,0.2,0.9c-1,1-2.3,1.8-4.1,2.3
		c-1.4-0.2-2.5-0.7-3.3-1.5c-0.8-0.8-1.2-1.9-1.1-3.1c0-0.6,0.1-1.3,0.3-1.9c0.2-0.6,0.5-1.3,1-2c0.8-0.7,1.5-1.2,2.3-1.6
		c0.8-0.3,1.7-0.6,2.7-0.7c0.8,0.3,1.5,0.7,1.9,1.3c0.4,0.5,0.7,1.2,0.8,1.9c-0.1,0.4-0.5,0.7-1.2,0.9c-0.6,0.2-1.3,0.1-1.9-0.2
		C137.8,134.4,137.6,133.6,137.3,133.2z"/>
	<path style="fill:#4CAF50;" d="M141.4,139c0-0.4,0.1-0.9,0.4-1.4c0.2-0.5,0.6-1,1-1.5c0.4-0.5,0.9-0.9,1.6-1.2
		c0.7-0.3,1.4-0.5,2.1-0.5s1.5,0.4,2.2,1.2c0.7,0.8,1.1,1.6,1.1,2.4c0,0.7-0.2,1.4-0.7,2c-0.5,0.7-1.1,1.2-1.9,1.7
		c-0.8,0.4-1.6,0.7-2.4,0.7c-0.8,0-1.6-0.4-2.3-1.1C141.8,140.6,141.4,139.8,141.4,139z M146.1,135.8c-0.5,0.5-0.9,1-1.2,1.6
		c-0.3,0.6-0.5,1.2-0.5,1.8c0,0.3,0.1,0.6,0.2,1c0.1,0.3,0.3,0.6,0.5,0.9c0.9-0.7,1.5-1.5,1.8-2.4c0-0.6-0.1-1.2-0.2-1.6
		C146.6,136.6,146.4,136.2,146.1,135.8z"/>
	<path style="fill:#4CAF50;" d="M159.5,136.7l-0.7,2.2c0,1.1,0.1,2.2,0.4,3.2c-0.3,0.4-0.8,0.5-1.6,0.4c-0.8-0.1-1.4-0.3-2-0.8
		c0-0.6,0.1-1.4,0.3-2.2c0.2-0.8,0.3-1.5,0.5-2c-0.1-0.3-0.3-0.6-0.5-0.7c-0.5,0.3-1.2,0.8-1.9,1.5c0,1-0.1,2.2-0.2,3.8
		c-0.5,0.4-1.1,0.5-2,0.4c-0.9-0.1-1.4-0.4-1.6-0.7c0.5-1.3,1-2.7,1.4-4l-0.5-2.2c0.8-0.7,1.8-1,2.9-0.8c0.1,0.4,0.2,0.8,0.2,1.2
		l-0.5,0.6l0.2,0.3c0.8-0.8,1.6-1.5,2.6-2.2c0.8,0,1.5,0.3,2,0.7C159,135.7,159.3,136.2,159.5,136.7z"/>
	<path style="fill:#4CAF50;" d="M166.1,135.2c0.5-0.5,1-0.7,1.7-0.8c0.6-0.1,1.1,0.1,1.5,0.4c-0.2,2.8-1.3,5.3-3.4,7.6
		c-0.8,0.2-1.5,0.1-2.3-0.1c-0.7-0.2-1.3-0.6-1.7-1.2c0.3-1.5,0.3-2.6,0-3.3l-1.2-1.5c0.6-1.2,1.6-1.7,3.1-1.7
		c0.8,1.3,1.1,3.2,1,5.9l0.2,0.1c1-1.2,1.6-2.4,1.9-3.6L166.1,135.2z"/>
	<path style="fill:#4CAF50;" d="M170.6,137.9l-0.1-2.8c1.4-0.6,2.4-0.7,3.2-0.2l-0.7,2.5c-0.1,0.7-0.1,2.2-0.2,4.5
		c-0.4,0.4-1.1,0.5-1.8,0.4c-0.8-0.1-1.3-0.3-1.7-0.7C169.9,140.1,170.4,138.9,170.6,137.9z M173.9,132.2c0,0.4-0.1,0.8-0.4,1.1
		c-0.3,0.3-0.7,0.5-1.1,0.5c-0.4,0-0.8-0.2-1.1-0.5c-0.3-0.3-0.5-0.7-0.5-1.1s0.2-0.8,0.5-1.1c0.3-0.3,0.7-0.5,1.1-0.5
		c0.4,0,0.8,0.2,1.1,0.5C173.8,131.4,173.9,131.8,173.9,132.2z"/>
	<path style="fill:#4CAF50;" d="M179.9,135.2c0.5-0.5,1-0.7,1.7-0.8c0.6-0.1,1.1,0.1,1.5,0.4c-0.2,2.8-1.3,5.3-3.4,7.6
		c-0.8,0.2-1.5,0.1-2.3-0.1c-0.7-0.2-1.3-0.6-1.7-1.2c0.3-1.5,0.3-2.6,0-3.3l-1.2-1.5c0.6-1.2,1.6-1.7,3.1-1.7
		c0.8,1.3,1.1,3.2,1,5.9l0.2,0.1c1-1.2,1.6-2.4,1.9-3.6L179.9,135.2z"/>
	<path style="fill:#4CAF50;" d="M190,139.7c0.3,0,0.6,0.1,0.8,0.3c0.2,0.2,0.2,0.5,0.1,1c-0.4,0.4-1,0.8-1.9,1.1
		c-0.8,0.3-1.7,0.5-2.4,0.5c-1.1-0.2-2-0.6-2.5-1.1c-0.6-0.6-0.8-1.3-0.8-2.1c0.1-1.1,0.5-2,1.3-2.9c1.5-1,3-1.7,4.4-1.8
		c0.7,0.1,1.2,0.3,1.6,0.6c0.7,0.6,0.8,1.6,0.3,3c-0.5,0.3-1.2,0.6-2.1,0.9c-0.9,0.3-1.6,0.5-2.3,0.7c0.1,0.4,0.2,0.7,0.5,1.1
		C188.1,140.6,189.1,140.3,190,139.7z M187.8,136.1l-0.3,0.1c-0.7,0.7-1,1.5-1.1,2.4c0.7-0.2,1.3-0.5,1.8-0.8
		C188.5,137.1,188.3,136.5,187.8,136.1z"/>
	<path style="fill:#4CAF50;" d="M201.2,136.7l-0.7,2.2c0,1.1,0.1,2.2,0.4,3.2c-0.3,0.4-0.8,0.5-1.6,0.4c-0.8-0.1-1.4-0.3-2-0.8
		c0-0.6,0.1-1.4,0.3-2.2s0.3-1.5,0.5-2c-0.1-0.3-0.3-0.6-0.5-0.7c-0.5,0.3-1.2,0.8-1.9,1.5c0,1-0.1,2.2-0.2,3.8
		c-0.5,0.4-1.1,0.5-2,0.4s-1.4-0.4-1.6-0.7c0.5-1.3,1-2.7,1.4-4l-0.5-2.2c0.8-0.7,1.8-1,2.9-0.8c0.1,0.4,0.2,0.8,0.2,1.2l-0.5,0.6
		l0.2,0.3c0.8-0.8,1.6-1.5,2.6-2.2c0.8,0,1.5,0.3,2,0.7C200.6,135.7,201,136.2,201.2,136.7z"/>
	<path style="fill:#4CAF50;" d="M202.3,139.3c0-0.6,0.1-1.2,0.3-1.6c0.2-0.5,0.6-0.9,1-1.4c1.1-1,2.4-1.6,3.8-1.9
		c0.9,0.2,1.5,0.4,1.9,0.8c0.2,0.2,0.3,0.4,0.4,0.7c0.1,0.2,0.2,0.5,0.3,0.9c-0.1,0.5-0.4,0.9-1,1.1c-0.5,0.2-1.2,0.3-2.1,0.2
		c0.1-0.6,0-1.3-0.4-2.1l-0.4,0.1c-0.5,0.8-0.8,1.7-0.8,2.6c0,0.8,0.2,1.4,0.7,2c1-0.3,1.9-0.7,2.7-1.3c0.3,0,0.6,0.1,0.7,0.3
		c0.2,0.2,0.2,0.5,0.1,1c-0.4,0.4-1,0.8-1.7,1.1c-0.7,0.3-1.5,0.5-2.3,0.6c-1.2-0.1-2.1-0.5-2.7-1.1
		C202.6,140.8,202.3,140.1,202.3,139.3z"/>
	<path style="fill:#4CAF50;" d="M212,137.9l-0.1-2.8c1.4-0.6,2.4-0.7,3.2-0.2l-0.7,2.5c-0.1,0.7-0.1,2.2-0.2,4.5
		c-0.4,0.4-1.1,0.5-1.8,0.4c-0.8-0.1-1.3-0.3-1.7-0.7C211.3,140.1,211.8,138.9,212,137.9z M215.3,132.2c0,0.4-0.1,0.8-0.4,1.1
		c-0.3,0.3-0.7,0.5-1.1,0.5c-0.4,0-0.8-0.2-1.1-0.5c-0.3-0.3-0.5-0.7-0.5-1.1s0.2-0.8,0.5-1.1c0.3-0.3,0.7-0.5,1.1-0.5
		c0.4,0,0.8,0.2,1.1,0.5C215.1,131.4,215.3,131.8,215.3,132.2z"/>
	<path style="fill:#4CAF50;" d="M215.8,139.2c0-1.1,0.5-2.1,1.5-3.1c1-1,2.3-1.5,3.9-1.5c0.4,0.3,0.8,0.9,1.2,1.7
		c0-0.7,0-1.2,0.3-1.5c0.9-0.2,1.7-0.2,2.1-0.1c0.5,0.1,0.8,0.4,1,0.9l-1.3,2.4c0,1.3,0.1,2.7,0.3,4.1c-0.3,0.4-0.8,0.5-1.6,0.4
		c-0.8-0.1-1.4-0.3-2-0.8l0.6-1.2l-0.2-0.3c-0.9,0.8-1.6,1.5-2.1,2.1c-1.2-0.1-2.2-0.4-2.7-0.9C216.1,140.8,215.8,140,215.8,139.2z
		 M219.6,137.6c-0.3,0.5-0.5,1-0.5,1.6c0,0.5,0.2,0.9,0.5,1.1c0.6-0.4,1.4-1,2.4-1.8l0.1-0.8c-0.3-0.6-0.7-1.1-1.1-1.3
		C220.4,136.6,220,137.1,219.6,137.6z"/>
	<path style="fill:#4CAF50;" d="M238,133.2l-0.3,0.1c-0.6,0.6-1.1,1.3-1.4,2.1c-0.3,0.7-0.5,1.5-0.5,2.2c0,0.7,0.1,1.3,0.4,1.7
		c0.3,0.4,0.6,0.8,1.2,1.1c1.1-0.4,2-0.9,2.8-1.4c0.4,0,0.6,0.1,0.8,0.3c0.2,0.2,0.2,0.5,0.2,0.9c-1,1-2.3,1.8-4.1,2.3
		c-1.4-0.2-2.5-0.7-3.3-1.5c-0.8-0.8-1.2-1.9-1.1-3.1c0-0.6,0.1-1.3,0.3-1.9c0.2-0.6,0.5-1.3,1-2c0.8-0.7,1.5-1.2,2.3-1.6
		c0.8-0.3,1.7-0.6,2.7-0.7c0.8,0.3,1.5,0.7,1.9,1.3c0.4,0.5,0.7,1.2,0.8,1.9c-0.1,0.4-0.5,0.7-1.2,0.9c-0.6,0.2-1.3,0.1-1.9-0.2
		C238.5,134.4,238.3,133.6,238,133.2z"/>
	<path style="fill:#4CAF50;" d="M243.2,137.9l-0.1-2.8c1.4-0.6,2.4-0.7,3.2-0.2l-0.7,2.5c-0.1,0.7-0.1,2.2-0.2,4.5
		c-0.4,0.4-1.1,0.5-1.8,0.4c-0.8-0.1-1.3-0.3-1.7-0.7C242.6,140.1,243,138.9,243.2,137.9z M246.6,132.2c0,0.4-0.1,0.8-0.4,1.1
		c-0.3,0.3-0.7,0.5-1.1,0.5s-0.8-0.2-1.1-0.5c-0.3-0.3-0.5-0.7-0.5-1.1s0.2-0.8,0.5-1.1c0.3-0.3,0.7-0.5,1.1-0.5s0.8,0.2,1.1,0.5
		C246.4,131.4,246.6,131.8,246.6,132.2z"/>
	<path style="fill:#4CAF50;" d="M247.9,138.1l-0.3-3.3c0.6-0.2,1.2-0.3,1.9-0.2c0.7,0.1,1.2,0.4,1.5,0.8c0,0.5-0.1,1.1-0.4,1.9
		s-0.5,1.5-0.9,2.1c0.1,0.3,0.4,0.5,1,0.7c0.8-0.8,1.3-1.4,1.6-1.8c0.3-1.7,0.6-2.9,0.8-3.7c0.9-0.2,1.7-0.2,2.2-0.1s0.8,0.4,1,0.8
		l-1.2,2.4c0,1.2,0.2,2.6,0.4,4.1c-0.3,0.4-0.8,0.5-1.6,0.4c-0.8-0.1-1.5-0.3-2-0.8l0.6-1.3l-0.2-0.1c-0.2,0.2-0.8,1-1.9,2.2
		c-2.1-0.2-3.3-1-3.6-2.3L247.9,138.1z"/>
	<path style="fill:#4CAF50;" d="M264.3,134.9l-0.2-3.8c1.4-0.6,2.5-0.7,3.3-0.3l-1,3.5c-0.1,0.6-0.3,3.2-0.8,7.8
		c-0.4,0.3-0.9,0.5-1.8,0.4c-0.8-0.1-1.4-0.3-1.8-0.8l0.9-1.1l-0.2-0.2c-0.8,0.7-1.5,1.4-2,2c-1.2,0-2.1-0.3-2.7-0.9
		c-0.6-0.6-0.9-1.3-0.9-2.2c0-0.5,0.2-1.1,0.4-1.6c0.3-0.5,0.6-1,1.1-1.5s1-0.8,1.8-1.1c0.7-0.3,1.5-0.4,2.3-0.4
		c0.5,0.4,0.9,1.1,1.3,1.9C264.1,135.9,264.3,135.4,264.3,134.9z M263.4,138.4l0.2-0.8c-0.4-0.6-0.8-1.1-1.2-1.3
		c-0.6,0.3-1,0.7-1.4,1.2c-0.3,0.5-0.5,1-0.5,1.5c0,0.5,0.1,0.9,0.5,1.1C261.6,139.8,262.4,139.2,263.4,138.4z"/>
	<path style="fill:#4CAF50;" d="M267.3,139.2c0-1.1,0.5-2.1,1.5-3.1c1-1,2.3-1.5,3.9-1.5c0.4,0.3,0.8,0.9,1.2,1.7
		c0-0.7,0-1.2,0.3-1.5c0.9-0.2,1.7-0.2,2.1-0.1c0.5,0.1,0.8,0.4,1,0.9l-1.3,2.4c0,1.3,0.1,2.7,0.3,4.1c-0.3,0.4-0.8,0.5-1.6,0.4
		c-0.8-0.1-1.4-0.3-2-0.8l0.6-1.2l-0.2-0.3c-0.9,0.8-1.6,1.5-2.1,2.1c-1.2-0.1-2.2-0.4-2.7-0.9C267.6,140.8,267.3,140,267.3,139.2z
		 M271.2,137.6c-0.3,0.5-0.5,1-0.5,1.6c0,0.5,0.2,0.9,0.5,1.1c0.6-0.4,1.4-1,2.4-1.8l0.1-0.8c-0.3-0.6-0.7-1.1-1.1-1.3
		C272,136.6,271.5,137.1,271.2,137.6z"/>
	<path style="fill:#4CAF50;" d="M285.1,134.9l-0.2-3.8c1.4-0.6,2.5-0.7,3.3-0.3l-1,3.5c-0.1,0.6-0.3,3.2-0.8,7.8
		c-0.4,0.3-0.9,0.5-1.8,0.4c-0.8-0.1-1.4-0.3-1.8-0.8l0.9-1.1l-0.2-0.2c-0.8,0.7-1.5,1.4-2,2c-1.2,0-2.1-0.3-2.7-0.9
		c-0.6-0.6-0.9-1.3-0.9-2.2c0-0.5,0.2-1.1,0.4-1.6c0.3-0.5,0.6-1,1.1-1.5c0.5-0.4,1-0.8,1.8-1.1c0.7-0.3,1.5-0.4,2.3-0.4
		c0.5,0.4,0.9,1.1,1.3,1.9C284.9,135.9,285,135.4,285.1,134.9z M284.2,138.4l0.2-0.8c-0.4-0.6-0.8-1.1-1.2-1.3
		c-0.6,0.3-1,0.7-1.4,1.2c-0.3,0.5-0.5,1-0.5,1.5c0,0.5,0.1,0.9,0.5,1.1C282.4,139.8,283.2,139.2,284.2,138.4z"/>
	<path style="fill:#4CAF50;" d="M288.1,139.2c0-1.1,0.5-2.1,1.5-3.1c1-1,2.3-1.5,3.9-1.5c0.4,0.3,0.8,0.9,1.2,1.7
		c0-0.7,0-1.2,0.3-1.5c0.9-0.2,1.7-0.2,2.1-0.1c0.5,0.1,0.8,0.4,1,0.9l-1.3,2.4c0,1.3,0.1,2.7,0.3,4.1c-0.3,0.4-0.8,0.5-1.6,0.4
		c-0.8-0.1-1.4-0.3-2-0.8l0.6-1.2l-0.2-0.3c-0.9,0.8-1.6,1.5-2.1,2.1c-1.2-0.1-2.2-0.4-2.7-0.9C288.4,140.8,288.1,140,288.1,139.2z
		 M292,137.6c-0.3,0.5-0.5,1-0.5,1.6c0,0.5,0.2,0.9,0.5,1.1c0.6-0.4,1.4-1,2.4-1.8l0.1-0.8c-0.3-0.6-0.7-1.1-1.1-1.3
		C292.8,136.6,292.3,137.1,292,137.6z"/>
	<path style="fill:#4CAF50;" d="M307.8,136.7l-0.7,2.2c0,1.1,0.1,2.2,0.4,3.2c-0.3,0.4-0.8,0.5-1.6,0.4c-0.8-0.1-1.4-0.3-2-0.8
		c0-0.6,0.1-1.4,0.3-2.2c0.2-0.8,0.3-1.5,0.5-2c-0.1-0.3-0.3-0.6-0.5-0.7c-0.5,0.3-1.2,0.8-1.9,1.5c0,1-0.1,2.2-0.2,3.8
		c-0.5,0.4-1.1,0.5-2,0.4c-0.9-0.1-1.4-0.4-1.6-0.7c0.5-1.3,1-2.7,1.4-4l-0.5-2.2c0.8-0.7,1.8-1,2.9-0.8c0.1,0.4,0.2,0.8,0.2,1.2
		l-0.5,0.6l0.2,0.3c0.8-0.8,1.6-1.5,2.6-2.2c0.8,0,1.5,0.3,2,0.7C307.3,135.7,307.7,136.2,307.8,136.7z"/>
	<path style="fill:#4CAF50;" d="M308.9,139.2c0-1.1,0.5-2.1,1.5-3.1c1-1,2.3-1.5,3.9-1.5c0.4,0.3,0.8,0.9,1.2,1.7
		c0-0.7,0-1.2,0.3-1.5c0.9-0.2,1.7-0.2,2.1-0.1c0.5,0.1,0.8,0.4,1,0.9l-1.3,2.4c0,1.3,0.1,2.7,0.3,4.1c-0.3,0.4-0.8,0.5-1.6,0.4
		c-0.8-0.1-1.4-0.3-2-0.8l0.6-1.2l-0.2-0.3c-0.9,0.8-1.6,1.5-2.1,2.1c-1.2-0.1-2.2-0.4-2.7-0.9C309.2,140.8,308.9,140,308.9,139.2z
		 M312.8,137.6c-0.3,0.5-0.5,1-0.5,1.6c0,0.5,0.2,0.9,0.5,1.1c0.6-0.4,1.4-1,2.4-1.8l0.1-0.8c-0.3-0.6-0.7-1.1-1.1-1.3
		C313.6,136.6,313.1,137.1,312.8,137.6z"/>
</g>
<path style="fill:#4CAF50;" d="M-742-218.6l-0.4,0.1c-0.8,0.9-1.4,1.8-1.8,2.8c-0.4,1-0.6,2-0.6,2.9c0,0.9,0.1,1.7,0.5,2.3
	c0.3,0.6,0.8,1.1,1.5,1.5c1.4-0.5,2.6-1.2,3.5-1.9c0.5,0,0.8,0.1,1,0.4c0.2,0.3,0.3,0.7,0.3,1.2c-1.2,1.4-3,2.4-5.3,3.1
	c-1.8-0.3-3.2-1-4.2-2.1c-1-1.1-1.5-2.5-1.5-4.1c0-0.9,0.2-1.7,0.4-2.5c0.3-0.8,0.7-1.7,1.3-2.7c1-0.9,2-1.6,3-2.1
	c1-0.5,2.1-0.8,3.4-0.9c1.1,0.4,1.9,1,2.4,1.7c0.5,0.7,0.9,1.6,1,2.6c-0.2,0.6-0.7,1-1.5,1.2c-0.8,0.3-1.6,0.2-2.5-0.2
	C-741.3-217-741.6-218.1-742-218.6z"/>
<path style="fill:#4CAF50;" d="M-735.5-212l-0.4-4.4c0.7-0.3,1.5-0.4,2.5-0.2c0.9,0.2,1.6,0.5,1.9,1.1c0,0.6-0.2,1.5-0.5,2.6
	c-0.3,1.1-0.7,2.1-1.1,2.9c0.1,0.4,0.5,0.7,1.2,1c1-1.1,1.7-1.9,2-2.4c0.3-2.2,0.7-3.9,1.1-5c1.2-0.2,2.1-0.3,2.8-0.1
	c0.6,0.1,1.1,0.5,1.3,1.1l-1.6,3.3c0,1.7,0.2,3.5,0.5,5.6c-0.3,0.5-1,0.7-2.1,0.6c-1-0.1-1.9-0.5-2.6-1.1l0.7-1.7l-0.2-0.2
	c-0.2,0.3-1,1.3-2.4,3c-2.7-0.3-4.3-1.3-4.6-3L-735.5-212z"/>
<path style="fill:#4CAF50;" d="M-721.7-216.3l-0.2-4.9c0.8-0.5,1.5-0.8,2.3-0.9s1.5,0,2.1,0.2l-1.2,4.6c-0.4,6.8-0.5,10.3-0.6,10.5
	c-0.3,0.3-0.9,0.5-1.6,0.6c-0.7,0.1-1.4,0-2-0.2c-0.6-0.2-1-0.5-1.1-0.8C-723-209.7-722.2-212.7-721.7-216.3z"/>
<path style="fill:#4CAF50;" d="M-711.2-215.4L-711.2-215.4c-0.1,1-0.2,2.4-0.4,4c-0.2,1.6-0.2,2.6-0.3,2.9c0.9-0.5,1.9-1.1,2.8-1.9
	c0.5,0,0.8,0.2,1,0.4c0.2,0.2,0.2,0.6,0.2,1.3c-1.6,1.4-3.1,2.3-4.6,2.7c-1.8-0.2-3-0.9-3.5-2.3c0.8-2.1,1.4-4.3,1.9-6.4l-2.3,0.4
	c-0.3-0.4-0.5-0.7-0.5-1c0-0.3,0.1-0.7,0.4-1.2l2.5,0.1l-0.3-3.5c1-0.6,1.8-0.8,2.6-0.9c0.8,0,1.3,0.2,1.7,0.6l-0.9,3.2l3-0.6
	c0.5,0.5,0.5,1.2,0,2.2L-711.2-215.4z"/>
<path style="fill:#4CAF50;" d="M-705.6-212l-0.4-4.4c0.7-0.3,1.5-0.4,2.5-0.2c0.9,0.2,1.6,0.5,1.9,1.1c0,0.6-0.2,1.5-0.5,2.6
	c-0.3,1.1-0.7,2.1-1.1,2.9c0.1,0.4,0.5,0.7,1.2,1c1-1.1,1.7-1.9,2-2.4c0.3-2.2,0.7-3.9,1.1-5c1.2-0.2,2.1-0.3,2.8-0.1
	c0.6,0.1,1.1,0.5,1.3,1.1l-1.6,3.3c0,1.7,0.2,3.5,0.5,5.6c-0.3,0.5-1,0.7-2.1,0.6c-1-0.1-1.9-0.5-2.6-1.1l0.7-1.7l-0.2-0.2
	c-0.2,0.3-1,1.3-2.4,3c-2.7-0.3-4.3-1.3-4.6-3L-705.6-212z"/>
<path style="fill:#4CAF50;" d="M-689.3-213.8l2.9-2.9c0.9,0.2,1.5,0.7,2.1,1.3c0.5,0.7,0.8,1.6,0.9,2.7c-0.5,0.5-1,0.8-1.7,0.9
	c-0.7,0.1-1.3-0.1-1.9-0.4c0-0.2-0.1-0.7-0.3-1.4c-0.2,0.1-0.7,0.6-1.7,1.5c0,1.5-0.1,3.3-0.3,5.4c-0.6,0.5-1.5,0.6-2.5,0.5
	c-1.1-0.1-1.8-0.5-2-1c0.7-1.8,1.3-3.6,1.7-5.3l-0.7-3c0.5-0.5,1.2-0.8,1.9-1c0.7-0.2,1.3-0.2,1.9-0.1c0.2,0.5,0.3,1.1,0.3,1.6
	l-0.6,0.8L-689.3-213.8z"/>
<path style="fill:#4CAF50;" d="M-683.1-210.6c0-1.5,0.6-2.8,1.9-4.1c1.3-1.3,3-2,5-2c0.5,0.5,1.1,1.2,1.6,2.3
	c-0.1-0.9,0.1-1.6,0.3-2.1c1.2-0.3,2.1-0.3,2.7-0.2c0.6,0.1,1,0.5,1.2,1.2l-1.7,3.3c0,1.7,0.1,3.6,0.3,5.6c-0.4,0.5-1,0.7-2,0.6
	c-1-0.1-1.8-0.5-2.5-1.1l0.7-1.6l-0.3-0.4c-1.1,1.1-2,2-2.7,2.8c-1.6-0.1-2.7-0.5-3.5-1.3C-682.7-208.5-683.1-209.4-683.1-210.6z
	 M-678.2-212.7c-0.4,0.7-0.7,1.4-0.7,2.1c0,0.7,0.2,1.2,0.6,1.5c0.7-0.5,1.7-1.3,3.1-2.4l0.1-1c-0.4-0.8-0.8-1.4-1.4-1.8
	C-677.2-214-677.7-213.4-678.2-212.7z"/>
<path style="fill:#4CAF50;" d="M-653.2-218.1c-1.1,0-1.8,0.1-2.4,0.2l-0.5,1.4l-0.4,2.6c2.2-0.4,3.6-0.6,4-0.6
	c0.2,0.2,0.4,0.4,0.4,0.8c0.1,0.6,0,1.2-0.4,1.8c-1.5-0.2-2.9-0.3-4.2-0.3l-0.6,3.8c2.4-0.4,4.3-0.8,5.6-1.2
	c0.4,0.1,0.7,0.4,0.8,0.8c0.2,0.7,0,1.5-0.6,2.3l-7,0.5c-1.8-0.5-2.7-1.3-2.8-2.5c0.1-0.2,0.2-0.5,0.4-1.1c0.2-0.5,0.3-0.9,0.3-1
	c0-0.1,0.1-0.4,0.3-0.8c0.1-0.4,0.2-0.7,0.3-0.9c0.1-0.2,0.1-0.5,0.2-0.8c0.1-0.4,0.2-0.7,0.3-1c0.1-0.3,0.2-0.7,0.3-1.1l-0.2-2.6
	c-0.4-0.2-0.9-0.3-1.3-0.4c-0.1-0.3-0.1-0.6-0.1-0.9c0-0.3,0.1-0.5,0.3-0.7c2.2-0.2,4-0.3,5.4-0.3c1.4,0,3.2,0,5.3,0.2
	c0.7,1.7,0.2,2.9-1.5,3.7L-653.2-218.1z M-653.6-226.1c0.9-0.1,1.6-0.1,2.1,0.1c0.5,0.2,0.9,0.6,1.2,1.2l-3.7,3.4
	c-0.4,0-0.7-0.1-1.1-0.2c-0.3-0.2-0.4-0.4-0.4-0.7l1.3-1.8L-653.6-226.1z"/>
<path style="fill:#4CAF50;" d="M-643.4-215.4L-643.4-215.4c-0.1,1-0.2,2.4-0.4,4c-0.2,1.6-0.2,2.6-0.3,2.9c0.9-0.5,1.9-1.1,2.8-1.9
	c0.5,0,0.8,0.2,1,0.4c0.2,0.2,0.2,0.6,0.2,1.3c-1.6,1.4-3.1,2.3-4.6,2.7c-1.8-0.2-3-0.9-3.5-2.3c0.8-2.1,1.4-4.3,1.9-6.4l-2.3,0.4
	c-0.3-0.4-0.5-0.7-0.5-1c0-0.3,0.1-0.7,0.4-1.2l2.5,0.1l-0.3-3.5c1-0.6,1.8-0.8,2.6-0.9c0.8,0,1.3,0.2,1.7,0.6l-0.9,3.2l3-0.6
	c0.5,0.5,0.5,1.2,0,2.2L-643.4-215.4z"/>
<path style="fill:#4CAF50;" d="M-637.5-212.2l-0.2-3.8c1.7-0.9,3.1-0.9,4.1-0.2l-0.9,3.4c-0.1,0.9-0.2,2.9-0.2,6.1
	c-0.6,0.5-1.3,0.7-2.3,0.5c-1-0.1-1.7-0.5-2.2-1C-638.4-209.3-637.8-211-637.5-212.2z M-633.3-219.9c0,0.6-0.2,1.1-0.6,1.5
	c-0.4,0.4-0.8,0.6-1.4,0.6c-0.5,0-1-0.2-1.4-0.6c-0.4-0.4-0.6-0.9-0.6-1.5c0-0.6,0.2-1.1,0.6-1.5c0.4-0.4,0.9-0.6,1.4-0.6
	c0.5,0,1,0.2,1.4,0.6C-633.5-221-633.3-220.5-633.3-219.9z"/>
<path style="fill:#4CAF50;" d="M-632.7-210.4c0-0.8,0.1-1.6,0.4-2.2s0.7-1.2,1.3-1.8c1.5-1.3,3.1-2.1,4.9-2.5
	c1.1,0.2,1.9,0.6,2.4,1.1c0.2,0.3,0.4,0.6,0.6,0.9c0.1,0.3,0.3,0.7,0.4,1.2c-0.1,0.7-0.6,1.2-1.2,1.5c-0.7,0.3-1.5,0.4-2.6,0.2
	c0.1-0.8-0.1-1.8-0.4-2.8l-0.6,0.2c-0.7,1.1-1,2.2-1.1,3.5c0,1,0.3,1.9,1,2.7c1.3-0.4,2.5-0.9,3.4-1.7c0.4,0,0.8,0.1,1,0.4
	c0.2,0.3,0.2,0.7,0.1,1.3c-0.5,0.6-1.2,1-2.1,1.5c-0.9,0.4-1.9,0.7-2.9,0.8c-1.6-0.2-2.7-0.7-3.4-1.4
	C-632.3-208.4-632.7-209.3-632.7-210.4z"/>
<path style="fill:#4CAF50;" d="M-621.7-210.6c0-1.5,0.6-2.8,1.9-4.1c1.3-1.3,3-2,5-2c0.5,0.5,1.1,1.2,1.6,2.3
	c-0.1-0.9,0.1-1.6,0.3-2.1c1.2-0.3,2.1-0.3,2.7-0.2c0.6,0.1,1,0.5,1.2,1.2l-1.7,3.3c0,1.7,0.1,3.6,0.3,5.6c-0.4,0.5-1,0.7-2,0.6
	c-1-0.1-1.8-0.5-2.5-1.1l0.7-1.6l-0.3-0.4c-1.1,1.1-2,2-2.7,2.8c-1.6-0.1-2.7-0.5-3.5-1.3C-621.3-208.5-621.7-209.4-621.7-210.6z
	 M-616.8-212.7c-0.4,0.7-0.7,1.4-0.7,2.1c0,0.7,0.2,1.2,0.6,1.5c0.7-0.5,1.7-1.3,3.1-2.4l0.1-1c-0.4-0.8-0.8-1.4-1.4-1.8
	C-615.7-214-616.3-213.4-616.8-212.7z"/>
<path style="fill:#4CAF50;" d="M-674.5-199.9L-674.5-199.9c0.3-1.7,0.5-2.9,0.7-3.6c1.2-0.2,2.1-0.2,2.7-0.1c0.6,0.1,1,0.4,1.3,0.8
	l-1.8,2.5c-0.6,3.4-0.9,5.7-0.9,7c-0.6,0.6-1.3,1.1-2.3,1.3c-0.9,0.3-2.1,0.4-3.6,0.4c-1.9-0.7-3-1.5-3.4-2.7c0.5-0.6,1.1-1,1.8-1.2
	c0.7-0.2,1.3-0.1,1.9,0.1c0.2,0.5,0.3,0.8,0.5,1.1s0.4,0.5,0.6,0.8c0.6,0,0.9-0.1,1.1-0.4c0.1-1.1,0.3-2,0.5-2.7l0.8-1.3l-0.3-0.2
	c-0.5,0.5-1.2,1.1-1.9,1.7c-1.2-0.1-2.1-0.3-2.9-0.7s-1.2-0.9-1.4-1.4l0.9-1.8c0-0.5-0.1-1-0.2-1.7c-0.1-0.7-0.2-1.2-0.2-1.5
	c0.4-0.1,0.9-0.2,1.5-0.2c0.6,0,1.1,0.1,1.7,0.2c0.5,0.2,1,0.4,1.3,0.7c-0.1,1.1-0.6,2.3-1.3,3.7c0.1,0.3,0.4,0.5,0.9,0.7
	C-675.7-198.8-675.1-199.3-674.5-199.9z"/>
<path style="fill:#4CAF50;" d="M-776.9-192.4l-0.3,0.1c-0.7,1.1-1.2,2.2-1.5,3.5c-0.3,1.2-0.5,2.5-0.5,3.6c0,1.2,0.1,2.1,0.4,2.9
	c0.3,0.7,0.7,1.4,1.3,1.9c1.2-0.7,2.3-1.5,3.1-2.4c0.4,0,0.7,0.1,0.9,0.4c0.2,0.3,0.3,0.8,0.2,1.5c-1.1,1.7-2.6,3-4.6,3.9
	c-1.6-0.3-2.8-1.2-3.7-2.6c-0.9-1.4-1.3-3.1-1.3-5.2c0-1.1,0.1-2.1,0.4-3.1c0.2-1,0.6-2.1,1.1-3.3c0.9-1.2,1.7-2,2.6-2.6
	c0.9-0.6,1.9-1,3-1.2c0.9,0.5,1.6,1.2,2.1,2.1c0.5,0.9,0.7,2,0.9,3.2c-0.2,0.7-0.6,1.2-1.3,1.5c-0.7,0.3-1.4,0.2-2.1-0.3
	C-776.3-190.4-776.5-191.7-776.9-192.4z"/>
<path style="fill:#4CAF50;" d="M-772.3-182.8c0-0.7,0.1-1.4,0.4-2.3c0.3-0.8,0.6-1.7,1.1-2.4c0.5-0.8,1-1.5,1.8-2
	c0.7-0.5,1.5-0.8,2.4-0.8s1.7,0.7,2.4,2.1c0.8,1.4,1.2,2.7,1.2,4c0,1.1-0.3,2.3-0.8,3.4c-0.5,1.1-1.2,2-2.1,2.8
	c-0.9,0.7-1.7,1.1-2.7,1.1c-0.9,0-1.8-0.6-2.6-1.9C-771.9-180-772.3-181.4-772.3-182.8z M-767.1-188c-0.5,0.8-1,1.7-1.3,2.7
	c-0.4,1-0.6,2-0.6,2.9c0,0.5,0.1,1,0.2,1.6c0.2,0.6,0.4,1.1,0.6,1.4c1-1.2,1.7-2.5,2-4.1c0-1.1-0.1-1.9-0.2-2.6
	C-766.6-186.7-766.8-187.4-767.1-188z"/>
<path style="fill:#4CAF50;" d="M-752.2-186.6l-0.7,3.7c0,1.9,0.1,3.7,0.4,5.3c-0.3,0.6-0.9,0.8-1.8,0.7c-0.9-0.1-1.6-0.6-2.2-1.3
	c0-1,0.2-2.3,0.4-3.7c0.2-1.4,0.4-2.5,0.6-3.4c-0.1-0.6-0.3-1-0.6-1.2c-0.6,0.5-1.3,1.3-2.1,2.5c0,1.6-0.1,3.7-0.3,6.4
	c-0.5,0.6-1.3,0.8-2.2,0.6c-1-0.2-1.6-0.6-1.8-1.2c0.6-2.2,1.1-4.4,1.5-6.7l-0.6-3.7c0.9-1.2,2-1.7,3.3-1.4c0.2,0.7,0.2,1.4,0.2,2
	l-0.6,1.1l0.2,0.5c0.9-1.3,1.8-2.5,2.8-3.6c0.9,0.1,1.6,0.5,2.2,1.1C-752.8-188.2-752.4-187.5-752.2-186.6z"/>
<path style="fill:#4CAF50;" d="M-744.9-189.1c0.5-0.8,1.1-1.2,1.8-1.4c0.7-0.1,1.2,0.1,1.6,0.7c-0.2,4.6-1.5,8.8-3.7,12.7
	c-0.8,0.3-1.7,0.2-2.5-0.2c-0.8-0.4-1.4-1.1-1.9-2c0.3-2.4,0.3-4.3,0-5.6l-1.4-2.5c0.7-2,1.8-2.9,3.4-2.8c0.9,2.1,1.3,5.4,1.1,9.8
	l0.2,0.2c1.1-1.9,1.8-3.9,2.1-6L-744.9-189.1z"/>
<path style="fill:#4CAF50;" d="M-739.9-184.5l-0.1-4.7c1.5-1.1,2.7-1.2,3.6-0.3l-0.8,4.3c-0.1,1.1-0.1,3.6-0.2,7.5
	c-0.5,0.6-1.2,0.8-2,0.6c-0.9-0.2-1.5-0.6-1.9-1.2C-740.6-180.8-740.1-182.9-739.9-184.5z M-736.2-194.1c0,0.7-0.2,1.3-0.5,1.8
	c-0.3,0.5-0.7,0.8-1.2,0.8c-0.5,0-0.9-0.3-1.2-0.8c-0.3-0.5-0.5-1.1-0.5-1.8c0-0.7,0.2-1.3,0.5-1.8c0.3-0.5,0.8-0.8,1.2-0.8
	c0.5,0,0.9,0.3,1.2,0.8C-736.3-195.4-736.2-194.8-736.2-194.1z"/>
<path style="fill:#4CAF50;" d="M-729.5-189.1c0.5-0.8,1.1-1.2,1.8-1.4c0.7-0.1,1.2,0.1,1.6,0.7c-0.2,4.6-1.5,8.8-3.7,12.7
	c-0.8,0.3-1.7,0.2-2.5-0.2c-0.8-0.4-1.4-1.1-1.9-2c0.3-2.4,0.3-4.3,0-5.6l-1.4-2.5c0.7-2,1.8-2.9,3.4-2.8c0.9,2.1,1.3,5.4,1.1,9.8
	l0.2,0.2c1.1-1.9,1.8-3.9,2.1-6L-729.5-189.1z"/>
<path style="fill:#4CAF50;" d="M-718.2-181.6c0.4,0,0.7,0.1,0.9,0.4c0.2,0.3,0.2,0.9,0.1,1.6c-0.5,0.7-1.2,1.3-2.1,1.8
	c-0.9,0.5-1.8,0.8-2.7,0.9c-1.2-0.3-2.2-0.9-2.8-1.9c-0.6-1-0.9-2.2-0.9-3.5c0.1-1.8,0.5-3.4,1.4-4.9c1.7-1.7,3.3-2.8,4.9-3.1
	c0.8,0.1,1.4,0.4,1.8,1c0.8,1.1,0.9,2.8,0.4,5c-0.6,0.5-1.4,1-2.3,1.5c-0.9,0.5-1.8,0.9-2.5,1.1c0.1,0.6,0.3,1.2,0.6,1.9
	C-720.4-180-719.3-180.6-718.2-181.6z M-720.7-187.6l-0.3,0.2c-0.7,1.2-1.1,2.6-1.2,4c0.7-0.4,1.4-0.9,2-1.4
	C-720-186-720.1-186.9-720.7-187.6z"/>
<path style="fill:#4CAF50;" d="M-705.8-186.6l-0.7,3.7c0,1.9,0.1,3.7,0.4,5.3c-0.3,0.6-0.9,0.8-1.8,0.7c-0.9-0.1-1.6-0.6-2.2-1.3
	c0-1,0.2-2.3,0.4-3.7c0.2-1.4,0.4-2.5,0.6-3.4c-0.1-0.6-0.3-1-0.6-1.2c-0.6,0.5-1.3,1.3-2.1,2.5c0,1.6-0.1,3.7-0.3,6.4
	c-0.5,0.6-1.3,0.8-2.2,0.6c-1-0.2-1.6-0.6-1.8-1.2c0.6-2.2,1.1-4.4,1.5-6.7l-0.6-3.7c0.9-1.2,2-1.7,3.3-1.4c0.2,0.7,0.2,1.4,0.2,2
	l-0.6,1.1l0.2,0.5c0.9-1.3,1.8-2.5,2.8-3.6c0.9,0.1,1.6,0.5,2.2,1.1C-706.4-188.2-706.1-187.5-705.8-186.6z"/>
<path style="fill:#4CAF50;" d="M-704.6-182.2c0-1,0.1-1.9,0.4-2.7c0.3-0.8,0.6-1.5,1.1-2.3c1.3-1.6,2.7-2.6,4.3-3.1
	c1,0.3,1.7,0.7,2.1,1.4c0.2,0.4,0.4,0.7,0.5,1.1c0.1,0.4,0.2,0.9,0.4,1.5c-0.1,0.9-0.5,1.5-1.1,1.8c-0.6,0.4-1.3,0.5-2.3,0.3
	c0.1-1-0.1-2.2-0.4-3.5l-0.5,0.2c-0.6,1.3-0.9,2.8-0.9,4.4c0,1.3,0.3,2.4,0.8,3.4c1.2-0.5,2.2-1.2,3-2.1c0.4,0,0.7,0.2,0.8,0.5
	c0.2,0.4,0.2,0.9,0.1,1.6c-0.5,0.7-1.1,1.3-1.9,1.8c-0.8,0.5-1.6,0.9-2.5,1c-1.4-0.2-2.4-0.8-3-1.8
	C-704.3-179.7-704.6-180.9-704.6-182.2z"/>
<path style="fill:#4CAF50;" d="M-693.9-184.5l-0.1-4.7c1.5-1.1,2.7-1.2,3.6-0.3l-0.8,4.3c-0.1,1.1-0.1,3.6-0.2,7.5
	c-0.5,0.6-1.2,0.8-2,0.6c-0.9-0.2-1.5-0.6-1.9-1.2C-694.6-180.8-694.1-182.9-693.9-184.5z M-690.2-194.1c0,0.7-0.2,1.3-0.5,1.8
	c-0.3,0.5-0.7,0.8-1.2,0.8c-0.5,0-0.9-0.3-1.2-0.8c-0.3-0.5-0.5-1.1-0.5-1.8c0-0.7,0.2-1.3,0.5-1.8c0.3-0.5,0.8-0.8,1.2-0.8
	c0.5,0,0.9,0.3,1.2,0.8C-690.3-195.4-690.2-194.8-690.2-194.1z"/>
<path style="fill:#4CAF50;" d="M-689.6-182.4c0-1.8,0.6-3.5,1.7-5.1c1.1-1.6,2.6-2.4,4.4-2.5c0.5,0.6,0.9,1.5,1.4,2.8
	c-0.1-1.1,0.1-2,0.3-2.6c1-0.3,1.8-0.4,2.4-0.2c0.5,0.2,0.9,0.7,1.1,1.4l-1.5,4c0,2.1,0.1,4.4,0.3,6.9c-0.3,0.6-0.9,0.8-1.8,0.7
	c-0.9-0.1-1.6-0.6-2.2-1.3l0.6-2l-0.3-0.4c-1,1.4-1.7,2.5-2.4,3.4c-1.4-0.1-2.4-0.6-3.1-1.6C-689.3-179.8-689.6-181-689.6-182.4z
	 M-685.3-185.1c-0.4,0.9-0.6,1.7-0.6,2.6s0.2,1.5,0.5,1.9c0.6-0.7,1.5-1.7,2.7-3l0.1-1.3c-0.3-1-0.7-1.8-1.2-2.2
	C-684.4-186.7-684.9-186-685.3-185.1z"/>
<path style="fill:#4CAF50;" d="M-665-192.4l-0.3,0.1c-0.7,1.1-1.2,2.2-1.5,3.5c-0.3,1.2-0.5,2.5-0.5,3.6c0,1.2,0.1,2.1,0.4,2.9
	c0.3,0.7,0.7,1.4,1.3,1.9c1.2-0.7,2.3-1.5,3.1-2.4c0.4,0,0.7,0.1,0.9,0.4c0.2,0.3,0.3,0.8,0.2,1.5c-1.1,1.7-2.6,3-4.6,3.9
	c-1.6-0.3-2.8-1.2-3.7-2.6c-0.9-1.4-1.3-3.1-1.3-5.2c0-1.1,0.1-2.1,0.4-3.1c0.2-1,0.6-2.1,1.1-3.3c0.9-1.2,1.7-2,2.6-2.6
	c0.9-0.6,1.9-1,3-1.2c0.9,0.5,1.6,1.2,2.1,2.1c0.5,0.9,0.7,2,0.9,3.2c-0.2,0.7-0.6,1.2-1.3,1.5c-0.7,0.3-1.4,0.2-2.1-0.3
	C-664.4-190.4-664.6-191.7-665-192.4z"/>
<path style="fill:#4CAF50;" d="M-659.1-184.5l-0.1-4.7c1.5-1.1,2.7-1.2,3.6-0.3l-0.8,4.3c-0.1,1.1-0.1,3.6-0.2,7.5
	c-0.5,0.6-1.2,0.8-2,0.6c-0.9-0.2-1.5-0.6-1.9-1.2C-659.8-180.8-659.3-182.9-659.1-184.5z M-655.4-194.1c0,0.7-0.2,1.3-0.5,1.8
	c-0.3,0.5-0.7,0.8-1.2,0.8c-0.5,0-0.9-0.3-1.2-0.8c-0.3-0.5-0.5-1.1-0.5-1.8c0-0.7,0.2-1.3,0.5-1.8c0.3-0.5,0.8-0.8,1.2-0.8
	c0.5,0,0.9,0.3,1.2,0.8C-655.5-195.4-655.4-194.8-655.4-194.1z"/>
<path style="fill:#4CAF50;" d="M-653.9-184.2l-0.3-5.5c0.6-0.4,1.4-0.5,2.2-0.3c0.8,0.2,1.4,0.7,1.7,1.4c0,0.8-0.1,1.9-0.4,3.3
	c-0.3,1.4-0.6,2.6-1,3.6c0.1,0.5,0.4,0.9,1.1,1.2c0.9-1.4,1.5-2.4,1.8-3c0.3-2.8,0.6-4.8,0.9-6.2c1.1-0.3,1.9-0.3,2.4-0.2
	c0.6,0.2,0.9,0.6,1.1,1.3l-1.4,4c0,2.1,0.2,4.4,0.5,6.9c-0.3,0.6-0.9,0.8-1.8,0.7c-0.9-0.1-1.6-0.6-2.2-1.3l0.6-2.1l-0.2-0.2
	c-0.2,0.4-0.9,1.6-2.1,3.7c-2.4-0.4-3.7-1.7-4-3.8L-653.9-184.2z"/>
<path style="fill:#4CAF50;" d="M-635.6-189.5l-0.2-6.4c1.5-1,2.8-1.2,3.7-0.6l-1.1,5.8c-0.1,1-0.4,5.4-0.9,13.1
	c-0.4,0.6-1.1,0.8-2,0.7c-0.9-0.1-1.6-0.5-2-1.3l0.9-1.9l-0.2-0.4c-0.9,1.2-1.6,2.3-2.3,3.3c-1.3,0-2.3-0.5-3-1.5
	c-0.7-1-1-2.2-1-3.6c0-0.9,0.2-1.8,0.5-2.7c0.3-0.9,0.7-1.7,1.2-2.4c0.5-0.7,1.2-1.3,2-1.8c0.8-0.5,1.6-0.7,2.6-0.7
	c0.5,0.7,1,1.8,1.4,3.2C-635.8-187.8-635.7-188.7-635.6-189.5z M-636.7-183.7l0.3-1.3c-0.5-1.1-0.9-1.8-1.4-2.2
	c-0.6,0.5-1.2,1.2-1.5,2c-0.4,0.9-0.6,1.7-0.6,2.6c0,0.9,0.2,1.5,0.5,1.9C-638.6-181.4-637.7-182.4-636.7-183.7z"/>
<path style="fill:#4CAF50;" d="M-632.3-182.4c0-1.8,0.6-3.5,1.7-5.1c1.1-1.6,2.6-2.4,4.4-2.5c0.5,0.6,0.9,1.5,1.4,2.8
	c-0.1-1.1,0.1-2,0.3-2.6c1-0.3,1.8-0.4,2.4-0.2c0.5,0.2,0.9,0.7,1.1,1.4l-1.5,4c0,2.1,0.1,4.4,0.3,6.9c-0.3,0.6-0.9,0.8-1.8,0.7
	c-0.9-0.1-1.6-0.6-2.2-1.3l0.6-2l-0.3-0.4c-1,1.4-1.7,2.5-2.4,3.4c-1.4-0.1-2.4-0.6-3.1-1.6C-632-179.8-632.3-181-632.3-182.4z
	 M-628-185.1c-0.4,0.9-0.6,1.7-0.6,2.6s0.2,1.5,0.5,1.9c0.6-0.7,1.5-1.7,2.7-3l0.1-1.3c-0.3-1-0.7-1.8-1.2-2.2
	C-627.1-186.7-627.6-186-628-185.1z"/>
<path style="fill:#4CAF50;" d="M-612.5-189.5l-0.2-6.4c1.5-1,2.8-1.2,3.7-0.6l-1.1,5.8c-0.1,1-0.4,5.4-0.9,13.1
	c-0.4,0.6-1,0.8-2,0.7c-0.9-0.1-1.6-0.5-2-1.3l1-1.9l-0.2-0.4c-0.9,1.2-1.6,2.3-2.3,3.3c-1.3,0-2.3-0.5-3-1.5c-0.7-1-1-2.2-1-3.6
	c0-0.9,0.2-1.8,0.5-2.7c0.3-0.9,0.7-1.7,1.2-2.4c0.5-0.7,1.2-1.3,2-1.8c0.8-0.5,1.6-0.7,2.6-0.7c0.5,0.7,1,1.8,1.4,3.2
	C-612.7-187.8-612.6-188.7-612.5-189.5z M-613.6-183.7l0.3-1.3c-0.5-1.1-0.9-1.8-1.4-2.2c-0.6,0.5-1.2,1.2-1.5,2
	c-0.4,0.9-0.6,1.7-0.6,2.6c0,0.9,0.2,1.5,0.5,1.9C-615.5-181.4-614.6-182.4-613.6-183.7z"/>
<path style="fill:#4CAF50;" d="M-609.2-182.4c0-1.8,0.6-3.5,1.7-5.1c1.1-1.6,2.6-2.4,4.4-2.5c0.5,0.6,0.9,1.5,1.4,2.8
	c-0.1-1.1,0.1-2,0.3-2.6c1-0.3,1.8-0.4,2.4-0.2c0.5,0.2,0.9,0.7,1.1,1.4l-1.5,4c0,2.1,0.1,4.4,0.3,6.9c-0.3,0.6-0.9,0.8-1.8,0.7
	c-0.9-0.1-1.6-0.6-2.2-1.3l0.6-2l-0.3-0.4c-1,1.4-1.7,2.5-2.4,3.4c-1.4-0.1-2.4-0.6-3.1-1.6C-608.8-179.8-609.2-181-609.2-182.4z
	 M-604.9-185.1c-0.4,0.9-0.6,1.7-0.6,2.6s0.2,1.5,0.5,1.9c0.6-0.7,1.5-1.7,2.7-3l0.1-1.3c-0.3-1-0.7-1.8-1.2-2.2
	C-604-186.7-604.5-186-604.9-185.1z"/>
<path style="fill:#4CAF50;" d="M-587.2-186.6l-0.7,3.7c0,1.9,0.1,3.7,0.4,5.3c-0.3,0.6-0.9,0.8-1.8,0.7c-0.9-0.1-1.6-0.6-2.2-1.3
	c0-1,0.2-2.3,0.4-3.7c0.2-1.4,0.4-2.5,0.6-3.4c-0.1-0.6-0.3-1-0.6-1.2c-0.6,0.5-1.3,1.3-2.1,2.5c0,1.6-0.1,3.7-0.3,6.4
	c-0.5,0.6-1.3,0.8-2.2,0.6c-1-0.2-1.6-0.6-1.8-1.2c0.6-2.2,1.1-4.4,1.5-6.7l-0.6-3.7c0.9-1.2,2-1.7,3.3-1.4c0.2,0.7,0.2,1.4,0.2,2
	l-0.6,1.1l0.2,0.5c0.9-1.3,1.8-2.5,2.8-3.6c0.9,0.1,1.6,0.5,2.2,1.1C-587.9-188.2-587.5-187.5-587.2-186.6z"/>
<path style="fill:#4CAF50;" d="M-586-182.4c0-1.8,0.6-3.5,1.7-5.1c1.1-1.6,2.6-2.4,4.4-2.5c0.5,0.6,0.9,1.5,1.4,2.8
	c-0.1-1.1,0.1-2,0.3-2.6c1-0.3,1.8-0.4,2.4-0.2c0.5,0.2,0.9,0.7,1.1,1.4l-1.5,4c0,2.1,0.1,4.4,0.3,6.9c-0.3,0.6-0.9,0.8-1.8,0.7
	c-0.9-0.1-1.6-0.6-2.2-1.3l0.6-2l-0.3-0.4c-1,1.4-1.7,2.5-2.4,3.4c-1.4-0.1-2.4-0.6-3.1-1.6C-585.7-179.8-586-181-586-182.4z
	 M-581.7-185.1c-0.4,0.9-0.6,1.7-0.6,2.6s0.2,1.5,0.5,1.9c0.6-0.7,1.5-1.7,2.7-3l0.1-1.3c-0.3-1-0.7-1.8-1.2-2.2
	C-580.9-186.7-581.4-186-581.7-185.1z"/>
</svg>
