<?xml version="1.0" encoding="iso-8859-1"?>
<!-- Generator: Adobe Illustrator 21.0.0, SVG Export Plug-In . SVG Version: 6.00 Build 0)  -->
<svg version="1.1" id="Capa_1" xmlns="http://www.w3.org/2000/svg" xmlns:xlink="http://www.w3.org/1999/xlink" x="0px" y="0px"
	 viewBox="0 0 512.007 512.007" style="enable-background:new 0 0 512.007 512.007;" xml:space="preserve">
<g transform="translate(-1)">
	<g>
		<g>
			<path d="M504.473,494.937h-25.822c21.592-16.051,34.33-41.362,34.355-68.267c0.051-28.329-13.985-54.83-37.448-70.704
				c-23.464-15.875-53.284-19.045-79.561-8.459l-56.653-108.57h45.662c4.713,0,8.533-3.82,8.533-8.533s-3.82-8.533-8.533-8.533
				h-45.662c-5.969-0.001-11.505,3.117-14.599,8.222c-3.093,5.105-3.295,11.456-0.531,16.746l13.687,26.231H177.288l-9.958-17.067
				h21.41c4.713,0,8.533-3.82,8.533-8.533s-3.82-8.533-8.533-8.533h-59.733c-4.713,0-8.533,3.82-8.533,8.533s3.82,8.533,8.533,8.533
				h18.569l14.797,25.361l-42.803,66.714c-39.73-16.867-85.798-1.379-107.268,36.065c-21.47,37.444-11.566,85.026,23.061,110.794
				H9.54c-4.713,0-8.533,3.82-8.533,8.533s3.82,8.533,8.533,8.533h494.933c4.713,0,8.533-3.82,8.533-8.533
				S509.186,494.937,504.473,494.937z M335.189,290.137l-67.413,104.218c-6.053-2.045-12.56-2.34-18.773-0.853
				c-0.427,0.102-0.802,0.307-1.22,0.427l-60.544-103.791H335.189z M265.336,441.557c-6.771,3.795-15.249,2.544-20.635-3.045
				c-5.386-5.589-6.321-14.109-2.278-20.734l0.026-0.009c2.349-3.866,6.147-6.632,10.547-7.68c1.313-0.319,2.659-0.482,4.011-0.486
				c7.762,0.007,14.541,5.251,16.499,12.762C275.463,429.876,272.106,437.762,265.336,441.557z M172.032,297.919l61.013,104.585
				c-4.46,4.211-7.57,9.652-8.934,15.633h-52.907c-2.534-25-15.959-47.612-36.693-61.807L172.032,297.919z M125.303,370.709
				c15.849,11.036,26.283,28.269,28.715,47.428H94.873L125.303,370.709z M82.062,494.398c-35.816-2.248-63.776-31.843-63.989-67.728
				c0.042-37.685,30.582-68.224,68.267-68.267c8.131,0.014,16.194,1.494,23.799,4.369l-29.585,46.08
				c-3.394,5.235-3.661,11.906-0.696,17.396c2.965,5.49,8.69,8.924,14.929,8.955h59.23
				C149.32,470.781,117.878,496.647,82.062,494.398z M137.318,494.937c19.186-14.271,31.494-35.945,33.92-59.733h52.77
				c3.862,15.043,17.408,25.571,32.939,25.6c2.716-0.004,5.423-0.327,8.064-0.964c11.796-2.744,21.231-11.573,24.752-23.16
				c3.52-11.588,0.591-24.173-7.685-33.015l68.651-106.095l30.165,57.822c-23.293,15.219-37.674,40.865-38.511,68.677
				s11.976,54.276,34.312,70.868H137.318z M427.673,494.937c-37.703,0-68.267-30.564-68.267-68.267
				c0.012-22.373,10.998-43.318,29.397-56.047l31.3,59.998c2.182,4.18,7.34,5.8,11.52,3.618c4.18-2.182,5.8-7.34,3.618-11.52
				l-31.3-59.972c7.586-2.858,15.624-4.329,23.731-4.343c37.703,0,68.267,30.564,68.267,68.267S465.376,494.937,427.673,494.937z"/>
			<path d="M111.94,170.67c32.99,0,59.733-26.744,59.733-59.733S144.93,51.203,111.94,51.203s-59.733,26.744-59.733,59.733
				C52.249,143.909,78.968,170.628,111.94,170.67z M111.94,68.27c23.564,0,42.667,19.103,42.667,42.667
				s-19.103,42.667-42.667,42.667s-42.667-19.103-42.667-42.667C69.302,87.384,88.388,68.298,111.94,68.27z"/>
			<path d="M111.94,34.137c4.713,0,8.533-3.821,8.533-8.533V8.537c0-4.713-3.82-8.533-8.533-8.533s-8.533,3.82-8.533,8.533v17.067
				C103.407,30.316,107.227,34.137,111.94,34.137z"/>
			<path d="M61.875,41.305c1.526,2.643,4.347,4.27,7.398,4.267c3.047-0.003,5.861-1.631,7.384-4.27
				c1.522-2.64,1.521-5.891-0.002-8.53l-8.533-14.788c-2.372-4.047-7.566-5.42-11.628-3.074c-4.062,2.345-5.47,7.53-3.151,11.608
				L61.875,41.305z"/>
			<path d="M18.986,67.127l14.788,8.533c4.078,2.318,9.262,0.911,11.608-3.151c2.345-4.062,0.972-9.256-3.074-11.628L27.52,52.347
				c-4.078-2.318-9.262-0.911-11.608,3.151S14.94,64.754,18.986,67.127z"/>
			<path d="M9.54,119.47h17.067c4.713,0,8.533-3.82,8.533-8.533s-3.821-8.533-8.533-8.533H9.54c-4.713,0-8.533,3.82-8.533,8.533
				S4.827,119.47,9.54,119.47z"/>
			<path d="M42.341,146.176c-2.655-1.525-5.924-1.511-8.566,0.038l-14.788,8.533c-2.662,1.513-4.309,4.337-4.316,7.399
				s1.628,5.893,4.283,7.418c2.655,1.525,5.924,1.511,8.566-0.038l14.788-8.533c2.662-1.513,4.309-4.337,4.316-7.399
				S44.996,147.701,42.341,146.176z"/>
			<path d="M60.731,208.206c3.062-0.007,5.886-1.654,7.399-4.316l8.533-14.788c2.318-4.078,0.911-9.262-3.151-11.608
				c-4.062-2.345-9.256-0.972-11.628,3.074l-8.533,14.788c-1.549,2.642-1.563,5.911-0.038,8.566
				C54.837,206.578,57.668,208.213,60.731,208.206z"/>
			<path d="M103.407,196.27v17.067c0,4.713,3.82,8.533,8.533,8.533s8.533-3.821,8.533-8.533V196.27c0-4.713-3.82-8.533-8.533-8.533
				S103.407,191.557,103.407,196.27z"/>
			<path d="M161.997,180.569c-2.357-4.081-7.575-5.48-11.657-3.123c-4.081,2.357-5.479,7.575-3.123,11.657l8.533,14.788
				c1.513,2.662,4.337,4.309,7.399,4.316c3.062,0.007,5.893-1.628,7.418-4.283c1.525-2.655,1.511-5.924-0.038-8.566L161.997,180.569
				z"/>
			<path d="M190.105,146.214c-4.078-2.318-9.262-0.911-11.608,3.151c-2.345,4.062-0.972,9.256,3.074,11.628l14.788,8.533
				c1.296,0.752,2.768,1.147,4.267,1.143c3.862,0,7.243-2.594,8.242-6.325c1-3.731-0.631-7.667-3.976-9.599L190.105,146.214z"/>
			<path d="M188.74,110.937c0,4.713,3.82,8.533,8.533,8.533h17.067c4.713,0,8.533-3.82,8.533-8.533s-3.821-8.533-8.533-8.533
				h-17.067C192.561,102.403,188.74,106.224,188.74,110.937z"/>
			<path d="M181.54,75.698c2.655,1.525,5.924,1.511,8.566-0.038l14.788-8.533c2.662-1.513,4.309-4.337,4.316-7.399
				c0.007-3.062-1.628-5.893-4.283-7.418c-2.655-1.525-5.924-1.511-8.566,0.038l-14.788,8.533c-2.662,1.513-4.309,4.337-4.316,7.399
				C177.25,71.342,178.884,74.173,181.54,75.698z"/>
			<path d="M154.607,45.571c3.052,0.003,5.873-1.624,7.398-4.267l8.533-14.788c1.549-2.642,1.563-5.911,0.038-8.566
				c-1.525-2.655-4.356-4.29-7.418-4.283s-5.886,1.654-7.399,4.316l-8.533,14.788c-1.524,2.639-1.524,5.89-0.002,8.53
				S151.56,45.568,154.607,45.571z"/>
		</g>
	</g>
</g>
<g>
</g>
<g>
</g>
<g>
</g>
<g>
</g>
<g>
</g>
<g>
</g>
<g>
</g>
<g>
</g>
<g>
</g>
<g>
</g>
<g>
</g>
<g>
</g>
<g>
</g>
<g>
</g>
<g>
</g>
</svg>
